<svg width="241" height="84" viewBox="0 0 241 84" fill="none" xmlns="http://www.w3.org/2000/svg">
<g clip-path="url(#clip0_9_226)">
<path d="M107.177 12.1092H104.362V39.0363H108.824V26.874H118.862V22.8907H108.824V16.1987H119.233V12.1092H108.824H107.177Z" fill="#032933"/>
<path d="M133.095 21.5629C131.98 21.138 130.705 20.9256 129.218 20.9256C127.572 20.9256 126.138 21.138 124.863 21.616C123.589 22.094 122.579 22.572 121.783 23.05L123.482 25.9711C123.748 25.8118 124.12 25.5462 124.651 25.2807C125.182 25.0151 125.819 24.8027 126.563 24.5902C127.306 24.3778 128.05 24.3247 128.9 24.3247C129.431 24.3247 129.962 24.3778 130.387 24.484C130.865 24.5902 131.236 24.7496 131.555 24.962C131.874 25.1745 132.139 25.4931 132.352 25.8649C132.564 26.2367 132.617 26.6616 132.617 27.2458V29.4233C132.086 29.1046 131.396 28.786 130.546 28.5735C129.696 28.308 128.687 28.2018 127.466 28.2018C125.235 28.2018 123.535 28.7329 122.367 29.742C121.145 30.7511 120.561 32.132 120.561 33.8315C120.561 35.053 120.827 36.0621 121.411 36.9119C121.995 37.7617 122.739 38.399 123.695 38.8239C124.651 39.2488 125.66 39.4612 126.775 39.4612C127.784 39.4612 128.793 39.2488 129.803 38.877C130.812 38.5052 131.608 37.921 132.246 37.1775C132.405 37.0181 132.511 36.8588 132.617 36.6995V39.0895H136.707V26.396C136.707 25.2276 136.388 24.2185 135.751 23.4218C135.114 22.6251 134.211 21.9878 133.095 21.5629ZM131.98 34.3095C131.555 34.9468 131.024 35.4779 130.334 35.7966C129.643 36.1153 128.9 36.2746 128.103 36.2746C127.466 36.2746 126.881 36.1684 126.403 35.9559C125.925 35.7435 125.501 35.4248 125.235 34.9999C124.969 34.575 124.81 34.0439 124.81 33.4597C124.81 32.8755 124.969 32.3975 125.235 32.0257C125.501 31.654 125.925 31.3353 126.457 31.1228C126.988 30.9104 127.678 30.8042 128.581 30.8042C129.59 30.8042 130.546 30.9104 131.449 31.176C131.874 31.2822 132.299 31.4415 132.724 31.654V31.9195C132.617 32.9286 132.405 33.6722 131.98 34.3095Z" fill="#032933"/>
<path d="M150.675 29.742C149.878 29.264 148.975 28.8391 147.966 28.4673C147.223 28.2018 146.585 27.9362 146.001 27.6706C145.417 27.4051 144.939 27.1395 144.62 26.8209C144.249 26.5022 144.089 26.1304 144.089 25.7056C144.089 25.2276 144.302 24.8558 144.673 24.5902C145.045 24.3247 145.523 24.2184 146.161 24.2184C147.01 24.2184 147.86 24.4309 148.71 24.8558C149.507 25.2807 150.25 25.8649 150.834 26.5553L153.118 24.1122C152.64 23.528 152.056 22.9969 151.365 22.5189C150.675 22.0409 149.878 21.6691 149.029 21.4036C148.179 21.138 147.276 20.9787 146.267 20.9787C145.205 20.9787 144.195 21.138 143.24 21.5098C142.284 21.8816 141.54 22.4127 141.009 23.1031C140.478 23.8467 140.159 24.6964 140.159 25.8118C140.159 26.874 140.425 27.7238 140.903 28.4142C141.381 29.1046 142.018 29.6889 142.815 30.1137C143.611 30.5386 144.408 30.9104 145.205 31.2291C146.001 31.4946 146.692 31.8133 147.276 32.0788C147.86 32.3444 148.338 32.663 148.657 33.0348C148.975 33.4066 149.135 33.8315 149.135 34.3626C149.135 34.9468 148.922 35.4248 148.497 35.7435C148.073 36.0621 147.488 36.2215 146.745 36.2215C146.161 36.2215 145.576 36.1152 144.992 35.9028C144.408 35.6904 143.824 35.3717 143.24 34.8937C142.655 34.4688 142.071 33.9377 141.54 33.3004L139.097 35.7435C139.628 36.4339 140.265 37.0712 141.009 37.6555C141.752 38.2397 142.655 38.7708 143.664 39.1426C144.673 39.5143 145.789 39.7268 147.01 39.7268C148.975 39.7268 150.516 39.1957 151.631 38.1866C152.746 37.1775 153.331 35.8497 153.331 34.1501C153.331 33.0879 153.065 32.1851 152.587 31.5477C152.109 30.9104 151.525 30.1668 150.675 29.742Z" fill="#032933"/>
<path d="M160.978 15.1896H156.836V21.3505H153.862V25.0151H156.836V39.0363H160.978V25.0151H163.953V21.3505H160.978V15.1896Z" fill="#032933"/>
<path d="M172.928 12.1092H170.114V39.0363H172.928H174.575H186.525V35.053H174.575V26.5553H185.728V22.6251H174.575V16.0925H186.525V12.1092H174.575H172.928Z" fill="#032933"/>
<path d="M201.927 21.5629C200.812 21.138 199.537 20.9256 198.05 20.9256C196.403 20.9256 194.969 21.138 193.695 21.616C192.42 22.094 191.411 22.572 190.614 23.05L192.314 25.9711C192.579 25.8118 192.951 25.5462 193.482 25.2807C194.013 25.0151 194.651 24.8027 195.394 24.5902C196.138 24.3778 196.881 24.3247 197.731 24.3247C198.262 24.3247 198.793 24.3778 199.218 24.484C199.696 24.5902 200.068 24.7496 200.387 24.962C200.705 25.1745 200.971 25.4931 201.183 25.8649C201.396 26.2367 201.449 26.6616 201.449 27.2458V29.4233C200.918 29.1046 200.227 28.786 199.378 28.5735C198.528 28.308 197.519 28.2018 196.297 28.2018C194.066 28.2018 192.367 28.7329 191.198 29.742C189.977 30.7511 189.393 32.132 189.393 33.8315C189.393 35.053 189.658 36.0621 190.242 36.9119C190.827 37.7617 191.57 38.399 192.526 38.8239C193.482 39.2488 194.491 39.4612 195.607 39.4612C196.616 39.4612 197.625 39.2488 198.634 38.877C199.643 38.5052 200.44 37.921 201.077 37.1775C201.236 37.0181 201.343 36.8588 201.449 36.6995V39.0895H205.538V26.396C205.538 25.2276 205.22 24.2185 204.582 23.4218C203.945 22.6251 203.042 21.9878 201.927 21.5629ZM200.811 34.3095C200.387 34.9468 199.856 35.4779 199.165 35.7966C198.475 36.1153 197.731 36.2746 196.934 36.2746C196.297 36.2746 195.713 36.1684 195.235 35.9559C194.757 35.7435 194.332 35.4248 194.066 34.9999C193.801 34.575 193.642 34.0439 193.642 33.4597C193.642 32.8755 193.801 32.3975 194.066 32.0257C194.332 31.654 194.757 31.3353 195.288 31.1228C195.819 30.9104 196.51 30.8042 197.412 30.8042C198.422 30.8042 199.378 30.9104 200.28 31.176C200.705 31.2822 201.13 31.4415 201.555 31.654V31.9195C201.449 32.9286 201.236 33.6722 200.811 34.3095Z" fill="#032933"/>
<path d="M219.506 29.742C218.71 29.264 217.807 28.8391 216.798 28.4673C216.054 28.2018 215.417 27.9362 214.833 27.6706C214.249 27.4051 213.771 27.1395 213.452 26.8209C213.08 26.5022 212.921 26.1304 212.921 25.7056C212.921 25.2276 213.133 24.8558 213.505 24.5902C213.877 24.3247 214.355 24.2184 214.992 24.2184C215.842 24.2184 216.692 24.4309 217.541 24.8558C218.338 25.2807 219.082 25.8649 219.666 26.5553L221.95 24.1122C221.472 23.528 220.887 22.9969 220.197 22.5189C219.506 22.0409 218.71 21.6691 217.86 21.4036C217.01 21.138 216.107 20.9787 215.098 20.9787C214.036 20.9787 213.027 21.138 212.071 21.5098C211.115 21.8816 210.371 22.4127 209.84 23.1031C209.309 23.8467 208.991 24.6964 208.991 25.8118C208.991 26.874 209.256 27.7238 209.734 28.4142C210.212 29.1046 210.849 29.6889 211.646 30.1137C212.443 30.5386 213.239 30.9104 214.036 31.2291C214.833 31.4946 215.523 31.8133 216.107 32.0788C216.692 32.3444 217.17 32.663 217.488 33.0348C217.807 33.4066 217.966 33.8315 217.966 34.3626C217.966 34.9468 217.754 35.4248 217.329 35.7435C216.904 36.0621 216.32 36.2215 215.576 36.2215C214.992 36.2215 214.408 36.1152 213.824 35.9028C213.239 35.6904 212.655 35.3717 212.071 34.8937C211.487 34.4688 210.903 33.9377 210.371 33.3004L207.928 35.7435C208.459 36.4339 209.097 37.0712 209.84 37.6555C210.584 38.2397 211.487 38.7708 212.496 39.1426C213.505 39.5143 214.62 39.7268 215.842 39.7268C217.807 39.7268 219.347 39.1957 220.462 38.1866C221.578 37.1775 222.162 35.8497 222.162 34.1501C222.162 33.0879 221.896 32.1851 221.418 31.5477C220.94 30.9104 220.356 30.1668 219.506 29.742Z" fill="#032933"/>
<path d="M236.183 21.3505L231.616 32.8224L226.942 21.3505H222.162L229.279 36.965L224.658 47.5341H229.119L240.645 21.3505H236.183Z" fill="#032933"/>
<path d="M105.478 45.1972H104.362V72.1774H106.434V58.5811H116.897V56.5629H106.434V47.2154H117.268V45.1972H106.434H105.478Z" fill="#032933"/>
<path d="M123.27 45.0379C122.898 45.0379 122.526 45.1972 122.261 45.4628C121.995 45.7283 121.836 46.047 121.836 46.4719C121.836 46.8436 121.995 47.2154 122.261 47.481C122.526 47.7465 122.898 47.9058 123.27 47.9058C123.695 47.9058 124.013 47.7465 124.279 47.481C124.545 47.2154 124.704 46.8436 124.704 46.4719C124.704 46.047 124.545 45.7283 124.279 45.4628C124.013 45.1441 123.695 45.0379 123.27 45.0379Z" fill="#032933"/>
<path d="M124.279 54.4385H122.261V72.1243H124.279V54.4385Z" fill="#032933"/>
<path d="M137.663 54.0667C136.335 54.0667 135.22 54.4385 134.211 55.1289C133.202 55.8724 132.458 56.8284 131.98 58.1562V54.4385H129.962V72.1243H131.98V61.3428C131.98 60.3337 132.193 59.3777 132.671 58.5811C133.095 57.7844 133.733 57.094 134.529 56.616C135.326 56.138 136.229 55.9256 137.185 55.9256C138.619 55.9256 139.681 56.3504 140.318 57.2002C141.009 58.05 141.328 59.2184 141.328 60.7586V72.1774H143.346V60.5462C143.346 58.5811 142.868 56.9878 141.859 55.8193C140.956 54.6509 139.522 54.0667 137.663 54.0667Z" fill="#032933"/>
<path d="M158.057 54.704C157.101 54.2791 155.986 54.0667 154.605 54.0667C153.065 54.0667 151.737 54.2791 150.675 54.7571C149.613 55.2351 148.763 55.7131 148.073 56.138L149.082 57.6251C149.4 57.3595 149.825 57.094 150.356 56.8284C150.834 56.5629 151.472 56.2973 152.162 56.0849C152.853 55.8724 153.649 55.7662 154.499 55.7662C155.349 55.7662 156.039 55.8724 156.677 56.138C157.261 56.3504 157.739 56.6691 158.057 57.0409C158.376 57.4127 158.642 57.8375 158.801 58.3155C158.96 58.7935 159.013 59.2715 159.013 59.8026V62.7768C158.907 62.7237 158.801 62.6175 158.642 62.5644C158.111 62.2457 157.42 61.9271 156.57 61.6615C155.721 61.396 154.765 61.2366 153.596 61.2366C151.525 61.2366 149.931 61.7146 148.71 62.7237C147.541 63.7328 146.904 65.0606 146.904 66.8132C146.904 68.0879 147.17 69.097 147.754 69.9468C148.338 70.7434 149.082 71.3808 149.985 71.8056C150.887 72.2305 151.897 72.443 152.853 72.443C153.862 72.443 154.871 72.2305 155.88 71.8056C156.889 71.3808 157.739 70.6903 158.376 69.7874C158.588 69.5219 158.748 69.2032 158.907 68.8315V72.0712H160.925V59.5371C160.925 58.3686 160.66 57.3595 160.182 56.5098C159.704 55.7662 159.013 55.182 158.057 54.704ZM158.217 68.0879C157.686 68.9908 157.048 69.6812 156.199 70.1061C155.349 70.5841 154.446 70.7965 153.437 70.7965C152.64 70.7965 151.843 70.6372 151.206 70.3717C150.516 70.053 149.985 69.6281 149.613 69.0439C149.188 68.4597 149.029 67.7161 149.029 66.8664C149.029 65.9635 149.241 65.2199 149.666 64.6888C150.091 64.1046 150.622 63.6797 151.365 63.4142C152.109 63.1486 152.959 62.9893 153.968 62.9893C155.03 62.9893 156.092 63.1486 157.048 63.4142C157.739 63.6266 158.376 63.8922 159.013 64.2639V64.795C159.013 66.0697 158.748 67.185 158.217 68.0879Z" fill="#032933"/>
<path d="M173.406 54.0667C172.079 54.0667 170.963 54.4385 169.954 55.1289C168.945 55.8724 168.202 56.8284 167.724 58.1562V54.4385H165.705V72.1243H167.724V61.3428C167.724 60.3337 167.936 59.3777 168.414 58.5811C168.839 57.7844 169.476 57.094 170.273 56.616C171.07 56.138 171.972 55.9256 172.928 55.9256C174.362 55.9256 175.425 56.3504 176.062 57.2002C176.752 58.05 177.071 59.2184 177.071 60.7586V72.1774H179.089V60.5462C179.089 58.5811 178.611 56.9878 177.602 55.8193C176.646 54.6509 175.265 54.0667 173.406 54.0667Z" fill="#032933"/>
<path d="M191.783 54.0667C190.083 54.0667 188.543 54.4916 187.162 55.2351C185.781 56.0318 184.719 57.1471 183.922 58.528C183.126 59.9089 182.701 61.5022 182.701 63.3079C182.701 65.0606 183.126 66.6539 183.922 68.0879C184.719 69.4688 185.834 70.5841 187.162 71.3808C188.543 72.1774 190.083 72.5492 191.783 72.5492C193.057 72.5492 194.279 72.3368 195.394 71.9119C196.51 71.487 197.359 70.9559 197.89 70.3185V67.8223C197.625 68.3003 197.2 68.7252 196.616 69.2032C196.032 69.6281 195.288 69.9999 194.491 70.3185C193.695 70.5841 192.792 70.7434 191.836 70.7434C190.508 70.7434 189.286 70.4248 188.224 69.7874C187.162 69.1501 186.312 68.3003 185.728 67.185C185.091 66.0697 184.825 64.795 184.825 63.3611C184.825 61.9271 185.144 60.6524 185.728 59.5371C186.365 58.4218 187.162 57.572 188.224 56.9347C189.286 56.2973 190.508 55.9787 191.836 55.9787C192.792 55.9787 193.695 56.138 194.491 56.4035C195.288 56.6691 196.032 57.0409 196.616 57.4658C197.2 57.8906 197.625 58.3686 197.89 58.8466V56.3504C197.359 55.7131 196.51 55.182 195.394 54.7571C194.226 54.2791 193.057 54.0667 191.783 54.0667Z" fill="#032933"/>
<path d="M216.267 58.2624C215.576 56.9347 214.62 55.9256 213.399 55.182C212.177 54.4385 210.743 54.0667 209.15 54.0667C207.503 54.0667 206.016 54.4385 204.742 55.2351C203.467 56.0318 202.458 57.094 201.714 58.4749C200.971 59.8557 200.652 61.4491 200.652 63.2548C200.652 65.0606 201.024 66.6539 201.714 68.0348C202.405 69.4157 203.414 70.531 204.635 71.3277C205.857 72.1243 207.291 72.4961 208.884 72.4961C210.637 72.4961 212.177 72.1243 213.505 71.3808C214.833 70.6372 216.001 69.5219 217.01 67.9817L215.417 66.9195C214.62 68.1941 213.717 69.097 212.708 69.6812C211.699 70.2654 210.531 70.5841 209.15 70.5841C207.875 70.5841 206.76 70.2654 205.804 69.6812C204.848 69.0439 204.104 68.1941 203.573 67.0788C203.148 66.1228 202.883 65.0075 202.83 63.7859H217.223C217.223 63.6797 217.276 63.5204 217.276 63.3079C217.276 63.1486 217.276 62.9362 217.276 62.8299C217.276 61.1304 216.957 59.5902 216.267 58.2624ZM203.52 59.2715C204.051 58.1562 204.795 57.3595 205.751 56.7222C206.707 56.138 207.875 55.8193 209.15 55.8193C210.265 55.8193 211.274 56.0849 212.177 56.616C213.08 57.1471 213.771 57.8907 214.302 58.8466C214.833 59.8026 215.098 60.8648 215.098 62.0333H202.723C202.83 61.0242 203.095 60.1213 203.52 59.2715Z" fill="#032933"/>
<path d="M41.745 83.49C64.8001 83.49 83.49 64.8001 83.49 41.745C83.49 18.6899 64.8001 0 41.745 0C18.6899 0 0 18.6899 0 41.745C0 64.8001 18.6899 83.49 41.745 83.49Z" fill="#032933"/>
<path d="M62.6706 34.2033H72.5492V29.0515H62.6706C59.3246 28.9984 56.0849 30.3262 53.748 32.7693C51.358 35.1062 49.9772 38.3459 50.0303 41.6919V49.2336H42.4886C40.4703 49.2867 38.5584 48.49 37.1775 47.0029C36.3808 46.2594 35.7966 45.3034 35.3717 44.2412H48.7025V41.6919C48.7025 41.1608 48.7556 40.6297 48.8087 40.0986L48.9149 39.0895H35.4248C35.7966 38.0272 36.4339 37.1244 37.2306 36.3277C38.6115 34.8937 40.5235 34.097 42.5417 34.1502H52.1016L52.1547 28.9984H42.4886C39.1426 28.9453 35.9028 30.2731 33.566 32.7162C31.7602 34.4157 30.5386 36.6464 30.0607 39.0895H16.4643C16.8361 38.0272 17.4734 37.1244 18.2701 36.3277C19.651 34.8937 21.5629 34.097 23.5811 34.1502H31.9195V28.9984H23.5811C20.2352 28.9453 16.9954 30.2731 14.6586 32.7162C12.2155 35.053 10.8877 38.2928 10.9408 41.6919V54.3322H16.0925V44.2412H30.1138C30.5918 46.6843 31.8133 48.9149 33.566 50.6145C35.9028 53.0045 39.1426 54.3853 42.5417 54.3322H55.182V44.2412H72.5492V39.0895H55.6069C55.9787 38.0272 56.616 37.1244 57.4127 36.3277C58.7404 34.9468 60.7055 34.1502 62.6706 34.2033Z" fill="white"/>
</g>
<defs>
<clipPath id="clip0_9_226">
<rect width="240.645" height="83.49" fill="white"/>
</clipPath>
</defs>
</svg>
