<svg width="466" height="365" viewBox="0 0 466 365" fill="none" xmlns="http://www.w3.org/2000/svg">
<path d="M41.5526 20.9718C47.4175 20.9718 145.927 21.6232 152.117 21.406C152.552 21.406 152.769 20.7547 152.335 20.5376C148.425 18.5835 143.972 19.0177 139.953 17.6064C137.564 16.8465 136.152 15.2181 134.414 13.4811C133.002 11.9613 131.373 10.7671 129.309 10.1158C127.463 9.57295 125.508 9.46439 123.77 9.89863C121.815 10.3329 120.078 11.527 118.123 12.287C113.344 14.0239 108.782 12.3955 105.415 8.92158C102.591 5.99045 99.8761 3.27644 96.0747 1.75659C92.925 0.453866 89.3409 0.236746 86.1912 1.64803C82.6071 3.27644 80.1091 6.53326 76.7422 8.59591C72.7236 10.9842 67.9448 10.4414 63.4918 11.0928C59.0388 11.8527 55.6719 15.5438 51.7619 17.715C50.4586 18.4749 49.0466 19.0177 47.5261 19.0177C46.6572 19.0177 45.7884 18.8006 44.9195 18.692C43.6162 18.4749 42.3128 18.5835 41.444 19.6691C41.1181 19.8862 41.1181 20.9718 41.5526 20.9718Z" fill="#EBEBEB"/>
<path d="M234.118 61.7906C234.226 62.2248 437.761 61.7906 435.263 61.7906C434.069 61.7906 437.001 60.0536 435.915 59.5108C429.29 56.254 422.013 56.1454 414.845 55.4941C410.609 55.0598 406.265 54.517 402.572 52.4544C398.77 50.3917 396.381 46.9178 393.666 43.7695C385.303 33.782 371.835 28.5711 358.911 30.6337C344.466 32.9135 333.062 43.8781 318.508 45.9407C309.819 47.1349 301.565 43.7695 293.093 42.5754C286.033 41.5983 280.277 43.0096 273.978 46.0493C269.416 48.3291 265.18 50.2832 259.967 50.6089C255.948 50.9345 251.93 50.3917 248.02 50.3917C241.612 50.2832 235.313 53.1057 230.425 57.4481C229.448 57.9909 227.384 61.7906 234.118 61.7906Z" fill="#EBEBEB"/>
<path d="M316.118 77.6404H260.619V328.307H316.118V77.6404Z" fill="#DBDBDB"/>
<path d="M279.951 85.7825H269.199V95.3358H279.951V85.7825Z" fill="#EBEBEB"/>
<path d="M293.745 85.7825H282.992V95.3358H293.745V85.7825Z" fill="#EBEBEB"/>
<path d="M279.951 102.067H269.199V111.62H279.951V102.067Z" fill="#EBEBEB"/>
<path d="M293.745 102.067H282.992V111.62H293.745V102.067Z" fill="#EBEBEB"/>
<path d="M279.951 118.351H269.199V127.904H279.951V118.351Z" fill="#EBEBEB"/>
<path d="M293.745 118.351H282.992V127.904H293.745V118.351Z" fill="#EBEBEB"/>
<path d="M279.951 134.526H269.199V144.079H279.951V134.526Z" fill="#EBEBEB"/>
<path d="M293.745 134.526H282.992V144.079H293.745V134.526Z" fill="#EBEBEB"/>
<path d="M279.951 150.81H269.199V160.364H279.951V150.81Z" fill="#EBEBEB"/>
<path d="M293.745 150.81H282.992V160.364H293.745V150.81Z" fill="#EBEBEB"/>
<path d="M279.951 167.094H269.199V176.648H279.951V167.094Z" fill="#EBEBEB"/>
<path d="M293.745 167.094H282.992V176.648H293.745V167.094Z" fill="#EBEBEB"/>
<path d="M279.951 183.27H269.199V192.823H279.951V183.27Z" fill="#EBEBEB"/>
<path d="M293.745 183.27H282.992V192.823H293.745V183.27Z" fill="#EBEBEB"/>
<path d="M279.951 199.554H269.199V209.107H279.951V199.554Z" fill="#EBEBEB"/>
<path d="M293.745 199.554H282.992V209.107H293.745V199.554Z" fill="#EBEBEB"/>
<path d="M279.951 215.838H269.199V225.391H279.951V215.838Z" fill="#EBEBEB"/>
<path d="M293.745 215.838H282.992V225.391H293.745V215.838Z" fill="#EBEBEB"/>
<path d="M279.951 232.122H269.199V241.675H279.951V232.122Z" fill="#EBEBEB"/>
<path d="M293.745 232.122H282.992V241.675H293.745V232.122Z" fill="#EBEBEB"/>
<path d="M279.951 248.298H269.199V257.851H279.951V248.298Z" fill="#EBEBEB"/>
<path d="M293.745 248.298H282.992V257.851H293.745V248.298Z" fill="#EBEBEB"/>
<path d="M279.951 264.582H269.199V274.135H279.951V264.582Z" fill="#EBEBEB"/>
<path d="M293.745 264.582H282.992V274.135H293.745V264.582Z" fill="#EBEBEB"/>
<path d="M279.951 280.866H269.199V290.419H279.951V280.866Z" fill="#EBEBEB"/>
<path d="M293.745 280.866H282.992V290.419H293.745V280.866Z" fill="#EBEBEB"/>
<path d="M279.951 297.041H269.199V306.595H279.951V297.041Z" fill="#EBEBEB"/>
<path d="M296.816 306.681H307.569V297.128H296.816V306.681Z" fill="#EBEBEB"/>
<path d="M296.816 290.356H307.569V280.802H296.816V290.356Z" fill="#EBEBEB"/>
<path d="M296.816 274.138H307.569V264.585H296.816V274.138Z" fill="#EBEBEB"/>
<path d="M296.816 257.922H307.569V248.368H296.816V257.922Z" fill="#EBEBEB"/>
<path d="M296.816 241.596H307.569V232.043H296.816V241.596Z" fill="#EBEBEB"/>
<path d="M296.816 225.379H307.569V215.826H296.816V225.379Z" fill="#EBEBEB"/>
<path d="M296.816 209.162H307.569V199.609H296.816V209.162Z" fill="#EBEBEB"/>
<path d="M296.816 192.945H307.569V183.392H296.816V192.945Z" fill="#EBEBEB"/>
<path d="M296.816 176.62H307.569V167.067H296.816V176.62Z" fill="#EBEBEB"/>
<path d="M296.816 160.403H307.569V150.849H296.816V160.403Z" fill="#EBEBEB"/>
<path d="M296.816 144.186H307.569V134.632H296.816V144.186Z" fill="#EBEBEB"/>
<path d="M296.816 127.86H307.569V118.307H296.816V127.86Z" fill="#EBEBEB"/>
<path d="M296.816 111.643H307.569V102.09H296.816V111.643Z" fill="#EBEBEB"/>
<path d="M296.816 95.4264H307.569V85.8731H296.816V95.4264Z" fill="#EBEBEB"/>
<path d="M293.745 297.041H282.992V306.595H293.745V297.041Z" fill="#EBEBEB"/>
<path d="M359.888 77.6404H316.118V328.307H359.888V77.6404Z" fill="#A6A6A6"/>
<path d="M346.476 306.681H355.382V297.128H346.476V306.681Z" fill="#C7C7C7"/>
<path d="M335.071 306.681H343.977V297.128H335.071V306.681Z" fill="#C7C7C7"/>
<path d="M346.476 290.356H355.382V280.802H346.476V290.356Z" fill="#C7C7C7"/>
<path d="M335.071 290.356H343.977V280.802H335.071V290.356Z" fill="#C7C7C7"/>
<path d="M346.476 274.138H355.382V264.585H346.476V274.138Z" fill="#C7C7C7"/>
<path d="M335.071 274.138H343.977V264.585H335.071V274.138Z" fill="#C7C7C7"/>
<path d="M346.476 257.922H355.382V248.368H346.476V257.922Z" fill="#C7C7C7"/>
<path d="M335.071 257.922H343.977V248.368H335.071V257.922Z" fill="#C7C7C7"/>
<path d="M346.476 241.596H355.382V232.043H346.476V241.596Z" fill="#C7C7C7"/>
<path d="M335.071 241.596H343.977V232.043H335.071V241.596Z" fill="#C7C7C7"/>
<path d="M346.476 225.379H355.382V215.826H346.476V225.379Z" fill="#C7C7C7"/>
<path d="M335.071 225.379H343.977V215.826H335.071V225.379Z" fill="#C7C7C7"/>
<path d="M346.476 209.162H355.382V199.609H346.476V209.162Z" fill="#C7C7C7"/>
<path d="M335.071 209.162H343.977V199.609H335.071V209.162Z" fill="#C7C7C7"/>
<path d="M346.476 192.945H355.382V183.392H346.476V192.945Z" fill="#C7C7C7"/>
<path d="M335.071 192.945H343.977V183.392H335.071V192.945Z" fill="#C7C7C7"/>
<path d="M346.476 176.62H355.382V167.067H346.476V176.62Z" fill="#C7C7C7"/>
<path d="M335.071 176.62H343.977V167.067H335.071V176.62Z" fill="#C7C7C7"/>
<path d="M346.476 160.403H355.382V150.849H346.476V160.403Z" fill="#C7C7C7"/>
<path d="M335.071 160.403H343.977V150.849H335.071V160.403Z" fill="#C7C7C7"/>
<path d="M346.476 144.186H355.382V134.632H346.476V144.186Z" fill="#C7C7C7"/>
<path d="M335.071 144.186H343.977V134.632H335.071V144.186Z" fill="#C7C7C7"/>
<path d="M346.476 127.86H355.382V118.307H346.476V127.86Z" fill="#C7C7C7"/>
<path d="M335.071 127.86H343.977V118.307H335.071V127.86Z" fill="#C7C7C7"/>
<path d="M346.476 111.643H355.382V102.09H346.476V111.643Z" fill="#C7C7C7"/>
<path d="M335.071 111.643H343.977V102.09H335.071V111.643Z" fill="#C7C7C7"/>
<path d="M346.476 95.4264H355.382V85.8731H346.476V95.4264Z" fill="#C7C7C7"/>
<path d="M332.736 85.7825H323.83V95.3358H332.736V85.7825Z" fill="#C7C7C7"/>
<path d="M332.736 102.067H323.83V111.62H332.736V102.067Z" fill="#C7C7C7"/>
<path d="M332.736 118.351H323.83V127.904H332.736V118.351Z" fill="#C7C7C7"/>
<path d="M332.736 134.526H323.83V144.079H332.736V134.526Z" fill="#C7C7C7"/>
<path d="M332.736 150.81H323.83V160.364H332.736V150.81Z" fill="#C7C7C7"/>
<path d="M332.736 167.094H323.83V176.648H332.736V167.094Z" fill="#C7C7C7"/>
<path d="M332.736 183.27H323.83V192.823H332.736V183.27Z" fill="#C7C7C7"/>
<path d="M332.736 199.554H323.83V209.107H332.736V199.554Z" fill="#C7C7C7"/>
<path d="M332.736 215.838H323.83V225.391H332.736V215.838Z" fill="#C7C7C7"/>
<path d="M332.736 232.122H323.83V241.675H332.736V232.122Z" fill="#C7C7C7"/>
<path d="M332.736 248.298H323.83V257.851H332.736V248.298Z" fill="#C7C7C7"/>
<path d="M332.736 264.582H323.83V274.135H332.736V264.582Z" fill="#C7C7C7"/>
<path d="M332.736 280.866H323.83V290.419H332.736V280.866Z" fill="#C7C7C7"/>
<path d="M332.736 297.041H323.83V306.595H332.736V297.041Z" fill="#C7C7C7"/>
<path d="M335.071 95.4264H343.977V85.8731H335.071V95.4264Z" fill="#C7C7C7"/>
<path d="M160.48 58.208H93.5767V328.307H160.48V58.208Z" fill="#EBEBEB"/>
<path d="M160.372 52.8885H91.9476V58.3166H160.372V52.8885Z" fill="#C7C7C7"/>
<path d="M106.393 66.1329H99.6589V328.307H106.393V66.1329Z" fill="white"/>
<path d="M118.34 66.1329H111.606V328.307H118.34V66.1329Z" fill="white"/>
<path d="M130.287 66.1329H123.553V328.307H130.287V66.1329Z" fill="white"/>
<path d="M142.343 66.1329H135.609V328.307H142.343V66.1329Z" fill="white"/>
<path d="M154.29 66.1329H147.556V328.307H154.29V66.1329Z" fill="white"/>
<path d="M106.393 72.9723H99.6589V83.6112H106.393V72.9723Z" fill="#EBEBEB"/>
<path d="M118.34 72.9723H111.606V83.6112H118.34V72.9723Z" fill="#EBEBEB"/>
<path d="M130.287 72.9723H123.553V83.6112H130.287V72.9723Z" fill="#EBEBEB"/>
<path d="M142.343 72.9723H135.609V83.6112H142.343V72.9723Z" fill="#EBEBEB"/>
<path d="M154.29 72.9723H147.556V83.6112H154.29V72.9723Z" fill="#EBEBEB"/>
<path d="M106.393 90.2334H99.6589V100.872H106.393V90.2334Z" fill="#EBEBEB"/>
<path d="M118.34 90.2334H111.606V100.872H118.34V90.2334Z" fill="#EBEBEB"/>
<path d="M130.287 90.2334H123.553V100.872H130.287V90.2334Z" fill="#EBEBEB"/>
<path d="M142.343 90.2334H135.609V100.872H142.343V90.2334Z" fill="#EBEBEB"/>
<path d="M154.29 90.2334H147.556V100.872H154.29V90.2334Z" fill="#EBEBEB"/>
<path d="M106.393 107.495H99.6589V118.133H106.393V107.495Z" fill="#EBEBEB"/>
<path d="M118.34 107.495H111.606V118.133H118.34V107.495Z" fill="#EBEBEB"/>
<path d="M130.287 107.495H123.553V118.133H130.287V107.495Z" fill="#EBEBEB"/>
<path d="M142.343 107.495H135.609V118.133H142.343V107.495Z" fill="#EBEBEB"/>
<path d="M154.29 107.495H147.556V118.133H154.29V107.495Z" fill="#EBEBEB"/>
<path d="M106.393 124.756H99.6589V135.395H106.393V124.756Z" fill="#EBEBEB"/>
<path d="M118.34 124.756H111.606V135.395H118.34V124.756Z" fill="#EBEBEB"/>
<path d="M130.287 124.756H123.553V135.395H130.287V124.756Z" fill="#EBEBEB"/>
<path d="M142.343 124.756H135.609V135.395H142.343V124.756Z" fill="#EBEBEB"/>
<path d="M154.29 124.756H147.556V135.395H154.29V124.756Z" fill="#EBEBEB"/>
<path d="M106.393 142.017H99.6589V152.656H106.393V142.017Z" fill="#EBEBEB"/>
<path d="M118.34 142.017H111.606V152.656H118.34V142.017Z" fill="#EBEBEB"/>
<path d="M130.287 142.017H123.553V152.656H130.287V142.017Z" fill="#EBEBEB"/>
<path d="M142.343 142.017H135.609V152.656H142.343V142.017Z" fill="#EBEBEB"/>
<path d="M154.29 142.017H147.556V152.656H154.29V142.017Z" fill="#EBEBEB"/>
<path d="M106.393 159.278H99.6589V169.917H106.393V159.278Z" fill="#EBEBEB"/>
<path d="M118.34 159.278H111.606V169.917H118.34V159.278Z" fill="#EBEBEB"/>
<path d="M130.287 159.278H123.553V169.917H130.287V159.278Z" fill="#EBEBEB"/>
<path d="M142.343 159.278H135.609V169.917H142.343V159.278Z" fill="#EBEBEB"/>
<path d="M154.29 159.278H147.556V169.917H154.29V159.278Z" fill="#EBEBEB"/>
<path d="M106.393 176.539H99.6589V187.178H106.393V176.539Z" fill="#EBEBEB"/>
<path d="M118.34 176.539H111.606V187.178H118.34V176.539Z" fill="#EBEBEB"/>
<path d="M130.287 176.539H123.553V187.178H130.287V176.539Z" fill="#EBEBEB"/>
<path d="M142.343 176.539H135.609V187.178H142.343V176.539Z" fill="#EBEBEB"/>
<path d="M154.29 176.539H147.556V187.178H154.29V176.539Z" fill="#EBEBEB"/>
<path d="M106.393 193.8H99.6589V204.439H106.393V193.8Z" fill="#EBEBEB"/>
<path d="M118.34 193.8H111.606V204.439H118.34V193.8Z" fill="#EBEBEB"/>
<path d="M130.287 193.8H123.553V204.439H130.287V193.8Z" fill="#EBEBEB"/>
<path d="M142.343 193.8H135.609V204.439H142.343V193.8Z" fill="#EBEBEB"/>
<path d="M154.29 193.8H147.556V204.439H154.29V193.8Z" fill="#EBEBEB"/>
<path d="M106.393 211.061H99.6589V221.7H106.393V211.061Z" fill="#EBEBEB"/>
<path d="M118.34 211.061H111.606V221.7H118.34V211.061Z" fill="#EBEBEB"/>
<path d="M130.287 211.061H123.553V221.7H130.287V211.061Z" fill="#EBEBEB"/>
<path d="M142.343 211.061H135.609V221.7H142.343V211.061Z" fill="#EBEBEB"/>
<path d="M154.29 211.061H147.556V221.7H154.29V211.061Z" fill="#EBEBEB"/>
<path d="M106.393 228.322H99.6589V238.961H106.393V228.322Z" fill="#EBEBEB"/>
<path d="M118.34 228.322H111.606V238.961H118.34V228.322Z" fill="#EBEBEB"/>
<path d="M130.287 228.322H123.553V238.961H130.287V228.322Z" fill="#EBEBEB"/>
<path d="M142.343 228.322H135.609V238.961H142.343V228.322Z" fill="#EBEBEB"/>
<path d="M154.29 228.322H147.556V238.961H154.29V228.322Z" fill="#EBEBEB"/>
<path d="M106.393 245.475H99.6589V256.114H106.393V245.475Z" fill="#EBEBEB"/>
<path d="M118.34 245.475H111.606V256.114H118.34V245.475Z" fill="#EBEBEB"/>
<path d="M130.287 245.475H123.553V256.114H130.287V245.475Z" fill="#EBEBEB"/>
<path d="M142.343 245.475H135.609V256.114H142.343V245.475Z" fill="#EBEBEB"/>
<path d="M154.29 245.475H147.556V256.114H154.29V245.475Z" fill="#EBEBEB"/>
<path d="M106.393 262.736H99.6589V273.375H106.393V262.736Z" fill="#EBEBEB"/>
<path d="M118.34 262.736H111.606V273.375H118.34V262.736Z" fill="#EBEBEB"/>
<path d="M130.287 262.736H123.553V273.375H130.287V262.736Z" fill="#EBEBEB"/>
<path d="M142.343 262.736H135.609V273.375H142.343V262.736Z" fill="#EBEBEB"/>
<path d="M154.29 262.736H147.556V273.375H154.29V262.736Z" fill="#EBEBEB"/>
<path d="M106.393 279.997H99.6589V290.636H106.393V279.997Z" fill="#EBEBEB"/>
<path d="M118.34 279.997H111.606V290.636H118.34V279.997Z" fill="#EBEBEB"/>
<path d="M130.287 279.997H123.553V290.636H130.287V279.997Z" fill="#EBEBEB"/>
<path d="M142.343 279.997H135.609V290.636H142.343V279.997Z" fill="#EBEBEB"/>
<path d="M154.29 279.997H147.556V290.636H154.29V279.997Z" fill="#EBEBEB"/>
<path d="M106.393 297.258H99.6589V328.306H106.393V297.258Z" fill="#EBEBEB"/>
<path d="M118.34 297.258H111.606V328.306H118.34V297.258Z" fill="#EBEBEB"/>
<path d="M130.287 297.258H123.553V328.306H130.287V297.258Z" fill="#EBEBEB"/>
<path d="M142.343 297.258H135.609V328.306H142.343V297.258Z" fill="#EBEBEB"/>
<path d="M154.29 297.258H147.556V328.306H154.29V297.258Z" fill="#EBEBEB"/>
<path d="M203.273 58.208H160.372V328.307H203.273V58.208Z" fill="#DBDBDB"/>
<path d="M205.119 52.8885H160.372V58.3166H205.119V52.8885Z" fill="#C7C7C7"/>
<path d="M173.188 66.1329H166.454V328.307H173.188V66.1329Z" fill="#C7C7C7"/>
<path d="M185.243 66.1329H178.51V328.307H185.243V66.1329Z" fill="#C7C7C7"/>
<path d="M197.191 66.1329H190.457V328.307H197.191V66.1329Z" fill="#C7C7C7"/>
<path d="M173.188 72.9723H166.454V83.6112H173.188V72.9723Z" fill="#DBDBDB"/>
<path d="M185.243 72.9723H178.51V83.6112H185.243V72.9723Z" fill="#DBDBDB"/>
<path d="M197.191 72.9723H190.457V83.6112H197.191V72.9723Z" fill="#DBDBDB"/>
<path d="M173.188 90.2334H166.454V100.872H173.188V90.2334Z" fill="#DBDBDB"/>
<path d="M185.243 90.2334H178.51V100.872H185.243V90.2334Z" fill="#DBDBDB"/>
<path d="M197.191 90.2334H190.457V100.872H197.191V90.2334Z" fill="#DBDBDB"/>
<path d="M173.188 107.495H166.454V118.133H173.188V107.495Z" fill="#DBDBDB"/>
<path d="M185.243 107.495H178.51V118.133H185.243V107.495Z" fill="#DBDBDB"/>
<path d="M197.191 107.495H190.457V118.133H197.191V107.495Z" fill="#DBDBDB"/>
<path d="M173.188 124.756H166.454V135.395H173.188V124.756Z" fill="#DBDBDB"/>
<path d="M185.243 124.756H178.51V135.395H185.243V124.756Z" fill="#DBDBDB"/>
<path d="M197.191 124.756H190.457V135.395H197.191V124.756Z" fill="#DBDBDB"/>
<path d="M173.188 142.017H166.454V152.656H173.188V142.017Z" fill="#DBDBDB"/>
<path d="M185.243 142.017H178.51V152.656H185.243V142.017Z" fill="#DBDBDB"/>
<path d="M197.191 142.017H190.457V152.656H197.191V142.017Z" fill="#DBDBDB"/>
<path d="M173.188 159.278H166.454V169.917H173.188V159.278Z" fill="#DBDBDB"/>
<path d="M185.243 159.278H178.51V169.917H185.243V159.278Z" fill="#DBDBDB"/>
<path d="M197.191 159.278H190.457V169.917H197.191V159.278Z" fill="#DBDBDB"/>
<path d="M173.188 176.539H166.454V187.178H173.188V176.539Z" fill="#DBDBDB"/>
<path d="M185.243 176.539H178.51V187.178H185.243V176.539Z" fill="#DBDBDB"/>
<path d="M197.191 176.539H190.457V187.178H197.191V176.539Z" fill="#DBDBDB"/>
<path d="M173.188 193.8H166.454V204.439H173.188V193.8Z" fill="#DBDBDB"/>
<path d="M185.243 193.8H178.51V204.439H185.243V193.8Z" fill="#DBDBDB"/>
<path d="M197.191 193.8H190.457V204.439H197.191V193.8Z" fill="#DBDBDB"/>
<path d="M173.188 211.061H166.454V221.7H173.188V211.061Z" fill="#DBDBDB"/>
<path d="M185.243 211.061H178.51V221.7H185.243V211.061Z" fill="#DBDBDB"/>
<path d="M197.191 211.061H190.457V221.7H197.191V211.061Z" fill="#DBDBDB"/>
<path d="M173.188 228.322H166.454V238.961H173.188V228.322Z" fill="#DBDBDB"/>
<path d="M185.243 228.322H178.51V238.961H185.243V228.322Z" fill="#DBDBDB"/>
<path d="M197.191 228.322H190.457V238.961H197.191V228.322Z" fill="#DBDBDB"/>
<path d="M173.188 245.475H166.454V256.114H173.188V245.475Z" fill="#DBDBDB"/>
<path d="M185.243 245.475H178.51V256.114H185.243V245.475Z" fill="#DBDBDB"/>
<path d="M197.191 245.475H190.457V256.114H197.191V245.475Z" fill="#DBDBDB"/>
<path d="M173.188 262.736H166.454V273.375H173.188V262.736Z" fill="#DBDBDB"/>
<path d="M185.243 262.736H178.51V273.375H185.243V262.736Z" fill="#DBDBDB"/>
<path d="M197.191 262.736H190.457V273.375H197.191V262.736Z" fill="#DBDBDB"/>
<path d="M173.188 279.997H166.454V290.636H173.188V279.997Z" fill="#DBDBDB"/>
<path d="M185.243 279.997H178.51V290.636H185.243V279.997Z" fill="#DBDBDB"/>
<path d="M197.191 279.997H190.457V290.636H197.191V279.997Z" fill="#DBDBDB"/>
<path d="M173.188 297.258H166.454V328.306H173.188V297.258Z" fill="#DBDBDB"/>
<path d="M185.243 297.258H178.51V328.306H185.243V297.258Z" fill="#DBDBDB"/>
<path d="M197.191 297.258H190.457V328.306H197.191V297.258Z" fill="#DBDBDB"/>
<path d="M243.784 148.965H188.828V328.415H243.784V148.965Z" fill="#EBEBEB"/>
<path d="M243.784 137.023H196.647V148.965H243.784V137.023Z" fill="#C7C7C7"/>
<path d="M237.811 155.153H194.91V289.333H237.811V155.153Z" fill="#DBDBDB"/>
<path d="M237.811 167.963H194.91V171.111H237.811V167.963Z" fill="white"/>
<path d="M237.811 181.099H194.91V184.247H237.811V181.099Z" fill="white"/>
<path d="M237.811 194.234H194.91V197.383H237.811V194.234Z" fill="white"/>
<path d="M237.811 207.37H194.91V210.518H237.811V207.37Z" fill="white"/>
<path d="M237.811 220.506H194.91V223.654H237.811V220.506Z" fill="white"/>
<path d="M237.811 233.533H194.91V236.682H237.811V233.533Z" fill="white"/>
<path d="M237.811 246.669H194.91V249.817H237.811V246.669Z" fill="white"/>
<path d="M237.811 259.805H194.91V262.953H237.811V259.805Z" fill="white"/>
<path d="M237.811 272.941H194.91V276.089H237.811V272.941Z" fill="white"/>
<path d="M237.811 286.077H194.91V289.225H237.811V286.077Z" fill="white"/>
<path d="M278.214 148.965H243.784V328.415H278.214V148.965Z" fill="#DBDBDB"/>
<path d="M273 137.023H243.784V148.965H273V137.023Z" fill="#A6A6A6"/>
<path d="M275.064 155.153H248.563V289.333H275.064V155.153Z" fill="#C7C7C7"/>
<path d="M275.064 167.963H248.563V171.111H275.064V167.963Z" fill="white"/>
<path d="M275.064 181.099H248.563V184.247H275.064V181.099Z" fill="white"/>
<path d="M275.064 194.234H248.563V197.383H275.064V194.234Z" fill="white"/>
<path d="M275.064 207.37H248.563V210.518H275.064V207.37Z" fill="white"/>
<path d="M275.064 220.506H248.563V223.654H275.064V220.506Z" fill="white"/>
<path d="M275.064 233.533H248.563V236.682H275.064V233.533Z" fill="white"/>
<path d="M275.064 246.669H248.563V249.817H275.064V246.669Z" fill="white"/>
<path d="M275.064 259.805H248.563V262.953H275.064V259.805Z" fill="white"/>
<path d="M275.064 272.941H248.563V276.089H275.064V272.941Z" fill="white"/>
<path d="M275.064 286.077H248.563V289.225H275.064V286.077Z" fill="white"/>
<path d="M378.678 151.896H349.353V181.75H378.678V151.896Z" fill="#DBDBDB"/>
<path d="M397.25 151.896H378.678V182.835H397.25V151.896Z" fill="#C7C7C7"/>
<path d="M398.553 165.14H380.09V182.944H398.553V165.14Z" fill="#DBDBDB"/>
<path d="M410.066 165.14H398.553V182.944H410.066V165.14Z" fill="#C7C7C7"/>
<path d="M385.52 179.904H338.058V328.415H385.52V179.904Z" fill="#EBEBEB"/>
<path d="M358.368 186.201H343.488V191.412H358.368V186.201Z" fill="white"/>
<path d="M377.483 186.201H362.603V191.412H377.483V186.201Z" fill="white"/>
<path d="M358.368 195.103H343.488V200.314H358.368V195.103Z" fill="white"/>
<path d="M377.483 195.103H362.603V200.314H377.483V195.103Z" fill="white"/>
<path d="M358.368 204.113H343.488V209.324H358.368V204.113Z" fill="white"/>
<path d="M377.483 204.113H362.603V209.324H377.483V204.113Z" fill="white"/>
<path d="M358.368 213.015H343.488V218.226H358.368V213.015Z" fill="white"/>
<path d="M377.483 213.015H362.603V218.226H377.483V213.015Z" fill="white"/>
<path d="M358.368 221.917H343.488V227.128H358.368V221.917Z" fill="white"/>
<path d="M377.483 221.917H362.603V227.128H377.483V221.917Z" fill="white"/>
<path d="M358.368 230.819H343.488V236.03H358.368V230.819Z" fill="white"/>
<path d="M377.483 230.819H362.603V236.03H377.483V230.819Z" fill="white"/>
<path d="M358.368 239.721H343.488V244.932H358.368V239.721Z" fill="white"/>
<path d="M377.483 239.721H362.603V244.932H377.483V239.721Z" fill="white"/>
<path d="M358.368 248.623H343.488V253.834H358.368V248.623Z" fill="white"/>
<path d="M377.483 248.623H362.603V253.834H377.483V248.623Z" fill="white"/>
<path d="M358.368 257.525H343.488V262.736H358.368V257.525Z" fill="white"/>
<path d="M377.483 257.525H362.603V262.736H377.483V257.525Z" fill="white"/>
<path d="M358.368 266.427H343.488V271.638H358.368V266.427Z" fill="white"/>
<path d="M377.483 266.427H362.603V271.638H377.483V266.427Z" fill="white"/>
<path d="M358.368 275.329H343.488V280.54H358.368V275.329Z" fill="white"/>
<path d="M377.483 275.329H362.603V280.54H377.483V275.329Z" fill="white"/>
<path d="M358.368 284.34H343.488V289.551H358.368V284.34Z" fill="white"/>
<path d="M377.483 284.34H362.603V289.551H377.483V284.34Z" fill="white"/>
<path d="M358.368 293.242H343.488V298.452H358.368V293.242Z" fill="white"/>
<path d="M377.483 293.242H362.603V298.452H377.483V293.242Z" fill="white"/>
<path d="M358.368 302.144H343.488V307.354H358.368V302.144Z" fill="white"/>
<path d="M377.483 302.144H362.603V307.354H377.483V302.144Z" fill="white"/>
<path d="M423.968 179.904H385.52V328.415H423.968V179.904Z" fill="#C7C7C7"/>
<path d="M407.826 307.331H420.098V302.12H407.826V307.331Z" fill="#EBEBEB"/>
<path d="M392.23 307.331H404.503V302.12H392.23V307.331Z" fill="#EBEBEB"/>
<path d="M407.826 298.406H420.098V293.195H407.826V298.406Z" fill="#EBEBEB"/>
<path d="M392.23 298.406H404.503V293.195H392.23V298.406Z" fill="#EBEBEB"/>
<path d="M407.826 289.482H420.098V284.271H407.826V289.482Z" fill="#EBEBEB"/>
<path d="M392.23 289.482H404.503V284.271H392.23V289.482Z" fill="#EBEBEB"/>
<path d="M407.826 280.666H420.098V275.455H407.826V280.666Z" fill="#EBEBEB"/>
<path d="M392.23 280.666H404.503V275.455H392.23V280.666Z" fill="#EBEBEB"/>
<path d="M407.826 271.741H420.098V266.53H407.826V271.741Z" fill="#EBEBEB"/>
<path d="M392.23 271.741H404.503V266.53H392.23V271.741Z" fill="#EBEBEB"/>
<path d="M407.826 262.817H420.098V257.606H407.826V262.817Z" fill="#EBEBEB"/>
<path d="M392.23 262.817H404.503V257.606H392.23V262.817Z" fill="#EBEBEB"/>
<path d="M407.826 253.892H420.098V248.681H407.826V253.892Z" fill="#EBEBEB"/>
<path d="M392.23 253.892H404.503V248.681H392.23V253.892Z" fill="#EBEBEB"/>
<path d="M407.826 244.968H420.098V239.757H407.826V244.968Z" fill="#EBEBEB"/>
<path d="M392.23 244.968H404.503V239.757H392.23V244.968Z" fill="#EBEBEB"/>
<path d="M407.826 236.043H420.098V230.832H407.826V236.043Z" fill="#EBEBEB"/>
<path d="M392.23 236.043H404.503V230.832H392.23V236.043Z" fill="#EBEBEB"/>
<path d="M407.826 227.119H420.098V221.908H407.826V227.119Z" fill="#EBEBEB"/>
<path d="M392.23 227.119H404.503V221.908H392.23V227.119Z" fill="#EBEBEB"/>
<path d="M407.826 218.194H420.098V212.983H407.826V218.194Z" fill="#EBEBEB"/>
<path d="M392.23 218.194H404.503V212.983H392.23V218.194Z" fill="#EBEBEB"/>
<path d="M407.826 209.27H420.098V204.059H407.826V209.27Z" fill="#EBEBEB"/>
<path d="M392.23 209.27H404.503V204.059H392.23V209.27Z" fill="#EBEBEB"/>
<path d="M407.826 200.454H420.098V195.243H407.826V200.454Z" fill="#EBEBEB"/>
<path d="M392.23 200.454H404.503V195.243H392.23V200.454Z" fill="#EBEBEB"/>
<path d="M407.826 191.529H420.098V186.318H407.826V191.529Z" fill="#EBEBEB"/>
<path d="M392.23 191.529H404.503V186.318H392.23V191.529Z" fill="#EBEBEB"/>
<path d="M86.2999 231.579H30.3658V328.307H86.2999V231.579Z" fill="#C7C7C7"/>
<path d="M49.0467 239.938H39.1632V245.909H49.0467V239.938Z" fill="#DBDBDB"/>
<path d="M49.0467 252.64H39.1632V258.611H49.0467V252.64Z" fill="#DBDBDB"/>
<path d="M49.0467 265.341H39.1632V271.312H49.0467V265.341Z" fill="#DBDBDB"/>
<path d="M49.0467 277.934H39.1632V283.905H49.0467V277.934Z" fill="#DBDBDB"/>
<path d="M49.0467 290.636H39.1632V296.607H49.0467V290.636Z" fill="#DBDBDB"/>
<path d="M49.0467 303.229H39.1632V309.2H49.0467V303.229Z" fill="#DBDBDB"/>
<path d="M49.0467 315.931H39.1632V321.901H49.0467V315.931Z" fill="#DBDBDB"/>
<path d="M63.2746 239.938H53.3911V245.909H63.2746V239.938Z" fill="#DBDBDB"/>
<path d="M63.2746 252.64H53.3911V258.611H63.2746V252.64Z" fill="#DBDBDB"/>
<path d="M63.2746 265.341H53.3911V271.312H63.2746V265.341Z" fill="#DBDBDB"/>
<path d="M63.2746 277.934H53.3911V283.905H63.2746V277.934Z" fill="#DBDBDB"/>
<path d="M63.2746 290.636H53.3911V296.607H63.2746V290.636Z" fill="#DBDBDB"/>
<path d="M63.2746 303.229H53.3911V309.2H63.2746V303.229Z" fill="#DBDBDB"/>
<path d="M63.2746 315.931H53.3911V321.901H63.2746V315.931Z" fill="#DBDBDB"/>
<path d="M77.5025 239.938H67.619V245.909H77.5025V239.938Z" fill="#DBDBDB"/>
<path d="M77.5025 252.64H67.619V258.611H77.5025V252.64Z" fill="#DBDBDB"/>
<path d="M77.5025 265.341H67.619V271.312H77.5025V265.341Z" fill="#DBDBDB"/>
<path d="M77.5025 277.934H67.619V283.905H77.5025V277.934Z" fill="#DBDBDB"/>
<path d="M77.5025 290.636H67.619V296.607H77.5025V290.636Z" fill="#DBDBDB"/>
<path d="M77.5025 303.229H67.619V309.2H77.5025V303.229Z" fill="#DBDBDB"/>
<path d="M77.5025 315.931H67.619V321.901H77.5025V315.931Z" fill="#DBDBDB"/>
<path d="M86.2999 221.483H49.0467V231.579H86.2999V221.483Z" fill="#DBDBDB"/>
<path d="M86.4085 215.295H62.7315V221.483H86.4085V215.295Z" fill="#EBEBEB"/>
<path d="M125.617 231.579H86.2999V328.307H125.617V231.579Z" fill="#A6A6A6"/>
<path d="M113.578 320.965H121.615V314.994H113.578V320.965Z" fill="#C7C7C7"/>
<path d="M113.578 308.233H121.615V302.262H113.578V308.233Z" fill="#C7C7C7"/>
<path d="M113.578 295.61H121.615V289.639H113.578V295.61Z" fill="#C7C7C7"/>
<path d="M113.578 282.987H121.615V277.016H113.578V282.987Z" fill="#C7C7C7"/>
<path d="M113.578 270.255H121.615V264.284H113.578V270.255Z" fill="#C7C7C7"/>
<path d="M113.578 257.632H121.615V251.661H113.578V257.632Z" fill="#C7C7C7"/>
<path d="M113.578 244.901H121.615V238.93H113.578V244.901Z" fill="#C7C7C7"/>
<path d="M101.895 320.965H109.932V314.994H101.895V320.965Z" fill="#C7C7C7"/>
<path d="M101.895 308.233H109.932V302.262H101.895V308.233Z" fill="#C7C7C7"/>
<path d="M101.895 295.61H109.932V289.639H101.895V295.61Z" fill="#C7C7C7"/>
<path d="M101.895 282.987H109.932V277.016H101.895V282.987Z" fill="#C7C7C7"/>
<path d="M101.895 270.255H109.932V264.284H101.895V270.255Z" fill="#C7C7C7"/>
<path d="M101.895 257.632H109.932V251.661H101.895V257.632Z" fill="#C7C7C7"/>
<path d="M101.895 244.901H109.932V238.93H101.895V244.901Z" fill="#C7C7C7"/>
<path d="M90.3777 320.965H98.4149V314.994H90.3777V320.965Z" fill="#C7C7C7"/>
<path d="M90.3777 308.233H98.4149V302.262H90.3777V308.233Z" fill="#C7C7C7"/>
<path d="M90.3777 295.61H98.4149V289.639H90.3777V295.61Z" fill="#C7C7C7"/>
<path d="M90.3777 282.987H98.4149V277.016H90.3777V282.987Z" fill="#C7C7C7"/>
<path d="M90.3777 270.255H98.4149V264.284H90.3777V270.255Z" fill="#C7C7C7"/>
<path d="M90.3777 257.632H98.4149V251.661H90.3777V257.632Z" fill="#C7C7C7"/>
<path d="M90.3777 244.901H98.4149V238.93H90.3777V244.901Z" fill="#C7C7C7"/>
<path d="M119.643 221.483H86.2999V231.579H119.643V221.483Z" fill="#C7C7C7"/>
<path d="M104.329 215.295H86.2999V221.483H104.329V215.295Z" fill="#DBDBDB"/>
<path d="M14.0743 328.307C150.597 327.655 303.737 327.655 440.151 328.307C303.737 329.066 150.597 329.066 14.0743 328.307Z" fill="#263238"/>
<path d="M227.167 365C346.654 365 443.518 359.897 443.518 353.601C443.518 347.306 346.654 342.202 227.167 342.202C107.68 342.202 10.816 347.306 10.816 353.601C10.816 359.897 107.68 365 227.167 365Z" fill="#EBEBEB"/>
<path d="M126.92 328.306H233.901L221.411 273.158C211.31 272.506 198.602 269.901 187.198 262.519L220.324 268.707L205.01 201.291C200.34 199.119 195.67 196.297 191.434 192.606L203.924 196.514L201.861 187.504C195.453 184.681 188.828 180.664 182.963 175.019L200.557 181.858L180.356 92.5131L168.952 142.994L179.27 140.388C179.27 140.388 175.034 143.319 168.192 146.576L151.792 218.877L163.739 215.946C163.739 215.946 158.851 219.42 150.923 222.894L139.519 272.941L162.761 267.187C162.11 267.621 152.335 274.352 138.324 278.26L136.369 286.945L172.102 278.043C172.102 278.043 156.245 289.333 135.392 291.396L132.568 303.88L144.406 300.949C144.406 300.949 139.519 304.423 131.59 307.897L126.92 328.306Z" fill="#093944"/>
<path d="M146.578 256.982C152.443 259.262 174.382 268.164 179.161 270.769C179.161 269.792 179.161 268.815 179.161 267.73C173.839 264.581 168.626 261.542 163.304 258.502C157.657 255.245 151.466 252.206 146.252 248.297C146.035 248.08 146.144 247.537 146.47 247.755C152.335 250.143 157.765 253.834 163.196 256.982C168.626 260.13 173.948 263.387 179.27 266.644C179.27 259.045 179.27 251.446 179.379 243.738C170.798 240.264 162.218 235.704 154.398 231.036C154.072 230.819 154.29 230.385 154.615 230.493C162.978 233.967 171.559 237.984 179.379 242.652C179.379 238.744 179.27 208.13 180.247 169.482C175.034 166.877 169.712 164.597 164.499 161.883C164.173 161.666 164.39 161.123 164.716 161.232C170.038 163.294 175.034 165.683 180.247 167.963C180.573 157.432 180.899 146.902 181.551 136.371C181.551 136.046 182.094 136.046 182.094 136.371C182.854 155.912 182.745 193.691 182.528 213.341C187.959 208.998 193.606 205.199 199.146 201.074C199.363 200.965 199.58 201.291 199.363 201.399C193.606 205.742 188.285 210.627 182.528 214.969C182.528 216.055 182.528 217.14 182.528 218.335C188.393 215.621 194.258 213.232 200.232 210.627C200.666 210.41 201.1 211.061 200.666 211.278C194.693 214.209 188.719 217.14 182.637 219.854C182.528 229.516 181.659 264.473 181.225 281.408C192.194 275.872 203.381 270.444 214.459 265.124C214.894 264.907 215.22 265.558 214.785 265.776C203.924 271.964 192.629 277.717 181.116 282.711C180.79 296.715 180.573 313.434 180.356 327.438C180.356 328.306 179.053 328.306 179.053 327.438C179.27 309.525 179.27 289.008 179.379 270.986C173.622 269.575 151.574 260.13 146.361 257.634C145.601 257.634 146.035 256.765 146.578 256.982Z" fill="#032933"/>
<path d="M120.838 328.307H5.7113L11.359 298.018C35.4704 296.498 54.2599 280.106 54.2599 280.106L12.2279 292.916L27.7591 209.433C38.4029 204.439 45.2453 198.468 45.2453 198.468L28.8452 203.462L31.3432 189.892C45.7884 184.79 55.5632 176.43 56.2149 175.888L32.6466 183.053L47.3089 104.021C52.9566 100.547 56.2149 97.724 56.2149 97.724L48.0692 100.221L63.2745 18.1492L85.1051 135.72L66.207 126.71C72.5064 134.092 79.566 139.411 86.5171 143.102L107.044 253.834L75.113 241.458C85.6482 252.314 97.9211 257.742 108.239 260.348L110.303 271.638L93.1423 267.73C99.1158 272.506 105.307 275.655 111.389 277.934L120.838 328.307Z" fill="#032933"/>
<path d="M101.614 227.454C94.7714 230.059 70.2256 239.938 64.6865 242.978C64.6865 241.784 64.6865 240.698 64.6865 239.504C70.8772 235.921 77.068 232.339 83.1502 228.757C89.7754 224.957 94.2284 223.546 100.311 218.986C100.636 218.769 100.419 218.118 99.9847 218.335C93.1423 221.157 89.5581 223.328 83.2588 227.02C76.9594 230.711 70.7686 234.51 64.5779 238.31C64.5779 229.408 64.5779 220.506 64.4693 211.713C74.4614 207.696 84.4535 202.376 93.5767 196.948C93.9025 196.731 93.6853 196.188 93.3595 196.297C83.6932 200.314 73.5925 204.982 64.5779 210.518C64.5779 205.85 64.5779 201.291 64.4693 196.623C64.252 172.848 64.1434 149.073 63.6004 125.298C69.6825 122.259 75.8733 119.545 81.9555 116.505C82.3899 116.288 82.0641 115.636 81.6296 115.745C75.5475 118.133 69.5739 120.956 63.6004 123.67C63.2746 111.403 62.8401 99.1353 62.0798 86.8679C62.0798 86.4337 61.4282 86.4337 61.4282 86.8679C60.5593 109.666 60.6679 132.463 60.8851 155.261C54.5858 150.267 47.9606 145.816 41.5526 141.04C41.3354 140.822 41.1181 141.257 41.3354 141.474C47.9606 146.576 54.2599 152.113 60.8851 157.215C60.8851 158.518 60.8851 159.821 60.8851 161.123C54.0427 157.975 47.2003 155.152 40.3579 152.221C39.8148 152.004 39.3804 152.764 39.9234 152.981C46.8745 156.347 53.9341 159.712 60.9937 162.969C61.1024 174.259 61.3196 185.549 61.5368 196.84C61.754 216.598 62.1885 236.247 62.6229 256.005C49.8069 249.492 36.8823 243.195 23.8492 237.116C23.3061 236.899 22.8717 237.55 23.4147 237.876C36.1221 245.149 49.2639 251.771 62.6229 257.525C62.9487 273.918 63.2746 311.48 63.4918 327.872C63.4918 328.849 65.0123 328.849 65.0123 327.872C64.7951 307.029 64.7951 264.907 64.6865 243.955C71.4203 242.327 95.9661 231.796 102.048 228.865C102.7 228.322 102.266 227.237 101.614 227.454Z" fill="#093944"/>
<path d="M435.046 328.307H319.92L325.567 298.018C349.679 296.498 368.468 280.106 368.468 280.106L326.436 292.916L341.968 209.433C352.611 204.439 359.454 198.468 359.454 198.468L343.054 203.462L345.552 189.892C359.888 184.79 369.772 176.43 370.315 175.888L346.746 183.053L361.409 104.021C367.056 100.547 370.315 97.724 370.315 97.724L362.169 100.221L377.374 18.1492L399.205 135.72L380.307 126.71C386.606 134.092 393.666 139.411 400.617 143.102L421.144 253.834L389.321 241.567C399.857 252.423 412.13 257.851 422.447 260.456L424.511 271.746L407.351 267.838C413.324 272.615 419.515 275.763 425.597 278.043L435.046 328.307Z" fill="#093944"/>
<path d="M415.822 227.454C408.98 230.059 384.434 239.938 378.895 242.978C378.895 241.784 378.895 240.698 378.895 239.504C385.086 235.921 391.276 232.339 397.359 228.757C403.984 224.957 408.437 223.546 414.519 218.986C414.845 218.769 414.628 218.118 414.193 218.335C407.351 221.157 403.767 223.328 397.467 227.02C391.168 230.711 384.977 234.51 378.786 238.31C378.786 229.408 378.786 220.506 378.678 211.713C388.67 207.696 398.662 202.376 407.785 196.948C408.111 196.731 407.894 196.188 407.568 196.297C397.902 200.314 387.801 204.982 378.786 210.518C378.786 205.85 378.786 201.291 378.678 196.623C378.46 172.848 378.352 149.073 377.809 125.298C383.891 122.259 390.082 119.545 396.164 116.505C396.598 116.288 396.272 115.636 395.838 115.745C389.756 118.133 383.782 120.956 377.809 123.67C377.483 111.403 377.048 99.1353 376.288 86.8679C376.288 86.4337 375.637 86.4337 375.637 86.8679C374.768 109.666 374.876 132.463 375.094 155.261C368.794 150.267 362.169 145.816 355.761 141.04C355.544 140.822 355.327 141.257 355.544 141.474C362.169 146.576 368.468 152.113 375.094 157.215C375.094 158.518 375.094 159.821 375.094 161.123C368.251 157.975 361.409 155.152 354.566 152.221C354.023 152.004 353.589 152.764 354.132 152.981C361.083 156.347 368.142 159.712 375.202 162.969C375.311 174.259 375.528 185.549 375.745 196.84C375.962 216.598 376.397 236.247 376.831 256.005C364.015 249.492 351.091 243.195 338.058 237.116C337.515 236.899 337.08 237.55 337.623 237.876C350.33 245.149 363.472 251.771 376.831 257.525C377.157 273.918 377.483 311.48 377.7 327.872C377.7 328.849 379.221 328.849 379.221 327.872C379.003 307.029 379.003 264.907 378.895 243.955C385.629 242.327 410.175 231.796 416.257 228.865C416.908 228.322 416.474 227.237 415.822 227.454Z" fill="#032933"/>
<path d="M466 328.306H381.936L391.819 284.882C399.748 284.339 409.74 282.385 418.646 276.523L392.58 281.408L404.635 228.431C408.328 226.694 411.912 224.523 415.279 221.591L405.396 224.74L407.025 217.683C412.129 215.404 417.234 212.255 421.796 207.913L408.002 213.341L423.859 143.211L432.874 182.835L424.837 180.773C424.837 180.773 428.095 183.161 433.526 185.658L446.45 242.435L437.11 240.047C437.11 240.047 440.911 242.761 447.21 245.475L456.116 284.774L437.87 280.214C438.304 280.54 446.016 285.859 457.094 288.899L458.615 295.738L430.593 288.79C430.593 288.79 443.083 297.692 459.483 299.321L461.656 309.091L452.315 306.811C452.315 306.811 456.117 309.525 462.307 312.24L466 328.306Z" fill="#032933"/>
<path d="M450.577 272.181C445.907 273.918 428.747 280.974 424.945 283.037C424.945 282.277 424.945 281.517 424.945 280.648C429.073 278.151 433.308 275.763 437.436 273.375C441.889 270.769 446.667 268.49 450.903 265.341C451.12 265.233 451.012 264.799 450.686 264.907C446.124 266.861 441.78 269.684 437.544 272.181C433.308 274.678 429.073 277.174 424.945 279.78C424.945 273.809 424.945 267.838 424.837 261.759C431.571 259.045 438.304 255.462 444.495 251.771C444.712 251.663 444.604 251.228 444.278 251.337C437.761 254.051 430.919 257.199 424.837 260.89C424.837 257.742 424.945 233.75 424.185 203.462C428.312 201.399 432.44 199.554 436.567 197.491C436.784 197.382 436.675 196.84 436.349 196.948C432.222 198.577 428.204 200.531 424.185 202.268C423.968 194.017 423.642 185.767 423.099 177.407C423.099 177.082 422.665 177.082 422.665 177.407C422.122 192.823 422.122 222.46 422.339 237.876C418.103 234.51 413.65 231.47 409.306 228.214C409.088 228.105 408.98 228.322 409.088 228.539C413.541 232.013 417.777 235.704 422.339 239.178C422.339 240.047 422.339 240.915 422.339 241.784C417.777 239.721 413.107 237.767 408.437 235.704C408.111 235.596 407.785 236.03 408.111 236.247C412.781 238.527 417.56 240.807 422.339 242.978C422.447 250.577 423.099 278.043 423.425 291.396C414.736 287.053 406.047 282.711 397.25 278.586C396.924 278.477 396.598 278.911 396.924 279.129C405.504 284.014 414.41 288.465 423.425 292.373C423.642 303.446 423.859 316.473 424.077 327.547C424.077 328.198 425.163 328.198 425.163 327.547C425.054 313.434 424.945 297.367 424.945 283.254C429.507 282.168 446.776 274.786 450.903 272.723C451.229 272.832 451.012 272.072 450.577 272.181Z" fill="#093944"/>
<path d="M173.514 328.306H89.4495L99.333 284.882C107.262 284.339 117.254 282.385 126.16 276.523L100.093 281.408L112.149 228.431C115.842 226.694 119.426 224.523 122.793 221.591L112.909 224.74L114.538 217.683C119.643 215.404 124.748 212.255 129.309 207.913L115.516 213.341L131.373 143.211L140.388 182.835L132.35 180.773C132.35 180.773 135.609 183.161 141.039 185.658L153.964 242.435L144.623 240.047C144.623 240.047 148.425 242.761 154.724 245.475L163.63 284.774L145.384 280.214C145.818 280.54 153.529 285.859 164.608 288.899L166.128 295.738L138.107 288.79C138.107 288.79 150.597 297.692 166.997 299.321L169.169 309.091L159.829 306.811C159.829 306.811 163.63 309.525 169.821 312.24L173.514 328.306Z" fill="#032933"/>
<path d="M158.091 272.181C153.421 273.918 136.26 280.974 132.459 283.037C132.459 282.277 132.459 281.517 132.459 280.648C136.586 278.151 140.822 275.763 144.949 273.375C149.402 270.769 154.181 268.49 158.417 265.341C158.634 265.233 158.525 264.799 158.2 264.907C153.638 266.861 149.294 269.684 145.058 272.181C140.822 274.678 136.586 277.174 132.459 279.78C132.459 273.809 132.459 267.838 132.35 261.759C139.084 259.045 145.818 255.462 152.009 251.771C152.226 251.663 152.117 251.228 151.792 251.337C145.275 254.051 138.433 257.199 132.35 260.89C132.35 257.742 132.459 233.75 131.699 203.462C135.826 201.399 139.953 199.554 144.08 197.491C144.298 197.382 144.189 196.84 143.863 196.948C139.736 198.577 135.717 200.531 131.699 202.268C131.482 194.017 131.156 185.767 130.613 177.407C130.613 177.082 130.178 177.082 130.178 177.407C129.635 192.823 129.635 222.46 129.852 237.876C125.617 234.51 121.164 231.47 116.819 228.214C116.602 228.105 116.493 228.322 116.602 228.539C121.055 232.013 125.291 235.704 129.852 239.178C129.852 240.047 129.852 240.915 129.852 241.784C125.291 239.721 120.621 237.767 115.95 235.704C115.625 235.596 115.299 236.03 115.625 236.247C120.295 238.527 125.074 240.807 129.852 242.978C129.961 250.577 130.613 278.043 130.939 291.396C122.25 287.053 113.561 282.711 104.764 278.586C104.438 278.477 104.112 278.911 104.438 279.129C113.018 284.014 121.924 288.465 130.939 292.373C131.156 303.446 131.373 316.473 131.59 327.547C131.59 328.198 132.676 328.198 132.676 327.547C132.568 313.434 132.459 297.367 132.459 283.254C137.021 282.168 154.29 274.786 158.417 272.723C158.851 272.832 158.525 272.072 158.091 272.181Z" fill="#093944"/>
<path d="M396.598 190.869C396.381 190.435 394.317 190.326 392.906 189.458C391.385 188.481 388.996 184.03 388.67 183.161C388.344 182.293 391.819 177.082 391.819 173.391C391.819 169.591 383.782 163.186 381.719 162.643C379.655 162.1 365.536 162.969 364.015 163.295C362.495 163.512 353.046 168.94 353.046 171.762C353.046 174.585 355.87 180.881 359.997 182.944C364.124 185.007 374.768 184.79 376.288 185.224C377.809 185.549 387.366 202.376 388.67 203.353C390.082 204.33 393.34 204.113 393.883 204.005C394.426 203.896 396.381 201.182 396.924 199.988C397.467 198.902 397.25 192.063 396.598 190.869Z" fill="#263238"/>
<path d="M390.842 170.677C390.842 173.825 386.606 178.167 383.456 179.036C380.307 179.904 367.382 179.904 363.255 179.579C359.019 179.253 354.566 175.779 353.48 174.042C353.263 173.174 353.046 172.414 353.046 171.762C353.046 168.94 362.495 163.512 364.015 163.295C365.536 163.077 379.655 162.209 381.719 162.643C383.348 163.077 388.67 167.094 390.842 170.677Z" fill="#419EB7"/>
<path opacity="0.1" d="M390.842 170.677C390.842 173.825 386.606 178.167 383.456 179.036C380.307 179.904 367.382 179.904 363.255 179.579C359.019 179.253 354.566 175.779 353.48 174.042C353.263 173.174 353.046 172.414 353.046 171.762C353.046 168.94 362.495 163.512 364.015 163.295C365.536 163.077 379.655 162.209 381.719 162.643C383.348 163.077 388.67 167.094 390.842 170.677Z" fill="black"/>
<path d="M393.992 204.005L379.872 183.27L396.598 200.856L393.992 204.005Z" fill="white"/>
<path d="M357.716 168.288C357.716 168.288 363.038 164.923 364.233 164.597C365.427 164.272 378.026 163.62 379.764 163.62" fill="white"/>
<path d="M159.829 319.079L219.89 321.359C219.89 321.359 218.261 239.504 181.442 237.441C144.515 235.379 159.829 319.079 159.829 319.079Z" fill="#419EB7"/>
<path opacity="0.4" d="M159.829 319.079L219.89 321.359C219.89 321.359 218.261 239.504 181.442 237.441C144.515 235.379 159.829 319.079 159.829 319.079Z" fill="black"/>
<path d="M2.12717 278.912L54.0427 314.845C54.0427 314.845 41.7698 234.402 19.3961 232.99C-2.86888 231.688 2.12717 278.912 2.12717 278.912Z" fill="#419EB7"/>
<path opacity="0.4" d="M2.12717 278.912L54.0427 314.845C54.0427 314.845 41.7698 234.402 19.3961 232.99C-2.86888 231.688 2.12717 278.912 2.12717 278.912Z" fill="black"/>
<path d="M253.668 307.246C253.668 332.866 236.507 353.71 214.894 355.012C214.785 355.012 214.785 355.012 214.677 355.012H188.285V259.371H214.785V259.479C236.507 260.673 253.668 281.626 253.668 307.246Z" fill="#263238"/>
<path opacity="0.2" d="M253.668 307.246C253.668 332.866 236.507 353.71 214.894 355.012C214.785 355.012 214.785 355.012 214.677 355.012H188.285V259.371H214.785V259.479C236.507 260.673 253.668 281.626 253.668 307.246Z" fill="black"/>
<path d="M188.393 355.121C211.007 355.121 229.339 333.687 229.339 307.246C229.339 280.805 211.007 259.371 188.393 259.371C165.779 259.371 147.447 280.805 147.447 307.246C147.447 333.687 165.779 355.121 188.393 355.121Z" fill="#263238"/>
<path d="M214.677 355.012C214.025 355.012 213.373 355.121 212.83 355.121C212.287 355.121 211.527 355.121 210.984 355.012H214.677Z" fill="#263238"/>
<path d="M188.393 342.202C204.889 342.202 218.261 326.552 218.261 307.246C218.261 287.94 204.889 272.289 188.393 272.289C171.898 272.289 158.525 287.94 158.525 307.246C158.525 326.552 171.898 342.202 188.393 342.202Z" fill="#DBDBDB"/>
<path d="M188.393 339.488C203.629 339.488 215.98 325.053 215.98 307.246C215.98 289.439 203.629 275.003 188.393 275.003C173.157 275.003 160.806 289.439 160.806 307.246C160.806 325.053 173.157 339.488 188.393 339.488Z" fill="#A6A6A6"/>
<path d="M184.049 299.104H192.738C189.805 294.219 200.014 276.957 200.014 276.957L195.453 275.22C192.412 281.3 190.891 283.037 188.393 283.037C185.895 283.037 184.375 281.3 181.333 275.22L176.772 276.957C176.772 276.957 186.981 294.219 184.049 299.104Z" fill="#DBDBDB"/>
<path d="M193.389 299.755L196.104 309.417C199.254 304.64 216.306 310.611 216.306 310.611V304.966C210.441 303.446 208.486 302.361 207.726 299.538C206.965 296.715 207.943 294.544 211.961 289.333L209.138 284.882C209.138 284.882 198.277 301.492 193.389 299.755Z" fill="#DBDBDB"/>
<path d="M195.779 310.394L188.828 316.365C193.715 318.319 194.041 339.271 194.041 339.271L198.602 337.534C197.951 330.586 198.277 328.089 200.34 326.352C202.404 324.615 204.467 325.05 210.006 327.872L212.83 323.313C212.83 323.313 195.887 316.365 195.779 310.394Z" fill="#DBDBDB"/>
<path d="M187.959 316.365L181.008 310.394C180.899 316.365 164.064 323.313 164.064 323.313L166.888 327.872C172.427 325.05 174.491 324.615 176.555 326.352C178.618 328.089 178.944 330.586 178.292 337.534L182.854 339.163C182.637 339.163 183.071 318.319 187.959 316.365Z" fill="#DBDBDB"/>
<path d="M180.682 309.417L183.397 299.755C178.51 301.492 167.649 284.882 167.649 284.882L164.825 289.442C168.843 294.653 169.821 296.933 169.061 299.647C168.3 302.469 166.345 303.555 160.48 305.075V310.72C160.372 310.611 177.532 304.64 180.682 309.417Z" fill="#DBDBDB"/>
<path d="M180.356 307.029C180.356 312.24 183.94 316.365 188.393 316.365C192.846 316.365 196.43 312.131 196.43 307.029C196.43 301.818 192.846 297.693 188.393 297.693C183.94 297.693 180.356 301.818 180.356 307.029Z" fill="#DBDBDB"/>
<path d="M445.581 307.246C445.581 332.866 428.421 353.71 406.808 355.012C406.699 355.012 406.699 355.012 406.59 355.012H380.198V259.371H406.699V259.479C428.312 260.673 445.581 281.626 445.581 307.246Z" fill="#263238"/>
<path opacity="0.2" d="M445.581 307.246C445.581 332.866 428.421 353.71 406.808 355.012C406.699 355.012 406.699 355.012 406.59 355.012H380.198V259.371H406.699V259.479C428.312 260.673 445.581 281.626 445.581 307.246Z" fill="black"/>
<path d="M380.198 355.121C402.812 355.121 421.144 333.687 421.144 307.246C421.144 280.805 402.812 259.371 380.198 259.371C357.584 259.371 339.252 280.805 339.252 307.246C339.252 333.687 357.584 355.121 380.198 355.121Z" fill="#263238"/>
<path d="M406.482 355.012C405.83 355.012 405.178 355.121 404.635 355.121C404.092 355.121 403.332 355.121 402.789 355.012H406.482Z" fill="#263238"/>
<path d="M380.198 342.202C396.694 342.202 410.066 326.552 410.066 307.246C410.066 287.94 396.694 272.289 380.198 272.289C363.703 272.289 350.33 287.94 350.33 307.246C350.33 326.552 363.703 342.202 380.198 342.202Z" fill="#DBDBDB"/>
<path d="M380.198 339.488C395.434 339.488 407.785 325.053 407.785 307.246C407.785 289.439 395.434 275.003 380.198 275.003C364.962 275.003 352.611 289.439 352.611 307.246C352.611 325.053 364.962 339.488 380.198 339.488Z" fill="#A6A6A6"/>
<path d="M375.854 299.104H384.543C381.61 294.219 391.819 276.957 391.819 276.957L387.258 275.22C384.217 281.3 382.696 283.037 380.198 283.037C377.7 283.037 376.18 281.3 373.139 275.22L368.577 276.957C368.577 276.957 378.786 294.219 375.854 299.104Z" fill="#DBDBDB"/>
<path d="M385.194 299.755L387.909 309.417C391.059 304.64 408.111 310.611 408.111 310.611V304.966C402.246 303.446 400.291 302.361 399.531 299.538C398.77 296.715 399.748 294.544 403.767 289.333L400.943 284.882C400.943 284.882 390.19 301.492 385.194 299.755Z" fill="#DBDBDB"/>
<path d="M387.584 310.394L380.633 316.365C385.52 318.319 385.846 339.271 385.846 339.271L390.408 337.534C389.756 330.586 390.082 328.089 392.145 326.352C394.209 324.615 396.272 325.05 401.812 327.872L404.635 323.313C404.635 323.313 387.692 316.365 387.584 310.394Z" fill="#DBDBDB"/>
<path d="M379.764 316.365L372.813 310.394C372.704 316.365 355.87 323.313 355.87 323.313L358.693 327.872C364.233 325.05 366.296 324.615 368.36 326.352C370.423 328.089 370.749 330.586 370.097 337.534L374.659 339.163C374.442 339.163 374.876 318.319 379.764 316.365Z" fill="#DBDBDB"/>
<path d="M372.487 309.417L375.202 299.755C370.315 301.492 359.454 284.882 359.454 284.882L356.63 289.442C360.648 294.653 361.626 296.933 360.866 299.647C360.105 302.469 358.15 303.555 352.285 305.075V310.72C352.177 310.611 369.337 304.64 372.487 309.417Z" fill="#DBDBDB"/>
<path d="M372.161 307.029C372.161 312.24 375.745 316.365 380.198 316.365C384.651 316.365 388.235 312.131 388.235 307.029C388.235 301.818 384.651 297.693 380.198 297.693C375.745 297.693 372.161 301.818 372.161 307.029Z" fill="#DBDBDB"/>
<path d="M75.9819 292.807C75.9819 318.428 70.5514 339.271 50.7844 340.574C50.6758 340.574 50.6758 340.574 50.5672 340.574H26.5644V244.932H50.7844V245.041C70.4428 246.343 75.9819 267.187 75.9819 292.807Z" fill="#263238"/>
<path opacity="0.2" d="M75.9819 292.807C75.9819 318.428 70.5514 339.271 50.7844 340.574C50.6758 340.574 50.6758 340.574 50.5672 340.574H26.5644V244.932H50.7844V245.041C70.4428 246.343 75.9819 267.187 75.9819 292.807Z" fill="black"/>
<path d="M50.5672 340.574C50.0241 340.574 49.3725 340.683 48.8294 340.683C48.2864 340.683 47.6347 340.683 47.0917 340.574H50.5672Z" fill="#263238"/>
<path d="M26.5644 340.682C40.4206 340.682 51.6533 319.248 51.6533 292.807C51.6533 266.367 40.4206 244.932 26.5644 244.932C12.7082 244.932 1.47552 266.367 1.47552 292.807C1.47552 319.248 12.7082 340.682 26.5644 340.682Z" fill="#263238"/>
<path d="M26.5644 327.764C36.7016 327.764 44.9195 312.113 44.9195 292.807C44.9195 273.501 36.7016 257.851 26.5644 257.851C16.4272 257.851 8.20933 273.501 8.20933 292.807C8.20933 312.113 16.4272 327.764 26.5644 327.764Z" fill="#DBDBDB"/>
<path d="M26.5644 325.05C35.9218 325.05 43.5075 310.614 43.5075 292.807C43.5075 275 35.9218 260.565 26.5644 260.565C17.207 260.565 9.62126 275 9.62126 292.807C9.62126 310.614 17.207 325.05 26.5644 325.05Z" fill="#A6A6A6"/>
<path d="M23.9578 284.774H29.2796C27.5419 279.889 33.7327 262.627 33.7327 262.627L30.9088 260.891C29.0624 266.97 28.0849 268.707 26.5644 268.707C25.0439 268.707 24.0664 266.97 22.22 260.891L19.3961 262.627C19.5048 262.627 25.6955 279.78 23.9578 284.774Z" fill="#DBDBDB"/>
<path d="M29.6055 285.317L31.2346 294.979C33.1896 290.202 43.6161 296.173 43.6161 296.173V290.528C40.032 289.008 38.8373 287.922 38.4029 285.1C37.9684 282.277 38.5115 280.106 41.0095 274.895L39.2717 270.444C39.3804 270.444 32.6465 287.054 29.6055 285.317Z" fill="#DBDBDB"/>
<path d="M31.126 295.956L26.7816 301.926C29.7141 303.88 30.0399 324.833 30.0399 324.833L32.8638 323.096C32.5379 316.148 32.6465 313.651 33.9499 311.914C35.1446 310.177 36.4479 310.611 39.8148 313.434L41.5526 308.874C41.5526 308.874 31.2346 301.926 31.126 295.956Z" fill="#DBDBDB"/>
<path d="M26.2386 301.926L21.8942 295.956C21.7856 301.926 11.4676 308.874 11.4676 308.874L13.2054 313.434C16.5723 310.611 17.8756 310.177 19.0703 311.914C20.265 313.651 20.4822 316.148 20.1564 323.096L22.9803 324.724C23.0889 324.833 23.3061 303.88 26.2386 301.926Z" fill="#DBDBDB"/>
<path d="M21.7856 294.979L23.4147 285.317C20.3736 287.054 13.7484 270.444 13.7484 270.444L12.0107 275.003C14.5087 280.214 15.0518 282.494 14.6173 285.208C14.1829 288.031 12.9882 289.116 9.40404 290.636V296.281C9.40404 296.173 19.9392 290.202 21.7856 294.979Z" fill="#DBDBDB"/>
<path d="M21.677 292.59C21.677 297.801 23.8492 301.926 26.5644 301.926C29.2796 301.926 31.4518 297.693 31.4518 292.59C31.4518 287.379 29.2796 283.254 26.5644 283.254C23.8492 283.254 21.677 287.379 21.677 292.59Z" fill="#DBDBDB"/>
<path d="M447.319 321.359C444.604 321.359 223.8 321.359 219.89 321.359C215.871 321.359 213.373 245.041 180.356 245.041C162.218 245.041 152.769 277.066 159.503 319.079C159.503 319.079 55.346 315.388 54.1513 314.845C52.9566 314.302 40.4665 239.504 16.3551 239.504C3.4305 239.504 1.69274 272.832 2.23579 278.803C2.23579 278.803 -5.58412 248.949 15.9206 219.42C16.8981 218.009 23.0889 202.702 29.171 197.166C29.171 197.166 32.8638 185.332 42.6387 175.345C42.6387 175.345 65.3381 130.618 78.2627 120.956C91.1873 111.294 145.166 104.238 196.213 104.021C247.26 103.912 297.003 111.186 310.905 117.591C324.807 123.996 347.832 140.28 385.086 183.921C385.086 183.921 415.714 195.971 425.597 209.541C435.589 223.111 445.69 248.623 445.69 248.623C445.69 248.623 453.075 256.331 451.772 278.912C451.772 278.912 453.293 285.751 452.532 296.39C451.772 307.246 449.6 321.359 447.319 321.359Z" fill="#419EB7"/>
<path d="M49.0466 175.671C50.0241 176.756 63.709 178.167 104.981 181.207C146.252 184.355 172.319 188.915 173.514 188.698C174.6 188.481 175.794 186.961 175.794 185.875C175.794 184.79 157.657 130.184 145.166 123.019C136.043 117.808 118.557 116.939 103.134 118.568C87.7118 120.196 78.2627 127.253 71.0944 136.589C63.9262 145.816 47.7433 174.042 49.0466 175.671Z" fill="#263238"/>
<path d="M158.96 119.219C156.462 120.522 166.888 133.549 176.446 155.587C184.375 173.608 188.176 185.767 188.828 185.984C189.588 186.201 381.827 184.573 382.479 184.355C383.131 184.138 342.511 136.155 314.815 121.282C308.298 117.808 277.562 115.528 241.069 115.094C204.793 114.66 162.11 117.591 158.96 119.219Z" fill="#263238"/>
<path d="M165.694 121.824C164.173 123.453 174.817 139.52 181.551 156.13C188.285 172.739 195.453 178.384 200.557 179.036C205.662 179.687 277.779 178.819 303.628 178.493C329.586 178.167 368.468 178.493 369.337 177.19C370.206 175.888 362.06 162.86 347.941 149.29C333.822 135.72 317.53 124.213 314.055 122.693C306.778 119.762 268.439 117.808 245.305 117.808C219.564 117.699 167.54 119.87 165.694 121.824Z" fill="#032933"/>
<path opacity="0.1" d="M369.446 177.19C368.577 178.493 329.586 178.167 303.737 178.493C277.779 178.927 205.771 179.687 200.666 179.036C195.561 178.385 188.393 172.739 181.659 156.13C174.926 139.52 164.282 123.561 165.802 121.825C166.997 120.522 190.565 119.111 213.808 118.351C207.291 123.996 203.707 132.246 210.984 139.628C220.868 149.833 277.019 165.574 357.607 159.278C365.644 168.723 370.097 176.213 369.446 177.19Z" fill="white"/>
<path d="M154.833 183.378C155.267 183.487 160.263 156.455 160.155 155.913C160.046 155.37 150.597 131.921 143.429 126.71C136.369 121.607 114.973 120.196 100.854 122.367C86.7343 124.539 80.3263 129.315 74.6786 136.046C69.0309 142.777 52.6308 172.522 52.9566 173.608C53.0652 174.151 76.1991 175.888 100.962 178.059C126.703 180.447 153.964 183.378 154.833 183.378Z" fill="#032933"/>
<path opacity="0.1" d="M156.788 174.802C155.81 179.579 155.05 183.378 154.833 183.378C154.072 183.27 126.703 180.447 100.962 178.059C76.1991 175.779 53.0652 174.151 52.9566 173.608C52.6308 172.522 69.0309 142.777 74.6786 136.046C80.3263 129.315 86.7343 124.539 100.854 122.367C103.243 122.042 105.85 121.716 108.456 121.607C92.8164 126.601 81.3038 137.349 92.925 150.593C103.243 162.426 130.938 171.111 156.788 174.802Z" fill="white"/>
<path d="M90.2098 177.19C90.6442 177.19 89.0151 176.105 88.7979 175.671C88.5806 175.236 99.5502 137.349 105.524 123.127L107.37 121.716C107.37 121.716 100.419 121.933 97.378 123.019C97.378 123.019 97.8125 123.127 98.0297 123.779C98.2469 124.43 91.7303 140.714 88.6892 150.593C85.6482 160.472 81.3038 175.019 81.0866 175.236C80.8693 175.453 78.3713 176.105 78.3713 176.105C78.3713 176.105 86.7343 177.299 90.2098 177.19Z" fill="#263238"/>
<path d="M220.107 182.727H239.874C239.874 182.727 238.571 178.385 238.028 177.733C237.485 177.082 232.38 176.213 229.991 176.213C227.601 176.213 222.497 177.082 221.954 177.733C221.302 178.385 220.107 182.727 220.107 182.727Z" fill="#263238"/>
<path d="M229.448 177.408C229.448 177.408 240.96 173.499 242.046 173.391C243.133 173.282 289.509 173.391 289.509 173.391L289.618 174.259C289.618 174.259 244.87 175.345 244.11 175.345C243.35 175.453 229.665 180.339 229.665 180.339L229.448 177.408Z" fill="#263238"/>
<path d="M294.071 182.727H313.838C313.838 182.727 312.534 178.385 311.991 177.733C311.448 177.082 306.343 176.213 303.954 176.213C301.565 176.213 296.46 177.082 295.917 177.733C295.374 178.385 294.071 182.727 294.071 182.727Z" fill="#263238"/>
<path d="M303.411 177.408C303.411 177.408 314.924 173.499 316.01 173.391C317.096 173.282 363.472 173.391 363.472 173.391L363.581 174.259C363.581 174.259 318.834 175.345 318.073 175.345C317.313 175.453 303.628 180.339 303.628 180.339L303.411 177.408Z" fill="#263238"/>
<g opacity="0.2">
<path d="M188.936 186.092C188.067 187.178 187.307 188.372 187.09 189.783C186.873 191.195 187.307 192.606 187.633 193.909C188.285 196.623 189.153 199.337 189.914 201.942C191.869 208.13 192.955 212.364 200.123 213.45C211.201 215.404 222.171 217.575 233.249 219.637L249.758 222.786C253.885 223.437 258.012 224.74 262.139 224.523C286.142 224.306 342.728 223.98 367.382 223.763C378.135 223.654 407.351 223.437 417.886 223.329C420.71 223.329 423.534 223.329 426.249 223.22C427.009 223.329 427.444 222.677 427.769 222.134C428.855 220.289 429.507 218.335 430.05 216.272C429.29 218.552 428.747 221.157 427.226 223.003C427.009 223.329 426.575 223.329 426.249 223.329C423.425 223.437 420.601 223.546 417.777 223.654C407.351 223.98 378.135 224.414 367.274 224.631C333.387 225.066 296.134 225.283 262.031 225.5C257.795 225.717 253.668 224.414 249.432 223.763L232.923 220.506C221.954 218.335 210.984 216.055 199.906 213.992C192.629 212.581 191.434 208.347 189.588 201.942C188.828 199.228 188.067 196.514 187.416 193.8C187.09 192.389 186.655 191.086 186.873 189.675C187.198 188.372 187.959 187.069 188.936 186.092Z" fill="black"/>
<path d="M245.739 238.636C241.612 239.396 237.593 240.698 233.683 242.001C230.099 243.195 225.212 244.715 221.845 246.126C215.98 248.298 210.224 250.794 204.467 253.4C204.142 253.617 203.49 253.834 203.164 254.16C202.078 255.354 201.426 256.765 200.666 258.068C200.992 257.091 201.426 256.114 201.969 255.245C202.512 254.268 203.164 253.4 204.142 252.966C213.373 247.972 223.148 243.955 233.358 241.133C237.485 240.155 241.503 238.961 245.739 238.636Z" fill="black"/>
<path d="M160.155 186.961C158.96 191.629 157.765 196.406 156.679 201.074C156.353 202.268 156.462 203.462 156.462 204.656C156.462 206.067 156.679 207.479 156.57 208.89C156.136 210.627 155.267 213.667 154.833 215.512C153.529 221.374 151.574 227.237 151.683 233.316C151.683 235.596 151.683 241.892 151.683 244.281C151.792 260.782 151.683 278.694 151.466 295.304C151.574 297.693 151.9 300.189 152.226 302.578C152.443 308.114 152.443 313.759 154.181 319.079C152.226 313.868 152.117 308.114 151.683 302.578C151.357 300.298 150.923 297.801 150.706 295.304C150.597 278.694 150.488 260.782 150.488 244.281C150.488 240.915 150.488 234.836 150.488 231.471C150.814 225.934 152.552 220.615 153.855 215.295C154.29 213.558 155.159 210.41 155.702 208.673C155.919 206.176 155.376 203.462 156.027 200.965C157.439 196.297 158.743 191.629 160.155 186.961Z" fill="black"/>
<path d="M77.3938 179.036C74.3528 185.55 70.2256 191.737 69.7911 199.12C68.2706 202.376 66.8587 205.742 65.664 209.216C64.5779 212.581 63.6004 216.164 63.3832 219.746C63.3832 226.911 64.4693 234.185 65.3381 241.241C66.7501 251.989 68.2706 262.736 70.117 273.375C71.5289 280.214 71.6375 288.139 77.7197 292.699C81.8468 296.173 87.1687 297.801 92.4906 298.235L97.9211 298.67C105.089 299.321 144.08 301.818 152.117 302.469C137.672 301.818 123.227 301.166 108.673 300.298C102.266 299.755 93.2509 299.755 86.9515 298.344C79.8919 296.607 72.8322 291.722 71.2031 284.231C69.5739 277.175 68.4878 270.01 67.2931 262.845C65.3381 248.515 62.7315 234.185 62.6229 219.638C63.2746 212.364 66.207 205.525 69.3567 199.011C69.7911 192.063 74.1355 185.332 77.3938 179.036Z" fill="black"/>
</g>
<path opacity="0.1" d="M452.532 296.498C451.772 307.137 449.491 321.359 447.319 321.359H219.89C215.871 321.359 213.482 245.041 180.356 245.041C162.218 245.041 152.769 277.066 159.503 319.079C159.503 319.079 55.346 315.388 54.1513 314.845C52.9566 314.302 40.4665 239.613 16.3551 239.613C3.4305 239.613 1.69274 272.941 2.23579 278.912C2.23579 278.912 0.172198 271.095 1.04108 259.371C1.90996 252.423 7.23184 232.773 17.0067 232.773C26.7816 232.773 31.126 243.955 34.1671 244.715C37.0996 245.475 40.032 242.761 40.032 236.139C40.032 229.517 38.2943 220.615 38.1857 220.289C38.0771 219.963 138.107 221.266 140.931 221.375C143.754 221.483 165.151 224.523 165.476 224.74C165.911 224.957 167.431 228.214 167.323 228.54C167.323 228.974 162.218 235.487 160.263 241.458C159.612 243.521 164.499 239.83 165.476 239.83C166.454 239.83 162.11 246.669 161.784 249.817C161.675 250.903 168.626 237.442 181.551 237.442C194.475 237.442 205.336 251.554 213.048 270.878C214.242 274.026 236.616 265.559 237.919 265.559C239.114 265.559 411.586 262.736 420.275 262.41C428.964 262.193 436.567 259.154 437.218 258.828C437.87 258.502 438.956 247.863 445.907 248.623C445.907 248.623 453.293 256.331 451.989 278.912C451.772 279.02 453.293 285.859 452.532 296.498Z" fill="black"/>
<path d="M306.887 243.629C306.887 244.606 334.473 244.172 361.191 243.847C386.28 243.521 410.5 243.304 410.5 242.11C410.5 240.915 386.063 241.024 360.866 241.35C334.256 241.675 306.887 242.11 306.887 243.629Z" fill="#EBEBEB"/>
<path opacity="0.2" d="M410.5 242.11C410.5 243.304 386.172 243.412 361.191 243.847C334.473 244.281 306.887 244.715 306.887 243.629C306.887 243.412 307.647 243.195 308.842 242.978C308.842 243.738 335.777 243.412 361.952 243.087C386.28 242.87 409.849 242.652 410.175 241.784C410.392 242.001 410.5 242.001 410.5 242.11Z" fill="black"/>
<path d="M361.3 233.968C355.327 233.968 353.372 239.938 353.915 244.172C354.458 248.406 357.282 252.423 363.038 252.206C369.88 251.88 370.532 245.584 370.097 242.652C369.772 239.721 367.274 233.968 361.3 233.968Z" fill="#EBEBEB"/>
<path opacity="0.2" d="M369.88 246.886C369.229 249.492 367.382 251.989 363.038 252.206C357.282 252.423 354.458 248.406 353.915 244.172C353.372 239.938 355.327 233.968 361.3 233.968C361.517 233.968 361.735 233.968 361.952 233.968C356.956 234.293 355.327 239.613 355.761 243.304C356.304 247.103 358.802 250.794 364.124 250.577C367.274 250.469 369.011 248.84 369.88 246.886Z" fill="black"/>
<path d="M298.524 259.262C298.524 260.239 330.346 259.805 361.083 259.479C389.973 259.154 417.886 258.936 417.886 257.742C417.886 256.548 389.756 256.657 360.757 256.982C330.129 257.308 298.524 257.851 298.524 259.262Z" fill="#EBEBEB"/>
<path opacity="0.2" d="M417.886 257.742C417.886 258.936 389.864 259.045 360.974 259.479C330.238 259.913 298.415 260.348 298.415 259.262C298.415 259.045 299.175 258.828 300.696 258.611C300.696 259.371 331.758 259.045 361.843 258.719C389.864 258.502 417.017 258.285 417.451 257.417C417.777 257.634 417.886 257.742 417.886 257.742Z" fill="black"/>
<path d="M236.616 290.202C237.919 289.116 261.922 292.047 372.378 290.202C423.751 289.333 449.708 285.534 450.686 285.642C451.663 285.751 451.772 289.008 448.731 291.179C446.885 292.482 410.5 298.344 372.813 298.344C339.252 298.344 267.135 298.887 255.622 297.367C244.11 295.847 239.765 294.001 238.462 293.242C237.05 292.482 235.421 291.179 236.616 290.202Z" fill="#EBEBEB"/>
<g opacity="0.2">
<path d="M451.229 287.162C451.12 288.356 450.36 289.876 448.622 291.179C446.776 292.482 410.392 298.344 372.704 298.344C339.144 298.344 267.027 298.887 255.514 297.367C244.001 295.847 239.657 294.001 238.354 293.242C237.05 292.482 235.421 291.07 236.616 290.093C236.725 289.985 236.942 289.985 237.376 289.876C237.811 290.31 238.354 290.636 238.788 290.962C240.091 291.722 244.436 293.567 255.948 295.087C267.57 296.607 339.795 296.064 373.356 296.064C411.261 296.064 447.645 290.093 449.491 288.899C450.36 288.356 450.903 287.813 451.229 287.162Z" fill="black"/>
</g>
<path d="M282.123 288.356C285.599 287.162 340.773 286.945 369.011 286.619C400.617 286.185 436.458 285.1 438.63 285.968C440.911 286.837 441.454 292.265 440.911 296.933C440.368 301.601 436.241 306.052 425.923 307.463C415.714 308.874 391.819 309.96 368.142 310.503C344.574 311.046 306.995 311.48 296.786 310.503C286.576 309.526 280.603 303.446 278.539 299.321C276.476 295.087 278.865 289.442 282.123 288.356Z" fill="#EBEBEB"/>
<path d="M283.427 288.899C286.794 287.814 341.207 287.596 368.903 287.271C399.965 286.945 435.263 285.859 437.544 286.619C439.716 287.379 440.259 292.482 439.716 296.715C439.173 301.058 435.046 305.183 424.945 306.377C414.845 307.68 391.276 308.657 368.142 309.2C344.9 309.743 307.973 310.177 297.872 309.2C287.771 308.223 281.906 302.686 279.843 298.887C277.779 295.196 280.168 289.985 283.427 288.899Z" fill="#263238"/>
<path d="M327.848 265.124C327.414 265.341 327.74 284.557 328.174 284.665C328.608 284.882 406.156 283.037 406.59 282.82C406.916 282.494 405.939 263.822 405.83 263.605C405.83 263.387 328.391 264.799 327.848 265.124Z" fill="white"/>
<path d="M338.383 284.557C332.301 284.665 328.283 284.774 328.174 284.665C327.74 284.448 327.414 265.342 327.848 265.124C327.957 265.016 331.867 264.907 337.84 264.799L338.383 284.557Z" fill="#093944"/>
<path d="M160.155 124.104C158.2 121.065 153.855 116.288 148.207 113.574C142.668 110.86 118.557 109.449 118.557 109.449C118.557 109.449 140.496 109.883 147.121 111.294C153.855 112.705 160.046 119.545 160.046 119.545V124.104H160.155Z" fill="#263238"/>
<path d="M152.009 190.869C151.792 190.435 149.728 190.326 148.316 189.458C146.796 188.481 144.406 184.03 144.08 183.161C143.754 182.293 147.23 177.082 147.23 173.391C147.23 169.591 139.193 163.186 137.129 162.643C135.066 162.1 120.946 162.969 119.426 163.295C117.905 163.512 108.456 168.94 108.456 171.762C108.456 174.585 111.28 180.881 115.407 182.944C119.534 185.007 130.178 184.79 131.699 185.224C133.219 185.549 142.777 202.376 144.08 203.353C145.492 204.33 148.751 204.113 149.294 204.005C149.837 203.896 151.792 201.182 152.335 199.988C152.878 198.902 152.66 192.063 152.009 190.869Z" fill="#263238"/>
<path d="M146.252 170.677C146.252 173.825 142.017 178.167 138.867 179.036C135.717 179.904 122.793 179.904 118.666 179.579C114.43 179.253 109.977 175.779 108.891 174.042C108.673 173.174 108.456 172.414 108.456 171.762C108.456 168.94 117.905 163.512 119.426 163.295C120.946 163.077 135.066 162.209 137.129 162.643C138.758 163.077 144.08 167.094 146.252 170.677Z" fill="#419EB7"/>
<path d="M149.402 204.005L135.283 183.27L152.009 200.856L149.402 204.005Z" fill="white"/>
<path d="M113.126 168.288C113.126 168.288 118.448 164.923 119.643 164.597C120.838 164.272 133.437 163.62 135.174 163.62" fill="white"/>
<g opacity="0.1">
<path d="M29.0624 197.274C80.978 198.902 133.437 202.268 184.809 210.736C188.176 211.387 191.651 212.038 195.018 212.69C191.543 212.255 188.176 211.821 184.7 211.278C133.437 205.09 80.5435 201.616 29.0624 197.274Z" fill="black"/>
<path d="M304.063 186.961C311.339 190.109 318.508 193.8 325.242 197.925C331.975 202.051 338.818 207.37 341.533 214.969C340.773 213.124 339.578 211.495 338.383 209.976C334.691 205.308 329.803 201.834 324.698 198.794C318.834 195.211 310.145 190.435 304.063 186.961Z" fill="black"/>
</g>
<path opacity="0.3" d="M321.44 186.961C328.283 190.218 335.234 194.126 341.642 198.251C347.941 202.485 354.566 207.696 357.173 215.078C353.806 208.13 347.398 203.353 341.099 199.228C335.451 195.429 327.197 190.543 321.44 186.961Z" fill="white"/>
<path opacity="0.2" d="M75.5475 205.416C73.2667 208.022 71.9633 213.884 72.1806 215.621C72.3978 217.358 73.5925 218.443 75.113 218.443C76.6336 218.552 78.2627 215.946 79.2402 213.124C80.2177 210.301 79.8919 205.525 79.2402 205.308C78.4799 205.199 76.525 204.222 75.5475 205.416Z" fill="black"/>
<path d="M66.4242 212.473C66.9673 212.907 80.4349 214.644 80.8694 214.535C81.3038 214.427 82.4985 211.387 81.8468 210.627C81.1952 209.867 68.0534 208.347 67.1845 208.564C66.3156 208.782 65.664 211.93 66.4242 212.473Z" fill="#DBDBDB"/>
<path d="M81.7382 213.124C81.521 213.884 81.0866 214.535 80.8694 214.535C80.4349 214.644 66.8587 212.907 66.4242 212.473C66.0984 212.147 66.0984 211.387 66.207 210.519C66.207 210.736 66.3156 210.953 66.4242 211.061C66.9673 211.496 79.7833 213.015 81.7382 213.124Z" fill="#C7C7C7"/>
<path d="M159.829 319.079C159.829 319.079 155.593 322.987 148.642 318.645C147.882 314.954 147.447 311.154 147.447 307.137C147.447 294.327 151.792 282.603 158.851 274.026C158.851 284.557 156.353 302.469 159.829 319.079Z" fill="#263238"/>
<g opacity="0.4">
<path d="M10.1643 230.059C12.3365 226.585 14.7259 223.111 16.8981 219.529C20.265 211.821 24.3922 203.462 30.1485 196.731C32.3207 190.76 38.4029 180.556 42.8559 175.779C50.2414 161.449 58.0613 147.228 67.5103 134.092C71.2031 129.207 74.7872 123.996 80.1091 120.739C85.5396 117.808 91.4045 116.179 97.2694 114.66C101.179 113.682 105.089 112.814 109.108 112.054C99.4416 114.66 89.5581 117.048 80.7607 121.933C75.7647 125.19 72.3978 130.401 68.9223 135.069C64.3606 141.691 60.2335 148.53 56.2149 155.478C52.1963 162.535 48.2864 169.591 44.5936 176.756C39.1631 182.944 34.8187 190.109 31.4518 197.6C25.6955 204.222 21.4597 212.147 17.5498 219.963C15.1604 223.329 12.6623 226.694 10.1643 230.059Z" fill="white"/>
<path d="M190.674 187.286C247.151 186.201 308.19 186.635 364.558 185.332C370.315 185.115 376.831 184.898 382.479 184.464C351.199 188.046 318.182 187.829 286.577 188.372C255.623 188.481 221.736 188.372 190.674 187.286Z" fill="white"/>
<path d="M248.02 264.256C274.738 263.279 315.249 262.627 342.293 261.976C373.682 261.325 405.178 261.216 436.567 259.262C405.83 262.953 373.356 263.17 342.402 264.147C311.883 264.69 278.539 264.907 248.02 264.256Z" fill="white"/>
<path d="M268.982 216.489C278.648 221.049 289.183 234.836 280.06 244.606C273.869 251.446 262.574 250.577 254.862 247.212C262.465 249.057 273 249.492 278.431 243.195C286.468 234.185 276.476 222.134 268.982 216.489Z" fill="white"/>
<path d="M260.293 253.726C269.09 255.897 278.105 264.907 268.004 272.181C266.701 273.049 265.289 273.918 263.66 274.461C257.252 276.415 249.649 276.089 243.784 272.615C250.627 274.786 260.727 274.786 266.701 270.335C275.715 264.473 266.701 256.982 260.293 253.726Z" fill="white"/>
<path d="M416.474 221.483C416.8 229.191 421.904 238.744 428.53 242.869C431.245 244.606 434.72 245.475 437.436 243.304C438.739 242.327 439.825 240.915 440.259 239.178C440.259 240.915 439.391 242.761 438.087 244.064C435.372 246.995 430.702 246.56 427.443 244.606C420.167 240.698 414.736 229.734 416.474 221.483Z" fill="white"/>
<path d="M439.608 255.571C439.499 259.805 443.626 274.243 449.383 267.513C450.034 266.753 450.469 265.884 450.795 264.799C451.12 267.078 450.034 269.467 447.971 270.661C440.585 273.484 437.218 260.565 439.608 255.571Z" fill="white"/>
</g>
<path d="M422.122 213.558C415.496 214.535 416.691 225.717 419.624 231.579C422.556 237.441 428.312 243.738 434.394 243.738C440.477 243.738 441.454 233.099 436.567 223.871C432.331 216.055 427.226 212.798 422.122 213.558Z" fill="white"/>
<path d="M434.286 244.172C427.987 244.172 422.013 237.767 419.081 231.796C416.8 227.237 415.714 220.072 417.777 216.055C418.646 214.318 420.058 213.341 422.013 213.015C427.552 212.255 432.874 215.946 436.893 223.546C440.368 229.951 441.128 237.55 438.739 241.567C437.653 243.195 436.132 244.172 434.286 244.172ZM422.122 214.101C420.601 214.318 419.515 215.187 418.755 216.598C416.8 220.18 417.886 227.128 420.058 231.362C422.882 237.007 428.53 243.195 434.286 243.195C435.806 243.195 437.001 242.435 437.761 241.133C439.934 237.441 439.173 230.276 435.915 224.197C432.114 216.815 427.226 213.341 422.122 214.101Z" fill="#C7C7C7"/>
<path d="M422.665 216.489C420.275 217.575 420.601 220.832 421.036 223.111C422.339 228.757 426.032 234.076 431.028 236.899C431.788 237.224 432.548 237.441 433.308 237.333C433.526 237.333 433.96 236.573 434.069 235.596C435.155 229.842 430.267 214.427 422.665 216.489ZM422.665 216.489C428.964 214.427 436.024 226.585 437.001 231.796C439.065 240.807 432.331 243.304 426.466 237.007C422.99 233.208 421.144 228.105 420.601 223.111C420.492 220.832 420.275 217.575 422.665 216.489Z" fill="#DBDBDB"/>
<path d="M250.627 213.558C238.462 215.187 235.747 226.477 240.743 234.944C247.803 246.669 262.031 249.383 271.262 246.995C281.58 244.389 283.753 233.316 275.824 224.088C268.873 215.946 259.533 212.255 250.627 213.558Z" fill="white"/>
<path d="M264.854 248.298C255.948 248.298 245.739 244.281 240.309 235.162C237.485 230.494 237.05 224.957 239.114 220.615C241.069 216.489 245.196 213.775 250.518 213.015C259.967 211.713 269.308 215.621 276.259 223.654C280.494 228.648 282.123 234.51 280.603 239.396C279.3 243.412 276.041 246.343 271.48 247.538C269.416 247.972 267.135 248.298 264.854 248.298ZM250.627 214.101C245.631 214.752 241.829 217.249 240.091 221.049C238.136 225.066 238.571 230.276 241.178 234.619C247.803 245.583 261.488 248.84 271.154 246.452C275.39 245.366 278.431 242.761 279.517 239.07C280.929 234.51 279.408 229.082 275.39 224.414C268.764 216.598 259.75 212.798 250.627 214.101Z" fill="#C7C7C7"/>
<path d="M253.016 217.249C244.436 218.335 242.046 227.562 247.151 233.859C251.387 239.613 258.772 242.11 265.615 241.241C273.652 240.59 275.607 233.099 271.588 226.694C269.633 223.654 267.027 221.049 263.768 219.203C260.51 217.466 256.709 216.706 253.016 217.249ZM253.016 217.249C260.619 216.164 268.113 219.963 272.892 225.825C276.91 230.494 277.67 238.636 271.914 242.435C266.592 245.801 259.75 245.041 254.319 242.652C250.735 240.915 247.694 238.201 245.739 234.836C241.395 227.671 244.11 218.335 253.016 217.249Z" fill="#DBDBDB"/>
<path d="M444.604 250.686C440.911 250.034 439.499 256.222 440.042 259.805C440.585 263.496 442.54 267.838 445.69 268.924C448.948 270.01 451.338 264.473 450.36 258.719C449.6 253.943 447.536 251.229 444.604 250.686Z" fill="white"/>
<path d="M446.559 269.684C446.233 269.684 445.907 269.575 445.581 269.467C442.106 268.273 440.042 263.713 439.499 259.913C439.065 256.982 439.825 252.857 441.671 251.12C442.54 250.36 443.518 250.034 444.712 250.252C447.971 250.794 450.143 253.834 451.012 258.719C451.663 262.845 450.686 267.078 448.622 268.924C447.971 269.358 447.319 269.684 446.559 269.684ZM444.061 251.229C443.518 251.229 442.975 251.446 442.432 251.88C440.802 253.4 440.151 257.199 440.585 259.805C441.02 263.279 442.866 267.513 445.907 268.49C446.667 268.707 447.319 268.598 447.971 268.055C449.491 266.753 450.686 263.17 449.926 258.936C449.165 254.485 447.319 251.771 444.495 251.337C444.387 251.229 444.169 251.229 444.061 251.229Z" fill="#C7C7C7"/>
<path d="M444.387 252.423C440.259 253.291 442.649 265.45 446.45 265.776C449.6 264.473 448.731 252.206 444.387 252.423ZM444.387 252.423C448.948 252.206 451.12 266.101 446.45 266.861C442.106 266.318 441.346 258.936 442.106 255.571C442.432 254.377 442.866 252.531 444.387 252.423Z" fill="#DBDBDB"/>
<path d="M243.458 253.726C234.009 256.548 233.14 263.93 238.136 268.49C245.087 274.786 256.6 274.461 263.66 271.638C271.48 268.49 271.914 261.325 264.637 256.657C258.121 252.64 250.409 251.663 243.458 253.726Z" fill="white"/>
<path d="M253.233 274.135C246.825 274.135 241.069 271.964 237.702 268.924C235.204 266.644 234.118 263.605 234.77 260.673C235.53 257.308 238.571 254.594 243.241 253.183C250.518 251.011 258.447 252.097 264.854 256.114C268.656 258.502 270.611 261.65 270.285 264.799C269.959 267.838 267.678 270.444 263.768 271.964C260.293 273.592 256.6 274.135 253.233 274.135ZM250.844 253.291C248.454 253.291 245.956 253.617 243.676 254.377C239.331 255.68 236.616 258.068 235.964 260.999C235.421 263.496 236.399 266.101 238.571 268.164C244.979 274.026 256.274 274.135 263.551 271.204C267.027 269.792 269.09 267.513 269.416 264.907C269.633 262.193 267.896 259.371 264.529 257.199C260.184 254.594 255.514 253.291 250.844 253.291Z" fill="#C7C7C7"/>
<path d="M245.739 255.68C239.657 257.308 237.376 263.279 243.458 266.753C247.911 269.25 253.45 269.033 258.338 267.838C264.094 266.536 266.266 261.976 260.836 258.177C256.6 255.137 250.844 254.268 245.739 255.68ZM245.739 255.68C250.844 254.16 256.6 254.594 261.379 257.199C265.941 259.479 267.57 264.907 262.791 268.056C260.293 269.684 257.578 270.227 254.754 270.552C249.432 270.878 243.024 269.467 239.983 264.582C237.919 260.348 241.829 256.657 245.739 255.68Z" fill="#DBDBDB"/>
</svg>
