<svg width="534" height="295" viewBox="0 0 534 295" fill="none" xmlns="http://www.w3.org/2000/svg">
<path d="M487.49 191.863H31.1878V253.854H487.49V191.863Z" fill="#E0E0E0"/>
<g opacity="0.4">
<path d="M487.49 191.863H31.1878V253.854H487.49V191.863Z" fill="black"/>
</g>
<path d="M513.873 188.238C500.908 180.263 467.273 167.665 457.935 166.578C452.313 165.943 427.109 162.499 427.109 162.499L418.95 161.865C418.95 161.865 332.186 118.906 318.405 113.559C297.009 105.312 251.859 98.1522 203.99 104.043C203.99 104.043 139.982 109.934 125.748 114.012C111.514 118.091 42.7019 139.57 42.7019 139.57C42.7019 139.57 12.5114 142.742 12.9647 143.92C12.9647 143.92 13.418 145.914 15.8659 148.27V167.575C15.8659 167.575 12.5114 172.106 11.6954 174.281C10.8795 176.456 8.97555 193.585 8.97555 193.585C8.97555 193.585 0 214.883 0 220.502C0 226.121 16.3192 247.782 20.3083 251.045C24.2975 254.307 56.3919 259.02 56.3919 259.02L56.3012 242.797C57.1171 218.055 76.4282 198.298 100 198.298C123.663 198.298 142.884 218.055 143.699 242.797L143.79 263.823H390.663H394.199L394.018 248.235C393.927 246.966 393.836 245.788 393.836 244.519C393.836 219.052 413.419 198.389 437.626 198.389C461.742 198.389 481.416 219.052 481.416 244.519C481.416 245.788 481.325 247.057 481.235 248.235H482.141V263.823H510.972C510.972 263.823 534.363 245.879 533.728 236.725V211.168C533.728 207.724 532.459 204.461 530.283 202.014C527.019 198.298 521.489 192.951 513.873 188.238Z" fill="#419EB7"/>
<g opacity="0.1">
<path d="M533.728 218.599L515.233 211.802L513.057 222.224L483.592 220.593C483.592 220.593 470.627 194.945 444.063 192.679C421.307 190.776 403.265 202.467 403.265 202.467L273.437 189.145C273.437 189.145 207.526 186.516 182.14 186.879C156.755 187.241 134.361 206.364 134.361 206.364C134.361 206.364 126.836 195.126 100.272 194.854C73.6177 194.401 62.5569 210.533 62.5569 210.533C43.7898 207.996 25.748 200.292 10.7888 188.42L9.51953 189.507C9.24754 191.773 9.06621 193.404 9.06621 193.404C9.06621 193.404 0 214.883 0 220.502C0 226.122 16.3192 247.782 20.3083 251.045C24.2975 254.307 56.3919 259.02 56.3919 259.02L56.3012 242.797C57.1171 218.055 76.4282 198.298 100 198.298C123.663 198.298 142.884 218.055 143.699 242.797L143.79 263.824H390.663H394.199L394.018 248.235C393.927 246.966 393.836 245.788 393.836 244.519C393.836 219.052 413.419 198.389 437.626 198.389C461.742 198.389 481.416 219.052 481.416 244.519C481.416 245.788 481.325 247.057 481.235 248.235H482.141V263.824H510.972C510.972 263.824 534.363 245.879 533.728 236.725V218.599Z" fill="black"/>
</g>
<path d="M88.3049 140.839C86.0384 142.47 86.945 146.095 89.6648 146.458L111.696 149.539L236.719 163.859L389.213 172.65C391.66 172.831 394.108 171.744 395.468 169.568C396.738 167.575 397.281 164.765 394.018 161.593C387.581 155.249 359.294 138.754 352.676 135.492C346.057 132.229 299.366 103.227 229.829 107.215C208.795 107.94 168.36 114.194 116.048 121.263C114.96 121.444 113.872 121.807 112.965 122.532L88.3049 140.839Z" fill="#032933"/>
<g opacity="0.1">
<path d="M114.234 147.273C114.506 146.277 125.839 124.254 128.015 122.985C130.191 121.716 221.216 109.662 222.394 111.293C223.664 112.925 226.746 159.237 226.746 159.237L114.234 147.273Z" fill="white"/>
</g>
<path d="M148.958 119.631L148.142 151.896H152.856V119.088L148.958 119.631Z" fill="#263238"/>
<path d="M367.544 143.83C367.544 143.83 367.635 144.011 367.816 144.283C367.998 144.645 368.179 145.098 368.451 145.733C368.723 146.367 369.086 147.183 369.448 148.18C369.811 149.177 370.264 150.264 370.717 151.533C372.531 156.699 374.707 164.493 376.067 174.644C377.426 184.794 377.97 197.301 377.155 211.53C376.701 218.599 375.976 226.212 374.797 234.097C374.253 238.085 373.528 242.072 372.712 246.151C372.44 247.148 372.349 248.235 371.896 249.232C371.533 250.229 370.989 251.135 370.445 252.132C369.358 253.945 368.179 255.757 366.91 257.57L366.819 257.661H366.728C336.447 257.117 300.998 256.392 263.374 255.667C243.881 255.214 224.933 254.76 206.982 254.307C198.006 254.126 189.303 253.945 180.871 253.854C179.783 253.854 178.786 253.854 177.698 253.854C176.701 253.854 175.613 253.854 174.525 253.854C172.439 253.673 170.354 253.039 168.541 252.132C166.728 251.135 165.096 249.957 163.554 248.507C162.104 247.057 160.835 245.516 159.747 243.794C150.136 230.019 141.433 217.33 133.817 206.002C130.01 200.292 126.474 195.035 123.301 190.051C120.127 185.066 117.226 180.444 114.778 176.184C113.509 174.1 112.421 172.015 111.514 170.022C111.333 169.478 111.061 169.025 110.88 168.481C110.698 168.028 110.608 167.484 110.426 166.94C110.336 166.396 110.154 165.943 110.064 165.49C109.973 165.037 109.883 164.493 109.792 164.04C109.157 160.234 109.701 156.88 110.426 154.343C111.152 151.805 112.149 149.992 112.874 148.814C113.6 147.636 114.053 147.183 114.053 147.183C114.053 147.183 113.962 147.364 113.781 147.636C113.6 147.908 113.328 148.361 112.965 148.905C112.24 150.083 111.333 151.896 110.608 154.433C109.883 156.971 109.339 160.324 110.064 164.04C110.154 164.493 110.245 164.946 110.336 165.49C110.426 165.943 110.608 166.487 110.698 166.94C110.88 167.393 110.97 167.937 111.152 168.39C111.333 168.843 111.514 169.387 111.786 169.84C112.693 171.834 113.781 173.919 115.05 176.003C117.498 180.263 120.399 184.794 123.663 189.779C126.836 194.764 130.463 200.02 134.271 205.73C141.886 217.058 150.59 229.747 160.291 243.432C162.376 246.694 165.368 249.685 168.904 251.588C170.717 252.495 172.621 253.129 174.706 253.31C175.703 253.401 176.791 253.401 177.788 253.31C178.876 253.31 179.874 253.31 180.962 253.31C189.393 253.401 198.097 253.582 207.072 253.673C225.023 254.126 243.972 254.579 263.464 255.032C301.089 255.757 336.538 256.482 366.819 257.026L366.638 257.117C367.907 255.395 369.086 253.582 370.173 251.77C370.717 250.863 371.171 249.957 371.533 248.96C371.896 248.054 372.077 246.966 372.349 245.969C373.165 241.891 373.891 237.903 374.525 233.916C375.704 226.031 376.429 218.509 376.883 211.439C377.789 197.211 377.245 184.794 375.885 174.644C374.616 164.493 372.44 156.699 370.717 151.533C370.264 150.264 369.811 149.086 369.448 148.089C369.086 147.092 368.723 146.277 368.451 145.642C368.179 145.008 367.998 144.464 367.816 144.192C367.635 144.011 367.544 143.83 367.544 143.83Z" fill="#263238"/>
<path d="M238.623 163.949C238.623 163.949 238.713 164.221 238.895 164.856C239.076 165.49 239.257 166.396 239.439 167.575C239.801 169.931 240.164 173.284 240.436 177.544C240.98 185.973 240.799 197.754 240.617 210.624C240.436 223.584 240.164 235.275 239.892 243.704C239.801 247.873 239.62 251.317 239.62 253.764C239.529 254.942 239.529 255.848 239.529 256.482C239.529 255.848 239.529 254.942 239.529 253.764C239.529 251.317 239.62 247.963 239.711 243.704C239.892 235.184 240.073 223.493 240.255 210.624C240.436 197.664 240.708 185.973 240.255 177.544C240.073 173.284 239.711 169.931 239.439 167.575C239.257 166.396 239.167 165.49 239.076 164.856C238.985 164.584 238.985 164.312 238.985 164.131C238.623 164.04 238.532 163.949 238.623 163.949Z" fill="#263238"/>
<g opacity="0.1">
<path d="M239.62 110.387L248.958 159.237L348.415 166.578L363.737 145.008C363.737 145.008 325.205 122.26 291.297 115.462C257.027 108.484 239.62 110.387 239.62 110.387Z" fill="white"/>
</g>
<g opacity="0.2">
<path d="M161.379 223.221C161.379 223.221 207.888 243.432 216.32 245.335C224.751 247.238 360.926 248.326 360.926 248.326L363.737 242.072L221.669 241.075C221.669 241.166 164.552 219.052 161.379 223.221Z" fill="black"/>
</g>
<path d="M134.271 206.183C134.271 206.183 134.18 206.092 133.999 205.911C133.817 205.73 133.636 205.549 133.273 205.277C132.639 204.733 131.641 203.917 130.281 203.011C128.922 202.105 127.199 201.108 125.114 200.111C123.029 199.204 120.581 198.207 117.77 197.392C114.96 196.667 111.877 195.942 108.523 195.489C106.8 195.217 105.077 195.126 103.264 194.945C102.358 194.854 101.451 194.945 100.544 194.854C99.6377 194.854 98.6404 194.764 97.7338 194.854C90.1182 195.126 81.7772 197.211 73.8896 201.38C70.5351 203.192 67.362 205.186 64.6421 207.542L64.4608 207.724L64.2794 207.452C59.837 201.108 55.7572 195.126 52.1307 189.598C48.5949 184.069 45.5124 179.085 43.0645 174.825C40.6166 170.565 38.7127 167.212 37.3528 164.856C36.7181 163.678 36.2648 162.771 35.9022 162.137C35.7209 161.865 35.6302 161.593 35.5395 161.412C35.3582 161.412 35.3582 161.321 35.3582 161.321C35.3582 161.321 35.4489 161.412 35.5395 161.502C35.6302 161.684 35.8115 161.865 35.9929 162.227C36.3555 162.862 36.8995 163.768 37.5341 164.856C38.894 167.212 40.8886 170.565 43.3365 174.734C45.875 178.903 48.8669 183.888 52.4934 189.416C56.1198 194.854 60.1996 200.836 64.6421 207.18H64.2794C67.09 204.823 70.2631 202.739 73.6176 200.926C81.5959 196.757 90.0275 194.673 97.7338 194.401C98.7311 194.31 99.6377 194.401 100.544 194.401C101.451 194.401 102.448 194.401 103.355 194.492C105.168 194.673 106.981 194.764 108.613 195.035C112.058 195.398 115.141 196.214 117.951 196.939C120.762 197.754 123.21 198.751 125.295 199.748C127.38 200.745 129.103 201.833 130.463 202.739C131.823 203.736 132.82 204.552 133.364 205.186C133.636 205.458 133.908 205.73 134.089 205.911C134.271 206.092 134.271 206.183 134.271 206.183Z" fill="#263238"/>
<path d="M15.4126 231.922C15.4126 231.922 15.2312 231.378 15.0499 230.381C14.8686 229.384 14.5966 227.934 14.2339 226.121C13.5993 222.496 12.7834 217.512 11.9674 211.983C11.1514 206.455 10.6075 201.47 10.2448 197.754C10.0635 195.942 9.88217 194.492 9.88217 193.404C9.7915 192.407 9.7915 191.773 9.7915 191.773C9.7915 191.773 9.88217 192.316 10.0635 193.313C10.2448 194.401 10.4261 195.851 10.6075 197.573C11.0608 201.198 11.6954 206.183 12.5114 211.711C13.3273 217.24 14.0526 222.224 14.5966 225.85C14.8686 227.571 15.0499 229.022 15.2312 230.109C15.3219 231.378 15.4126 231.922 15.4126 231.922Z" fill="#263238"/>
<path d="M57.2985 235.547C57.2985 235.547 57.1172 235.547 56.7545 235.547C56.3012 235.547 55.8479 235.547 55.2133 235.547C53.8533 235.547 51.9494 235.547 49.5922 235.456C44.8778 235.275 38.2594 234.913 31.0971 234.187C23.8441 233.462 17.4071 232.466 12.6927 231.65C10.3355 231.287 8.43159 230.925 7.16232 230.653C6.52768 230.562 6.07437 230.381 5.62106 230.29C5.25841 230.2 5.07709 230.2 5.07709 230.109C5.07709 230.109 5.25841 230.109 5.62106 230.109C5.98371 230.2 6.52768 230.2 7.16232 230.29C8.52225 230.472 10.4262 230.834 12.6927 231.106C17.4071 231.831 23.8441 232.737 31.0971 233.462C38.2594 234.187 44.7871 234.641 49.5922 234.913C51.8588 235.003 53.7627 235.094 55.2133 235.184C55.8479 235.184 56.3012 235.275 56.7545 235.275C57.0265 235.547 57.2985 235.547 57.2985 235.547Z" fill="#263238"/>
<path d="M515.233 211.711C515.233 211.711 509.521 197.936 509.612 197.482C510.518 195.035 513.782 188.238 513.782 188.238C513.782 188.238 516.502 189.779 519.766 192.226C523.393 194.945 527.835 198.751 530.917 202.286C532.731 204.28 533.637 206.908 533.637 209.717V221.318L515.233 211.711Z" fill="white"/>
<path d="M390.119 147.817C390.21 147.908 388.941 149.539 387.49 151.533C385.949 153.527 384.861 155.249 384.679 155.158C384.589 155.068 385.495 153.255 387.037 151.171C388.487 149.177 390.028 147.727 390.119 147.817Z" fill="#263238"/>
<path d="M15.9565 148.18C15.9565 148.18 59.565 151.896 59.0211 152.893C58.5677 153.889 15.9565 167.484 15.9565 167.484V148.18Z" fill="#032933"/>
<path d="M15.7752 167.937C15.5939 167.937 15.5032 163.496 15.5032 158.058C15.5032 152.621 15.5939 148.18 15.7752 148.18C15.9565 148.18 16.0472 152.621 16.0472 158.058C16.0472 163.587 15.9565 167.937 15.7752 167.937Z" fill="#263238"/>
<path d="M483.592 220.502C483.592 220.502 483.501 220.412 483.32 220.14C483.139 219.868 482.957 219.505 482.685 218.962C482.051 217.965 481.144 216.515 479.875 214.702C478.515 212.889 476.883 210.714 474.616 208.358C472.35 206.002 469.721 203.464 466.366 201.108C463.012 198.751 459.113 196.395 454.399 194.945C449.775 193.404 444.516 192.588 438.895 192.498C433.274 192.407 427.291 192.951 421.216 194.492C418.134 195.217 415.142 196.214 412.15 197.573C409.158 198.932 406.166 200.473 403.447 202.558L403.356 202.648H403.265C383.229 200.564 360.745 198.298 336.901 195.851C315.051 193.585 294.199 191.41 275.25 189.507C274.616 189.416 274.072 189.416 273.437 189.326C272.802 189.326 272.258 189.235 271.714 189.235C270.536 189.144 269.357 189.144 268.179 189.054C265.821 188.963 263.555 188.873 261.288 188.782C256.755 188.601 252.403 188.419 248.142 188.329C239.711 188.057 231.823 187.876 224.57 187.785C210.155 187.604 198.55 187.513 190.481 187.513C186.492 187.513 183.319 187.513 181.234 187.422C180.146 187.422 179.42 187.422 178.786 187.422C179.33 187.422 180.146 187.422 181.234 187.422C183.41 187.422 186.492 187.422 190.481 187.332C198.55 187.332 210.155 187.241 224.57 187.422C231.732 187.513 239.62 187.694 248.142 187.876C252.403 187.966 256.755 188.148 261.288 188.329C263.555 188.419 265.821 188.51 268.179 188.601C269.357 188.691 270.536 188.691 271.714 188.782C272.258 188.782 272.893 188.873 273.437 188.873C273.981 188.963 274.616 188.963 275.25 189.054C294.199 190.957 315.051 193.132 336.901 195.398C360.654 197.845 383.229 200.201 403.265 202.195L403.084 202.286C405.894 200.111 408.886 198.57 411.878 197.211C414.87 195.851 417.952 194.854 421.035 194.129C427.109 192.588 433.184 192.045 438.805 192.226C444.426 192.317 449.684 193.132 454.399 194.763C459.113 196.304 463.012 198.661 466.366 201.017C469.721 203.373 472.44 206.002 474.616 208.358C476.883 210.714 478.515 212.889 479.875 214.702C481.144 216.515 482.141 217.965 482.685 219.052C483.32 219.959 483.592 220.502 483.592 220.502Z" fill="#263238"/>
<path d="M360.926 248.416C360.926 248.416 360.745 248.416 360.382 248.416C360.019 248.416 359.475 248.416 358.841 248.416C357.481 248.416 355.486 248.416 352.948 248.326C347.871 248.235 340.527 248.145 331.461 247.963C313.238 247.601 288.215 247.148 260.472 246.604C246.601 246.332 233.364 246.06 221.397 245.788C220.672 245.788 219.856 245.788 219.13 245.698C218.405 245.698 217.68 245.698 216.864 245.607C215.323 245.426 214.053 244.701 212.693 244.157C210.064 243.069 207.526 241.982 204.987 240.985C200.001 238.991 195.286 237.269 191.025 235.638C182.503 232.375 175.613 229.747 170.898 227.753C168.541 226.756 166.728 226.031 165.458 225.487C164.824 225.215 164.37 225.034 164.098 224.853C163.826 224.671 163.645 224.581 163.645 224.581C163.645 224.581 163.826 224.671 164.098 224.762C164.461 224.943 164.914 225.125 165.549 225.306C166.818 225.85 168.632 226.575 170.989 227.481C175.703 229.384 182.594 232.012 191.206 235.184C195.468 236.816 200.182 238.538 205.168 240.532C207.707 241.529 210.245 242.525 212.875 243.613C214.235 244.157 215.504 244.791 216.954 244.973C217.68 245.063 218.405 245.063 219.13 245.063C219.856 245.063 220.581 245.063 221.397 245.063C233.455 245.335 246.601 245.607 260.472 245.879C288.215 246.513 313.238 247.057 331.461 247.42C340.527 247.601 347.871 247.782 352.948 247.963C355.486 248.054 357.481 248.054 358.841 248.145C359.475 248.145 360.019 248.145 360.382 248.235C360.745 248.416 360.926 248.416 360.926 248.416Z" fill="#263238"/>
<path d="M349.412 144.645C347.508 148.633 345.513 154.524 345.876 160.596C346.148 164.584 349.321 167.665 353.129 167.756L371.08 167.937C373.709 167.937 376.157 166.034 376.429 163.315C376.52 162.409 376.429 161.502 375.976 160.505C374.072 156.608 372.531 157.333 372.531 157.333C372.531 157.333 367.091 145.733 358.841 141.292C355.396 139.479 351.134 141.02 349.412 144.645Z" fill="#E0E0E0"/>
<path d="M367.998 167.937C367.998 168.028 368.723 167.847 369.63 167.121C370.536 166.487 371.715 165.309 372.259 163.496C372.712 161.774 372.621 160.143 372.621 158.965C372.621 157.787 372.531 157.152 372.44 157.152C372.349 157.152 372.259 157.877 372.168 158.965C372.077 160.052 372.077 161.684 371.624 163.315C371.171 164.946 370.083 166.034 369.358 166.759C368.542 167.484 367.907 167.847 367.998 167.937Z" fill="#263238"/>
<path d="M369.358 154.886C369.448 154.886 369.086 153.89 368.36 152.439C367.635 150.989 366.366 149.177 364.643 147.364C362.921 145.642 361.107 144.373 359.747 143.558C358.387 142.742 357.481 142.47 357.39 142.561C357.3 142.742 360.835 144.373 364.19 147.817C367.544 151.261 369.176 154.977 369.358 154.886Z" fill="white"/>
<path d="M231.007 107.125C231.007 107.125 231.098 107.306 231.188 107.668C231.279 108.121 231.37 108.665 231.551 109.3C231.823 110.75 232.186 112.834 232.639 115.372C233.546 120.447 234.724 127.516 235.812 135.401C236.9 143.286 237.807 150.355 238.26 155.521C238.351 156.79 238.441 157.968 238.532 159.055C238.623 160.052 238.623 160.959 238.623 161.684C238.623 162.318 238.623 162.952 238.623 163.315C238.623 163.678 238.623 163.859 238.623 163.859C238.623 163.859 238.623 163.678 238.532 163.315C238.532 162.862 238.441 162.318 238.441 161.684C238.441 160.959 238.351 160.052 238.26 159.055C238.169 158.058 238.079 156.88 237.897 155.611C237.353 150.446 236.447 143.376 235.359 135.492C234.271 127.697 233.092 120.538 232.367 115.462C232.004 112.925 231.642 110.931 231.46 109.39C231.37 108.756 231.279 108.212 231.188 107.759C231.007 107.396 231.007 107.125 231.007 107.125Z" fill="#455A64"/>
<g opacity="0.2">
<path d="M15.9565 167.393L37.5341 154.161L38.1688 150.174C46.5097 150.989 56.6638 151.896 59.1117 152.893C59.0211 153.527 32.5477 162.227 15.9565 167.393Z" fill="black"/>
</g>
<g opacity="0.2">
<path d="M509.703 197.482L521.217 207.633L533.728 209.717V221.318L515.233 211.893C512.966 206.274 510.881 201.108 509.703 197.482Z" fill="black"/>
</g>
<path d="M509.521 197.482C509.521 197.482 509.431 197.482 509.249 197.392C509.068 197.301 508.796 197.211 508.433 197.029C507.708 196.667 506.62 196.214 505.26 195.579C502.45 194.31 498.46 192.588 493.565 190.413C488.578 188.238 482.685 185.701 476.067 182.982C472.712 181.622 469.267 180.263 465.55 179.175C463.737 178.722 461.742 178.36 459.748 178.088C457.753 177.725 455.759 177.453 453.764 177.091C437.535 174.553 422.758 172.378 412.15 170.747C406.892 169.931 402.54 169.297 399.548 168.843C398.097 168.571 396.919 168.39 396.103 168.3C395.74 168.209 395.468 168.209 395.196 168.118C395.015 168.118 394.924 168.028 394.924 168.028C394.924 168.028 395.015 168.028 395.196 168.028C395.468 168.028 395.74 168.118 396.103 168.118C396.919 168.209 398.097 168.39 399.548 168.571C402.54 169.025 406.892 169.568 412.241 170.293C422.939 171.834 437.626 173.919 453.945 176.456C455.94 176.819 458.025 177.091 459.929 177.453C461.924 177.816 463.828 178.088 465.731 178.631C469.449 179.719 472.984 181.169 476.248 182.528C482.867 185.247 488.76 187.876 493.746 190.141C498.732 192.407 502.631 194.22 505.441 195.489C506.801 196.123 507.799 196.667 508.615 197.029C508.977 197.211 509.249 197.301 509.431 197.392L509.521 197.482Z" fill="#263238"/>
<path d="M99.8191 288.384C122.351 288.384 140.617 269.476 140.617 246.151C140.617 222.826 122.351 203.917 99.8191 203.917C77.287 203.917 59.0211 222.826 59.0211 246.151C59.0211 269.476 77.287 288.384 99.8191 288.384Z" fill="#263238"/>
<path d="M59.0211 245.426V245.516C58.6584 268.808 76.7002 288.022 99.1844 288.384C121.669 288.747 140.254 270.077 140.526 246.785V246.694L59.0211 245.426Z" fill="#263238"/>
<path d="M71.1698 245.697C70.8978 262.101 83.5905 275.515 99.3657 275.787C115.141 276.058 128.196 262.917 128.378 246.604C128.65 230.2 115.957 216.787 100.182 216.515C84.4065 216.243 71.3511 229.293 71.1698 245.697Z" fill="#FAFAFA"/>
<path d="M100.182 216.515C84.4065 216.243 71.3511 229.384 71.1698 245.697L128.378 246.513C128.65 230.2 115.957 216.696 100.182 216.515Z" fill="#E0E0E0"/>
<path d="M82.3213 245.879C82.1399 255.848 89.8462 264.095 99.5471 264.186C109.157 264.367 117.136 256.392 117.226 246.422C117.408 236.453 109.701 228.206 100 228.115C90.3902 227.934 82.5026 235.909 82.3213 245.879Z" fill="#263238"/>
<path d="M437.173 288.384C459.705 288.384 477.971 269.476 477.971 246.151C477.971 222.826 459.705 203.917 437.173 203.917C414.641 203.917 396.375 222.826 396.375 246.151C396.375 269.476 414.641 288.384 437.173 288.384Z" fill="#263238"/>
<path d="M396.375 245.426V245.516C396.012 268.808 414.054 288.022 436.538 288.384C459.022 288.747 477.608 270.077 477.88 246.785V246.694L396.375 245.426Z" fill="#263238"/>
<path d="M408.524 245.697C408.252 262.101 420.944 275.515 436.72 275.787C452.495 276.058 465.55 262.917 465.731 246.604C466.003 230.2 453.311 216.787 437.535 216.515C421.76 216.243 408.796 229.293 408.524 245.697Z" fill="#FAFAFA"/>
<path d="M437.535 216.515C421.76 216.243 408.705 229.384 408.524 245.697L465.731 246.513C466.003 230.2 453.401 216.696 437.535 216.515Z" fill="#E0E0E0"/>
<path d="M419.766 245.879C419.584 255.848 427.291 264.095 436.992 264.186C446.602 264.367 454.58 256.392 454.671 246.422C454.852 236.453 447.146 228.206 437.445 228.115C427.744 227.934 419.856 235.909 419.766 245.879Z" fill="#263238"/>
<path d="M283.229 151.08C283.138 150.989 290.753 146.82 300.092 141.926C309.43 137.032 317.136 133.135 317.227 133.317C317.317 133.407 309.702 137.576 300.364 142.47C290.935 147.273 283.229 151.171 283.229 151.08Z" fill="white"/>
<path d="M272.712 149.992C272.621 149.902 279.783 145.823 288.759 140.929C297.644 136.035 304.987 132.229 304.987 132.41C305.078 132.501 297.916 136.579 288.94 141.473C280.055 146.277 272.712 150.083 272.712 149.992Z" fill="white"/>
<path d="M167.544 148.18C167.544 148.18 168.088 147.908 168.994 147.455C170.082 147.002 171.442 146.458 173.074 145.733C176.61 144.283 181.324 142.289 186.492 140.204C191.66 138.029 196.374 135.945 199.91 134.495C201.542 133.77 202.902 133.226 203.99 132.773C204.987 132.41 205.531 132.138 205.531 132.229C205.531 132.229 205.078 132.501 204.08 132.954C203.174 133.407 201.814 134.042 200.091 134.857C196.737 136.398 192.022 138.482 186.764 140.748C181.506 142.923 176.701 144.827 173.255 146.186C171.533 146.82 170.082 147.364 169.085 147.727C168.178 147.999 167.634 148.18 167.544 148.18Z" fill="white"/>
<path d="M177.335 136.579C177.244 136.398 181.143 134.495 186.039 132.229C190.934 129.963 194.924 128.241 195.014 128.332C195.105 128.513 191.206 130.416 186.311 132.682C181.324 134.948 177.335 136.67 177.335 136.579Z" fill="white"/>
<path d="M533.728 221.227C533.728 221.227 533.637 220.593 533.637 219.596C533.637 218.418 533.547 216.877 533.547 215.065C533.456 213.161 533.547 210.805 533.456 208.358C533.275 205.911 531.461 203.645 529.739 201.379C528.016 199.114 525.84 197.392 523.937 195.851C522.033 194.31 520.219 192.951 518.769 191.863C517.318 190.776 516.14 189.96 515.142 189.235C514.326 188.601 513.782 188.238 513.873 188.238C513.873 188.238 514.417 188.51 515.324 189.054C516.23 189.598 517.5 190.413 519.041 191.501C520.582 192.588 522.395 193.857 524.299 195.398C526.203 196.939 528.379 198.661 530.192 201.017C531.099 202.195 531.915 203.283 532.64 204.461C533.365 205.639 533.909 206.999 534 208.267C534.091 210.805 534 213.071 534 214.974C534 216.787 533.909 218.327 533.909 219.505C533.819 220.593 533.728 221.227 533.728 221.227Z" fill="#263238"/>
<path d="M278.514 108.303C277.879 109.571 277.335 110.75 277.335 110.931L276.61 105.946C276.61 105.946 275.069 105.856 274.888 107.759C274.706 109.662 274.344 111.203 274.344 111.203L273.528 111.384L271.624 111.565L266.365 108.665L267.997 112.743C267.997 112.743 270.989 113.74 271.17 113.831C271.442 113.831 279.602 112.562 279.602 112.562C279.783 112.562 281.415 106.943 281.415 106.943C281.415 106.943 279.239 106.853 278.514 108.303Z" fill="#6F4439"/>
<path d="M173.799 189.598C173.799 189.598 175.975 169.206 180.78 166.94C185.585 164.674 192.204 163.224 193.926 166.215C195.74 169.297 197.643 173.828 198.369 178.722C199.094 183.616 198.641 191.048 198.641 191.048L193.201 190.413C193.201 190.413 193.473 170.112 191.841 167.121C190.209 164.131 181.778 166.487 180.871 170.112C179.964 173.737 177.97 189.96 177.97 189.96L173.799 189.598Z" fill="#455A64"/>
<path d="M154.851 218.327C155.123 209.899 155.939 191.41 156.302 183.253C156.392 180.988 158.205 179.266 160.472 179.266L210.427 179.538C212.693 179.538 214.507 181.35 214.507 183.525L215.504 218.055C215.595 220.412 213.691 222.315 211.424 222.315L159.021 222.496C156.664 222.587 154.851 220.684 154.851 218.327Z" fill="#032933"/>
<path d="M154.851 218.327C154.942 218.327 154.76 219.052 155.304 220.23C155.576 220.774 156.12 221.499 156.936 221.952C157.389 222.224 157.843 222.406 158.387 222.406C158.931 222.496 159.475 222.406 160.109 222.406C165.096 222.406 172.349 222.315 181.324 222.224C185.767 222.224 190.662 222.134 196.012 222.134C198.641 222.134 201.361 222.134 204.171 222.134C205.531 222.134 206.982 222.134 208.432 222.134C209.158 222.134 209.883 222.134 210.608 222.134C211.333 222.134 212.059 222.134 212.693 221.862C214.053 221.409 215.051 220.14 215.232 218.69C215.323 217.965 215.232 217.24 215.232 216.424C215.232 215.699 215.232 214.883 215.141 214.158C215.051 211.077 214.96 207.905 214.869 204.642C214.688 198.207 214.507 191.501 214.325 184.704C214.325 183.797 214.325 182.982 214.053 182.257C213.781 181.532 213.237 180.806 212.603 180.353C211.968 179.9 211.152 179.628 210.336 179.628C209.52 179.628 208.704 179.628 207.798 179.628C204.443 179.628 201.179 179.628 198.006 179.538C191.569 179.538 185.313 179.447 179.42 179.447C173.527 179.447 167.906 179.356 162.648 179.356C162.013 179.356 161.379 179.356 160.653 179.356C160.019 179.356 159.384 179.447 158.84 179.719C157.752 180.172 156.845 181.169 156.573 182.347C156.392 182.891 156.392 183.525 156.392 184.069C156.392 184.704 156.302 185.247 156.302 185.882C156.211 187.06 156.211 188.238 156.12 189.326C155.758 198.298 155.395 205.458 155.214 210.533C155.123 212.98 155.032 214.974 154.942 216.333C154.942 216.968 154.851 217.512 154.851 217.874C154.942 218.146 154.851 218.327 154.851 218.327C154.851 218.327 154.851 218.146 154.851 217.783C154.851 217.421 154.851 216.968 154.851 216.243C154.851 214.883 154.942 212.98 155.032 210.442C155.214 205.458 155.486 198.207 155.848 189.235C155.848 188.148 155.939 186.969 155.939 185.791C155.939 185.247 156.03 184.613 156.03 183.979C156.03 183.435 156.03 182.8 156.211 182.166C156.574 180.897 157.48 179.81 158.659 179.356C159.293 179.085 159.928 178.994 160.563 178.994C161.197 178.994 161.832 178.994 162.557 178.994C167.816 178.994 173.437 179.085 179.33 179.085C185.223 179.085 191.478 179.175 197.915 179.175C201.179 179.175 204.443 179.175 207.707 179.266C208.523 179.266 209.339 179.266 210.245 179.266C211.152 179.266 211.968 179.538 212.784 179.991C213.509 180.535 214.144 181.169 214.416 182.075C214.597 182.528 214.688 182.891 214.688 183.344V184.613C214.869 191.41 215.051 198.117 215.232 204.551C215.323 207.814 215.413 210.896 215.504 214.068C215.504 214.883 215.504 215.608 215.595 216.333C215.595 217.149 215.685 217.874 215.595 218.69C215.413 220.23 214.235 221.681 212.784 222.134C212.059 222.406 211.243 222.406 210.517 222.406C209.792 222.406 209.067 222.406 208.342 222.406C206.891 222.406 205.44 222.406 204.08 222.406C201.27 222.406 198.55 222.406 195.921 222.406C190.662 222.406 185.767 222.406 181.234 222.406C172.258 222.406 165.005 222.406 160.019 222.406C159.384 222.406 158.84 222.406 158.205 222.315C157.661 222.224 157.117 222.043 156.755 221.771C155.939 221.227 155.395 220.593 155.123 219.959C154.851 219.324 154.76 218.871 154.76 218.508C154.851 218.508 154.851 218.327 154.851 218.327Z" fill="#263238"/>
<path d="M211.061 192.316C211.061 192.316 211.061 192.407 211.061 192.679C211.061 192.951 211.061 193.313 211.061 193.767C211.061 194.763 211.061 196.214 211.061 198.117C211.061 201.923 210.971 207.361 210.971 214.068C210.971 214.521 210.971 214.883 210.971 215.336C210.971 215.79 210.88 216.243 210.699 216.696C210.427 217.058 210.064 217.421 209.702 217.602C209.248 217.783 208.795 217.783 208.342 217.783C206.528 217.783 204.624 217.783 202.63 217.783C198.641 217.783 194.47 217.783 190.028 217.783C185.585 217.783 180.962 217.783 176.066 217.783C173.618 217.783 171.17 217.783 168.722 217.783C167.453 217.783 166.184 217.783 164.914 217.783H164.008C163.736 217.783 163.373 217.783 163.011 217.693C162.376 217.512 161.741 217.058 161.469 216.424C161.379 216.152 161.288 215.88 161.288 215.518C161.288 215.246 161.288 214.974 161.288 214.702C161.288 214.158 161.288 213.614 161.288 213.071C161.288 211.983 161.379 210.896 161.379 209.808C161.469 207.633 161.469 205.548 161.56 203.464C161.651 199.295 161.741 195.217 161.832 191.41V191.229H162.013C176.338 192.135 188.668 192.316 197.371 192.407C201.723 192.407 205.168 192.407 207.526 192.407C208.704 192.407 209.611 192.407 210.245 192.407C210.517 192.407 210.789 192.407 210.971 192.407C210.971 192.316 211.061 192.316 211.061 192.316C211.061 192.316 210.971 192.316 210.789 192.316C210.608 192.316 210.427 192.316 210.064 192.316C209.43 192.316 208.523 192.407 207.344 192.407C204.987 192.498 201.542 192.498 197.19 192.498C188.487 192.498 176.157 192.316 161.741 191.501L161.923 191.32C161.832 195.217 161.741 199.204 161.651 203.373C161.651 205.458 161.56 207.542 161.56 209.717C161.56 210.805 161.56 211.892 161.469 212.98C161.469 213.524 161.469 214.068 161.469 214.611C161.469 215.155 161.379 215.699 161.651 216.152C161.923 216.696 162.376 217.058 162.92 217.24C163.192 217.33 163.464 217.33 163.826 217.33H164.733C166.002 217.33 167.272 217.33 168.541 217.33C171.079 217.33 173.527 217.33 175.885 217.33C180.69 217.33 185.404 217.33 189.847 217.421C194.289 217.421 198.55 217.421 202.449 217.512C204.443 217.512 206.347 217.512 208.16 217.512C208.614 217.512 209.067 217.512 209.43 217.33C209.792 217.149 210.155 216.877 210.336 216.515C210.517 216.152 210.608 215.79 210.608 215.336C210.608 214.883 210.608 214.521 210.608 214.068C210.699 207.361 210.789 201.923 210.88 198.207C210.88 196.304 210.971 194.854 210.971 193.857C210.971 193.404 210.971 192.951 210.971 192.679C211.061 192.407 211.061 192.316 211.061 192.316Z" fill="#263238"/>
<path d="M196.737 214.43C196.737 214.43 197.009 214.43 197.643 214.34C198.187 214.249 199.003 213.886 199.819 213.161C200.635 212.436 201.179 211.077 200.998 209.536C200.998 207.995 200.998 206.183 200.998 204.189C200.998 203.192 200.998 202.195 200.998 201.108C201.089 200.02 200.817 198.932 200.091 198.026C199.366 197.12 198.278 196.485 197.099 196.485C195.921 196.485 194.561 196.485 193.292 196.485C188.033 196.485 182.322 196.395 176.338 196.304C174.887 196.304 173.527 197.029 172.802 198.298C172.439 198.932 172.258 199.567 172.167 200.292C172.167 201.017 172.167 201.742 172.167 202.467C172.167 203.917 172.167 205.277 172.167 206.636C172.167 207.361 172.167 207.995 172.167 208.63C172.167 209.264 172.077 209.989 172.167 210.624C172.349 211.892 173.074 212.98 174.071 213.614C174.615 213.886 175.159 214.158 175.703 214.158C176.247 214.249 176.882 214.158 177.426 214.249C179.783 214.249 181.868 214.34 183.863 214.34C187.761 214.43 190.934 214.43 193.201 214.521C194.289 214.521 195.105 214.521 195.74 214.611C196.012 214.611 196.193 214.611 196.374 214.611C196.646 214.43 196.737 214.43 196.737 214.43C196.737 214.43 196.646 214.43 196.555 214.43C196.374 214.43 196.193 214.43 195.921 214.43C195.286 214.43 194.47 214.43 193.382 214.43C191.116 214.43 187.943 214.43 184.044 214.43C182.05 214.43 179.874 214.43 177.607 214.43C177.063 214.43 176.428 214.43 175.794 214.43C175.159 214.34 174.525 214.158 173.981 213.796C172.893 213.161 172.077 211.983 171.895 210.624C171.805 209.899 171.895 209.264 171.895 208.63C171.895 207.995 171.895 207.27 171.895 206.636C171.895 205.277 171.895 203.917 171.895 202.467C171.895 201.742 171.895 201.017 171.895 200.292C171.895 199.567 172.167 198.751 172.53 198.117C173.346 196.757 174.797 195.942 176.429 195.942C182.412 196.032 188.215 196.032 193.382 196.123C194.652 196.123 195.921 196.123 197.19 196.214C198.459 196.304 199.638 196.939 200.363 197.936C201.089 198.842 201.361 200.111 201.27 201.198C201.27 202.286 201.27 203.283 201.27 204.28C201.27 206.273 201.179 207.995 201.179 209.627C201.179 209.989 201.179 210.352 201.179 210.805C201.089 211.167 201.089 211.53 200.907 211.802C200.635 212.436 200.273 212.98 199.91 213.343C199.094 214.158 198.187 214.43 197.643 214.521C197.009 214.521 196.737 214.43 196.737 214.43Z" fill="#263238"/>
<g opacity="0.3">
<path d="M162.739 217.421C177.516 221.952 193.654 221.952 208.523 217.512L162.739 217.421Z" fill="black"/>
</g>
<path d="M191.206 201.651L184.86 201.561C184.044 201.561 183.409 200.926 183.409 200.111V199.657C183.409 198.842 184.044 198.207 184.86 198.207L191.206 198.298C192.022 198.298 192.657 198.932 192.657 199.748V200.201C192.748 200.926 192.022 201.651 191.206 201.651Z" fill="#E0E0E0"/>
<path d="M190.753 158.512C190.753 158.512 192.476 160.052 193.02 161.049C193.654 162.046 194.652 166.578 194.652 166.578C194.652 166.578 193.836 167.303 192.294 164.946C190.844 162.59 190.39 161.412 190.39 161.412L190.753 158.512Z" fill="#FFBF9D"/>
<path d="M183.409 149.63L185.404 153.164L190.844 158.693L192.929 166.85C193.11 167.756 193.11 168.662 192.657 169.387C192.476 169.659 192.294 169.931 192.113 170.022C191.478 170.293 189.756 169.387 189.756 169.387C189.756 169.387 188.487 170.928 187.127 170.022C187.127 170.022 185.223 171.019 184.135 170.022C184.135 170.022 182.866 171.019 181.959 170.384C181.052 169.75 178.423 165.943 178.423 165.943L174.887 153.346L183.409 149.63Z" fill="#FFBF9D"/>
<path d="M260.11 115.916L272.712 117.184C272.712 117.184 283.229 113.378 284.407 112.834C284.679 112.743 284.86 112.472 284.951 112.29C285.223 111.475 284.498 110.659 283.591 110.75L271.896 112.472C271.17 112.562 270.445 112.29 269.992 111.837L265.912 108.212C265.912 108.212 268.179 106.762 269.629 105.584C271.08 104.406 270.445 102.955 270.445 102.955C268.904 102.865 260.291 106.943 260.291 106.943L256.665 108.756L260.11 115.916Z" fill="#AE7461"/>
<path d="M216.683 18.2166C218.496 18.3979 220.309 17.0385 220.672 15.2259C221.034 13.4133 219.856 11.51 218.133 10.9663C219.221 9.78807 219.493 7.88485 218.677 6.5254C217.952 5.16595 216.229 4.35028 214.597 4.62217C214.507 3.08147 213.509 1.54076 212.149 0.815722C210.789 0.0906834 208.976 0.181313 207.616 0.996982C205.803 -0.453095 203.083 -0.453095 201.27 0.996982C199.729 0.725092 198.097 1.63139 197.371 2.99084C196.646 4.35028 197.009 6.25351 198.187 7.25044" fill="#263238"/>
<path d="M217.226 18.7604C216.32 10.6038 209.43 4.53156 201.361 4.71282H200.545C191.841 5.43785 187.58 13.1414 188.487 21.8418L189.303 52.9279L204.262 69.06L210.608 58.7282L210.517 48.3964C210.517 48.3964 218.858 46.9463 218.768 38.5177C218.677 34.6206 217.952 26.2827 217.226 18.7604Z" fill="#AE7461"/>
<path d="M210.517 48.487C210.517 48.487 205.168 48.9401 199.457 45.4962C199.457 45.4962 202.086 51.659 210.336 50.6621L210.517 48.487Z" fill="#6F4439"/>
<path d="M215.141 26.3733C215.141 27.0077 214.688 27.5515 214.053 27.6421C213.419 27.7328 212.875 27.189 212.784 26.5546C212.784 25.9202 213.237 25.3764 213.872 25.2858C214.597 25.2858 215.141 25.7389 215.141 26.3733Z" fill="#263238"/>
<path d="M215.504 22.8387C215.323 23.02 214.416 22.3856 213.147 22.3856C211.877 22.3856 210.971 23.1106 210.789 22.9293C210.699 22.8387 210.88 22.5668 211.243 22.2949C211.605 22.023 212.331 21.6605 213.147 21.6605C213.963 21.6605 214.597 21.9324 215.051 22.2043C215.413 22.4762 215.504 22.8387 215.504 22.8387Z" fill="#263238"/>
<path d="M203.446 26.9171C203.446 27.5516 202.993 28.0953 202.358 28.186C201.723 28.2766 201.179 27.7328 201.089 27.0984C201.089 26.464 201.542 25.9202 202.177 25.8296C202.811 25.8296 203.446 26.2827 203.446 26.9171Z" fill="#263238"/>
<path d="M202.811 23.3825C202.63 23.5638 201.723 22.9294 200.454 22.9294C199.185 22.9294 198.278 23.6544 198.097 23.4732C198.006 23.3825 198.187 23.1106 198.55 22.8388C198.913 22.5669 199.638 22.2043 200.454 22.2043C201.27 22.2043 201.905 22.4762 202.358 22.7481C202.721 23.02 202.902 23.2919 202.811 23.3825Z" fill="#263238"/>
<path d="M207.707 32.8081C207.707 32.7174 208.523 32.5362 209.792 32.3549C210.155 32.3549 210.427 32.2643 210.517 31.9924C210.608 31.7205 210.427 31.358 210.245 30.9955C209.883 30.1798 209.611 29.3641 209.248 28.5485C207.798 25.0139 206.8 22.1138 206.891 22.0231C207.072 21.9325 208.342 24.742 209.702 28.2766C210.064 29.1829 210.336 29.9986 210.699 30.8142C210.789 31.1767 211.061 31.6299 210.88 32.083C210.789 32.3549 210.517 32.5362 210.336 32.5362C210.155 32.6268 209.974 32.6268 209.792 32.6268C208.523 32.8987 207.707 32.8987 207.707 32.8081Z" fill="#263238"/>
<path d="M203.083 19.0324C202.902 19.3949 201.814 19.0324 200.454 19.0324C199.094 18.9417 197.915 19.3043 197.825 18.9417C197.734 18.7605 198.006 18.4886 198.459 18.2167C198.913 17.9448 199.638 17.7635 200.454 17.7635C201.27 17.7635 201.995 18.0354 202.449 18.3073C202.993 18.4886 203.174 18.8511 203.083 19.0324Z" fill="#263238"/>
<path d="M215.504 18.3073C215.232 18.5792 214.144 18.3073 212.875 18.3073C211.605 18.3073 210.517 18.5792 210.246 18.2167C210.155 18.0354 210.336 17.7635 210.789 17.4917C211.243 17.2198 212.059 16.9479 212.875 16.9479C213.781 16.9479 214.507 17.2198 214.96 17.4917C215.504 17.8542 215.685 18.1261 215.504 18.3073Z" fill="#263238"/>
<path d="M190.028 29.9985C189.937 28.7296 188.849 27.7327 187.489 27.8234C185.948 28.0046 184.225 28.9109 184.407 32.1736C184.679 37.8833 190.391 36.4332 190.391 36.2519C190.391 36.1613 190.119 32.4455 190.028 29.9985Z" fill="#AE7461"/>
<path d="M189.031 34.1675C189.031 34.1675 188.94 34.2581 188.759 34.3487C188.577 34.4394 188.305 34.53 188.033 34.4394C187.399 34.2581 186.855 33.3518 186.764 32.2643C186.764 31.7205 186.764 31.2673 186.945 30.8142C187.127 30.361 187.308 30.0891 187.671 29.9985C187.943 29.9079 188.215 30.0891 188.305 30.2704C188.396 30.4517 188.396 30.5423 188.396 30.5423C188.396 30.5423 188.487 30.4517 188.487 30.1798C188.487 30.0891 188.396 29.9079 188.215 29.8173C188.033 29.7266 187.852 29.636 187.671 29.7266C187.217 29.8173 186.855 30.1798 186.673 30.6329C186.492 31.0861 186.401 31.6299 186.401 32.2643C186.492 33.4424 187.127 34.4394 187.943 34.6206C188.396 34.7113 188.668 34.53 188.849 34.4394C189.031 34.3487 189.031 34.1675 189.031 34.1675Z" fill="#6F4439"/>
<path d="M212.149 6.9785C212.059 6.79724 212.059 6.70661 211.968 6.61598C211.333 5.70968 210.246 5.07527 209.067 5.07527C208.342 4.71275 207.707 4.44086 207.072 4.2596C206.256 2.90016 204.806 1.99386 203.174 1.8126C201.361 1.63134 199.547 2.53764 198.55 4.07834C198.278 4.07834 198.097 4.16897 197.825 4.16897C196.646 3.35331 195.105 3.08142 193.654 3.35331C192.113 3.71583 190.753 4.98464 190.119 6.52535C188.759 6.16283 187.127 6.79724 186.311 7.8848C185.495 9.06298 185.404 10.6943 186.129 11.9631C185.132 12.5975 184.225 13.5945 184.225 14.7727C184.225 15.8602 185.313 16.9478 186.311 16.7665C186.129 19.4854 186.492 22.7481 186.764 25.5576C186.945 27.5515 189.484 28.7297 189.665 30.0891C190.662 36.977 192.929 33.1705 193.473 18.7604C193.654 18.6697 193.745 18.4885 193.926 18.3979C194.198 18.126 194.289 17.7634 194.561 17.4916C194.833 17.129 195.468 17.2197 195.921 17.2197C197.553 17.4009 199.275 16.1321 199.638 14.5008C200.091 15.1352 201.089 15.0446 201.723 14.682C202.358 14.2289 202.721 13.5945 203.265 12.9601C203.718 12.4163 204.443 11.8725 205.168 11.9631C205.622 12.0538 205.984 12.235 206.438 12.235C207.163 12.1444 207.526 11.2381 207.616 10.5131C207.707 9.87865 207.798 9.15361 208.16 8.70046C208.614 8.51921 209.067 8.33795 209.611 8.24732C209.883 8.24732 210.155 8.33794 210.427 8.33794C210.517 8.33794 210.699 8.33794 210.789 8.33794C210.971 8.42857 211.152 8.42857 211.333 8.5192C213.872 9.69739 216.229 14.8633 216.229 14.8633C216.411 11.6006 214.507 8.88172 212.149 6.9785Z" fill="#263238"/>
<path d="M185.404 12.2351C185.495 12.1444 185.585 12.0538 185.676 11.9632C185.857 11.7819 186.129 11.51 186.583 11.3288C187.036 11.1475 187.58 10.8756 188.305 10.9662C188.94 10.9662 189.756 11.1475 190.481 11.6913L190.3 11.7819C190.572 10.6943 191.388 9.51616 192.566 8.88175C193.201 8.51923 193.836 8.33797 194.652 8.24734C195.377 8.15671 196.193 8.24734 196.918 8.33797C198.369 8.60986 199.729 9.3349 200.817 10.0599L200.635 10.1506C201.089 8.88175 202.086 7.88482 203.174 7.43167C204.262 6.88789 205.259 6.88789 206.075 6.97852C206.891 7.15978 207.526 7.43167 207.888 7.70356C208.07 7.79419 208.251 7.97545 208.342 7.97545C208.432 8.06608 208.432 8.06608 208.432 8.06608C208.432 8.06608 208.251 7.88482 207.888 7.70356C207.526 7.5223 206.891 7.25041 206.075 7.06915C205.259 6.97852 204.262 6.97852 203.265 7.5223C202.267 7.97545 201.361 8.97238 200.907 10.1506L200.817 10.2412L200.726 10.1506C199.638 9.42553 198.369 8.79112 196.918 8.51923C196.193 8.33797 195.468 8.33797 194.742 8.4286C194.017 8.51923 193.382 8.70049 192.748 9.06301C191.569 9.69742 190.753 10.785 190.481 11.7819V11.9632L190.391 11.8725C189.756 11.3288 189.031 11.1475 188.396 11.1475C187.761 11.1475 187.217 11.3288 186.764 11.51C185.676 11.7819 185.404 12.3257 185.404 12.2351Z" fill="#455A64"/>
<path d="M208.251 8.33801C208.251 8.33801 208.251 8.42864 208.16 8.51927C208.07 8.70053 208.07 8.88179 207.979 9.15368C207.888 9.42557 207.888 9.78809 207.798 10.2412C207.707 10.6944 207.616 11.1475 207.254 11.6913C207.072 11.9632 206.8 12.1445 206.438 12.1445C206.075 12.1445 205.803 12.1445 205.44 12.1445C205.078 12.1445 204.806 12.1445 204.443 12.2351C204.171 12.4164 203.899 12.5976 203.627 12.8695C203.355 13.1414 203.174 13.5039 202.902 13.7758C202.63 14.0477 202.449 14.4102 202.086 14.6821C201.723 14.954 201.27 15.0446 200.817 15.1352C200.635 15.1352 200.363 15.1352 200.091 15.1352C199.819 15.0446 199.638 14.954 199.457 14.7727H199.638C199.547 15.1352 199.457 15.4071 199.275 15.7697C199.094 16.0415 198.822 16.3134 198.641 16.5853C198.097 17.0385 197.371 17.401 196.646 17.4916C196.374 17.5823 196.012 17.5823 195.74 17.5823C195.468 17.5823 195.196 17.4916 194.924 17.5823C194.652 17.6729 194.47 17.8541 194.289 18.126C194.108 18.3979 193.926 18.5792 193.745 18.7604C192.929 19.5761 191.932 20.2105 190.844 20.2105C189.756 20.2105 188.849 19.7574 188.124 19.123C187.399 18.4886 187.036 17.7635 186.855 16.9478L186.945 17.0385C186.22 17.2197 185.495 16.9478 185.041 16.676C184.588 16.3134 184.316 15.8603 184.225 15.4978C184.135 15.1352 184.135 14.7727 184.225 14.5915C184.225 14.5008 184.225 14.4102 184.316 14.3196C184.316 14.229 184.316 14.2289 184.316 14.2289C184.316 14.2289 184.135 14.6821 184.316 15.4071C184.407 15.7697 184.679 16.2228 185.041 16.5853C185.495 16.9478 186.129 17.1291 186.764 16.9478H186.855V17.0385C187.036 17.7635 187.489 18.4886 188.124 19.123C188.759 19.6667 189.665 20.1199 190.662 20.1199C191.66 20.1199 192.657 19.4855 193.382 18.7604C193.564 18.5792 193.745 18.3979 193.926 18.126C194.108 17.8541 194.38 17.6729 194.652 17.5823C194.833 17.4916 194.924 17.4916 195.105 17.4916H195.558C195.83 17.4916 196.102 17.4916 196.465 17.401C197.19 17.3104 197.825 17.0385 198.369 16.5853C198.641 16.4041 198.822 16.1322 199.003 15.8603C199.185 15.5884 199.275 15.2259 199.366 14.954L199.457 14.6821L199.638 14.954C199.819 15.3165 200.363 15.3165 200.726 15.3165C201.179 15.3165 201.542 15.1352 201.905 14.954C202.267 14.7727 202.449 14.4102 202.721 14.0477C202.993 13.7758 203.174 13.4133 203.446 13.1414C203.718 12.8695 203.99 12.5976 204.352 12.4164C204.715 12.2351 205.078 12.3257 205.44 12.3257C205.803 12.3257 206.075 12.4164 206.347 12.4164C206.619 12.4164 206.891 12.2351 207.072 12.0538C207.435 11.6007 207.526 11.1475 207.616 10.6944C207.707 10.2412 207.798 9.87872 207.888 9.60683C207.979 9.33494 208.07 9.06305 208.16 8.97242C208.16 8.33801 208.251 8.33801 208.251 8.33801Z" fill="#455A64"/>
<path d="M203.718 35.1644C203.265 36.6145 203.627 38.2458 204.987 38.9709C205.44 39.2428 206.075 39.3334 206.528 39.1521C207.163 38.9709 207.707 38.6084 207.979 37.974C208.251 37.3395 208.432 36.7051 208.342 36.0707C207.072 35.7988 205.078 35.4363 203.718 35.1644Z" fill="#6F4439"/>
<path d="M207.888 38.3365C207.888 38.3365 207.798 38.5177 207.526 38.699C207.254 38.8803 206.891 39.0615 206.256 39.1521C205.712 39.2428 204.987 39.0615 204.443 38.6084C203.809 38.1552 203.446 37.3395 203.355 36.5239C203.355 36.0707 203.355 35.6176 203.446 35.2551V35.1644H203.537C204.896 35.4363 206.075 35.7082 206.891 35.8895C207.707 36.0707 208.251 36.1614 208.251 36.252C208.251 36.252 207.707 36.252 206.891 36.0707C206.075 35.8895 204.896 35.7082 203.537 35.4363L203.627 35.3457C203.537 35.7082 203.446 36.1614 203.537 36.5239C203.627 37.3395 203.99 38.0646 204.534 38.5177C205.078 38.9709 205.712 39.1521 206.256 39.0615C206.8 39.0615 207.163 38.8803 207.435 38.699C207.707 38.5177 207.888 38.3365 207.888 38.3365Z" fill="#263238"/>
<path d="M200.635 265.545L199.819 284.215C199.819 284.215 218.496 291.284 218.677 294.728L182.412 294.456L182.503 265.364L200.635 265.545Z" fill="#032933"/>
<path d="M182.412 294.547L182.503 291.647L217.227 293.006C217.227 293.006 218.858 293.731 218.677 294.819L182.412 294.547Z" fill="#455A64"/>
<path d="M200.363 284.034C200.363 284.215 199.457 284.306 198.641 284.849C197.734 285.393 197.281 286.118 197.099 286.118C196.918 286.118 197.19 285.031 198.278 284.396C199.366 283.671 200.454 283.852 200.363 284.034Z" fill="#263238"/>
<path d="M204.171 285.665C204.171 285.846 203.446 286.118 202.811 286.843C202.177 287.568 201.995 288.384 201.814 288.384C201.633 288.384 201.542 287.387 202.267 286.481C203.083 285.574 204.171 285.484 204.171 285.665Z" fill="#263238"/>
<path d="M206.256 290.197C206.075 290.197 205.894 289.381 206.347 288.384C206.8 287.387 207.616 287.025 207.707 287.206C207.798 287.387 207.254 287.84 206.891 288.656C206.528 289.472 206.438 290.197 206.256 290.197Z" fill="#263238"/>
<path d="M200.091 279.774C200.001 279.955 199.185 279.683 198.187 279.774C197.19 279.774 196.374 280.137 196.284 279.955C196.193 279.865 196.918 279.14 198.097 279.14C199.366 279.049 200.182 279.683 200.091 279.774Z" fill="#263238"/>
<path d="M200.545 279.593C200.635 279.593 200.635 281.315 200.635 284.125L200.454 283.943C202.539 284.759 205.35 285.846 208.342 287.206C211.605 288.747 214.507 290.378 216.411 291.828C217.317 292.553 218.042 293.278 218.405 293.822C218.768 294.366 218.768 294.819 218.677 294.819C218.677 294.819 218.586 294.456 218.224 293.913C217.861 293.369 217.136 292.734 216.139 292.1C214.235 290.74 211.333 289.2 208.07 287.659C205.078 286.3 202.358 285.121 200.273 284.215L200.091 284.125V283.943C200.273 281.315 200.454 279.593 200.545 279.593Z" fill="#263238"/>
<path d="M177.154 135.492L173.527 156.699L182.412 206.545C182.412 206.545 181.687 231.65 180.418 245.969C179.33 258.386 181.143 279.955 181.143 279.955H200.907L207.979 207.905L212.331 162.952L220.309 136.307L177.154 135.492Z" fill="#003B46"/>
<path d="M212.24 262.373L207.072 280.318C207.072 280.318 223.573 291.647 222.938 295L187.761 286.209L194.652 257.932L212.24 262.373Z" fill="#032933"/>
<path d="M187.761 286.209L188.577 283.399L221.941 292.916C221.941 292.916 223.301 294.003 222.848 295.091L187.761 286.209Z" fill="#455A64"/>
<path d="M207.707 280.227C207.616 280.409 206.8 280.227 205.803 280.59C204.806 280.862 204.171 281.496 204.081 281.406C203.899 281.315 204.443 280.409 205.622 279.956C206.8 279.593 207.707 280.137 207.707 280.227Z" fill="#455A64"/>
<path d="M210.971 282.674C210.971 282.856 210.155 282.946 209.43 283.581C208.614 284.124 208.342 284.849 208.16 284.849C207.979 284.849 208.16 283.762 209.067 283.128C209.974 282.312 210.971 282.493 210.971 282.674Z" fill="#455A64"/>
<path d="M211.968 287.659C211.787 287.659 211.787 286.753 212.421 285.937C213.056 285.121 213.963 284.94 214.053 285.121C214.144 285.303 213.509 285.665 212.965 286.39C212.331 286.934 212.149 287.659 211.968 287.659Z" fill="#455A64"/>
<path d="M208.432 276.058C208.342 276.24 207.616 275.786 206.619 275.605C205.622 275.424 204.806 275.515 204.715 275.333C204.624 275.152 205.531 274.699 206.71 274.971C207.888 275.152 208.523 275.877 208.432 276.058Z" fill="#263238"/>
<path d="M228.015 136.67L228.922 145.823L228.559 210.171C228.559 212.527 228.197 214.883 227.471 217.149L212.149 266.27L208.342 279.321L188.124 275.515L203.718 136.76L228.015 136.67Z" fill="#003B46"/>
<path d="M227.381 217.421C227.381 217.421 227.381 217.512 227.29 217.693C227.199 217.874 227.109 218.237 227.018 218.599C226.746 219.415 226.474 220.502 226.021 222.043C225.114 225.034 223.845 229.384 222.122 234.822C218.768 245.788 214.053 261.286 208.523 279.412V279.593H208.342C201.995 278.415 195.196 277.237 188.124 275.968H187.943V275.786C188.94 270.621 190.028 265.273 191.116 259.745C194.38 243.432 197.462 228.115 200.182 214.702V214.793C196.828 194.854 194.198 178.994 192.657 169.84C191.206 167.303 190.028 165.309 189.303 164.04C188.94 163.406 188.668 162.862 188.487 162.499C188.305 162.137 188.215 161.955 188.215 161.955C188.215 161.955 188.305 162.137 188.487 162.409C188.668 162.771 189.031 163.224 189.393 163.859C190.209 165.218 191.297 167.121 192.838 169.659C194.38 178.813 197.099 194.673 200.545 214.521C197.825 227.934 194.833 243.341 191.569 259.654C190.481 265.183 189.393 270.53 188.396 275.696L188.215 275.515C195.286 276.783 201.995 277.962 208.432 279.14L208.251 279.23C213.872 261.104 218.586 245.697 222.032 234.731C223.754 229.293 225.114 224.943 226.021 221.952C226.474 220.502 226.837 219.324 227.109 218.599C227.199 218.237 227.29 217.965 227.381 217.693C227.381 217.512 227.381 217.421 227.381 217.421Z" fill="#455A64"/>
<path d="M163.283 93.8925C163.283 93.8925 160.472 110.387 162.195 116.731C163.826 122.985 177.516 138.935 177.516 138.935L196.102 127.425L183.863 97.3364L163.283 93.8925Z" fill="#032933"/>
<path d="M173.799 60.3595C173.799 60.3595 186.583 60.722 186.764 72.8664C186.945 85.0108 184.497 101.324 184.497 101.324L162.467 99.7835C162.467 99.7835 163.826 77.0354 165.549 70.2381C167.362 63.5315 173.799 60.3595 173.799 60.3595Z" fill="#032933"/>
<path d="M189.031 48.4869L189.121 46.2212C189.121 46.2212 208.16 51.5683 210.971 53.2903C213.781 55.1029 211.605 57.9124 211.605 57.9124L189.031 48.4869Z" fill="white"/>
<path d="M226.202 110.659L219.493 60.9032L212.784 56.7342C211.515 54.7403 209.974 54.0153 207.435 53.109L189.121 47.1274L187.943 51.6589L171.714 61.447L177.426 115.281L172.258 160.415H181.868L185.404 149.902L186.492 160.415L230.735 159.146L226.202 110.659Z" fill="#032933"/>
<path d="M216.683 59.0906C216.683 59.0906 223.301 61.6282 225.477 70.8725C226.202 73.9539 232.095 103.771 232.095 103.771L259.384 106.218L261.651 120.266L231.732 122.26C223.482 123.256 215.413 120.719 213.237 108.846C213.147 108.574 213.056 108.303 213.056 108.031C210.88 97.5176 207.888 82.9262 207.526 77.9416C206.8 70.6912 208.523 61.0844 216.683 59.0906Z" fill="#032933"/>
<path d="M203.083 118.453C203.083 118.453 202.811 118.544 202.177 118.544C201.633 118.544 200.817 118.634 199.729 118.634C197.734 118.725 194.833 118.816 191.75 118.906C188.668 118.997 185.857 118.906 183.772 118.906C182.866 118.906 182.05 118.906 181.324 118.906C180.78 118.906 180.418 118.906 180.418 118.816C180.418 118.816 180.69 118.725 181.324 118.725C181.868 118.725 182.684 118.634 183.772 118.634C185.767 118.544 188.668 118.544 191.75 118.453C194.833 118.363 197.553 118.363 199.729 118.363C200.635 118.363 201.451 118.363 202.177 118.363C202.811 118.363 203.083 118.453 203.083 118.453Z" fill="#263238"/>
<path d="M170.354 78.8479C170.354 78.8479 170.354 78.9385 170.445 79.0292C170.445 79.2104 170.535 79.3917 170.535 79.5729C170.626 80.1167 170.807 80.7511 170.989 81.6574C171.351 83.47 171.895 86.0983 172.439 89.361C173.618 95.8863 175.341 104.859 177.154 114.647C177.244 115.281 177.426 115.915 177.516 116.459C176.429 125.975 175.431 134.585 174.706 140.839C174.343 143.92 173.981 146.367 173.799 148.18C173.709 148.995 173.618 149.63 173.527 150.174C173.437 150.627 173.437 150.899 173.437 150.899C173.437 150.899 173.437 150.627 173.437 150.174C173.527 149.72 173.527 148.995 173.618 148.18C173.799 146.458 174.071 143.92 174.434 140.839C175.159 134.585 176.066 126.066 177.154 116.459V116.55C177.063 116.006 176.972 115.372 176.791 114.737C174.978 104.859 173.346 95.8863 172.167 89.361C171.623 86.0983 171.17 83.5606 170.807 81.6574C170.626 80.7511 170.535 80.1167 170.445 79.5729C170.445 79.3917 170.354 79.2104 170.354 79.0292C170.354 78.9385 170.354 78.8479 170.354 78.8479Z" fill="#263238"/>
<path d="M212.965 56.9155C212.965 56.9155 212.603 56.8249 211.968 56.7343C211.243 56.553 210.336 56.2811 209.339 56.0092C207.072 55.4655 203.99 54.7404 200.545 54.0154C197.099 53.2903 193.926 52.7466 191.66 52.384C190.572 52.2028 189.665 52.0215 188.94 51.9309C188.305 51.8403 187.943 51.7496 187.943 51.7496C187.943 51.7496 188.305 51.7496 188.94 51.8403C189.575 51.9309 190.481 52.0215 191.66 52.2028C193.926 52.4747 197.1 53.0185 200.635 53.7435C204.08 54.4685 207.254 55.1936 209.43 55.9186C210.517 56.2811 211.424 56.553 212.059 56.7343C212.693 56.8249 213.056 56.9155 212.965 56.9155Z" fill="#263238"/>
<path d="M219.856 61.8095C219.856 61.9002 218.768 61.6283 217.045 61.9002C215.323 62.1721 212.965 62.9877 211.152 64.891C209.339 66.7942 208.432 69.1506 208.16 70.7819C207.888 72.5039 207.979 73.5914 207.888 73.5914C207.888 73.5914 207.798 73.3195 207.798 72.8664C207.798 72.4132 207.798 71.6882 207.888 70.7819C208.07 69.0599 208.976 66.6129 210.88 64.6191C212.784 62.6252 215.323 61.8096 217.045 61.6283C217.952 61.5377 218.677 61.6283 219.13 61.6283C219.584 61.7189 219.856 61.8095 219.856 61.8095Z" fill="#263238"/>
<path d="M168.722 66.2504C168.813 66.2504 169.266 67.6098 169.72 69.3318C170.173 71.0537 170.445 72.5038 170.264 72.5038C170.173 72.5038 169.72 71.1444 169.266 69.4224C168.904 67.7004 168.632 66.2504 168.722 66.2504Z" fill="#263238"/>
<path d="M211.696 89.2704C211.696 89.2704 211.696 89.361 211.696 89.6329C211.696 89.9048 211.696 90.2673 211.787 90.7204C211.877 91.6267 211.968 92.9862 212.149 94.7988C212.603 98.3333 213.509 103.409 214.416 109.662L214.507 110.296V110.478C214.325 110.478 214.869 110.478 214.144 110.568C214.144 110.478 214.144 110.568 214.144 110.478C213.872 110.568 214.597 110.387 214.507 110.387L214.597 110.659C214.688 111.022 214.779 111.475 214.869 111.837C215.051 112.653 215.323 113.469 215.595 114.284C216.229 115.916 217.136 117.456 218.405 118.816C219.674 120.085 221.397 121.081 223.301 121.625C225.205 122.169 227.199 122.35 229.285 122.169C237.716 121.625 246.873 120.991 256.574 120.356C258.296 120.266 260.019 120.175 261.742 119.994L261.56 120.266C260.744 115.372 260.019 110.75 259.294 106.218L259.475 106.399C249.14 105.493 239.892 104.587 232.186 103.952H232.095V103.862C230.735 96.7926 229.647 91.083 228.831 87.0953C228.469 85.1014 228.197 83.5607 227.925 82.4731C227.834 81.9294 227.743 81.5668 227.743 81.2949C227.743 81.0231 227.653 80.8418 227.653 80.8418C227.653 80.8418 227.653 80.9324 227.743 81.2043C227.834 81.4762 227.925 81.9294 228.015 82.3825C228.197 83.4701 228.559 85.0108 229.013 86.914C229.829 90.9017 231.007 96.6114 232.458 103.681L232.276 103.499C239.983 104.134 249.23 104.949 259.566 105.856H259.747V106.037C260.472 110.568 261.288 115.281 262.014 120.085V120.356H261.742C260.019 120.447 258.296 120.538 256.574 120.719C246.873 121.353 237.716 121.897 229.285 122.441C227.199 122.532 225.114 122.441 223.12 121.806C221.216 121.263 219.402 120.175 218.133 118.816C216.773 117.456 215.867 115.825 215.323 114.194C215.051 113.378 214.779 112.562 214.597 111.747C214.507 111.293 214.416 110.931 214.325 110.568L214.235 110.296C214.144 110.296 214.869 110.115 214.597 110.206C214.597 110.206 214.688 110.206 214.507 110.206C214.325 110.296 214.235 110.206 214.235 110.206V110.025L214.144 109.39C213.328 103.137 212.421 98.0615 212.059 94.5269C211.877 92.8049 211.787 91.3549 211.787 90.4486C211.787 89.9954 211.787 89.6329 211.787 89.361C211.696 89.361 211.696 89.2704 211.696 89.2704Z" fill="#263238"/>
</svg>
