<svg width="18" height="18" viewBox="0 0 18 18" fill="none" xmlns="http://www.w3.org/2000/svg">
<path fill-rule="evenodd" clip-rule="evenodd" d="M9.00093 0.923584C6.68339 0.923584 6.39255 0.933717 5.48232 0.97514C4.57386 1.01674 3.95377 1.16056 3.41118 1.37159C2.84993 1.58955 2.37384 1.88111 1.89952 2.3556C1.42485 2.82991 1.13329 3.30601 0.914624 3.86708C0.703066 4.40984 0.559065 5.03012 0.518175 5.93821C0.477464 6.84845 0.466797 7.13947 0.466797 9.45701C0.466797 11.7745 0.477108 12.0645 0.518353 12.9747C0.560131 13.8832 0.703955 14.5033 0.914802 15.0459C1.13294 15.6071 1.4245 16.0832 1.89899 16.5575C2.37313 17.0322 2.84922 17.3245 3.41012 17.5424C3.95306 17.7534 4.57333 17.8973 5.4816 17.9389C6.39184 17.9803 6.68251 17.9904 8.99986 17.9904C11.3176 17.9904 11.6075 17.9803 12.5178 17.9389C13.4262 17.8973 14.047 17.7534 14.59 17.5424C15.151 17.3245 15.6264 17.0322 16.1006 16.5575C16.5752 16.0832 16.8668 15.6071 17.0855 15.046C17.2952 14.5033 17.4392 13.883 17.4819 12.9749C17.5228 12.0647 17.5335 11.7745 17.5335 9.45701C17.5335 7.13947 17.5228 6.84862 17.4819 5.93839C17.4392 5.02994 17.2952 4.40984 17.0855 3.86726C16.8668 3.30601 16.5752 2.82991 16.1006 2.3556C15.6259 1.88093 15.1512 1.58937 14.5894 1.37159C14.0454 1.16056 13.425 1.01674 12.5165 0.97514C11.6063 0.933717 11.3165 0.923584 8.99826 0.923584H9.00093ZM8.23537 2.46135C8.46258 2.461 8.71609 2.46135 9.00089 2.46135C11.2793 2.46135 11.5494 2.46953 12.4491 2.51042C13.2811 2.54847 13.7327 2.68749 14.0335 2.80429C14.4317 2.95896 14.7156 3.14385 15.0141 3.44252C15.3128 3.74119 15.4977 4.02564 15.6527 4.42386C15.7695 4.72431 15.9087 5.17587 15.9466 6.00788C15.9875 6.90744 15.9963 7.17767 15.9963 9.45503C15.9963 11.7324 15.9875 12.0026 15.9466 12.9022C15.9085 13.7342 15.7695 14.1857 15.6527 14.4862C15.498 14.8844 15.3128 15.168 15.0141 15.4665C14.7154 15.7651 14.4319 15.95 14.0335 16.1047C13.733 16.222 13.2811 16.3607 12.4491 16.3987C11.5495 16.4396 11.2793 16.4485 9.00089 16.4485C6.72229 16.4485 6.45224 16.4396 5.55268 16.3987C4.72067 16.3603 4.26911 16.2213 3.96813 16.1045C3.5699 15.9499 3.28546 15.765 2.98679 15.4663C2.68812 15.1676 2.50323 14.8839 2.3482 14.4855C2.2314 14.185 2.0922 13.7335 2.05433 12.9015C2.01344 12.0019 2.00527 11.7317 2.00527 9.45289C2.00527 7.17411 2.01344 6.90531 2.05433 6.00575C2.09238 5.17374 2.2314 4.72218 2.3482 4.42137C2.50287 4.02315 2.68812 3.7387 2.98679 3.44003C3.28546 3.14136 3.5699 2.95647 3.96813 2.80145C4.26893 2.68411 4.72067 2.54544 5.55268 2.50722C6.33989 2.47166 6.64496 2.461 8.23537 2.45922V2.46135ZM13.556 3.87826C12.9906 3.87826 12.532 4.3364 12.532 4.90192C12.532 5.46726 12.9906 5.92593 13.556 5.92593C14.1213 5.92593 14.58 5.46726 14.58 4.90192C14.58 4.33658 14.1213 3.87826 13.556 3.87826ZM9.00095 5.07472C6.58083 5.07472 4.61868 7.03687 4.61868 9.45698C4.61868 11.8771 6.58083 13.8384 9.00095 13.8384C11.4211 13.8384 13.3825 11.8771 13.3825 9.45698C13.3825 7.03687 11.4211 5.07472 9.00095 5.07472ZM9.00091 6.61251C10.5718 6.61251 11.8454 7.88594 11.8454 9.45698C11.8454 11.0278 10.5718 12.3015 9.00091 12.3015C7.42987 12.3015 6.15644 11.0278 6.15644 9.45698C6.15644 7.88594 7.42987 6.61251 9.00091 6.61251Z" fill="white"/>
</svg>
