<svg width="16" height="13" viewBox="0 0 16 13" fill="none" xmlns="http://www.w3.org/2000/svg">
<path fill-rule="evenodd" clip-rule="evenodd" d="M7.5208 3.46213L7.55438 4.01577L6.99479 3.94797C4.95791 3.6881 3.17843 2.80681 1.66756 1.32668L0.928908 0.592261L0.73865 1.1346C0.33575 2.34356 0.593158 3.62031 1.43253 4.47901C1.8802 4.95356 1.77948 5.02135 1.00725 4.73888C0.73865 4.64849 0.503625 4.5807 0.481242 4.6146C0.4029 4.69369 0.6715 5.72187 0.884142 6.12862C1.17513 6.69356 1.76828 7.24719 2.4174 7.57485L2.96579 7.83472L2.31668 7.84602C1.68994 7.84602 1.66756 7.85732 1.73471 8.09459C1.95854 8.82901 2.84268 9.60862 3.82755 9.94758L4.52143 10.1849L3.91708 10.5464C3.02175 11.0662 1.96973 11.3599 0.917717 11.3825C0.414092 11.3938 0 11.439 0 11.4729C0 11.5859 1.36538 12.2186 2.15999 12.4672C4.54382 13.2016 7.37531 12.8852 9.50173 11.6311C11.0126 10.7385 12.5235 8.96459 13.2286 7.24719C13.6091 6.332 13.9896 4.65979 13.9896 3.85758C13.9896 3.33784 14.0232 3.27005 14.6499 2.64862C15.0192 2.28707 15.3662 1.89161 15.4333 1.77862C15.5452 1.56395 15.534 1.56395 14.9633 1.75603C14.012 2.09499 13.8777 2.04979 14.3477 1.54135C14.6947 1.17979 15.1088 0.524468 15.1088 0.332391C15.1088 0.298494 14.9409 0.354988 14.7506 0.456676C14.5492 0.569663 14.1015 0.739144 13.7658 0.840832L13.1614 1.03291L12.613 0.660053C12.3108 0.456676 11.8856 0.230702 11.6617 0.16291C11.0909 0.00472838 10.218 0.0273258 9.70318 0.208105C8.30422 0.716546 7.42008 2.02719 7.5208 3.46213Z" fill="white"/>
</svg>
