<svg width="18" height="18" viewBox="0 0 18 18" fill="none" xmlns="http://www.w3.org/2000/svg">
<path fill-rule="evenodd" clip-rule="evenodd" d="M17.5335 9.44509C17.5335 10.0222 17.4747 10.5985 17.3593 11.1602C17.2468 11.7086 17.0801 12.247 16.8618 12.7617C16.6485 13.2673 16.3839 13.7545 16.0747 14.2089C15.7701 14.6604 15.4192 15.0839 15.0338 15.47C14.6475 15.8545 14.2225 16.2044 13.7712 16.5103C13.3154 16.8173 12.8275 17.0815 12.3216 17.2958C11.8061 17.513 11.2665 17.6795 10.7186 17.7918C10.1561 17.9075 9.57767 17.9666 8.99975 17.9666C8.42139 17.9666 7.84303 17.9075 7.28133 17.7918C6.73257 17.6795 6.19295 17.513 5.67792 17.2958C5.17207 17.0815 4.68369 16.8173 4.22784 16.5103C3.77657 16.2044 3.35155 15.8545 2.96611 15.47C2.58027 15.0839 2.2294 14.6604 1.92439 14.2089C1.61687 13.7545 1.35184 13.2673 1.13768 12.7617C0.919305 12.247 0.752236 11.7086 0.63931 11.1602C0.525147 10.5985 0.466797 10.0222 0.466797 9.44509C0.466797 8.86756 0.525114 8.29004 0.639343 7.72952C0.75227 7.18111 0.919338 6.64187 1.13771 6.12802C1.35187 5.62207 1.6169 5.13442 1.92442 4.68003C2.22943 4.22818 2.5803 3.80541 2.96614 3.41886C3.35158 3.03437 3.7766 2.68531 4.22787 2.3799C4.68372 2.07156 5.1721 1.80738 5.67795 1.59266C6.19298 1.37501 6.73257 1.20818 7.28137 1.09668C7.84306 0.98185 8.42142 0.923584 8.99978 0.923584C9.57771 0.923584 10.1561 0.98185 10.7186 1.09668C11.2665 1.20821 11.8061 1.37504 12.3216 1.59266C12.8275 1.80735 13.3154 2.07156 13.7713 2.3799C14.2225 2.68531 14.6476 3.03437 15.0338 3.41886C15.4193 3.80541 15.7701 4.22818 16.0747 4.68003C16.3839 5.13442 16.6485 5.6221 16.8618 6.12802C17.0801 6.64187 17.2468 7.18111 17.3593 7.72952C17.4747 8.29004 17.5335 8.86756 17.5335 9.44509ZM5.89038 2.86296C3.85817 3.82124 2.34143 5.69112 1.86848 7.94466C2.0606 7.94633 5.09742 7.98462 8.59634 7.05629C7.33505 4.81857 5.98748 2.9924 5.89038 2.86296ZM9.20012 8.17686C5.44786 9.2986 1.84724 9.21788 1.71808 9.21291C1.71597 9.29113 1.71223 9.36683 1.71223 9.44508C1.71223 11.3145 2.41851 13.0188 3.57941 14.3075C3.5769 14.3037 5.5712 10.7707 9.50389 9.50084C9.59888 9.46923 9.69558 9.44091 9.7914 9.41346C9.6085 8.99989 9.40887 8.58546 9.20012 8.17686ZM13.8125 3.9835C12.5295 2.8538 10.8448 2.16855 8.99972 2.16855C8.4076 2.16855 7.83298 2.24012 7.28254 2.37243C7.3917 2.51891 8.76054 4.3322 10.0068 6.61732C12.7566 5.58794 13.7945 4.01012 13.8125 3.9835ZM10.2882 10.6193C10.2719 10.6246 10.2557 10.6293 10.2398 10.6351C5.94009 12.1319 4.53595 15.1483 4.52076 15.1813C5.75793 16.142 7.30968 16.7216 8.99977 16.7216C10.009 16.7216 10.9703 16.5164 11.8449 16.1449C11.737 15.5091 11.3136 13.2806 10.2882 10.6193ZM13.072 15.48C14.7083 14.3774 15.8705 12.6265 16.1946 10.5984C16.0446 10.5502 14.0058 9.90564 11.6536 10.2822C12.6095 12.9053 12.9978 15.0415 13.072 15.48ZM10.5678 7.70166C10.7369 8.04869 10.9007 8.40189 11.0519 8.75686C11.1057 8.8842 11.1582 9.00903 11.2095 9.13384C13.7129 8.81926 16.1793 9.34852 16.2847 9.37014C16.2681 7.64506 15.6501 6.06184 14.6276 4.82234C14.6138 4.84185 13.445 6.52827 10.5678 7.70166Z" fill="white"/>
</svg>
