<svg width="18" height="13" viewBox="0 0 18 13" fill="none" xmlns="http://www.w3.org/2000/svg">
<path fill-rule="evenodd" clip-rule="evenodd" d="M15.6679 0.956551C16.4022 1.15806 16.9805 1.75181 17.1768 2.50581C17.5335 3.87236 17.5335 6.72367 17.5335 6.72367C17.5335 6.72367 17.5335 9.57487 17.1768 10.9415C16.9805 11.6955 16.4022 12.2893 15.6679 12.4909C14.3371 12.857 9.00013 12.857 9.00013 12.857C9.00013 12.857 3.66321 12.857 2.3323 12.4909C1.59795 12.2893 1.01962 11.6955 0.823354 10.9415C0.466797 9.57487 0.466797 6.72367 0.466797 6.72367C0.466797 6.72367 0.466797 3.87236 0.823354 2.50581C1.01962 1.75181 1.59795 1.15806 2.3323 0.956551C3.66321 0.590332 9.00013 0.590332 9.00013 0.590332C9.00013 0.590332 14.3371 0.590332 15.6679 0.956551ZM7.40015 4.32361V9.65694L11.6668 6.99038L7.40015 4.32361Z" fill="white"/>
</svg>
