<svg width="350" height="274" viewBox="0 0 350 274" fill="none" xmlns="http://www.w3.org/2000/svg">
<path d="M99.3445 163.472C99.3445 174.129 90.6918 182.772 80.0136 182.772C69.3353 182.772 60.6826 174.129 60.6826 163.472C60.6826 152.814 69.3353 144.171 80.0136 144.171C90.6918 144.171 99.3445 152.814 99.3445 163.472Z" stroke="url(#paint0_linear_394_9434)" stroke-width="3"/>
<path d="M255.605 83.1239V83.1205C255.592 75.625 253.363 68.2854 248.639 62.307C244.223 56.7167 237.759 52.5086 230.896 50.5353C226.722 22.9369 203.278 2 174.366 2C151.933 2 132.266 14.6265 123.074 34.9868C105.657 40.5769 92.3096 57.0063 92.3096 74.9668C92.3096 97.9181 111.274 116.937 134.338 116.937H221.746C240.421 116.937 255.605 101.709 255.605 83.1239Z" stroke="url(#paint1_linear_394_9434)" stroke-width="4" stroke-linecap="round" stroke-linejoin="round"/>
<path d="M192.471 88.4256C192.471 99.083 183.818 107.726 173.14 107.726C162.461 107.726 153.809 99.083 153.809 88.4256C153.809 77.7682 162.461 69.125 173.14 69.125C183.818 69.125 192.471 77.7682 192.471 88.4256Z" stroke="url(#paint2_linear_394_9434)" stroke-width="3"/>
<path d="M288.05 253.199C288.05 263.856 279.397 272.5 268.719 272.5C258.04 272.5 249.388 263.856 249.388 253.199C249.388 242.542 258.04 233.898 268.719 233.898C279.397 233.898 288.05 242.542 288.05 253.199Z" stroke="url(#paint3_linear_394_9434)" stroke-width="3"/>
<path d="M162.246 209.151C162.246 219.809 153.593 228.452 142.915 228.452C132.237 228.452 123.584 219.809 123.584 209.151C123.584 198.494 132.237 189.851 142.915 189.851C153.593 189.851 162.246 198.494 162.246 209.151Z" stroke="url(#paint4_linear_394_9434)" stroke-width="3"/>
<path d="M162.246 251.568C162.246 262.226 153.593 270.869 142.915 270.869C132.237 270.869 123.584 262.226 123.584 251.568C123.584 240.911 132.237 232.268 142.915 232.268C153.593 232.268 162.246 240.911 162.246 251.568Z" stroke="url(#paint5_linear_394_9434)" stroke-width="3"/>
<path d="M34.0422 166.326V166.324C34.0393 164.664 33.1347 162.797 32.1873 161.62C31.4274 160.677 30.3979 159.578 29.032 159.037C28.021 153.628 23.2932 149.828 17.5211 149.828C12.9786 149.828 8.92826 152.572 6.99587 156.535C3.49482 157.757 1 161.069 1 164.695C1 169.549 5.47143 173.036 10.169 173.036H26.507C30.3097 173.036 34.0422 170.379 34.0422 166.326Z" fill="white" stroke="url(#paint6_linear_394_9434)" stroke-width="2"/>
<path d="M34.0422 211.19V211.189C34.0393 209.529 33.1347 207.661 32.1873 206.485C31.4274 205.541 30.3979 204.442 29.032 203.901C28.021 198.492 23.2932 194.692 17.5211 194.692C12.9786 194.692 8.92826 197.436 6.99587 201.399C3.49482 202.621 1 205.933 1 209.559C1 214.413 5.47143 217.9 10.169 217.9H26.507C30.3097 217.9 34.0422 215.243 34.0422 211.19Z" fill="white" stroke="url(#paint7_linear_394_9434)" stroke-width="2"/>
<path d="M34.0422 256.87V256.868C34.0393 255.208 33.1347 253.341 32.1873 252.164C31.4274 251.221 30.3979 250.122 29.032 249.58C28.021 244.172 23.2932 240.372 17.5211 240.372C12.9786 240.372 8.92826 243.116 6.99587 247.079C3.49482 248.301 1 251.613 1 255.239C1 260.092 5.47143 263.58 10.169 263.58H26.507C30.3097 263.58 34.0422 260.923 34.0422 256.87Z" stroke="url(#paint8_linear_394_9434)" stroke-width="2"/>
<g clip-path="url(#clip0_394_9434)">
<path d="M96.9426 166.327L96.9426 166.325C96.9397 164.665 96.0351 162.797 95.0877 161.621C94.3277 160.677 93.2983 159.578 91.9324 159.037C90.9214 153.628 86.1936 149.828 80.4215 149.828C75.879 149.828 71.8286 152.573 69.8963 156.535C66.3952 157.758 63.9004 161.07 63.9004 164.695C63.9004 169.549 68.3718 173.037 73.0694 173.037H89.4074C93.2101 173.037 96.9426 170.38 96.9426 166.327Z" stroke="url(#paint9_linear_394_9434)" stroke-width="2"/>
</g>
<g clip-path="url(#clip1_394_9434)">
<path d="M96.9426 211.19L96.9426 211.189C96.9397 209.529 96.0351 207.661 95.0877 206.485C94.3277 205.541 93.2983 204.442 91.9324 203.901C90.9214 198.492 86.1936 194.692 80.4215 194.692C75.879 194.692 71.8286 197.436 69.8963 201.399C66.3952 202.621 63.9004 205.933 63.9004 209.559C63.9004 214.413 68.3718 217.9 73.0694 217.9H89.4074C93.2101 217.9 96.9426 215.243 96.9426 211.19Z" fill="white" stroke="url(#paint10_linear_394_9434)" stroke-width="2"/>
</g>
<path d="M96.9426 256.871L96.9426 256.869C96.9397 255.209 96.0351 253.341 95.0877 252.165C94.3277 251.221 93.2983 250.122 91.9324 249.581C90.9214 244.172 86.1936 240.372 80.4215 240.372C75.879 240.372 71.8286 243.117 69.8963 247.079C66.3952 248.301 63.9004 251.614 63.9004 255.239C63.9004 260.093 68.3718 263.581 73.0694 263.581H89.4074C93.2101 263.581 96.9426 260.924 96.9426 256.871Z" fill="white" stroke="url(#paint11_linear_394_9434)" stroke-width="2"/>
<g clip-path="url(#clip2_394_9434)">
<path d="M159.845 166.327L159.845 166.325C159.842 164.665 158.937 162.797 157.99 161.621C157.23 160.677 156.201 159.578 154.835 159.037C153.824 153.628 149.096 149.828 143.324 149.828C138.781 149.828 134.731 152.573 132.799 156.535C129.298 157.758 126.803 161.07 126.803 164.695C126.803 169.549 131.274 173.037 135.972 173.037H152.31C156.112 173.037 159.845 170.38 159.845 166.327Z" fill="white" stroke="url(#paint12_linear_394_9434)" stroke-width="2"/>
</g>
<g clip-path="url(#clip3_394_9434)">
<path d="M159.845 211.19L159.845 211.189C159.842 209.529 158.937 207.661 157.99 206.485C157.23 205.541 156.201 204.442 154.835 203.901C153.824 198.492 149.096 194.692 143.324 194.692C138.781 194.692 134.731 197.436 132.799 201.399C129.298 202.621 126.803 205.933 126.803 209.559C126.803 214.413 131.274 217.9 135.972 217.9H152.31C156.112 217.9 159.845 215.243 159.845 211.19Z" stroke="url(#paint13_linear_394_9434)" stroke-width="2"/>
</g>
<path d="M159.845 256.871L159.845 256.869C159.842 255.209 158.937 253.341 157.99 252.165C157.23 251.221 156.201 250.122 154.835 249.581C153.824 244.172 149.096 240.372 143.324 240.372C138.781 240.372 134.731 243.117 132.799 247.079C129.298 248.301 126.803 251.614 126.803 255.239C126.803 260.093 131.274 263.581 135.972 263.581H152.31C156.112 263.581 159.845 260.924 159.845 256.871Z" stroke="url(#paint14_linear_394_9434)" stroke-width="2"/>
<g clip-path="url(#clip4_394_9434)">
<path d="M222.745 166.327L222.745 166.325C222.742 164.665 221.838 162.797 220.89 161.621C220.13 160.677 219.101 159.578 217.735 159.037C216.724 153.628 211.996 149.828 206.224 149.828C201.682 149.828 197.631 152.573 195.699 156.535C192.198 157.758 189.703 161.07 189.703 164.695C189.703 169.549 194.175 173.037 198.872 173.037H215.21C219.013 173.037 222.745 170.38 222.745 166.327Z" fill="white" stroke="url(#paint15_linear_394_9434)" stroke-width="2"/>
</g>
<g clip-path="url(#clip5_394_9434)">
<path d="M222.745 211.19L222.745 211.189C222.742 209.529 221.838 207.661 220.89 206.485C220.13 205.541 219.101 204.442 217.735 203.901C216.724 198.492 211.996 194.692 206.224 194.692C201.682 194.692 197.631 197.436 195.699 201.399C192.198 202.621 189.703 205.933 189.703 209.559C189.703 214.413 194.175 217.9 198.872 217.9H215.21C219.013 217.9 222.745 215.243 222.745 211.19Z" fill="white" stroke="url(#paint16_linear_394_9434)" stroke-width="2"/>
</g>
<path d="M222.745 256.871L222.745 256.869C222.742 255.209 221.838 253.341 220.89 252.165C220.13 251.221 219.101 250.122 217.735 249.581C216.724 244.172 211.996 240.372 206.224 240.372C201.682 240.372 197.631 243.117 195.699 247.079C192.198 248.301 189.703 251.614 189.703 255.239C189.703 260.093 194.175 263.581 198.872 263.581H215.21C219.013 263.581 222.745 260.924 222.745 256.871Z" fill="white" stroke="url(#paint17_linear_394_9434)" stroke-width="2"/>
<g clip-path="url(#clip6_394_9434)">
<path d="M285.648 166.327L285.648 166.325C285.645 164.665 284.74 162.797 283.793 161.621C283.033 160.677 282.003 159.578 280.637 159.037C279.626 153.628 274.899 149.828 269.127 149.828C264.584 149.828 260.534 152.573 258.601 156.535C255.1 157.758 252.605 161.07 252.605 164.695C252.605 169.549 257.077 173.037 261.774 173.037H278.112C281.915 173.037 285.648 170.38 285.648 166.327Z" fill="white" stroke="url(#paint18_linear_394_9434)" stroke-width="2"/>
</g>
<g clip-path="url(#clip7_394_9434)">
<path d="M285.648 211.19L285.648 211.189C285.645 209.529 284.74 207.661 283.793 206.485C283.033 205.541 282.003 204.442 280.637 203.901C279.626 198.492 274.899 194.692 269.127 194.692C264.584 194.692 260.534 197.436 258.601 201.399C255.1 202.621 252.605 205.933 252.605 209.559C252.605 214.413 257.077 217.9 261.774 217.9H278.112C281.915 217.9 285.648 215.243 285.648 211.19Z" fill="white" stroke="url(#paint19_linear_394_9434)" stroke-width="2"/>
</g>
<path d="M285.648 256.871L285.648 256.869C285.645 255.209 284.74 253.341 283.793 252.165C283.033 251.221 282.003 250.122 280.637 249.581C279.626 244.172 274.899 240.372 269.127 240.372C264.584 240.372 260.534 243.117 258.601 247.079C255.1 248.301 252.605 251.614 252.605 255.239C252.605 260.093 257.077 263.581 261.774 263.581H278.112C281.915 263.581 285.648 260.924 285.648 256.871Z" fill="white" stroke="url(#paint20_linear_394_9434)" stroke-width="2"/>
<g clip-path="url(#clip8_394_9434)">
<path d="M348.549 166.327L348.549 166.325C348.546 164.665 347.642 162.797 346.694 161.621C345.934 160.677 344.905 159.578 343.539 159.037C342.528 153.628 337.8 149.828 332.028 149.828C327.485 149.828 323.435 152.573 321.503 156.535C318.002 157.758 315.507 161.07 315.507 164.695C315.507 169.549 319.978 173.037 324.676 173.037H341.014C344.817 173.037 348.549 170.38 348.549 166.327Z" fill="white" stroke="url(#paint21_linear_394_9434)" stroke-width="2"/>
</g>
<g clip-path="url(#clip9_394_9434)">
<path d="M348.549 211.19L348.549 211.189C348.546 209.529 347.642 207.661 346.694 206.485C345.934 205.541 344.905 204.442 343.539 203.901C342.528 198.492 337.8 194.692 332.028 194.692C327.485 194.692 323.435 197.436 321.503 201.399C318.002 202.621 315.507 205.933 315.507 209.559C315.507 214.413 319.978 217.9 324.676 217.9H341.014C344.817 217.9 348.549 215.243 348.549 211.19Z" fill="white" stroke="url(#paint22_linear_394_9434)" stroke-width="2"/>
</g>
<g clip-path="url(#clip10_394_9434)">
<path d="M348.549 256.871L348.549 256.869C348.546 255.209 347.642 253.341 346.694 252.165C345.934 251.221 344.905 250.122 343.539 249.581C342.528 244.172 337.8 240.372 332.028 240.372C327.485 240.372 323.435 243.117 321.503 247.079C318.002 248.301 315.507 251.614 315.507 255.239C315.507 260.093 319.978 263.581 324.676 263.581H341.014C344.817 263.581 348.549 260.924 348.549 256.871Z" fill="white" stroke="url(#paint23_linear_394_9434)" stroke-width="2"/>
</g>
<line y1="-1.5" x2="80.0097" y2="-1.5" transform="matrix(-0.77522 0.631691 -0.632562 -0.77451 156.395 97.8066)" stroke="url(#paint24_linear_394_9434)" stroke-width="3"/>
<line y1="-1.5" x2="86.5915" y2="-1.5" transform="matrix(-0.999822 -0.0188429 0.0188862 -0.999822 249.506 253.607)" stroke="url(#paint25_linear_394_9434)" stroke-width="3"/>
<line y1="-1.5" x2="47.9955" y2="-1.5" transform="matrix(-0.495786 -0.868445 0.869066 -0.494696 124.535 208.743)" stroke="url(#paint26_linear_394_9434)" stroke-width="3"/>
<line x1="142.533" y1="232.287" x2="142.533" y2="228.494" stroke="url(#paint27_linear_394_9434)" stroke-width="3"/>
<defs>
<linearGradient id="paint0_linear_394_9434" x1="59.1826" y1="166.384" x2="100.861" y2="166.131" gradientUnits="userSpaceOnUse">
<stop stop-color="#FF6753"/>
<stop offset="1" stop-color="#FF8F50"/>
</linearGradient>
<linearGradient id="paint1_linear_394_9434" x1="173.618" y1="-17.2281" x2="173.618" y2="149.409" gradientUnits="userSpaceOnUse">
<stop stop-color="#00B9FF"/>
<stop offset="1" stop-color="#0068B5"/>
</linearGradient>
<linearGradient id="paint2_linear_394_9434" x1="152.309" y1="91.3377" x2="193.987" y2="91.085" gradientUnits="userSpaceOnUse">
<stop stop-color="#FF6753"/>
<stop offset="1" stop-color="#FF8F50"/>
</linearGradient>
<linearGradient id="paint3_linear_394_9434" x1="247.888" y1="256.111" x2="289.566" y2="255.858" gradientUnits="userSpaceOnUse">
<stop stop-color="#FF6753"/>
<stop offset="1" stop-color="#FF8F50"/>
</linearGradient>
<linearGradient id="paint4_linear_394_9434" x1="122.084" y1="212.063" x2="163.762" y2="211.811" gradientUnits="userSpaceOnUse">
<stop stop-color="#FF6753"/>
<stop offset="1" stop-color="#FF8F50"/>
</linearGradient>
<linearGradient id="paint5_linear_394_9434" x1="122.084" y1="254.48" x2="163.762" y2="254.228" gradientUnits="userSpaceOnUse">
<stop stop-color="#FF6753"/>
<stop offset="1" stop-color="#FF8F50"/>
</linearGradient>
<linearGradient id="paint6_linear_394_9434" x1="17.4551" y1="146.769" x2="17.4551" y2="178.626" gradientUnits="userSpaceOnUse">
<stop stop-color="#00B9FF"/>
<stop offset="1" stop-color="#0068B5"/>
</linearGradient>
<linearGradient id="paint7_linear_394_9434" x1="17.4551" y1="191.634" x2="17.4551" y2="223.491" gradientUnits="userSpaceOnUse">
<stop stop-color="#00B9FF"/>
<stop offset="1" stop-color="#0068B5"/>
</linearGradient>
<linearGradient id="paint8_linear_394_9434" x1="17.4551" y1="237.313" x2="17.4551" y2="269.17" gradientUnits="userSpaceOnUse">
<stop stop-color="#00B9FF"/>
<stop offset="1" stop-color="#0068B5"/>
</linearGradient>
<linearGradient id="paint9_linear_394_9434" x1="80.3555" y1="146.77" x2="80.3555" y2="178.627" gradientUnits="userSpaceOnUse">
<stop stop-color="#00B9FF"/>
<stop offset="1" stop-color="#0068B5"/>
</linearGradient>
<linearGradient id="paint10_linear_394_9434" x1="80.3555" y1="191.634" x2="80.3555" y2="223.491" gradientUnits="userSpaceOnUse">
<stop stop-color="#00B9FF"/>
<stop offset="1" stop-color="#0068B5"/>
</linearGradient>
<linearGradient id="paint11_linear_394_9434" x1="80.3555" y1="237.314" x2="80.3555" y2="269.171" gradientUnits="userSpaceOnUse">
<stop stop-color="#00B9FF"/>
<stop offset="1" stop-color="#0068B5"/>
</linearGradient>
<linearGradient id="paint12_linear_394_9434" x1="143.258" y1="146.77" x2="143.258" y2="178.627" gradientUnits="userSpaceOnUse">
<stop stop-color="#00B9FF"/>
<stop offset="1" stop-color="#0068B5"/>
</linearGradient>
<linearGradient id="paint13_linear_394_9434" x1="143.258" y1="191.634" x2="143.258" y2="223.491" gradientUnits="userSpaceOnUse">
<stop stop-color="#00B9FF"/>
<stop offset="1" stop-color="#0068B5"/>
</linearGradient>
<linearGradient id="paint14_linear_394_9434" x1="143.258" y1="237.314" x2="143.258" y2="269.171" gradientUnits="userSpaceOnUse">
<stop stop-color="#00B9FF"/>
<stop offset="1" stop-color="#0068B5"/>
</linearGradient>
<linearGradient id="paint15_linear_394_9434" x1="206.158" y1="146.77" x2="206.158" y2="178.627" gradientUnits="userSpaceOnUse">
<stop stop-color="#00B9FF"/>
<stop offset="1" stop-color="#0068B5"/>
</linearGradient>
<linearGradient id="paint16_linear_394_9434" x1="206.158" y1="191.634" x2="206.158" y2="223.491" gradientUnits="userSpaceOnUse">
<stop stop-color="#00B9FF"/>
<stop offset="1" stop-color="#0068B5"/>
</linearGradient>
<linearGradient id="paint17_linear_394_9434" x1="206.158" y1="237.314" x2="206.158" y2="269.171" gradientUnits="userSpaceOnUse">
<stop stop-color="#00B9FF"/>
<stop offset="1" stop-color="#0068B5"/>
</linearGradient>
<linearGradient id="paint18_linear_394_9434" x1="269.061" y1="146.77" x2="269.061" y2="178.627" gradientUnits="userSpaceOnUse">
<stop stop-color="#00B9FF"/>
<stop offset="1" stop-color="#0068B5"/>
</linearGradient>
<linearGradient id="paint19_linear_394_9434" x1="269.061" y1="191.634" x2="269.061" y2="223.491" gradientUnits="userSpaceOnUse">
<stop stop-color="#00B9FF"/>
<stop offset="1" stop-color="#0068B5"/>
</linearGradient>
<linearGradient id="paint20_linear_394_9434" x1="269.061" y1="237.314" x2="269.061" y2="269.171" gradientUnits="userSpaceOnUse">
<stop stop-color="#00B9FF"/>
<stop offset="1" stop-color="#0068B5"/>
</linearGradient>
<linearGradient id="paint21_linear_394_9434" x1="331.962" y1="146.77" x2="331.962" y2="178.627" gradientUnits="userSpaceOnUse">
<stop stop-color="#00B9FF"/>
<stop offset="1" stop-color="#0068B5"/>
</linearGradient>
<linearGradient id="paint22_linear_394_9434" x1="331.962" y1="191.634" x2="331.962" y2="223.491" gradientUnits="userSpaceOnUse">
<stop stop-color="#00B9FF"/>
<stop offset="1" stop-color="#0068B5"/>
</linearGradient>
<linearGradient id="paint23_linear_394_9434" x1="331.962" y1="237.314" x2="331.962" y2="269.171" gradientUnits="userSpaceOnUse">
<stop stop-color="#00B9FF"/>
<stop offset="1" stop-color="#0068B5"/>
</linearGradient>
<linearGradient id="paint24_linear_394_9434" x1="6.6974e-08" y1="0.57" x2="64.8268" y2="-30.8378" gradientUnits="userSpaceOnUse">
<stop stop-color="#FF6753"/>
<stop offset="1" stop-color="#FF8F50"/>
</linearGradient>
<linearGradient id="paint25_linear_394_9434" x1="7.24834e-08" y1="0.57" x2="67.9471" y2="-35.0576" gradientUnits="userSpaceOnUse">
<stop stop-color="#FF6753"/>
<stop offset="1" stop-color="#FF8F50"/>
</linearGradient>
<linearGradient id="paint26_linear_394_9434" x1="4.01758e-08" y1="0.57" x2="44.276" y2="-12.298" gradientUnits="userSpaceOnUse">
<stop stop-color="#FF6753"/>
<stop offset="1" stop-color="#FF8F50"/>
</linearGradient>
<linearGradient id="paint27_linear_394_9434" x1="144.603" y1="232.287" x2="144.516" y2="228.495" gradientUnits="userSpaceOnUse">
<stop stop-color="#FF6753"/>
<stop offset="1" stop-color="#FF8F50"/>
</linearGradient>
<clipPath id="clip0_394_9434">
<rect width="36.7605" height="26.1027" fill="white" transform="translate(61.6328 148.381)"/>
</clipPath>
<clipPath id="clip1_394_9434">
<rect width="36.7605" height="26.1027" fill="white" transform="translate(61.6328 193.245)"/>
</clipPath>
<clipPath id="clip2_394_9434">
<rect width="36.7605" height="26.1027" fill="white" transform="translate(124.535 148.381)"/>
</clipPath>
<clipPath id="clip3_394_9434">
<rect width="36.7605" height="26.1027" fill="white" transform="translate(124.535 193.245)"/>
</clipPath>
<clipPath id="clip4_394_9434">
<rect width="36.7605" height="26.1027" fill="white" transform="translate(187.436 148.381)"/>
</clipPath>
<clipPath id="clip5_394_9434">
<rect width="36.7605" height="26.1027" fill="white" transform="translate(187.436 193.245)"/>
</clipPath>
<clipPath id="clip6_394_9434">
<rect width="36.7605" height="26.1027" fill="white" transform="translate(250.338 148.381)"/>
</clipPath>
<clipPath id="clip7_394_9434">
<rect width="36.7605" height="26.1027" fill="white" transform="translate(250.338 193.245)"/>
</clipPath>
<clipPath id="clip8_394_9434">
<rect width="36.7605" height="26.1027" fill="white" transform="translate(313.239 148.381)"/>
</clipPath>
<clipPath id="clip9_394_9434">
<rect width="36.7605" height="26.1027" fill="white" transform="translate(313.239 193.245)"/>
</clipPath>
<clipPath id="clip10_394_9434">
<rect width="36.7605" height="26.1027" fill="white" transform="translate(313.239 238.925)"/>
</clipPath>
</defs>
</svg>
