<svg width="80" height="80" viewBox="0 0 80 80" fill="none" xmlns="http://www.w3.org/2000/svg">
<path d="M69.7002 51.1774V24.6917C67.0262 22.4524 57.4428 17.9404 40.5006 17.9404C23.5585 17.9404 13.975 22.4524 11.3011 24.6917V51.1774C13.975 53.4168 23.5585 57.9287 40.5006 57.9287C57.4428 57.9287 67.0262 53.4168 69.7002 51.1774Z" fill="white" stroke="url(#paint0_linear_392_3257)" stroke-width="3" stroke-linecap="round" stroke-linejoin="round"/>
<path d="M66.6777 27.5791L57.8037 30.2706V37.8963V45.2978L66.6777 47.9893M65.1627 30.2706V37.8963V45.2978" stroke="url(#paint1_linear_392_3257)" stroke-linecap="round"/>
<path d="M14.3213 27.5791L23.1953 30.2706V37.8963V45.2978L14.3213 47.9893M15.8364 30.2706V37.8963V45.2978" stroke="url(#paint2_linear_392_3257)" stroke-linecap="round"/>
<path d="M69.7002 51.1774V24.6917C67.0262 22.4524 57.4428 17.9404 40.5006 17.9404C23.5585 17.9404 13.975 22.4524 11.3011 24.6917V51.1774C13.975 53.4168 23.5585 57.9287 40.5006 57.9287C57.4428 57.9287 67.0262 53.4168 69.7002 51.1774Z" stroke="url(#paint3_linear_392_3257)" stroke-width="3" stroke-linecap="round" stroke-linejoin="round"/>
<path fill-rule="evenodd" clip-rule="evenodd" d="M49.208 30.008C49.208 36.5448 44.8029 40.973 40.3589 40.973C35.9149 40.973 31.5098 36.5448 31.5098 30.008C31.5098 23.4711 35.9149 19.043 40.3589 19.043C44.8029 19.043 49.208 23.4711 49.208 30.008ZM44.689 43.0111C43.3477 43.632 41.8871 43.973 40.3589 43.973C38.7473 43.973 37.2108 43.5938 35.8102 42.907C35.5082 44.4178 34.868 45.6873 34.0055 46.7377C32.8055 48.1992 31.2342 49.1668 29.7243 49.8202C28.2108 50.475 26.689 50.844 25.5132 51.0697C24.929 51.1819 24.4195 51.2605 24.0415 51.3188L24.0414 51.3188L24.03 51.3206C23.8351 51.3507 23.6899 51.3732 23.5784 51.3927C23.5145 51.4039 23.4816 51.4109 23.4706 51.4131C23.2341 51.4883 22.9915 51.5296 22.8206 51.557C22.7241 51.5725 22.645 51.5844 22.5691 51.5958C22.4617 51.612 22.3607 51.6272 22.2257 51.6502C21.832 51.7176 21.4043 51.8142 20.938 52.007C20.0365 52.3798 18.8117 53.1867 17.5154 55.2037C16.1307 57.3584 15.423 58.9803 15.0518 60.3195C14.6831 61.6495 14.625 62.7733 14.625 64.0003C14.625 64.8288 13.9534 65.5003 13.125 65.5003C12.2966 65.5003 11.625 64.8288 11.625 64.0003C11.625 62.6596 11.6872 61.2264 12.1608 59.518C12.6319 57.8187 13.4885 55.9208 14.9916 53.5818C16.5832 51.1052 18.2663 49.8655 19.7915 49.2347C20.5385 48.9258 21.2037 48.7815 21.72 48.6932C21.8703 48.6675 22.0443 48.641 22.1798 48.6204C22.2469 48.6102 22.3045 48.6015 22.345 48.595C22.4905 48.5716 22.5454 48.5583 22.5562 48.5557C22.5584 48.5552 22.5587 48.5551 22.5575 48.5555C22.7374 48.4955 22.9386 48.4591 23.0605 48.4377C23.2069 48.4121 23.3835 48.3848 23.5656 48.3567L23.5725 48.3557L23.5728 48.3556C23.9525 48.297 24.4174 48.2253 24.9477 48.1235C26.013 47.919 27.2989 47.6008 28.533 47.0668C29.7705 46.5314 30.8865 45.8087 31.687 44.8339C32.4554 43.8981 32.9894 42.6638 33.003 40.9569C30.2656 38.3989 28.5098 34.4451 28.5098 30.008C28.5098 22.2953 33.8148 16.043 40.3589 16.043C46.9029 16.043 52.208 22.2953 52.208 30.008C52.208 34.571 50.3511 38.6229 47.4793 41.1713C47.534 42.7679 48.0549 43.9377 48.7908 44.8339C49.5912 45.8087 50.7073 46.5314 51.9448 47.0668C53.1788 47.6008 54.4647 47.919 55.53 48.1235C56.0603 48.2253 56.5252 48.297 56.9049 48.3556L56.9052 48.3557L56.9121 48.3567C57.0942 48.3848 57.2709 48.4121 57.4173 48.4377C57.5392 48.4591 57.7403 48.4955 57.9202 48.5555C57.919 48.5551 57.9193 48.5552 57.9216 48.5557C57.9324 48.5583 57.9873 48.5716 58.1327 48.595C58.1731 48.6015 58.2304 48.6102 58.2971 48.6203L58.2979 48.6204L58.2981 48.6205C58.4335 48.641 58.6075 48.6675 58.7578 48.6932C59.274 48.7815 59.9393 48.9258 60.6863 49.2347C62.2114 49.8655 63.8945 51.1052 65.4861 53.5818C66.9893 55.9208 67.8459 57.8187 68.3169 59.518C68.7905 61.2264 68.8528 62.6596 68.8528 64.0003C68.8528 64.8288 68.1812 65.5003 67.3528 65.5003C66.5243 65.5003 65.8528 64.8288 65.8528 64.0003C65.8528 62.7733 65.7947 61.6495 65.426 60.3195C65.0547 58.9803 64.347 57.3584 62.9624 55.2037C61.6661 53.1867 60.4412 52.3798 59.5398 52.007C59.0735 51.8142 58.6457 51.7176 58.252 51.6502C58.117 51.6272 58.016 51.612 57.9086 51.5958C57.8328 51.5844 57.7537 51.5725 57.6572 51.557C57.4863 51.5296 57.2437 51.4883 57.0071 51.4131C56.9962 51.4109 56.9632 51.4039 56.8993 51.3927C56.7879 51.3732 56.6427 51.3507 56.4477 51.3206L56.4363 51.3188L56.4362 51.3188C56.0582 51.2605 55.5487 51.1818 54.9645 51.0697C53.7887 50.844 52.267 50.475 50.7535 49.8202C49.2435 49.1668 47.6723 48.1992 46.4723 46.7377C45.6296 45.7115 44.9992 44.4762 44.689 43.0111Z" fill="url(#paint4_linear_392_3257)"/>
<path d="M36.875 22H29C26.7909 22 25 23.7909 25 26V32C25 34.2091 26.7909 36 29 36H33.9111C35.6717 36 37.1847 34.826 37.955 33.2428C38.5624 31.9944 39.3052 30.9091 40 30.9091C40.6948 30.9091 41.4376 31.9944 42.045 33.2428C42.8153 34.826 44.3283 36 46.0889 36H51C53.2091 36 55 34.2091 55 32V26C55 23.7909 53.2091 22 51 22H36.875Z" fill="url(#paint5_linear_392_3257)"/>
<defs>
<linearGradient id="paint0_linear_392_3257" x1="40.6249" y1="10.2886" x2="40.6249" y2="70.3545" gradientUnits="userSpaceOnUse">
<stop stop-color="#00B9FF"/>
<stop offset="1" stop-color="#0068B5"/>
</linearGradient>
<linearGradient id="paint1_linear_392_3257" x1="62.2596" y1="23.6736" x2="62.2596" y2="54.3315" gradientUnits="userSpaceOnUse">
<stop stop-color="#00B9FF"/>
<stop offset="1" stop-color="#0068B5"/>
</linearGradient>
<linearGradient id="paint2_linear_392_3257" x1="18.7394" y1="23.6736" x2="18.7394" y2="54.3315" gradientUnits="userSpaceOnUse">
<stop stop-color="#00B9FF"/>
<stop offset="1" stop-color="#0068B5"/>
</linearGradient>
<linearGradient id="paint3_linear_392_3257" x1="40.6249" y1="10.2886" x2="40.6249" y2="70.3545" gradientUnits="userSpaceOnUse">
<stop stop-color="#00B9FF"/>
<stop offset="1" stop-color="#0068B5"/>
</linearGradient>
<linearGradient id="paint4_linear_392_3257" x1="40.1171" y1="6.57915" x2="40.1171" y2="80.8686" gradientUnits="userSpaceOnUse">
<stop stop-color="#00B9FF"/>
<stop offset="1" stop-color="#0068B5"/>
</linearGradient>
<linearGradient id="paint5_linear_392_3257" x1="25" y1="29.98" x2="55.0077" y2="29.5906" gradientUnits="userSpaceOnUse">
<stop stop-color="#FF6753"/>
<stop offset="1" stop-color="#FF8F50"/>
</linearGradient>
</defs>
</svg>
