<svg width="103" height="220" viewBox="0 0 103 220" fill="none" xmlns="http://www.w3.org/2000/svg">
<path d="M15.2736 22.7071C15.6641 22.3166 15.6641 21.6834 15.2736 21.2929L8.90965 14.9289C8.51912 14.5384 7.88596 14.5384 7.49543 14.9289C7.10491 15.3195 7.10491 15.9526 7.49543 16.3431L13.1523 22L7.49543 27.6569C7.10491 28.0474 7.10491 28.6805 7.49543 29.0711C7.88596 29.4616 8.51912 29.4616 8.90965 29.0711L15.2736 22.7071ZM1 22V21C0.447715 21 0 21.4477 0 22H1ZM1 203H0C0 203.552 0.447715 204 1 204L1 203ZM15.2736 203.707C15.6641 203.317 15.6641 202.683 15.2736 202.293L8.90965 195.929C8.51912 195.538 7.88596 195.538 7.49543 195.929C7.10491 196.319 7.10491 196.953 7.49543 197.343L13.1523 203L7.49543 208.657C7.10491 209.047 7.10491 209.681 7.49543 210.071C7.88596 210.462 8.51912 210.462 8.90965 210.071L15.2736 203.707ZM14.5665 21H1V23H14.5665V21ZM0 22V203H2V22H0ZM1 204H14.5665V202H1V204Z" fill="#00A3FF"/>
<rect x="19.0864" y="60.5" width="83.4138" height="39" rx="5.5" fill="white" stroke="#00A3FF"/>
<path d="M45.8742 76.92C46.6142 76.92 47.2609 77.07 47.8142 77.37C48.3742 77.67 48.8042 78.0867 49.1042 78.62C49.4042 79.1533 49.5542 79.76 49.5542 80.44C49.5542 81.1133 49.4042 81.72 49.1042 82.26C48.8042 82.8 48.3742 83.2267 47.8142 83.54C47.2609 83.8467 46.6142 84 45.8742 84H42.9242V76.92H45.8742ZM45.6742 82.02C46.1742 82.02 46.5709 81.8833 46.8642 81.61C47.1575 81.3367 47.3042 80.9467 47.3042 80.44C47.3042 79.9333 47.1575 79.5433 46.8642 79.27C46.5709 78.9967 46.1742 78.86 45.6742 78.86H45.1442V82.02H45.6742ZM55.8158 81.13C55.8158 81.2833 55.8058 81.43 55.7858 81.57H52.2158C52.2492 82.0567 52.4525 82.3 52.8258 82.3C53.0658 82.3 53.2392 82.19 53.3458 81.97H55.6958C55.6158 82.37 55.4458 82.73 55.1858 83.05C54.9325 83.3633 54.6092 83.6133 54.2158 83.8C53.8292 83.98 53.4025 84.07 52.9358 84.07C52.3758 84.07 51.8758 83.9533 51.4358 83.72C51.0025 83.4867 50.6625 83.1533 50.4158 82.72C50.1758 82.28 50.0558 81.7667 50.0558 81.18C50.0558 80.5933 50.1758 80.0833 50.4158 79.65C50.6625 79.21 51.0025 78.8733 51.4358 78.64C51.8758 78.4067 52.3758 78.29 52.9358 78.29C53.4958 78.29 53.9925 78.4067 54.4258 78.64C54.8658 78.8667 55.2058 79.1933 55.4458 79.62C55.6925 80.0467 55.8158 80.55 55.8158 81.13ZM53.5658 80.6C53.5658 80.4133 53.5058 80.2733 53.3858 80.18C53.2658 80.08 53.1158 80.03 52.9358 80.03C52.5425 80.03 52.3125 80.22 52.2458 80.6H53.5658ZM58.738 79.13C58.878 78.87 59.078 78.6667 59.338 78.52C59.6046 78.3667 59.9213 78.29 60.288 78.29C60.728 78.29 61.1246 78.4067 61.478 78.64C61.8313 78.8667 62.108 79.2 62.308 79.64C62.5146 80.0733 62.618 80.5867 62.618 81.18C62.618 81.7733 62.5146 82.29 62.308 82.73C62.108 83.1633 61.8313 83.4967 61.478 83.73C61.1246 83.9567 60.728 84.07 60.288 84.07C59.9213 84.07 59.6046 83.9967 59.338 83.85C59.078 83.6967 58.878 83.49 58.738 83.23V86.7H56.518V78.36H58.738V79.13ZM60.368 81.18C60.368 80.88 60.2913 80.6467 60.138 80.48C59.9846 80.3133 59.788 80.23 59.548 80.23C59.308 80.23 59.1113 80.3133 58.958 80.48C58.8046 80.6467 58.728 80.88 58.728 81.18C58.728 81.48 58.8046 81.7133 58.958 81.88C59.1113 82.0467 59.308 82.13 59.548 82.13C59.788 82.13 59.9846 82.0467 60.138 81.88C60.2913 81.7133 60.368 81.48 60.368 81.18ZM65.5348 76.6V84H63.3148V76.6H65.5348ZM69.2175 84.07C68.6508 84.07 68.1408 83.9533 67.6875 83.72C67.2342 83.4867 66.8775 83.1533 66.6175 82.72C66.3642 82.28 66.2375 81.7667 66.2375 81.18C66.2375 80.5933 66.3642 80.0833 66.6175 79.65C66.8775 79.21 67.2342 78.8733 67.6875 78.64C68.1408 78.4067 68.6508 78.29 69.2175 78.29C69.7842 78.29 70.2942 78.4067 70.7475 78.64C71.2008 78.8733 71.5542 79.21 71.8075 79.65C72.0675 80.0833 72.1975 80.5933 72.1975 81.18C72.1975 81.7667 72.0675 82.28 71.8075 82.72C71.5542 83.1533 71.2008 83.4867 70.7475 83.72C70.2942 83.9533 69.7842 84.07 69.2175 84.07ZM69.2175 82.15C69.4242 82.15 69.5975 82.07 69.7375 81.91C69.8775 81.7433 69.9475 81.5 69.9475 81.18C69.9475 80.86 69.8775 80.62 69.7375 80.46C69.5975 80.2933 69.4242 80.21 69.2175 80.21C69.0108 80.21 68.8375 80.2933 68.6975 80.46C68.5575 80.62 68.4875 80.86 68.4875 81.18C68.4875 81.5 68.5542 81.7433 68.6875 81.91C68.8275 82.07 69.0042 82.15 69.2175 82.15ZM79.2649 78.36L75.6549 86.7H73.2249L74.6449 83.72L72.2949 78.36H74.7649L75.8249 81.22L76.8149 78.36H79.2649Z" fill="#4F4F4F"/>
<rect x="18.5864" width="84.4138" height="40" rx="6" fill="#00A3FF"/>
<path d="M45.1344 22.152H47.4884V24H42.6924V16.212H45.1344V22.152ZM51.2049 24.077C50.5816 24.077 50.0206 23.9487 49.5219 23.692C49.0232 23.4353 48.6309 23.0687 48.3449 22.592C48.0662 22.108 47.9269 21.5433 47.9269 20.898C47.9269 20.2527 48.0662 19.6917 48.3449 19.215C48.6309 18.731 49.0232 18.3607 49.5219 18.104C50.0206 17.8473 50.5816 17.719 51.2049 17.719C51.8282 17.719 52.3892 17.8473 52.8879 18.104C53.3866 18.3607 53.7752 18.731 54.0539 19.215C54.3399 19.6917 54.4829 20.2527 54.4829 20.898C54.4829 21.5433 54.3399 22.108 54.0539 22.592C53.7752 23.0687 53.3866 23.4353 52.8879 23.692C52.3892 23.9487 51.8282 24.077 51.2049 24.077ZM51.2049 21.965C51.4322 21.965 51.6229 21.877 51.7769 21.701C51.9309 21.5177 52.0079 21.25 52.0079 20.898C52.0079 20.546 51.9309 20.282 51.7769 20.106C51.6229 19.9227 51.4322 19.831 51.2049 19.831C50.9776 19.831 50.7869 19.9227 50.6329 20.106C50.4789 20.282 50.4019 20.546 50.4019 20.898C50.4019 21.25 50.4752 21.5177 50.6219 21.701C50.7759 21.877 50.9702 21.965 51.2049 21.965ZM54.9201 20.898C54.9201 20.2527 55.0521 19.6917 55.3161 19.215C55.5874 18.731 55.9614 18.3607 56.4381 18.104C56.9221 17.8473 57.4721 17.719 58.0881 17.719C58.8947 17.719 59.5731 17.9463 60.1231 18.401C60.6804 18.8557 61.0324 19.4863 61.1791 20.293H58.5941C58.4987 19.9703 58.3117 19.809 58.0331 19.809C57.8351 19.809 57.6774 19.9007 57.5601 20.084C57.4501 20.2673 57.3951 20.5387 57.3951 20.898C57.3951 21.2573 57.4501 21.5287 57.5601 21.712C57.6774 21.8953 57.8351 21.987 58.0331 21.987C58.3117 21.987 58.4987 21.8257 58.5941 21.503H61.1791C61.0324 22.3097 60.6804 22.9403 60.1231 23.395C59.5731 23.8497 58.8947 24.077 58.0881 24.077C57.4721 24.077 56.9221 23.9487 56.4381 23.692C55.9614 23.4353 55.5874 23.0687 55.3161 22.592C55.0521 22.108 54.9201 21.5433 54.9201 20.898ZM61.6232 20.898C61.6232 20.2453 61.7332 19.6807 61.9532 19.204C62.1805 18.72 62.4885 18.3533 62.8772 18.104C63.2659 17.8473 63.7022 17.719 64.1862 17.719C64.5895 17.719 64.9379 17.8033 65.2312 17.972C65.5245 18.1333 65.7482 18.357 65.9022 18.643V17.796H68.3332V24H65.9022V23.153C65.7482 23.439 65.5245 23.6663 65.2312 23.835C64.9379 23.9963 64.5895 24.077 64.1862 24.077C63.7022 24.077 63.2659 23.9523 62.8772 23.703C62.4885 23.4463 62.1805 23.0797 61.9532 22.603C61.7332 22.119 61.6232 21.5507 61.6232 20.898ZM65.9022 20.898C65.9022 20.568 65.8179 20.3113 65.6492 20.128C65.4805 19.9447 65.2642 19.853 65.0002 19.853C64.7362 19.853 64.5199 19.9447 64.3512 20.128C64.1825 20.3113 64.0982 20.568 64.0982 20.898C64.0982 21.228 64.1825 21.4847 64.3512 21.668C64.5199 21.8513 64.7362 21.943 65.0002 21.943C65.2642 21.943 65.4805 21.8513 65.6492 21.668C65.8179 21.4847 65.9022 21.228 65.9022 20.898ZM73.2908 21.921V24H72.3668C70.6654 24 69.8148 23.153 69.8148 21.459V19.831H69.0448V17.796H69.8148V16.3H72.2568V17.796H73.2688V19.831H72.2568V21.503C72.2568 21.6497 72.2898 21.756 72.3558 21.822C72.4291 21.888 72.5464 21.921 72.7078 21.921H73.2908ZM80.2268 20.843C80.2268 21.0117 80.2158 21.173 80.1938 21.327H76.2668C76.3034 21.8623 76.5271 22.13 76.9378 22.13C77.2018 22.13 77.3924 22.009 77.5098 21.767H80.0948C80.0068 22.207 79.8198 22.603 79.5338 22.955C79.2551 23.2997 78.8994 23.5747 78.4668 23.78C78.0414 23.978 77.5721 24.077 77.0588 24.077C76.4428 24.077 75.8928 23.9487 75.4088 23.692C74.9321 23.4353 74.5581 23.0687 74.2868 22.592C74.0228 22.108 73.8908 21.5433 73.8908 20.898C73.8908 20.2527 74.0228 19.6917 74.2868 19.215C74.5581 18.731 74.9321 18.3607 75.4088 18.104C75.8928 17.8473 76.4428 17.719 77.0588 17.719C77.6748 17.719 78.2211 17.8473 78.6978 18.104C79.1818 18.3533 79.5558 18.7127 79.8198 19.182C80.0911 19.6513 80.2268 20.205 80.2268 20.843ZM77.7518 20.26C77.7518 20.0547 77.6858 19.9007 77.5538 19.798C77.4218 19.688 77.2568 19.633 77.0588 19.633C76.6261 19.633 76.3731 19.842 76.2998 20.26H77.7518Z" fill="white"/>
<rect x="18.5864" y="180" width="84.4138" height="40" rx="6" fill="#00A3FF"/>
<path d="M36.2723 196.056C35.739 196.056 35.2483 195.931 34.8003 195.68C34.3576 195.429 34.0056 195.083 33.7443 194.64C33.483 194.197 33.3523 193.699 33.3523 193.144C33.3523 192.589 33.483 192.091 33.7443 191.648C34.0056 191.205 34.3576 190.861 34.8003 190.616C35.2483 190.365 35.739 190.24 36.2723 190.24C36.8056 190.24 37.2936 190.365 37.7363 190.616C38.179 190.861 38.5283 191.205 38.7843 191.648C39.0456 192.091 39.1763 192.589 39.1763 193.144C39.1763 193.699 39.0456 194.197 38.7843 194.64C38.5283 195.083 38.1763 195.429 37.7283 195.68C37.2856 195.931 36.8003 196.056 36.2723 196.056ZM36.2723 194.4C36.6243 194.4 36.8963 194.288 37.0883 194.064C37.2803 193.835 37.3763 193.528 37.3763 193.144C37.3763 192.755 37.2803 192.448 37.0883 192.224C36.8963 191.995 36.6243 191.88 36.2723 191.88C35.915 191.88 35.6403 191.995 35.4483 192.224C35.2563 192.448 35.1603 192.755 35.1603 193.144C35.1603 193.528 35.2563 193.835 35.4483 194.064C35.6403 194.288 35.915 194.4 36.2723 194.4ZM41.313 192.104C41.425 191.896 41.585 191.733 41.793 191.616C42.0063 191.493 42.2596 191.432 42.553 191.432C42.905 191.432 43.2223 191.525 43.505 191.712C43.7876 191.893 44.009 192.16 44.169 192.512C44.3343 192.859 44.417 193.269 44.417 193.744C44.417 194.219 44.3343 194.632 44.169 194.984C44.009 195.331 43.7876 195.597 43.505 195.784C43.2223 195.965 42.905 196.056 42.553 196.056C42.2596 196.056 42.0063 195.997 41.793 195.88C41.585 195.757 41.425 195.592 41.313 195.384V198.16H39.537V191.488H41.313V192.104ZM42.617 193.744C42.617 193.504 42.5556 193.317 42.433 193.184C42.3103 193.051 42.153 192.984 41.961 192.984C41.769 192.984 41.6116 193.051 41.489 193.184C41.3663 193.317 41.305 193.504 41.305 193.744C41.305 193.984 41.3663 194.171 41.489 194.304C41.6116 194.437 41.769 194.504 41.961 194.504C42.153 194.504 42.3103 194.437 42.433 194.304C42.5556 194.171 42.617 193.984 42.617 193.744ZM47.5025 194.488V196H46.8305C45.5931 196 44.9745 195.384 44.9745 194.152V192.968H44.4145V191.488H44.9745V190.4H46.7505V191.488H47.4865V192.968H46.7505V194.184C46.7505 194.291 46.7745 194.368 46.8225 194.416C46.8758 194.464 46.9611 194.488 47.0785 194.488H47.5025ZM48.7949 191.128C48.4855 191.128 48.2375 191.045 48.0509 190.88C47.8642 190.715 47.7709 190.507 47.7709 190.256C47.7709 190 47.8642 189.789 48.0509 189.624C48.2375 189.453 48.4855 189.368 48.7949 189.368C49.0989 189.368 49.3442 189.453 49.5309 189.624C49.7175 189.789 49.8109 190 49.8109 190.256C49.8109 190.507 49.7175 190.715 49.5309 190.88C49.3442 191.045 49.0989 191.128 48.7949 191.128ZM49.6749 191.488V196H47.8989V191.488H49.6749ZM56.221 191.456C56.797 191.456 57.2423 191.629 57.557 191.976C57.877 192.323 58.037 192.792 58.037 193.384V196H56.269V193.608C56.269 193.416 56.2103 193.267 56.093 193.16C55.981 193.048 55.829 192.992 55.637 192.992C55.4396 192.992 55.285 193.048 55.173 193.16C55.061 193.267 55.005 193.416 55.005 193.608V196H53.237V193.608C53.237 193.416 53.1783 193.267 53.061 193.16C52.949 193.048 52.797 192.992 52.605 192.992C52.4076 192.992 52.253 193.048 52.141 193.16C52.029 193.267 51.973 193.416 51.973 193.608V196H50.197V191.488H51.973V192.096C52.101 191.904 52.2743 191.749 52.493 191.632C52.717 191.515 52.9783 191.456 53.277 191.456C53.6023 191.456 53.8903 191.528 54.141 191.672C54.3916 191.811 54.5916 192.008 54.741 192.264C54.9063 192.029 55.117 191.837 55.373 191.688C55.629 191.533 55.9116 191.456 56.221 191.456ZM59.4224 191.128C59.113 191.128 58.865 191.045 58.6784 190.88C58.4917 190.715 58.3984 190.507 58.3984 190.256C58.3984 190 58.4917 189.789 58.6784 189.624C58.865 189.453 59.113 189.368 59.4224 189.368C59.7264 189.368 59.9717 189.453 60.1584 189.624C60.345 189.789 60.4384 190 60.4384 190.256C60.4384 190.507 60.345 190.715 60.1584 190.88C59.9717 191.045 59.7264 191.128 59.4224 191.128ZM60.3024 191.488V196H58.5264V191.488H60.3024ZM62.5285 194.528H64.4085V196H60.5845V194.608L62.3045 192.96H60.6085V191.488H64.3285V192.88L62.5285 194.528ZM69.0531 193.704C69.0531 193.827 69.0451 193.944 69.0291 194.056H66.1731C66.1998 194.445 66.3624 194.64 66.6611 194.64C66.8531 194.64 66.9918 194.552 67.0771 194.376H68.9571C68.8931 194.696 68.7571 194.984 68.5491 195.24C68.3464 195.491 68.0878 195.691 67.7731 195.84C67.4638 195.984 67.1224 196.056 66.7491 196.056C66.3011 196.056 65.9011 195.963 65.5491 195.776C65.2024 195.589 64.9304 195.323 64.7331 194.976C64.5411 194.624 64.4451 194.213 64.4451 193.744C64.4451 193.275 64.5411 192.867 64.7331 192.52C64.9304 192.168 65.2024 191.899 65.5491 191.712C65.9011 191.525 66.3011 191.432 66.7491 191.432C67.1971 191.432 67.5944 191.525 67.9411 191.712C68.2931 191.893 68.5651 192.155 68.7571 192.496C68.9544 192.837 69.0531 193.24 69.0531 193.704ZM67.2531 193.28C67.2531 193.131 67.2051 193.019 67.1091 192.944C67.0131 192.864 66.8931 192.824 66.7491 192.824C66.4344 192.824 66.2504 192.976 66.1971 193.28H67.2531ZM72.7742 190.336C73.3662 190.336 73.8835 190.456 74.3262 190.696C74.7742 190.936 75.1182 191.269 75.3582 191.696C75.5982 192.123 75.7182 192.608 75.7182 193.152C75.7182 193.691 75.5982 194.176 75.3582 194.608C75.1182 195.04 74.7742 195.381 74.3262 195.632C73.8835 195.877 73.3662 196 72.7742 196H70.4142V190.336H72.7742ZM72.6142 194.416C73.0142 194.416 73.3315 194.307 73.5662 194.088C73.8008 193.869 73.9182 193.557 73.9182 193.152C73.9182 192.747 73.8008 192.435 73.5662 192.216C73.3315 191.997 73.0142 191.888 72.6142 191.888H72.1902V194.416H72.6142ZM75.8395 193.744C75.8395 193.269 75.9195 192.859 76.0795 192.512C76.2448 192.16 76.4688 191.893 76.7515 191.712C77.0341 191.525 77.3515 191.432 77.7035 191.432C77.9968 191.432 78.2501 191.493 78.4635 191.616C78.6768 191.733 78.8395 191.896 78.9515 192.104V191.488H80.7195V196H78.9515V195.384C78.8395 195.592 78.6768 195.757 78.4635 195.88C78.2501 195.997 77.9968 196.056 77.7035 196.056C77.3515 196.056 77.0341 195.965 76.7515 195.784C76.4688 195.597 76.2448 195.331 76.0795 194.984C75.9195 194.632 75.8395 194.219 75.8395 193.744ZM78.9515 193.744C78.9515 193.504 78.8901 193.317 78.7675 193.184C78.6448 193.051 78.4875 192.984 78.2955 192.984C78.1035 192.984 77.9461 193.051 77.8235 193.184C77.7008 193.317 77.6395 193.504 77.6395 193.744C77.6395 193.984 77.7008 194.171 77.8235 194.304C77.9461 194.437 78.1035 194.504 78.2955 194.504C78.4875 194.504 78.6448 194.437 78.7675 194.304C78.8901 194.171 78.9515 193.984 78.9515 193.744ZM84.045 194.488V196H83.373C82.1356 196 81.517 195.384 81.517 194.152V192.968H80.957V191.488H81.517V190.4H83.293V191.488H84.029V192.968H83.293V194.184C83.293 194.291 83.317 194.368 83.365 194.416C83.4183 194.464 83.5036 194.488 83.621 194.488H84.045ZM84.2014 193.744C84.2014 193.269 84.2814 192.859 84.4414 192.512C84.6067 192.16 84.8307 191.893 85.1134 191.712C85.396 191.525 85.7134 191.432 86.0654 191.432C86.3587 191.432 86.612 191.493 86.8254 191.616C87.0387 191.733 87.2014 191.896 87.3134 192.104V191.488H89.0814V196H87.3134V195.384C87.2014 195.592 87.0387 195.757 86.8254 195.88C86.612 195.997 86.3587 196.056 86.0654 196.056C85.7134 196.056 85.396 195.965 85.1134 195.784C84.8307 195.597 84.6067 195.331 84.4414 194.984C84.2814 194.632 84.2014 194.219 84.2014 193.744ZM87.3134 193.744C87.3134 193.504 87.252 193.317 87.1294 193.184C87.0067 193.051 86.8494 192.984 86.6574 192.984C86.4654 192.984 86.308 193.051 86.1854 193.184C86.0627 193.317 86.0014 193.504 86.0014 193.744C86.0014 193.984 86.0627 194.171 86.1854 194.304C86.308 194.437 86.4654 194.504 86.6574 194.504C86.8494 194.504 87.0067 194.437 87.1294 194.304C87.252 194.171 87.3134 193.984 87.3134 193.744ZM45.7067 204.336V210H43.9387V207.176L43.0667 210H41.5467L40.6747 207.176V210H38.8987V204.336H41.0747L42.3227 207.736L43.5387 204.336H45.7067ZM48.6521 210.056C48.1987 210.056 47.7907 209.963 47.4281 209.776C47.0654 209.589 46.7801 209.323 46.5721 208.976C46.3694 208.624 46.2681 208.213 46.2681 207.744C46.2681 207.275 46.3694 206.867 46.5721 206.52C46.7801 206.168 47.0654 205.899 47.4281 205.712C47.7907 205.525 48.1987 205.432 48.6521 205.432C49.1054 205.432 49.5134 205.525 49.8761 205.712C50.2387 205.899 50.5214 206.168 50.7241 206.52C50.9321 206.867 51.0361 207.275 51.0361 207.744C51.0361 208.213 50.9321 208.624 50.7241 208.976C50.5214 209.323 50.2387 209.589 49.8761 209.776C49.5134 209.963 49.1054 210.056 48.6521 210.056ZM48.6521 208.52C48.8174 208.52 48.9561 208.456 49.0681 208.328C49.1801 208.195 49.2361 208 49.2361 207.744C49.2361 207.488 49.1801 207.296 49.0681 207.168C48.9561 207.035 48.8174 206.968 48.6521 206.968C48.4867 206.968 48.3481 207.035 48.2361 207.168C48.1241 207.296 48.0681 207.488 48.0681 207.744C48.0681 208 48.1214 208.195 48.2281 208.328C48.3401 208.456 48.4814 208.52 48.6521 208.52ZM53.882 208.312L54.602 205.488H56.49L54.986 210H52.77L51.266 205.488H53.154L53.882 208.312ZM61.3292 207.704C61.3292 207.827 61.3212 207.944 61.3052 208.056H58.4492C58.4759 208.445 58.6385 208.64 58.9372 208.64C59.1292 208.64 59.2679 208.552 59.3532 208.376H61.2332C61.1692 208.696 61.0332 208.984 60.8252 209.24C60.6225 209.491 60.3639 209.691 60.0492 209.84C59.7399 209.984 59.3985 210.056 59.0252 210.056C58.5772 210.056 58.1772 209.963 57.8252 209.776C57.4785 209.589 57.2065 209.323 57.0092 208.976C56.8172 208.624 56.7212 208.213 56.7212 207.744C56.7212 207.275 56.8172 206.867 57.0092 206.52C57.2065 206.168 57.4785 205.899 57.8252 205.712C58.1772 205.525 58.5772 205.432 59.0252 205.432C59.4732 205.432 59.8705 205.525 60.2172 205.712C60.5692 205.893 60.8412 206.155 61.0332 206.496C61.2305 206.837 61.3292 207.24 61.3292 207.704ZM59.5292 207.28C59.5292 207.131 59.4812 207.019 59.3852 206.944C59.2892 206.864 59.1692 206.824 59.0252 206.824C58.7105 206.824 58.5265 206.976 58.4732 207.28H59.5292ZM67.9149 205.456C68.4909 205.456 68.9362 205.629 69.2509 205.976C69.5709 206.323 69.7309 206.792 69.7309 207.384V210H67.9629V207.608C67.9629 207.416 67.9042 207.267 67.7869 207.16C67.6749 207.048 67.5229 206.992 67.3309 206.992C67.1335 206.992 66.9789 207.048 66.8669 207.16C66.7549 207.267 66.6989 207.416 66.6989 207.608V210H64.9309V207.608C64.9309 207.416 64.8722 207.267 64.7549 207.16C64.6429 207.048 64.4909 206.992 64.2989 206.992C64.1015 206.992 63.9469 207.048 63.8349 207.16C63.7229 207.267 63.6669 207.416 63.6669 207.608V210H61.8909V205.488H63.6669V206.096C63.7949 205.904 63.9682 205.749 64.1869 205.632C64.4109 205.515 64.6722 205.456 64.9709 205.456C65.2962 205.456 65.5842 205.528 65.8349 205.672C66.0855 205.811 66.2855 206.008 66.4349 206.264C66.6002 206.029 66.8109 205.837 67.0669 205.688C67.3229 205.533 67.6055 205.456 67.9149 205.456ZM74.8683 207.704C74.8683 207.827 74.8603 207.944 74.8443 208.056H71.9883C72.0149 208.445 72.1776 208.64 72.4763 208.64C72.6683 208.64 72.8069 208.552 72.8923 208.376H74.7723C74.7083 208.696 74.5723 208.984 74.3643 209.24C74.1616 209.491 73.9029 209.691 73.5883 209.84C73.2789 209.984 72.9376 210.056 72.5643 210.056C72.1163 210.056 71.7163 209.963 71.3643 209.776C71.0176 209.589 70.7456 209.323 70.5483 208.976C70.3563 208.624 70.2603 208.213 70.2603 207.744C70.2603 207.275 70.3563 206.867 70.5483 206.52C70.7456 206.168 71.0176 205.899 71.3643 205.712C71.7163 205.525 72.1163 205.432 72.5643 205.432C73.0123 205.432 73.4096 205.525 73.7563 205.712C74.1083 205.893 74.3803 206.155 74.5723 206.496C74.7696 206.837 74.8683 207.24 74.8683 207.704ZM73.0683 207.28C73.0683 207.131 73.0203 207.019 72.9243 206.944C72.8283 206.864 72.7083 206.824 72.5643 206.824C72.2496 206.824 72.0656 206.976 72.0123 207.28H73.0683ZM78.5899 205.456C79.1073 205.456 79.5099 205.629 79.7979 205.976C80.0913 206.323 80.2379 206.792 80.2379 207.384V210H78.4699V207.608C78.4699 207.395 78.4113 207.227 78.2939 207.104C78.1819 206.976 78.0299 206.912 77.8379 206.912C77.6406 206.912 77.4859 206.976 77.3739 207.104C77.2619 207.227 77.2059 207.395 77.2059 207.608V210H75.4299V205.488H77.2059V206.176C77.3446 205.963 77.5286 205.789 77.7579 205.656C77.9926 205.523 78.2699 205.456 78.5899 205.456ZM83.8161 208.488V210H83.1441C81.9067 210 81.2881 209.384 81.2881 208.152V206.968H80.7281V205.488H81.2881V204.4H83.0641V205.488H83.8001V206.968H83.0641V208.184C83.0641 208.291 83.0881 208.368 83.1361 208.416C83.1894 208.464 83.2747 208.488 83.3921 208.488H83.8161Z" fill="white"/>
<rect x="19.0864" y="120.5" width="83.4138" height="39" rx="5.5" fill="white" stroke="#00A3FF"/>
<path d="M44.5288 129.628V136H42.5398V132.823L41.5588 136H39.8488L38.8678 132.823V136H36.8698V129.628H39.3178L40.7218 133.453L42.0898 129.628H44.5288ZM45.1604 133.462C45.1604 132.928 45.2504 132.466 45.4304 132.076C45.6164 131.68 45.8684 131.38 46.1864 131.176C46.5044 130.966 46.8614 130.861 47.2574 130.861C47.5874 130.861 47.8724 130.93 48.1124 131.068C48.3524 131.2 48.5354 131.383 48.6614 131.617V130.924H50.6504V136H48.6614V135.307C48.5354 135.541 48.3524 135.727 48.1124 135.865C47.8724 135.997 47.5874 136.063 47.2574 136.063C46.8614 136.063 46.5044 135.961 46.1864 135.757C45.8684 135.547 45.6164 135.247 45.4304 134.857C45.2504 134.461 45.1604 133.996 45.1604 133.462ZM48.6614 133.462C48.6614 133.192 48.5924 132.982 48.4544 132.832C48.3164 132.682 48.1394 132.607 47.9234 132.607C47.7074 132.607 47.5304 132.682 47.3924 132.832C47.2544 132.982 47.1854 133.192 47.1854 133.462C47.1854 133.732 47.2544 133.942 47.3924 134.092C47.5304 134.242 47.7074 134.317 47.9234 134.317C48.1394 134.317 48.3164 134.242 48.4544 134.092C48.5924 133.942 48.6614 133.732 48.6614 133.462ZM55.1026 130.888C55.6846 130.888 56.1376 131.083 56.4616 131.473C56.7916 131.863 56.9566 132.391 56.9566 133.057V136H54.9676V133.309C54.9676 133.069 54.9016 132.88 54.7696 132.742C54.6436 132.598 54.4726 132.526 54.2566 132.526C54.0346 132.526 53.8606 132.598 53.7346 132.742C53.6086 132.88 53.5456 133.069 53.5456 133.309V136H51.5476V130.924H53.5456V131.698C53.7016 131.458 53.9086 131.263 54.1666 131.113C54.4306 130.963 54.7426 130.888 55.1026 130.888ZM57.5529 133.462C57.5529 132.928 57.6429 132.466 57.8229 132.076C58.0089 131.68 58.2609 131.38 58.5789 131.176C58.8969 130.966 59.2539 130.861 59.6499 130.861C59.9799 130.861 60.2649 130.93 60.5049 131.068C60.7449 131.2 60.9279 131.383 61.0539 131.617V130.924H63.0429V136H61.0539V135.307C60.9279 135.541 60.7449 135.727 60.5049 135.865C60.2649 135.997 59.9799 136.063 59.6499 136.063C59.2539 136.063 58.8969 135.961 58.5789 135.757C58.2609 135.547 58.0089 135.247 57.8229 134.857C57.6429 134.461 57.5529 133.996 57.5529 133.462ZM61.0539 133.462C61.0539 133.192 60.9849 132.982 60.8469 132.832C60.7089 132.682 60.5319 132.607 60.3159 132.607C60.0999 132.607 59.9229 132.682 59.7849 132.832C59.6469 132.982 59.5779 133.192 59.5779 133.462C59.5779 133.732 59.6469 133.942 59.7849 134.092C59.9229 134.242 60.0999 134.317 60.3159 134.317C60.5319 134.317 60.7089 134.242 60.8469 134.092C60.9849 133.942 61.0539 133.732 61.0539 133.462ZM65.7671 130.861C66.0971 130.861 66.3821 130.93 66.6221 131.068C66.8621 131.2 67.0451 131.383 67.1711 131.617V130.924H69.1601V135.91C69.1601 136.384 69.0731 136.816 68.8991 137.206C68.7251 137.596 68.4431 137.908 68.0531 138.142C67.6691 138.376 67.1741 138.493 66.5681 138.493C65.7521 138.493 65.1041 138.301 64.6241 137.917C64.1501 137.539 63.8801 137.023 63.8141 136.369H65.7761C65.8301 136.633 66.0461 136.765 66.4241 136.765C66.6581 136.765 66.8411 136.705 66.9731 136.585C67.1051 136.465 67.1711 136.24 67.1711 135.91V135.307C67.0451 135.541 66.8621 135.727 66.6221 135.865C66.3821 135.997 66.0971 136.063 65.7671 136.063C65.3711 136.063 65.0141 135.961 64.6961 135.757C64.3781 135.547 64.1261 135.247 63.9401 134.857C63.7601 134.461 63.6701 133.996 63.6701 133.462C63.6701 132.928 63.7601 132.466 63.9401 132.076C64.1261 131.68 64.3781 131.38 64.6961 131.176C65.0141 130.966 65.3711 130.861 65.7671 130.861ZM67.1711 133.462C67.1711 133.192 67.1021 132.982 66.9641 132.832C66.8261 132.682 66.6491 132.607 66.4331 132.607C66.2171 132.607 66.0401 132.682 65.9021 132.832C65.7641 132.982 65.6951 133.192 65.6951 133.462C65.6951 133.732 65.7641 133.942 65.9021 134.092C66.0401 134.242 66.2171 134.317 66.4331 134.317C66.6491 134.317 66.8261 134.242 66.9641 134.092C67.1021 133.942 67.1711 133.732 67.1711 133.462ZM74.9713 133.417C74.9713 133.555 74.9623 133.687 74.9443 133.813H71.7313C71.7613 134.251 71.9443 134.47 72.2803 134.47C72.4963 134.47 72.6523 134.371 72.7483 134.173H74.8633C74.7913 134.533 74.6383 134.857 74.4043 135.145C74.1763 135.427 73.8853 135.652 73.5313 135.82C73.1833 135.982 72.7993 136.063 72.3793 136.063C71.8753 136.063 71.4253 135.958 71.0293 135.748C70.6393 135.538 70.3333 135.238 70.1113 134.848C69.8953 134.452 69.7873 133.99 69.7873 133.462C69.7873 132.934 69.8953 132.475 70.1113 132.085C70.3333 131.689 70.6393 131.386 71.0293 131.176C71.4253 130.966 71.8753 130.861 72.3793 130.861C72.8833 130.861 73.3303 130.966 73.7203 131.176C74.1163 131.38 74.4223 131.674 74.6383 132.058C74.8603 132.442 74.9713 132.895 74.9713 133.417ZM72.9463 132.94C72.9463 132.772 72.8923 132.646 72.7843 132.562C72.6763 132.472 72.5413 132.427 72.3793 132.427C72.0253 132.427 71.8183 132.598 71.7583 132.94H72.9463ZM81.9655 136L81.5245 135.586C80.9605 135.922 80.2975 136.09 79.5355 136.09C79.0195 136.09 78.5695 136.009 78.1855 135.847C77.8075 135.685 77.5165 135.457 77.3125 135.163C77.1085 134.863 77.0065 134.521 77.0065 134.137C77.0065 133.771 77.0995 133.438 77.2855 133.138C77.4775 132.832 77.7625 132.574 78.1405 132.364C77.8645 132.022 77.7265 131.662 77.7265 131.284C77.7265 130.96 77.8105 130.663 77.9785 130.393C78.1525 130.123 78.4045 129.91 78.7345 129.754C79.0645 129.592 79.4575 129.511 79.9135 129.511C80.3755 129.511 80.7685 129.595 81.0925 129.763C81.4165 129.925 81.6595 130.141 81.8215 130.411C81.9835 130.681 82.0645 130.972 82.0645 131.284H80.2465C80.2465 131.17 80.2135 131.086 80.1475 131.032C80.0815 130.972 80.0035 130.942 79.9135 130.942C79.8175 130.942 79.7335 130.972 79.6615 131.032C79.5955 131.086 79.5625 131.164 79.5625 131.266C79.5625 131.458 79.6945 131.68 79.9585 131.932L81.4075 133.336C81.4915 133.174 81.5665 132.991 81.6325 132.787L81.6595 132.706H83.5945L83.5045 132.94C83.2765 133.54 82.9945 134.074 82.6585 134.542L84.1615 136H81.9655ZM79.6795 134.515C79.8955 134.515 80.0965 134.482 80.2825 134.416L79.2205 133.426C79.1185 133.498 79.0405 133.582 78.9865 133.678C78.9385 133.768 78.9145 133.861 78.9145 133.957C78.9145 134.113 78.9805 134.245 79.1125 134.353C79.2505 134.461 79.4395 134.515 79.6795 134.515ZM37.2942 150.063C36.6942 150.063 36.1422 149.922 35.6382 149.64C35.1402 149.358 34.7442 148.968 34.4502 148.47C34.1562 147.972 34.0092 147.411 34.0092 146.787C34.0092 146.163 34.1562 145.602 34.4502 145.104C34.7442 144.606 35.1402 144.219 35.6382 143.943C36.1422 143.661 36.6942 143.52 37.2942 143.52C37.8942 143.52 38.4432 143.661 38.9412 143.943C39.4392 144.219 39.8322 144.606 40.1202 145.104C40.4142 145.602 40.5612 146.163 40.5612 146.787C40.5612 147.411 40.4142 147.972 40.1202 148.47C39.8322 148.968 39.4362 149.358 38.9322 149.64C38.4342 149.922 37.8882 150.063 37.2942 150.063ZM37.2942 148.2C37.6902 148.2 37.9962 148.074 38.2122 147.822C38.4282 147.564 38.5362 147.219 38.5362 146.787C38.5362 146.349 38.4282 146.004 38.2122 145.752C37.9962 145.494 37.6902 145.365 37.2942 145.365C36.8922 145.365 36.5832 145.494 36.3672 145.752C36.1512 146.004 36.0432 146.349 36.0432 146.787C36.0432 147.219 36.1512 147.564 36.3672 147.822C36.5832 148.074 36.8922 148.2 37.2942 148.2ZM43.2799 145.617C43.4059 145.383 43.5859 145.2 43.8199 145.068C44.0599 144.93 44.3449 144.861 44.6749 144.861C45.0709 144.861 45.4279 144.966 45.7459 145.176C46.0639 145.38 46.3129 145.68 46.4929 146.076C46.6789 146.466 46.7719 146.928 46.7719 147.462C46.7719 147.996 46.6789 148.461 46.4929 148.857C46.3129 149.247 46.0639 149.547 45.7459 149.757C45.4279 149.961 45.0709 150.063 44.6749 150.063C44.3449 150.063 44.0599 149.997 43.8199 149.865C43.5859 149.727 43.4059 149.541 43.2799 149.307V152.43H41.2819V144.924H43.2799V145.617ZM44.7469 147.462C44.7469 147.192 44.6779 146.982 44.5399 146.832C44.4019 146.682 44.2249 146.607 44.0089 146.607C43.7929 146.607 43.6159 146.682 43.4779 146.832C43.3399 146.982 43.2709 147.192 43.2709 147.462C43.2709 147.732 43.3399 147.942 43.4779 148.092C43.6159 148.242 43.7929 148.317 44.0089 148.317C44.2249 148.317 44.4019 148.242 44.5399 148.092C44.6779 147.942 44.7469 147.732 44.7469 147.462ZM52.3131 147.417C52.3131 147.555 52.3041 147.687 52.2861 147.813H49.0731C49.1031 148.251 49.2861 148.47 49.6221 148.47C49.8381 148.47 49.9941 148.371 50.0901 148.173H52.2051C52.1331 148.533 51.9801 148.857 51.7461 149.145C51.5181 149.427 51.2271 149.652 50.8731 149.82C50.5251 149.982 50.1411 150.063 49.7211 150.063C49.2171 150.063 48.7671 149.958 48.3711 149.748C47.9811 149.538 47.6751 149.238 47.4531 148.848C47.2371 148.452 47.1291 147.99 47.1291 147.462C47.1291 146.934 47.2371 146.475 47.4531 146.085C47.6751 145.689 47.9811 145.386 48.3711 145.176C48.7671 144.966 49.2171 144.861 49.7211 144.861C50.2251 144.861 50.6721 144.966 51.0621 145.176C51.4581 145.38 51.7641 145.674 51.9801 146.058C52.2021 146.442 52.3131 146.895 52.3131 147.417ZM50.2881 146.94C50.2881 146.772 50.2341 146.646 50.1261 146.562C50.0181 146.472 49.8831 146.427 49.7211 146.427C49.3671 146.427 49.1601 146.598 49.1001 146.94H50.2881ZM54.943 145.86C55.147 145.566 55.396 145.332 55.69 145.158C55.984 144.978 56.29 144.888 56.608 144.888V147.021H56.041C55.663 147.021 55.384 147.087 55.204 147.219C55.03 147.351 54.943 147.585 54.943 147.921V150H52.945V144.924H54.943V145.86ZM56.8762 147.462C56.8762 146.928 56.9662 146.466 57.1462 146.076C57.3322 145.68 57.5842 145.38 57.9022 145.176C58.2202 144.966 58.5772 144.861 58.9732 144.861C59.3032 144.861 59.5882 144.93 59.8282 145.068C60.0682 145.2 60.2512 145.383 60.3772 145.617V144.924H62.3662V150H60.3772V149.307C60.2512 149.541 60.0682 149.727 59.8282 149.865C59.5882 149.997 59.3032 150.063 58.9732 150.063C58.5772 150.063 58.2202 149.961 57.9022 149.757C57.5842 149.547 57.3322 149.247 57.1462 148.857C56.9662 148.461 56.8762 147.996 56.8762 147.462ZM60.3772 147.462C60.3772 147.192 60.3082 146.982 60.1702 146.832C60.0322 146.682 59.8552 146.607 59.6392 146.607C59.4232 146.607 59.2462 146.682 59.1082 146.832C58.9702 146.982 58.9012 147.192 58.9012 147.462C58.9012 147.732 58.9702 147.942 59.1082 148.092C59.2462 148.242 59.4232 148.317 59.6392 148.317C59.8552 148.317 60.0322 148.242 60.1702 148.092C60.3082 147.942 60.3772 147.732 60.3772 147.462ZM66.4224 148.299V150H65.6664C64.2744 150 63.5784 149.307 63.5784 147.921V146.589H62.9484V144.924H63.5784V143.7H65.5764V144.924H66.4044V146.589H65.5764V147.957C65.5764 148.077 65.6034 148.164 65.6574 148.218C65.7174 148.272 65.8134 148.299 65.9454 148.299H66.4224ZM68.1913 144.519C67.8433 144.519 67.5643 144.426 67.3543 144.24C67.1443 144.054 67.0393 143.82 67.0393 143.538C67.0393 143.25 67.1443 143.013 67.3543 142.827C67.5643 142.635 67.8433 142.539 68.1913 142.539C68.5333 142.539 68.8093 142.635 69.0193 142.827C69.2293 143.013 69.3343 143.25 69.3343 143.538C69.3343 143.82 69.2293 144.054 69.0193 144.24C68.8093 144.426 68.5333 144.519 68.1913 144.519ZM69.1813 144.924V150H67.1833V144.924H69.1813ZM72.4957 150.063C71.9857 150.063 71.5267 149.958 71.1187 149.748C70.7107 149.538 70.3897 149.238 70.1557 148.848C69.9277 148.452 69.8137 147.99 69.8137 147.462C69.8137 146.934 69.9277 146.475 70.1557 146.085C70.3897 145.689 70.7107 145.386 71.1187 145.176C71.5267 144.966 71.9857 144.861 72.4957 144.861C73.0057 144.861 73.4647 144.966 73.8727 145.176C74.2807 145.386 74.5987 145.689 74.8267 146.085C75.0607 146.475 75.1777 146.934 75.1777 147.462C75.1777 147.99 75.0607 148.452 74.8267 148.848C74.5987 149.238 74.2807 149.538 73.8727 149.748C73.4647 149.958 73.0057 150.063 72.4957 150.063ZM72.4957 148.335C72.6817 148.335 72.8377 148.263 72.9637 148.119C73.0897 147.969 73.1527 147.75 73.1527 147.462C73.1527 147.174 73.0897 146.958 72.9637 146.814C72.8377 146.664 72.6817 146.589 72.4957 146.589C72.3097 146.589 72.1537 146.664 72.0277 146.814C71.9017 146.958 71.8387 147.174 71.8387 147.462C71.8387 147.75 71.8987 147.969 72.0187 148.119C72.1447 148.263 72.3037 148.335 72.4957 148.335ZM79.3604 144.888C79.9424 144.888 80.3954 145.083 80.7194 145.473C81.0494 145.863 81.2144 146.391 81.2144 147.057V150H79.2254V147.309C79.2254 147.069 79.1594 146.88 79.0274 146.742C78.9014 146.598 78.7304 146.526 78.5144 146.526C78.2924 146.526 78.1184 146.598 77.9924 146.742C77.8664 146.88 77.8034 147.069 77.8034 147.309V150H75.8054V144.924H77.8034V145.698C77.9594 145.458 78.1664 145.263 78.4244 145.113C78.6884 144.963 79.0004 144.888 79.3604 144.888ZM84.3398 150.063C83.8598 150.063 83.4338 149.985 83.0618 149.829C82.6958 149.673 82.4048 149.457 82.1888 149.181C81.9728 148.905 81.8498 148.593 81.8198 148.245H83.7368C83.7608 148.395 83.8238 148.506 83.9258 148.578C84.0338 148.65 84.1688 148.686 84.3308 148.686C84.4328 148.686 84.5138 148.665 84.5738 148.623C84.6338 148.575 84.6638 148.518 84.6638 148.452C84.6638 148.338 84.6008 148.257 84.4748 148.209C84.3488 148.161 84.1358 148.107 83.8358 148.047C83.4698 147.975 83.1668 147.897 82.9268 147.813C82.6928 147.729 82.4858 147.585 82.3058 147.381C82.1318 147.177 82.0448 146.895 82.0448 146.535C82.0448 146.223 82.1258 145.941 82.2878 145.689C82.4558 145.431 82.7018 145.23 83.0258 145.086C83.3498 144.936 83.7428 144.861 84.2048 144.861C84.8888 144.861 85.4228 145.029 85.8068 145.365C86.1968 145.701 86.4308 146.139 86.5088 146.679H84.7358C84.7058 146.541 84.6428 146.436 84.5468 146.364C84.4508 146.286 84.3218 146.247 84.1598 146.247C84.0578 146.247 83.9798 146.268 83.9258 146.31C83.8718 146.346 83.8448 146.403 83.8448 146.481C83.8448 146.583 83.9078 146.661 84.0338 146.715C84.1598 146.763 84.3608 146.814 84.6368 146.868C85.0028 146.94 85.3118 147.021 85.5638 147.111C85.8158 147.201 86.0348 147.357 86.2208 147.579C86.4068 147.795 86.4998 148.095 86.4998 148.479C86.4998 148.779 86.4128 149.049 86.2388 149.289C86.0648 149.529 85.8128 149.718 85.4828 149.856C85.1588 149.994 84.7778 150.063 84.3398 150.063Z" fill="#4F4F4F"/>
<path d="M38.1846 116C38.1846 116.276 38.4084 116.5 38.6846 116.5C38.9607 116.5 39.1846 116.276 39.1846 116L38.1846 116ZM39.0381 103.646C38.8429 103.451 38.5263 103.451 38.331 103.646L35.149 106.828C34.9538 107.024 34.9538 107.34 35.149 107.536C35.3443 107.731 35.6609 107.731 35.8561 107.536L38.6846 104.707L41.513 107.536C41.7083 107.731 42.0248 107.731 42.2201 107.536C42.4154 107.34 42.4154 107.024 42.2201 106.828L39.0381 103.646ZM39.1846 116L39.1846 104L38.1846 104L38.1846 116L39.1846 116Z" fill="#00A3FF"/>
<path d="M83.4014 104C83.4014 103.724 83.1775 103.5 82.9014 103.5C82.6252 103.5 82.4014 103.724 82.4014 104L83.4014 104ZM82.5478 116.354C82.7431 116.549 83.0597 116.549 83.2549 116.354L86.4369 113.172C86.6322 112.976 86.6322 112.66 86.4369 112.464C86.2416 112.269 85.9251 112.269 85.7298 112.464L82.9014 115.293L80.0729 112.464C79.8777 112.269 79.5611 112.269 79.3658 112.464C79.1706 112.66 79.1706 112.976 79.3658 113.172L82.5478 116.354ZM82.4014 104L82.4014 116L83.4014 116L83.4014 104L82.4014 104Z" fill="#00A3FF"/>
<path d="M38.1846 56C38.1846 56.2761 38.4084 56.5 38.6846 56.5C38.9607 56.5 39.1846 56.2761 39.1846 56L38.1846 56ZM39.0381 43.6464C38.8429 43.4512 38.5263 43.4512 38.331 43.6464L35.149 46.8284C34.9538 47.0237 34.9538 47.3403 35.149 47.5355C35.3443 47.7308 35.6609 47.7308 35.8561 47.5355L38.6846 44.7071L41.513 47.5355C41.7083 47.7308 42.0248 47.7308 42.2201 47.5355C42.4154 47.3403 42.4154 47.0237 42.2201 46.8284L39.0381 43.6464ZM39.1846 56L39.1846 44L38.1846 44L38.1846 56L39.1846 56Z" fill="#00A3FF"/>
<path d="M83.4014 44C83.4014 43.7239 83.1775 43.5 82.9014 43.5C82.6252 43.5 82.4014 43.7239 82.4014 44L83.4014 44ZM82.5478 56.3536C82.7431 56.5488 83.0597 56.5488 83.2549 56.3536L86.4369 53.1716C86.6322 52.9763 86.6322 52.6597 86.4369 52.4645C86.2416 52.2692 85.9251 52.2692 85.7298 52.4645L82.9014 55.2929L80.0729 52.4645C79.8777 52.2692 79.5611 52.2692 79.3658 52.4645C79.1706 52.6597 79.1706 52.9763 79.3658 53.1716L82.5478 56.3536ZM82.4014 44L82.4014 56L83.4014 56L83.4014 44L82.4014 44Z" fill="#00A3FF"/>
<path d="M38.1846 176C38.1846 176.276 38.4084 176.5 38.6846 176.5C38.9607 176.5 39.1846 176.276 39.1846 176L38.1846 176ZM39.0381 163.646C38.8429 163.451 38.5263 163.451 38.331 163.646L35.149 166.828C34.9538 167.024 34.9538 167.34 35.149 167.536C35.3443 167.731 35.6609 167.731 35.8561 167.536L38.6846 164.707L41.513 167.536C41.7083 167.731 42.0248 167.731 42.2201 167.536C42.4154 167.34 42.4154 167.024 42.2201 166.828L39.0381 163.646ZM39.1846 176L39.1846 164L38.1846 164L38.1846 176L39.1846 176Z" fill="#00A3FF"/>
<path d="M83.4014 164C83.4014 163.724 83.1775 163.5 82.9014 163.5C82.6252 163.5 82.4014 163.724 82.4014 164L83.4014 164ZM82.5478 176.354C82.7431 176.549 83.0597 176.549 83.2549 176.354L86.4369 173.172C86.6322 172.976 86.6322 172.66 86.4369 172.464C86.2416 172.269 85.9251 172.269 85.7298 172.464L82.9014 175.293L80.0729 172.464C79.8777 172.269 79.5611 172.269 79.3658 172.464C79.1706 172.66 79.1706 172.976 79.3658 173.172L82.5478 176.354ZM82.4014 164L82.4014 176L83.4014 176L83.4014 164L82.4014 164Z" fill="#00A3FF"/>
</svg>
