<svg width="560" height="94" viewBox="0 0 560 94" fill="none" xmlns="http://www.w3.org/2000/svg">
<rect x="60" y="45" width="8" height="10" fill="#BDBDBD"/>
<rect x="60" y="65" width="8" height="10" fill="#BDBDBD"/>
<rect x="69" y="70" width="8" height="10" transform="rotate(90 69 70)" fill="#BDBDBD"/>
<rect x="141" y="70" width="8" height="10" transform="rotate(90 141 70)" fill="#BDBDBD"/>
<rect x="213" y="70" width="8" height="10" transform="rotate(90 213 70)" fill="#BDBDBD"/>
<rect x="285" y="70" width="8" height="10" transform="rotate(90 285 70)" fill="#BDBDBD"/>
<rect x="357" y="70" width="8" height="10" transform="rotate(90 357 70)" fill="#BDBDBD"/>
<rect x="429" y="70" width="8" height="10" transform="rotate(90 429 70)" fill="#BDBDBD"/>
<rect x="501" y="70" width="8" height="10" transform="rotate(90 501 70)" fill="#BDBDBD"/>
<rect x="132" y="65" width="8" height="10" fill="#BDBDBD"/>
<rect x="204" y="65" width="8" height="10" fill="#BDBDBD"/>
<rect x="276" y="65" width="8" height="10" fill="#BDBDBD"/>
<rect x="348" y="65" width="8" height="10" fill="#BDBDBD"/>
<rect x="420" y="65" width="8" height="10" fill="#BDBDBD"/>
<rect x="492" y="65" width="8" height="10" fill="#BDBDBD"/>
<rect x="62" y="55" width="4" height="10" fill="#BDBDBD"/>
<rect x="39" y="76" width="4" height="20" transform="rotate(-90 39 76)" fill="#BDBDBD"/>
<rect x="501" y="76" width="4" height="20" transform="rotate(-90 501 76)" fill="#BDBDBD"/>
<rect x="69" y="76" width="4" height="62" transform="rotate(-90 69 76)" fill="#BDBDBD"/>
<rect x="141" y="76" width="4" height="62" transform="rotate(-90 141 76)" fill="#BDBDBD"/>
<rect x="213" y="76" width="4" height="62" transform="rotate(-90 213 76)" fill="#BDBDBD"/>
<rect x="285" y="76" width="4" height="62" transform="rotate(-90 285 76)" fill="#BDBDBD"/>
<rect x="357" y="76" width="4" height="62" transform="rotate(-90 357 76)" fill="#BDBDBD"/>
<rect x="429" y="76" width="4" height="62" transform="rotate(-90 429 76)" fill="#BDBDBD"/>
<rect x="134" y="55" width="4" height="10" fill="#BDBDBD"/>
<rect x="206" y="55" width="4" height="10" fill="#BDBDBD"/>
<rect x="278" y="55" width="4" height="10" fill="#BDBDBD"/>
<rect x="350" y="55" width="4" height="10" fill="#BDBDBD"/>
<rect x="422" y="55" width="4" height="10" fill="#BDBDBD"/>
<rect x="494" y="55" width="4" height="10" fill="#BDBDBD"/>
<rect x="132" y="45" width="8" height="10" fill="#BDBDBD"/>
<rect x="204" y="45" width="8" height="10" fill="#BDBDBD"/>
<rect x="276" y="45" width="8" height="10" fill="#BDBDBD"/>
<rect x="348" y="45" width="8" height="10" fill="#BDBDBD"/>
<rect x="420" y="45" width="8" height="10" fill="#BDBDBD"/>
<rect x="492" y="45" width="8" height="10" fill="#BDBDBD"/>
<path d="M157.875 15.625H114.125C112.399 15.625 111 14.2259 111 12.5V6.25C111 4.52412 112.399 3.125 114.125 3.125H157.875C159.601 3.125 161 4.52412 161 6.25V12.5C161 14.2259 159.601 15.625 157.875 15.625ZM153.188 7.03125C151.893 7.03125 150.844 8.08057 150.844 9.375C150.844 10.6694 151.893 11.7188 153.188 11.7188C154.482 11.7188 155.531 10.6694 155.531 9.375C155.531 8.08057 154.482 7.03125 153.188 7.03125ZM146.938 7.03125C145.643 7.03125 144.594 8.08057 144.594 9.375C144.594 10.6694 145.643 11.7188 146.938 11.7188C148.232 11.7188 149.281 10.6694 149.281 9.375C149.281 8.08057 148.232 7.03125 146.938 7.03125ZM157.875 31.25H114.125C112.399 31.25 111 29.8509 111 28.125V21.875C111 20.1491 112.399 18.75 114.125 18.75H157.875C159.601 18.75 161 20.1491 161 21.875V28.125C161 29.8509 159.601 31.25 157.875 31.25ZM153.188 22.6562C151.893 22.6562 150.844 23.7056 150.844 25C150.844 26.2944 151.893 27.3438 153.188 27.3438C154.482 27.3438 155.531 26.2944 155.531 25C155.531 23.7056 154.482 22.6562 153.188 22.6562ZM146.938 22.6562C145.643 22.6562 144.594 23.7056 144.594 25C144.594 26.2944 145.643 27.3438 146.938 27.3438C148.232 27.3438 149.281 26.2944 149.281 25C149.281 23.7056 148.232 22.6562 146.938 22.6562ZM157.875 46.875H114.125C112.399 46.875 111 45.4759 111 43.75V37.5C111 35.7741 112.399 34.375 114.125 34.375H157.875C159.601 34.375 161 35.7741 161 37.5V43.75C161 45.4759 159.601 46.875 157.875 46.875ZM153.188 38.2812C151.893 38.2812 150.844 39.3306 150.844 40.625C150.844 41.9194 151.893 42.9688 153.188 42.9688C154.482 42.9688 155.531 41.9194 155.531 40.625C155.531 39.3306 154.482 38.2812 153.188 38.2812ZM146.938 38.2812C145.643 38.2812 144.594 39.3306 144.594 40.625C144.594 41.9194 145.643 42.9688 146.938 42.9688C148.232 42.9688 149.281 41.9194 149.281 40.625C149.281 39.3306 148.232 38.2812 146.938 38.2812Z" fill="#00A3FF"/>
<path d="M85.875 15.625H42.125C40.3991 15.625 39 14.2259 39 12.5V6.25C39 4.52412 40.3991 3.125 42.125 3.125H85.875C87.6009 3.125 89 4.52412 89 6.25V12.5C89 14.2259 87.6009 15.625 85.875 15.625ZM81.1875 7.03125C79.8931 7.03125 78.8438 8.08057 78.8438 9.375C78.8438 10.6694 79.8931 11.7188 81.1875 11.7188C82.4819 11.7188 83.5312 10.6694 83.5312 9.375C83.5312 8.08057 82.4819 7.03125 81.1875 7.03125ZM74.9375 7.03125C73.6431 7.03125 72.5938 8.08057 72.5938 9.375C72.5938 10.6694 73.6431 11.7188 74.9375 11.7188C76.2319 11.7188 77.2812 10.6694 77.2812 9.375C77.2812 8.08057 76.2319 7.03125 74.9375 7.03125ZM85.875 31.25H42.125C40.3991 31.25 39 29.8509 39 28.125V21.875C39 20.1491 40.3991 18.75 42.125 18.75H85.875C87.6009 18.75 89 20.1491 89 21.875V28.125C89 29.8509 87.6009 31.25 85.875 31.25ZM81.1875 22.6562C79.8931 22.6562 78.8438 23.7056 78.8438 25C78.8438 26.2944 79.8931 27.3438 81.1875 27.3438C82.4819 27.3438 83.5312 26.2944 83.5312 25C83.5312 23.7056 82.4819 22.6562 81.1875 22.6562ZM74.9375 22.6562C73.6431 22.6562 72.5938 23.7056 72.5938 25C72.5938 26.2944 73.6431 27.3438 74.9375 27.3438C76.2319 27.3438 77.2812 26.2944 77.2812 25C77.2812 23.7056 76.2319 22.6562 74.9375 22.6562ZM85.875 46.875H42.125C40.3991 46.875 39 45.4759 39 43.75V37.5C39 35.7741 40.3991 34.375 42.125 34.375H85.875C87.6009 34.375 89 35.7741 89 37.5V43.75C89 45.4759 87.6009 46.875 85.875 46.875ZM81.1875 38.2812C79.8931 38.2812 78.8438 39.3306 78.8438 40.625C78.8438 41.9194 79.8931 42.9688 81.1875 42.9688C82.4819 42.9688 83.5312 41.9194 83.5312 40.625C83.5312 39.3306 82.4819 38.2812 81.1875 38.2812ZM74.9375 38.2812C73.6431 38.2812 72.5938 39.3306 72.5938 40.625C72.5938 41.9194 73.6431 42.9688 74.9375 42.9688C76.2319 42.9688 77.2812 41.9194 77.2812 40.625C77.2812 39.3306 76.2319 38.2812 74.9375 38.2812Z" fill="#00A3FF"/>
<path d="M229.875 15.625H186.125C184.399 15.625 183 14.2259 183 12.5V6.25C183 4.52412 184.399 3.125 186.125 3.125H229.875C231.601 3.125 233 4.52412 233 6.25V12.5C233 14.2259 231.601 15.625 229.875 15.625ZM225.188 7.03125C223.893 7.03125 222.844 8.08057 222.844 9.375C222.844 10.6694 223.893 11.7188 225.188 11.7188C226.482 11.7188 227.531 10.6694 227.531 9.375C227.531 8.08057 226.482 7.03125 225.188 7.03125ZM218.938 7.03125C217.643 7.03125 216.594 8.08057 216.594 9.375C216.594 10.6694 217.643 11.7188 218.938 11.7188C220.232 11.7188 221.281 10.6694 221.281 9.375C221.281 8.08057 220.232 7.03125 218.938 7.03125ZM229.875 31.25H186.125C184.399 31.25 183 29.8509 183 28.125V21.875C183 20.1491 184.399 18.75 186.125 18.75H229.875C231.601 18.75 233 20.1491 233 21.875V28.125C233 29.8509 231.601 31.25 229.875 31.25ZM225.188 22.6562C223.893 22.6562 222.844 23.7056 222.844 25C222.844 26.2944 223.893 27.3438 225.188 27.3438C226.482 27.3438 227.531 26.2944 227.531 25C227.531 23.7056 226.482 22.6562 225.188 22.6562ZM218.938 22.6562C217.643 22.6562 216.594 23.7056 216.594 25C216.594 26.2944 217.643 27.3438 218.938 27.3438C220.232 27.3438 221.281 26.2944 221.281 25C221.281 23.7056 220.232 22.6562 218.938 22.6562ZM229.875 46.875H186.125C184.399 46.875 183 45.4759 183 43.75V37.5C183 35.7741 184.399 34.375 186.125 34.375H229.875C231.601 34.375 233 35.7741 233 37.5V43.75C233 45.4759 231.601 46.875 229.875 46.875ZM225.188 38.2812C223.893 38.2812 222.844 39.3306 222.844 40.625C222.844 41.9194 223.893 42.9688 225.188 42.9688C226.482 42.9688 227.531 41.9194 227.531 40.625C227.531 39.3306 226.482 38.2812 225.188 38.2812ZM218.938 38.2812C217.643 38.2812 216.594 39.3306 216.594 40.625C216.594 41.9194 217.643 42.9688 218.938 42.9688C220.232 42.9688 221.281 41.9194 221.281 40.625C221.281 39.3306 220.232 38.2812 218.938 38.2812Z" fill="#00A3FF"/>
<path d="M301.875 15.625H258.125C256.399 15.625 255 14.2259 255 12.5V6.25C255 4.52412 256.399 3.125 258.125 3.125H301.875C303.601 3.125 305 4.52412 305 6.25V12.5C305 14.2259 303.601 15.625 301.875 15.625ZM297.188 7.03125C295.893 7.03125 294.844 8.08057 294.844 9.375C294.844 10.6694 295.893 11.7188 297.188 11.7188C298.482 11.7188 299.531 10.6694 299.531 9.375C299.531 8.08057 298.482 7.03125 297.188 7.03125ZM290.938 7.03125C289.643 7.03125 288.594 8.08057 288.594 9.375C288.594 10.6694 289.643 11.7188 290.938 11.7188C292.232 11.7188 293.281 10.6694 293.281 9.375C293.281 8.08057 292.232 7.03125 290.938 7.03125ZM301.875 31.25H258.125C256.399 31.25 255 29.8509 255 28.125V21.875C255 20.1491 256.399 18.75 258.125 18.75H301.875C303.601 18.75 305 20.1491 305 21.875V28.125C305 29.8509 303.601 31.25 301.875 31.25ZM297.188 22.6562C295.893 22.6562 294.844 23.7056 294.844 25C294.844 26.2944 295.893 27.3438 297.188 27.3438C298.482 27.3438 299.531 26.2944 299.531 25C299.531 23.7056 298.482 22.6562 297.188 22.6562ZM290.938 22.6562C289.643 22.6562 288.594 23.7056 288.594 25C288.594 26.2944 289.643 27.3438 290.938 27.3438C292.232 27.3438 293.281 26.2944 293.281 25C293.281 23.7056 292.232 22.6562 290.938 22.6562ZM301.875 46.875H258.125C256.399 46.875 255 45.4759 255 43.75V37.5C255 35.7741 256.399 34.375 258.125 34.375H301.875C303.601 34.375 305 35.7741 305 37.5V43.75C305 45.4759 303.601 46.875 301.875 46.875ZM297.188 38.2812C295.893 38.2812 294.844 39.3306 294.844 40.625C294.844 41.9194 295.893 42.9688 297.188 42.9688C298.482 42.9688 299.531 41.9194 299.531 40.625C299.531 39.3306 298.482 38.2812 297.188 38.2812ZM290.938 38.2812C289.643 38.2812 288.594 39.3306 288.594 40.625C288.594 41.9194 289.643 42.9688 290.938 42.9688C292.232 42.9688 293.281 41.9194 293.281 40.625C293.281 39.3306 292.232 38.2812 290.938 38.2812Z" fill="#00A3FF"/>
<path d="M373.875 15.625H330.125C328.399 15.625 327 14.2259 327 12.5V6.25C327 4.52412 328.399 3.125 330.125 3.125H373.875C375.601 3.125 377 4.52412 377 6.25V12.5C377 14.2259 375.601 15.625 373.875 15.625ZM369.188 7.03125C367.893 7.03125 366.844 8.08057 366.844 9.375C366.844 10.6694 367.893 11.7188 369.188 11.7188C370.482 11.7188 371.531 10.6694 371.531 9.375C371.531 8.08057 370.482 7.03125 369.188 7.03125ZM362.938 7.03125C361.643 7.03125 360.594 8.08057 360.594 9.375C360.594 10.6694 361.643 11.7188 362.938 11.7188C364.232 11.7188 365.281 10.6694 365.281 9.375C365.281 8.08057 364.232 7.03125 362.938 7.03125ZM373.875 31.25H330.125C328.399 31.25 327 29.8509 327 28.125V21.875C327 20.1491 328.399 18.75 330.125 18.75H373.875C375.601 18.75 377 20.1491 377 21.875V28.125C377 29.8509 375.601 31.25 373.875 31.25ZM369.188 22.6562C367.893 22.6562 366.844 23.7056 366.844 25C366.844 26.2944 367.893 27.3438 369.188 27.3438C370.482 27.3438 371.531 26.2944 371.531 25C371.531 23.7056 370.482 22.6562 369.188 22.6562ZM362.938 22.6562C361.643 22.6562 360.594 23.7056 360.594 25C360.594 26.2944 361.643 27.3438 362.938 27.3438C364.232 27.3438 365.281 26.2944 365.281 25C365.281 23.7056 364.232 22.6562 362.938 22.6562ZM373.875 46.875H330.125C328.399 46.875 327 45.4759 327 43.75V37.5C327 35.7741 328.399 34.375 330.125 34.375H373.875C375.601 34.375 377 35.7741 377 37.5V43.75C377 45.4759 375.601 46.875 373.875 46.875ZM369.188 38.2812C367.893 38.2812 366.844 39.3306 366.844 40.625C366.844 41.9194 367.893 42.9688 369.188 42.9688C370.482 42.9688 371.531 41.9194 371.531 40.625C371.531 39.3306 370.482 38.2812 369.188 38.2812ZM362.938 38.2812C361.643 38.2812 360.594 39.3306 360.594 40.625C360.594 41.9194 361.643 42.9688 362.938 42.9688C364.232 42.9688 365.281 41.9194 365.281 40.625C365.281 39.3306 364.232 38.2812 362.938 38.2812Z" fill="#00A3FF"/>
<path d="M445.875 15.625H402.125C400.399 15.625 399 14.2259 399 12.5V6.25C399 4.52412 400.399 3.125 402.125 3.125H445.875C447.601 3.125 449 4.52412 449 6.25V12.5C449 14.2259 447.601 15.625 445.875 15.625ZM441.188 7.03125C439.893 7.03125 438.844 8.08057 438.844 9.375C438.844 10.6694 439.893 11.7188 441.188 11.7188C442.482 11.7188 443.531 10.6694 443.531 9.375C443.531 8.08057 442.482 7.03125 441.188 7.03125ZM434.938 7.03125C433.643 7.03125 432.594 8.08057 432.594 9.375C432.594 10.6694 433.643 11.7188 434.938 11.7188C436.232 11.7188 437.281 10.6694 437.281 9.375C437.281 8.08057 436.232 7.03125 434.938 7.03125ZM445.875 31.25H402.125C400.399 31.25 399 29.8509 399 28.125V21.875C399 20.1491 400.399 18.75 402.125 18.75H445.875C447.601 18.75 449 20.1491 449 21.875V28.125C449 29.8509 447.601 31.25 445.875 31.25ZM441.188 22.6562C439.893 22.6562 438.844 23.7056 438.844 25C438.844 26.2944 439.893 27.3438 441.188 27.3438C442.482 27.3438 443.531 26.2944 443.531 25C443.531 23.7056 442.482 22.6562 441.188 22.6562ZM434.938 22.6562C433.643 22.6562 432.594 23.7056 432.594 25C432.594 26.2944 433.643 27.3438 434.938 27.3438C436.232 27.3438 437.281 26.2944 437.281 25C437.281 23.7056 436.232 22.6562 434.938 22.6562ZM445.875 46.875H402.125C400.399 46.875 399 45.4759 399 43.75V37.5C399 35.7741 400.399 34.375 402.125 34.375H445.875C447.601 34.375 449 35.7741 449 37.5V43.75C449 45.4759 447.601 46.875 445.875 46.875ZM441.188 38.2812C439.893 38.2812 438.844 39.3306 438.844 40.625C438.844 41.9194 439.893 42.9688 441.188 42.9688C442.482 42.9688 443.531 41.9194 443.531 40.625C443.531 39.3306 442.482 38.2812 441.188 38.2812ZM434.938 38.2812C433.643 38.2812 432.594 39.3306 432.594 40.625C432.594 41.9194 433.643 42.9688 434.938 42.9688C436.232 42.9688 437.281 41.9194 437.281 40.625C437.281 39.3306 436.232 38.2812 434.938 38.2812Z" fill="#00A3FF"/>
<path d="M517.875 15.625H474.125C472.399 15.625 471 14.2259 471 12.5V6.25C471 4.52412 472.399 3.125 474.125 3.125H517.875C519.601 3.125 521 4.52412 521 6.25V12.5C521 14.2259 519.601 15.625 517.875 15.625ZM513.188 7.03125C511.893 7.03125 510.844 8.08057 510.844 9.375C510.844 10.6694 511.893 11.7188 513.188 11.7188C514.482 11.7188 515.531 10.6694 515.531 9.375C515.531 8.08057 514.482 7.03125 513.188 7.03125ZM506.938 7.03125C505.643 7.03125 504.594 8.08057 504.594 9.375C504.594 10.6694 505.643 11.7188 506.938 11.7188C508.232 11.7188 509.281 10.6694 509.281 9.375C509.281 8.08057 508.232 7.03125 506.938 7.03125ZM517.875 31.25H474.125C472.399 31.25 471 29.8509 471 28.125V21.875C471 20.1491 472.399 18.75 474.125 18.75H517.875C519.601 18.75 521 20.1491 521 21.875V28.125C521 29.8509 519.601 31.25 517.875 31.25ZM513.188 22.6562C511.893 22.6562 510.844 23.7056 510.844 25C510.844 26.2944 511.893 27.3438 513.188 27.3438C514.482 27.3438 515.531 26.2944 515.531 25C515.531 23.7056 514.482 22.6562 513.188 22.6562ZM506.938 22.6562C505.643 22.6562 504.594 23.7056 504.594 25C504.594 26.2944 505.643 27.3438 506.938 27.3438C508.232 27.3438 509.281 26.2944 509.281 25C509.281 23.7056 508.232 22.6562 506.938 22.6562ZM517.875 46.875H474.125C472.399 46.875 471 45.4759 471 43.75V37.5C471 35.7741 472.399 34.375 474.125 34.375H517.875C519.601 34.375 521 35.7741 521 37.5V43.75C521 45.4759 519.601 46.875 517.875 46.875ZM513.188 38.2812C511.893 38.2812 510.844 39.3306 510.844 40.625C510.844 41.9194 511.893 42.9688 513.188 42.9688C514.482 42.9688 515.531 41.9194 515.531 40.625C515.531 39.3306 514.482 38.2812 513.188 38.2812ZM506.938 38.2812C505.643 38.2812 504.594 39.3306 504.594 40.625C504.594 41.9194 505.643 42.9688 506.938 42.9688C508.232 42.9688 509.281 41.9194 509.281 40.625C509.281 39.3306 508.232 38.2812 506.938 38.2812Z" fill="#00A3FF"/>
<circle cx="20" cy="74" r="19" fill="white" stroke="#00A3FF" stroke-width="2"/>
<circle cx="540" cy="74" r="19" fill="white" stroke="#00A3FF" stroke-width="2"/>
<path fill-rule="evenodd" clip-rule="evenodd" d="M533 74C533 72.3431 534.343 71 536 71C537.657 71 539 72.3431 539 74C539 75.6569 537.657 77 536 77C534.343 77 533 75.6569 533 74ZM540 70.9995C539.088 69.7853 537.636 69 536 69C533.239 69 531 71.2386 531 74C531 76.7614 533.239 79 536 79C537.636 79 539.088 78.2147 540 77.0005C540.912 78.2147 542.364 79 544 79C546.761 79 549 76.7614 549 74C549 71.2386 546.761 69 544 69C542.364 69 540.912 69.7853 540 70.9995ZM541 74C541 75.6569 542.343 77 544 77C545.657 77 547 75.6569 547 74C547 72.3431 545.657 71 544 71C542.343 71 541 72.3431 541 74Z" fill="#00A3FF"/>
<path fill-rule="evenodd" clip-rule="evenodd" d="M13 74C13 72.3431 14.3431 71 16 71C17.6569 71 19 72.3431 19 74C19 75.6569 17.6569 77 16 77C14.3431 77 13 75.6569 13 74ZM20 70.9995C19.0878 69.7853 17.6356 69 16 69C13.2386 69 11 71.2386 11 74C11 76.7614 13.2386 79 16 79C17.6356 79 19.0878 78.2147 20 77.0005C20.9122 78.2147 22.3644 79 24 79C26.7614 79 29 76.7614 29 74C29 71.2386 26.7614 69 24 69C22.3644 69 20.9122 69.7853 20 70.9995ZM21 74C21 75.6569 22.3431 77 24 77C25.6569 77 27 75.6569 27 74C27 72.3431 25.6569 71 24 71C22.3431 71 21 72.3431 21 74Z" fill="#00A3FF"/>
</svg>
