<svg width="472" height="112" viewBox="0 0 472 112" fill="none" xmlns="http://www.w3.org/2000/svg">
<line x1="21.4118" y1="39.917" x2="55.917" y2="70.5882" stroke="#E0E0E0" stroke-width="2" stroke-linecap="round" stroke-linejoin="round" stroke-dasharray="5 5"/>
<line x1="93.4118" y1="39.917" x2="127.917" y2="70.5882" stroke="#E0E0E0" stroke-width="2" stroke-linecap="round" stroke-linejoin="round" stroke-dasharray="5 5"/>
<line x1="165.412" y1="39.917" x2="199.917" y2="70.5882" stroke="#E0E0E0" stroke-width="2" stroke-linecap="round" stroke-linejoin="round" stroke-dasharray="5 5"/>
<line x1="237.412" y1="39.917" x2="271.917" y2="70.5882" stroke="#E0E0E0" stroke-width="2" stroke-linecap="round" stroke-linejoin="round" stroke-dasharray="5 5"/>
<line x1="309.412" y1="39.917" x2="343.917" y2="70.5882" stroke="#E0E0E0" stroke-width="2" stroke-linecap="round" stroke-linejoin="round" stroke-dasharray="5 5"/>
<line x1="381.412" y1="39.917" x2="415.917" y2="70.5882" stroke="#E0E0E0" stroke-width="2" stroke-linecap="round" stroke-linejoin="round" stroke-dasharray="5 5"/>
<line x1="1" y1="-1" x2="47.1664" y2="-1" transform="matrix(-0.747409 0.664364 0.664364 0.747409 452 40)" stroke="#E0E0E0" stroke-width="2" stroke-linecap="round" stroke-linejoin="round" stroke-dasharray="5 5"/>
<line x1="1" y1="-1" x2="47.1664" y2="-1" transform="matrix(-0.747409 0.664364 0.664364 0.747409 380 40)" stroke="#E0E0E0" stroke-width="2" stroke-linecap="round" stroke-linejoin="round" stroke-dasharray="5 5"/>
<line x1="1" y1="-1" x2="47.1664" y2="-1" transform="matrix(-0.747409 0.664364 0.664364 0.747409 308 40)" stroke="#E0E0E0" stroke-width="2" stroke-linecap="round" stroke-linejoin="round" stroke-dasharray="5 5"/>
<line x1="1" y1="-1" x2="47.1664" y2="-1" transform="matrix(-0.747409 0.664364 0.664364 0.747409 236 40)" stroke="#E0E0E0" stroke-width="2" stroke-linecap="round" stroke-linejoin="round" stroke-dasharray="5 5"/>
<line x1="1" y1="-1" x2="47.1664" y2="-1" transform="matrix(-0.747409 0.664364 0.664364 0.747409 164 40)" stroke="#E0E0E0" stroke-width="2" stroke-linecap="round" stroke-linejoin="round" stroke-dasharray="5 5"/>
<line x1="1" y1="-1" x2="47.1664" y2="-1" transform="matrix(-0.747409 0.664364 0.664364 0.747409 92 40)" stroke="#E0E0E0" stroke-width="2" stroke-linecap="round" stroke-linejoin="round" stroke-dasharray="5 5"/>
<line x1="41" y1="19" x2="71" y2="19" stroke="#E0E0E0" stroke-width="2" stroke-linecap="round" stroke-linejoin="round" stroke-dasharray="5 5"/>
<line x1="77" y1="90" x2="107" y2="90" stroke="#E0E0E0" stroke-width="2" stroke-linecap="round" stroke-linejoin="round" stroke-dasharray="5 5"/>
<line x1="149" y1="90" x2="179" y2="90" stroke="#E0E0E0" stroke-width="2" stroke-linecap="round" stroke-linejoin="round" stroke-dasharray="5 5"/>
<line x1="221" y1="90" x2="251" y2="90" stroke="#E0E0E0" stroke-width="2" stroke-linecap="round" stroke-linejoin="round" stroke-dasharray="5 5"/>
<line x1="293" y1="90" x2="323" y2="90" stroke="#E0E0E0" stroke-width="2" stroke-linecap="round" stroke-linejoin="round" stroke-dasharray="5 5"/>
<line x1="365" y1="90" x2="395" y2="90" stroke="#E0E0E0" stroke-width="2" stroke-linecap="round" stroke-linejoin="round" stroke-dasharray="5 5"/>
<line x1="113" y1="19" x2="143" y2="19" stroke="#E0E0E0" stroke-width="2" stroke-linecap="round" stroke-linejoin="round" stroke-dasharray="5 5"/>
<line x1="185" y1="19" x2="215" y2="19" stroke="#E0E0E0" stroke-width="2" stroke-linecap="round" stroke-linejoin="round" stroke-dasharray="5 5"/>
<line x1="257" y1="19" x2="287" y2="19" stroke="#E0E0E0" stroke-width="2" stroke-linecap="round" stroke-linejoin="round" stroke-dasharray="5 5"/>
<line x1="329" y1="19" x2="359" y2="19" stroke="#E0E0E0" stroke-width="2" stroke-linecap="round" stroke-linejoin="round" stroke-dasharray="5 5"/>
<line x1="401" y1="19" x2="431" y2="19" stroke="#E0E0E0" stroke-width="2" stroke-linecap="round" stroke-linejoin="round" stroke-dasharray="5 5"/>
<circle cx="20" cy="20" r="19" fill="white" stroke="#00A3FF" stroke-width="2"/>
<g clip-path="url(#clip0_392_2162)">
<path d="M29.5307 16.875H27.192L26.542 15.25C25.8741 13.5793 24.2799 12.5 22.4803 12.5H17.5194C15.7202 12.5 14.1256 13.5793 13.4573 15.25L12.8073 16.875H10.469C10.1639 16.875 9.94009 17.1617 10.0143 17.4574L10.2487 18.3949C10.3006 18.6035 10.4881 18.75 10.7034 18.75H11.4874C10.9627 19.2082 10.6249 19.8742 10.6249 20.625V22.5C10.6249 23.1297 10.8655 23.698 11.2499 24.1379V26.25C11.2499 26.9402 11.8096 27.5 12.4999 27.5H13.7499C14.4401 27.5 14.9999 26.9402 14.9999 26.25V25H24.9999V26.25C24.9999 26.9402 25.5596 27.5 26.2499 27.5H27.4999C28.1901 27.5 28.7499 26.9402 28.7499 26.25V24.1379C29.1342 23.6984 29.3749 23.1301 29.3749 22.5V20.625C29.3749 19.8742 29.037 19.2082 28.5127 18.75H29.2967C29.512 18.75 29.6995 18.6035 29.7514 18.3949L29.9858 17.4574C30.0596 17.1617 29.8358 16.875 29.5307 16.875ZM15.7784 16.1785C16.0631 15.4668 16.7526 15 17.5194 15H22.4803C23.2471 15 23.9366 15.4668 24.2213 16.1785L24.9999 18.125H14.9999L15.7784 16.1785ZM13.7499 22.4922C12.9999 22.4922 12.4999 21.9937 12.4999 21.2461C12.4999 20.4984 12.9999 20 13.7499 20C14.4999 20 15.6249 21.1215 15.6249 21.8691C15.6249 22.6168 14.4999 22.4922 13.7499 22.4922ZM26.2499 22.4922C25.4999 22.4922 24.3749 22.6168 24.3749 21.8691C24.3749 21.1215 25.4999 20 26.2499 20C26.9999 20 27.4999 20.4984 27.4999 21.2461C27.4999 21.9937 26.9999 22.4922 26.2499 22.4922Z" fill="#4F4F4F"/>
</g>
<circle cx="92" cy="20" r="19" fill="white" stroke="#00A3FF" stroke-width="2"/>
<path d="M99.5 16.25H100.125C100.291 16.25 100.45 16.3158 100.567 16.4331C100.684 16.5503 100.75 16.7092 100.75 16.875V19.375C100.75 19.5408 100.684 19.6997 100.567 19.8169C100.45 19.9342 100.291 20 100.125 20H99.5V16.25Z" fill="#4F4F4F"/>
<path fill-rule="evenodd" clip-rule="evenodd" d="M92.625 15.625C92.7908 15.625 92.9497 15.6908 93.0669 15.8081C93.1842 15.9253 93.25 16.0842 93.25 16.25V20.625C93.25 20.7908 93.1842 20.9497 93.0669 21.0669C92.9497 21.1842 92.7908 21.25 92.625 21.25H89.5C89.3342 21.25 89.1753 21.1842 89.0581 21.0669C88.9408 20.9497 88.875 20.7908 88.875 20.625C88.875 20.4592 88.9408 20.3003 89.0581 20.1831C89.1753 20.0658 89.3342 20 89.5 20H92V16.25C92 16.0842 92.0658 15.9253 92.1831 15.8081C92.3003 15.6908 92.4592 15.625 92.625 15.625Z" fill="#4F4F4F"/>
<path fill-rule="evenodd" clip-rule="evenodd" d="M87.625 12.5H96.375C97.2038 12.5 97.9987 12.8292 98.5847 13.4153C99.1708 14.0013 99.5 14.7962 99.5 15.625V24.375C99.5 25.2038 99.1708 25.9987 98.5847 26.5847C97.9987 27.1708 97.2038 27.5 96.375 27.5H87.625C86.7962 27.5 86.0013 27.1708 85.4153 26.5847C84.8292 25.9987 84.5 25.2038 84.5 24.375V15.625C84.5 14.7962 84.8292 14.0013 85.4153 13.4153C86.0013 12.8292 86.7962 12.5 87.625 12.5ZM87.625 13.75C87.1277 13.75 86.6508 13.9475 86.2992 14.2992C85.9475 14.6508 85.75 15.1277 85.75 15.625V24.375C85.75 24.8723 85.9475 25.3492 86.2992 25.7008C86.6508 26.0525 87.1277 26.25 87.625 26.25H96.375C96.8723 26.25 97.3492 26.0525 97.7008 25.7008C98.0525 25.3492 98.25 24.8723 98.25 24.375V15.625C98.25 15.1277 98.0525 14.6508 97.7008 14.2992C97.3492 13.9475 96.8723 13.75 96.375 13.75H87.625Z" fill="#4F4F4F"/>
<path d="M87 12.5625V12.0838C87 10.9338 87.9325 10 89.0837 10H94.9163C96.0662 10 97 10.9325 97 12.0838V12.5625C96.7943 12.5208 96.5849 12.4999 96.375 12.5H87.625C87.4112 12.5 87.2025 12.5213 87 12.5625ZM87 27.4375C87.2025 27.4788 87.4112 27.5 87.625 27.5H96.375C96.5887 27.5 96.7975 27.4788 97 27.4375V27.9163C97 29.0662 96.0675 30 94.9163 30H89.0837C87.9337 30 87 29.0675 87 27.9163V27.4375Z" fill="#4F4F4F"/>
<circle cx="164" cy="20" r="19" fill="white" stroke="#00A3FF" stroke-width="2"/>
<g clip-path="url(#clip1_392_2162)">
<path d="M167.792 10.208C168.514 10.208 169.139 10.4719 169.667 10.9997C170.194 11.5275 170.458 12.1525 170.458 12.8747V27.1247C170.458 27.8469 170.194 28.4719 169.667 28.9997C169.139 29.5275 168.514 29.7913 167.792 29.7913H160.667C159.917 29.7913 159.285 29.5275 158.771 28.9997C158.257 28.4719 158 27.8469 158 27.1247V12.8747C158 12.1525 158.257 11.5275 158.771 10.9997C159.285 10.4719 159.917 10.208 160.667 10.208H167.792ZM166 27.9997V27.1247H162.458V27.9997H166ZM168.875 25.333V12.8747H159.542V25.333H168.875Z" fill="#4F4F4F"/>
</g>
<circle cx="236" cy="20" r="19" fill="white" stroke="#00A3FF" stroke-width="2"/>
<g clip-path="url(#clip2_392_2162)">
<path d="M239.125 20.625C239.125 21.4538 238.796 22.2487 238.21 22.8347C237.624 23.4208 236.829 23.75 236 23.75C235.171 23.75 234.376 23.4208 233.79 22.8347C233.204 22.2487 232.875 21.4538 232.875 20.625C232.875 19.7962 233.204 19.0013 233.79 18.4153C234.376 17.8292 235.171 17.5 236 17.5C236.829 17.5 237.624 17.8292 238.21 18.4153C238.796 19.0013 239.125 19.7962 239.125 20.625Z" fill="#4F4F4F"/>
<path fill-rule="evenodd" clip-rule="evenodd" d="M228.5 15C227.837 15 227.201 15.2634 226.732 15.7322C226.263 16.2011 226 16.837 226 17.5V25C226 25.663 226.263 26.2989 226.732 26.7678C227.201 27.2366 227.837 27.5 228.5 27.5H243.5C244.163 27.5 244.799 27.2366 245.268 26.7678C245.737 26.2989 246 25.663 246 25V17.5C246 16.837 245.737 16.2011 245.268 15.7322C244.799 15.2634 244.163 15 243.5 15H242.035C241.372 14.9999 240.736 14.7364 240.267 14.2675L239.233 13.2325C238.764 12.7636 238.128 12.5001 237.465 12.5H234.535C233.872 12.5001 233.236 12.7636 232.767 13.2325L231.733 14.2675C231.264 14.7364 230.628 14.9999 229.965 15H228.5ZM229.125 17.5C229.291 17.5 229.45 17.4342 229.567 17.3169C229.684 17.1997 229.75 17.0408 229.75 16.875C229.75 16.7092 229.684 16.5503 229.567 16.4331C229.45 16.3158 229.291 16.25 229.125 16.25C228.959 16.25 228.8 16.3158 228.683 16.4331C228.566 16.5503 228.5 16.7092 228.5 16.875C228.5 17.0408 228.566 17.1997 228.683 17.3169C228.8 17.4342 228.959 17.5 229.125 17.5ZM240.375 20.625C240.375 21.7853 239.914 22.8981 239.094 23.7186C238.273 24.5391 237.16 25 236 25C234.84 25 233.727 24.5391 232.906 23.7186C232.086 22.8981 231.625 21.7853 231.625 20.625C231.625 19.4647 232.086 18.3519 232.906 17.5314C233.727 16.7109 234.84 16.25 236 16.25C237.16 16.25 238.273 16.7109 239.094 17.5314C239.914 18.3519 240.375 19.4647 240.375 20.625Z" fill="#4F4F4F"/>
</g>
<circle cx="308" cy="20" r="19" fill="white" stroke="#00A3FF" stroke-width="2"/>
<path d="M313.515 16.2184L303.336 11.7376C303.132 11.6483 302.902 11.6435 302.694 11.7243C302.592 11.7648 302.499 11.8253 302.42 11.9021C302.341 11.9789 302.278 12.0705 302.234 12.1718L299.734 18.0051C299.647 18.2082 299.645 18.4376 299.727 18.6428C299.809 18.848 299.969 19.0122 300.172 19.0993L305.969 21.5834L304.936 24.1668H301.334V21.6668H299.667V28.3334H301.334V25.8334H304.936C305.622 25.8334 306.229 25.4218 306.483 24.7851L307.501 22.2401L310.35 23.4609C310.553 23.5478 310.781 23.5512 310.986 23.4703C311.19 23.3895 311.355 23.2309 311.443 23.0293L313.943 17.3151C314.031 17.113 314.036 16.884 313.956 16.6784C313.876 16.4728 313.717 16.3074 313.515 16.2184Z" fill="#4F4F4F"/>
<path d="M314.608 23.6434L313.06 23.0251L314.725 18.8584L316.273 19.4759L314.608 23.6434Z" fill="#4F4F4F"/>
<circle cx="380" cy="20" r="19" fill="white" stroke="#00A3FF" stroke-width="2"/>
<path d="M372.083 13.75H387.916C388.616 13.75 389.166 14.2917 389.166 15V24.5833C389.166 25.2917 388.616 25.8333 387.916 25.8333H372.083C371.375 25.8333 370.833 25.2917 370.833 24.5833V15C370.833 14.2917 371.375 13.75 372.083 13.75ZM378.091 17.0833V22.5L382.85 19.75L378.091 17.0833ZM384.375 27.5H375.541C375.291 27.5 375.125 27.3333 375.125 27.0833C375.125 26.8333 375.291 26.6667 375.541 26.6667H384.458C384.708 26.6667 384.875 26.8333 384.875 27.0833C384.875 27.3333 384.625 27.5 384.375 27.5Z" fill="#4F4F4F"/>
<circle cx="452" cy="20" r="19" fill="white" stroke="#00A3FF" stroke-width="2"/>
<g clip-path="url(#clip3_392_2162)">
<path d="M443.649 10.1162H460.324C461.244 10.1162 461.997 10.8698 461.997 11.8264V22.8988C461.997 23.8553 461.244 24.6669 460.324 24.6669H453.827V27.5365H458.567C459.264 27.5365 459.32 29.9133 459.404 30.0003H444.597C444.597 30.0003 444.597 27.5365 445.434 27.5365H450.174V24.6669H443.649C442.729 24.6669 442.004 23.8553 442.004 22.8988V11.8264C442.004 10.8698 442.729 10.1162 443.649 10.1162ZM443.649 22.8988H460.324V11.8264H443.649V22.8988Z" fill="#4F4F4F"/>
</g>
<circle cx="56" cy="92" r="19" fill="white" stroke="#00A3FF" stroke-width="2"/>
<g clip-path="url(#clip4_392_2162)">
<path d="M61.8332 97.8333H49.3332V84.5H61.8332V97.8333ZM55.5832 101.167C55.2516 101.167 54.9337 101.035 54.6993 100.801C54.4649 100.566 54.3332 100.248 54.3332 99.9167C54.3332 99.5851 54.4649 99.2672 54.6993 99.0328C54.9337 98.7984 55.2516 98.6667 55.5832 98.6667C55.9147 98.6667 56.2326 98.7984 56.4671 99.0328C56.7015 99.2672 56.8332 99.5851 56.8332 99.9167C56.8332 100.248 56.7015 100.566 56.4671 100.801C56.2326 101.035 55.9147 101.167 55.5832 101.167ZM61.4165 82H49.7498C49.1973 82 48.6674 82.2195 48.2767 82.6102C47.886 83.0009 47.6665 83.5308 47.6665 84.0833V99.9167C47.6665 100.19 47.7204 100.461 47.8251 100.714C47.9298 100.967 48.0832 101.196 48.2767 101.39C48.4702 101.583 48.6998 101.737 48.9526 101.841C49.2053 101.946 49.4762 102 49.7498 102H61.4165C61.6901 102 61.961 101.946 62.2138 101.841C62.4665 101.737 62.6962 101.583 62.8896 101.39C63.0831 101.196 63.2366 100.967 63.3413 100.714C63.4459 100.461 63.4998 100.19 63.4998 99.9167V84.0833C63.4998 83.5308 63.2803 83.0009 62.8896 82.6102C62.4989 82.2195 61.969 82 61.4165 82V82Z" fill="#4F4F4F"/>
</g>
<circle cx="128" cy="92" r="19" fill="white" stroke="#00A3FF" stroke-width="2"/>
<path d="M123.833 83.667C123.391 83.667 122.967 83.8426 122.655 84.1551C122.342 84.4677 122.167 84.8916 122.167 85.3337V98.667C122.167 99.109 122.342 99.5329 122.655 99.8455C122.967 100.158 123.391 100.334 123.833 100.334H132.167C132.609 100.334 133.032 100.158 133.345 99.8455C133.658 99.5329 133.833 99.109 133.833 98.667V85.3337C133.833 84.8916 133.658 84.4677 133.345 84.1551C133.032 83.8426 132.609 83.667 132.167 83.667H123.833ZM123.833 85.3337H132.167V90.3337H123.833V85.3337ZM128 92.0003C128.884 92.0003 129.732 92.3515 130.357 92.9766C130.982 93.6018 131.333 94.4496 131.333 95.3337C131.333 96.2177 130.982 97.0656 130.357 97.6907C129.732 98.3158 128.884 98.667 128 98.667C127.116 98.667 126.268 98.3158 125.643 97.6907C125.018 97.0656 124.667 96.2177 124.667 95.3337C124.667 94.4496 125.018 93.6018 125.643 92.9766C126.268 92.3515 127.116 92.0003 128 92.0003ZM128 93.667C127.558 93.667 127.134 93.8426 126.821 94.1551C126.509 94.4677 126.333 94.8916 126.333 95.3337C126.333 95.7757 126.509 96.1996 126.821 96.5122C127.134 96.8247 127.558 97.0003 128 97.0003C128.442 97.0003 128.866 96.8247 129.178 96.5122C129.491 96.1996 129.667 95.7757 129.667 95.3337C129.667 94.8916 129.491 94.4677 129.178 94.1551C128.866 93.8426 128.442 93.667 128 93.667Z" fill="#4F4F4F"/>
<circle cx="200" cy="92" r="19" fill="white" stroke="#00A3FF" stroke-width="2"/>
<path d="M208.486 91.8638L200.441 83.8247C200.383 83.7667 200.315 83.7206 200.239 83.6892C200.163 83.6578 200.082 83.6416 200 83.6416C199.918 83.6416 199.837 83.6578 199.761 83.6892C199.685 83.7206 199.617 83.7667 199.559 83.8247L191.514 91.8638C191.279 92.0981 191.146 92.4165 191.146 92.7485C191.146 93.438 191.707 93.9985 192.396 93.9985H193.244V99.7348C193.244 100.081 193.523 100.36 193.869 100.36H198.75V95.9848H200.938V100.36H206.131C206.477 100.36 206.756 100.081 206.756 99.7348V93.9985H207.604C207.936 93.9985 208.254 93.8677 208.488 93.6313C208.975 93.1431 208.975 92.352 208.486 91.8638Z" fill="#4F4F4F"/>
<circle cx="272" cy="92" r="19" fill="white" stroke="#00A3FF" stroke-width="2"/>
<path fill-rule="evenodd" clip-rule="evenodd" d="M266 86C266 85.4696 266.211 84.9609 266.586 84.5858C266.961 84.2107 267.47 84 268 84H276C276.53 84 277.039 84.2107 277.414 84.5858C277.789 84.9609 278 85.4696 278 86V98C278.265 98 278.52 98.1054 278.707 98.2929C278.895 98.4804 279 98.7348 279 99C279 99.2652 278.895 99.5196 278.707 99.7071C278.52 99.8946 278.265 100 278 100H275C274.735 100 274.48 99.8946 274.293 99.7071C274.105 99.5196 274 99.2652 274 99V97C274 96.7348 273.895 96.4804 273.707 96.2929C273.52 96.1054 273.265 96 273 96H271C270.735 96 270.48 96.1054 270.293 96.2929C270.105 96.4804 270 96.7348 270 97V99C270 99.2652 269.895 99.5196 269.707 99.7071C269.52 99.8946 269.265 100 269 100H266C265.735 100 265.48 99.8946 265.293 99.7071C265.105 99.5196 265 99.2652 265 99C265 98.7348 265.105 98.4804 265.293 98.2929C265.48 98.1054 265.735 98 266 98V86ZM269 87H271V89H269V87ZM271 91H269V93H271V91ZM273 87H275V89H273V87ZM275 91H273V93H275V91Z" fill="#4F4F4F"/>
<circle cx="344" cy="92" r="19" fill="white" stroke="#00A3FF" stroke-width="2"/>
<path d="M344.001 93.25C338.936 93.25 334.834 93.8096 334.834 94.5025C334.834 95.1913 338.936 95.75 344.001 95.75C349.066 95.75 353.167 95.1913 353.167 94.5025C353.167 93.8096 349.066 93.25 344.001 93.25ZM344.001 94.905C342.808 94.905 341.838 94.6992 341.838 94.445C341.838 94.1912 342.808 93.985 344.001 93.985C345.193 93.985 346.164 94.1912 346.164 94.445C346.164 94.6992 345.193 94.905 344.001 94.905Z" fill="#4F4F4F"/>
<path d="M342.871 88.25L343.859 90.9292L346.187 88.25H350.14C352.076 88.25 353.434 89.145 353.122 90.2933C352.812 91.4417 350.965 92.3367 349.038 92.3367H346.415C346.415 92.3367 346.474 92.3187 346.486 92.2842C346.589 91.8908 347.198 89.6742 347.205 89.6396C347.214 89.5971 347.161 89.5842 347.161 89.5842H349.066C349.066 89.5842 349.03 89.5817 349.014 89.6396C348.854 90.2191 348.695 90.7991 348.537 91.3796C348.528 91.4187 348.47 91.4375 348.47 91.4375H348.926C350.006 91.4375 351.029 91.0925 351.244 90.2925C351.441 89.5625 350.725 89.1483 349.561 89.1483H349.138L347.315 89.15L343.131 93.2883L341.529 89.2242C341.529 89.2242 341.514 89.1967 341.501 89.1629C341.496 89.1521 341.456 89.1188 341.416 89.1367C341.389 89.1517 341.385 89.1854 341.388 89.1975C341.403 89.225 341.406 89.2308 341.408 89.2438C341.645 89.6313 341.603 90.0808 341.546 90.2938C341.223 91.4396 339.385 92.3371 337.457 92.3371H334.834C334.834 92.3371 334.896 92.3192 334.906 92.2846C335.011 91.8904 335.621 89.6621 335.625 89.64C335.632 89.6025 335.584 89.5846 335.584 89.5846H337.502C337.502 89.5846 337.447 89.6 337.436 89.6392C337.426 89.6717 337.039 91.0692 336.956 91.38C336.947 91.4192 336.882 91.4379 336.882 91.4379H337.348C338.43 91.4379 339.445 91.0929 339.659 90.2929C339.856 89.5629 339.147 89.1487 337.984 89.1487H335.704C335.704 89.1487 335.756 89.1242 335.765 89.0908C335.816 88.9062 335.972 88.3267 335.979 88.2996C335.988 88.2696 335.936 88.25 335.936 88.25H342.871Z" fill="#4F4F4F"/>
<circle cx="416" cy="92" r="19" fill="white" stroke="#00A3FF" stroke-width="2"/>
<g clip-path="url(#clip5_392_2162)">
<path d="M425.375 92H422.25V97H423.5C423.839 97 424.132 97.1237 424.379 97.3711C424.626 97.6185 424.75 97.9115 424.75 98.25V100.75C424.75 101.102 424.626 101.398 424.379 101.639C424.132 101.88 423.839 102 423.5 102H419.75C419.398 102 419.102 101.88 418.861 101.639C418.62 101.398 418.5 101.102 418.5 100.75V98.25C418.5 97.9115 418.62 97.6185 418.861 97.3711C419.102 97.1237 419.398 97 419.75 97H421V92H412.25V97H413.5C413.839 97 414.132 97.1237 414.379 97.3711C414.626 97.6185 414.75 97.9115 414.75 98.25V100.75C414.75 101.102 414.626 101.398 414.379 101.639C414.132 101.88 413.839 102 413.5 102H409.75C409.398 102 409.102 101.88 408.861 101.639C408.62 101.398 408.5 101.102 408.5 100.75V98.25C408.5 97.9115 408.62 97.6185 408.861 97.3711C409.102 97.1237 409.398 97 409.75 97H411V92H406.625C406.456 92 406.309 91.9382 406.186 91.8145C406.062 91.6908 406 91.5443 406 91.375C406 91.2057 406.062 91.0592 406.186 90.9355C406.309 90.8118 406.456 90.75 406.625 90.75H416V87H414.75C414.398 87 414.102 86.8796 413.861 86.6387C413.62 86.3978 413.5 86.1016 413.5 85.75V83.25C413.5 82.9115 413.62 82.6185 413.861 82.3711C414.102 82.1237 414.398 82 414.75 82H418.5C418.839 82 419.132 82.1237 419.379 82.3711C419.626 82.6185 419.75 82.9115 419.75 83.25V85.75C419.75 86.1016 419.626 86.3978 419.379 86.6387C419.132 86.8796 418.839 87 418.5 87H417.25V90.75H425.375C425.544 90.75 425.691 90.8118 425.814 90.9355C425.938 91.0592 426 91.2057 426 91.375C426 91.5443 425.938 91.6908 425.814 91.8145C425.691 91.9382 425.544 92 425.375 92Z" fill="#4F4F4F"/>
</g>
<defs>
<clipPath id="clip0_392_2162">
<rect width="20" height="20" fill="white" transform="translate(10 10)"/>
</clipPath>
<clipPath id="clip1_392_2162">
<rect width="12.6667" height="20" fill="white" transform="translate(158 10)"/>
</clipPath>
<clipPath id="clip2_392_2162">
<rect width="20" height="20" fill="white" transform="translate(226 10)"/>
</clipPath>
<clipPath id="clip3_392_2162">
<rect width="20" height="20" fill="white" transform="translate(442 10)"/>
</clipPath>
<clipPath id="clip4_392_2162">
<rect width="20" height="20" fill="white" transform="translate(46 82)"/>
</clipPath>
<clipPath id="clip5_392_2162">
<rect width="20" height="20" fill="white" transform="translate(406 82)"/>
</clipPath>
</defs>
</svg>
