<svg width="18" height="18" viewBox="0 0 18 18" fill="none" xmlns="http://www.w3.org/2000/svg">
<path d="M9 2.25C5.274 2.25 2.25 5.274 2.25 9C2.25 12.726 5.274 15.75 9 15.75C12.726 15.75 15.75 12.726 15.75 9C15.75 5.274 12.726 2.25 9 2.25ZM7.17075 11.8958L4.97836 9.675C4.91587 9.61251 4.8663 9.53832 4.83248 9.45667C4.79866 9.37502 4.78125 9.28751 4.78125 9.19913C4.78125 9.11075 4.79866 9.02324 4.83248 8.94159C4.8663 8.85993 4.91587 8.78575 4.97836 8.72325C5.04086 8.66076 5.11505 8.61119 5.1967 8.57737C5.27835 8.54355 5.36586 8.52614 5.45424 8.52614C5.54262 8.52614 5.63013 8.54355 5.71178 8.57737C5.79343 8.61119 5.86762 8.66076 5.93011 8.72325L7.65 10.4648L11.3948 6.82509C11.5211 6.69888 11.6922 6.62798 11.8707 6.62798C12.0492 6.62798 12.2204 6.69888 12.3466 6.82509C12.4728 6.9513 12.5437 7.12248 12.5437 7.30096C12.5437 7.47945 12.4728 7.65063 12.3466 7.77684L8.1225 11.8958C8.06005 11.9583 7.98588 12.008 7.90422 12.0418C7.82256 12.0757 7.73503 12.0932 7.64662 12.0932C7.55822 12.0932 7.47069 12.0757 7.38903 12.0418C7.30737 12.008 7.2332 11.9583 7.17075 11.8958Z" fill="#26CC80"/>
</svg>
