<svg width="189" height="185" viewBox="0 0 189 185" fill="none" xmlns="http://www.w3.org/2000/svg">
<path d="M20.055 8.07629C19.5924 4.38052 16.4726 1.51367 12.7037 1.51367C9.78609 1.51367 7.25167 3.24345 6.09456 5.96964C3.82056 6.65897 2.11719 8.83649 2.11719 11.1772C2.11719 14.1375 4.49175 16.5458 7.41046 16.5458H19.0557C21.3911 16.5458 23.2903 14.6196 23.2903 12.2509C23.2887 11.2885 22.9691 10.3543 22.3827 9.59758C21.7963 8.84087 20.9768 8.30527 20.055 8.07629Z" fill="url(#paint0_linear_392_2312)"/>
<path d="M20.055 55.7159C19.5924 52.0202 16.4726 49.1533 12.7037 49.1533C9.78609 49.1533 7.25167 50.8831 6.09456 53.6093C3.82056 54.2986 2.11719 56.4761 2.11719 58.8169C2.11719 61.7771 4.49175 64.1855 7.41046 64.1855H19.0557C21.3911 64.1855 23.2903 62.2592 23.2903 59.8906C23.2887 58.9281 22.9691 57.9939 22.3827 57.2372C21.7963 56.4805 20.9768 55.9449 20.055 55.7159Z" fill="url(#paint1_linear_392_2312)"/>
<path d="M37.5228 31.8956C37.0602 28.1999 33.9403 25.333 30.1715 25.333C27.2539 25.333 24.7194 27.0628 23.5623 29.789C21.2883 30.4783 19.585 32.6558 19.585 34.9965C19.585 37.9568 21.9595 40.3652 24.8782 40.3652H36.5234C38.8588 40.3652 40.7581 38.4389 40.7581 36.0703C40.7564 35.1078 40.4369 34.1736 39.8505 33.4169C39.264 32.6602 38.4445 32.1246 37.5228 31.8956Z" fill="url(#paint2_linear_392_2312)"/>
<path d="M37.5228 79.5353C37.0602 75.8395 33.9403 72.9727 30.1715 72.9727C27.2539 72.9727 24.7194 74.7024 23.5623 77.4286C21.2883 78.118 19.585 80.2955 19.585 82.6362C19.585 85.5965 21.9595 88.0048 24.8782 88.0048H36.5234C38.8588 88.0048 40.7581 86.0786 40.7581 83.7099C40.7564 82.7474 40.4369 81.8133 39.8505 81.0566C39.264 80.2999 38.4445 79.7643 37.5228 79.5353Z" fill="url(#paint3_linear_392_2312)"/>
<path d="M70.0765 31.8956C69.6139 28.1999 66.494 25.333 62.7252 25.333C59.8076 25.333 57.2732 27.0628 56.116 29.789C53.842 30.4783 52.1387 32.6558 52.1387 34.9965C52.1387 37.9568 54.5132 40.3652 57.4319 40.3652H69.0772C71.4126 40.3652 73.3118 38.4389 73.3118 36.0703C73.3102 35.1078 72.9906 34.1736 72.4042 33.4169C71.8178 32.6602 70.9983 32.1246 70.0765 31.8956Z" fill="url(#paint4_linear_392_2312)"/>
<path d="M70.0765 79.5353C69.6139 75.8395 66.494 72.9727 62.7252 72.9727C59.8076 72.9727 57.2732 74.7024 56.116 77.4286C53.842 78.118 52.1387 80.2955 52.1387 82.6362C52.1387 85.5965 54.5132 88.0048 57.4319 88.0048H69.0772C71.4126 88.0048 73.3118 86.0786 73.3118 83.7099C73.3102 82.7474 72.9906 81.8133 72.4042 81.0566C71.8178 80.2999 70.9983 79.7643 70.0765 79.5353Z" fill="url(#paint5_linear_392_2312)"/>
<path d="M102.63 31.8956C102.168 28.1999 99.0478 25.333 95.2789 25.333C92.3613 25.333 89.8269 27.0628 88.6698 29.789C86.3958 30.4783 84.6924 32.6558 84.6924 34.9965C84.6924 37.9568 87.0669 40.3652 89.9857 40.3652H101.631C103.966 40.3652 105.865 38.4389 105.865 36.0703C105.864 35.1078 105.544 34.1736 104.958 33.4169C104.371 32.6602 103.552 32.1246 102.63 31.8956Z" fill="url(#paint6_linear_392_2312)"/>
<path d="M102.63 79.5353C102.168 75.8395 99.0478 72.9727 95.2789 72.9727C92.3613 72.9727 89.8269 74.7024 88.6698 77.4286C86.3958 78.118 84.6924 80.2955 84.6924 82.6362C84.6924 85.5965 87.0669 88.0048 89.9857 88.0048H101.631C103.966 88.0048 105.865 86.0786 105.865 83.7099C105.864 82.7474 105.544 81.8133 104.958 81.0566C104.371 80.2999 103.552 79.7643 102.63 79.5353Z" fill="url(#paint7_linear_392_2312)"/>
<path d="M135.184 31.8956C134.721 28.1999 131.601 25.333 127.833 25.333C124.915 25.333 122.381 27.0628 121.223 29.789C118.949 30.4783 117.246 32.6558 117.246 34.9965C117.246 37.9568 119.621 40.3652 122.539 40.3652H134.185C136.52 40.3652 138.419 38.4389 138.419 36.0703C138.418 35.1078 138.098 34.1736 137.512 33.4169C136.925 32.6602 136.106 32.1246 135.184 31.8956Z" fill="url(#paint8_linear_392_2312)"/>
<path d="M135.184 79.5353C134.721 75.8395 131.601 72.9727 127.833 72.9727C124.915 72.9727 122.381 74.7024 121.223 77.4286C118.949 78.118 117.246 80.2955 117.246 82.6362C117.246 85.5965 119.621 88.0048 122.539 88.0048H134.185C136.52 88.0048 138.419 86.0786 138.419 83.7099C138.418 82.7474 138.098 81.8133 137.512 81.0566C136.925 80.2999 136.106 79.7643 135.184 79.5353Z" fill="url(#paint9_linear_392_2312)"/>
<path d="M167.738 31.8956C167.275 28.1999 164.155 25.333 160.386 25.333C157.469 25.333 154.934 27.0628 153.777 29.789C151.503 30.4783 149.8 32.6558 149.8 34.9965C149.8 37.9568 152.174 40.3652 155.093 40.3652H166.738C169.074 40.3652 170.973 38.4389 170.973 36.0703C170.971 35.1078 170.652 34.1736 170.065 33.4169C169.479 32.6602 168.659 32.1246 167.738 31.8956Z" fill="url(#paint10_linear_392_2312)"/>
<path d="M167.738 79.5353C167.275 75.8395 164.155 72.9727 160.386 72.9727C157.469 72.9727 154.934 74.7024 153.777 77.4286C151.503 78.118 149.8 80.2955 149.8 82.6362C149.8 85.5965 152.174 88.0048 155.093 88.0048H166.738C169.074 88.0048 170.973 86.0786 170.973 83.7099C170.971 82.7474 170.652 81.8133 170.065 81.0566C169.479 80.2999 168.659 79.7643 167.738 79.5353Z" fill="url(#paint11_linear_392_2312)"/>
<path d="M52.6088 8.07629C52.1461 4.38052 49.0263 1.51367 45.2575 1.51367C42.3398 1.51367 39.8054 3.24345 38.6483 5.96964C36.3743 6.65897 34.6709 8.83649 34.6709 11.1772C34.6709 14.1375 37.0455 16.5458 39.9642 16.5458H51.6094C53.9448 16.5458 55.844 14.6196 55.844 12.2509C55.8424 11.2885 55.5228 10.3543 54.9364 9.59758C54.35 8.84087 53.5305 8.30527 52.6088 8.07629Z" fill="url(#paint12_linear_392_2312)"/>
<path d="M52.6088 55.7159C52.1461 52.0202 49.0263 49.1533 45.2575 49.1533C42.3398 49.1533 39.8054 50.8831 38.6483 53.6093C36.3743 54.2986 34.6709 56.4761 34.6709 58.8169C34.6709 61.7771 37.0455 64.1855 39.9642 64.1855H51.6094C53.9448 64.1855 55.844 62.2592 55.844 59.8906C55.8424 58.9281 55.5228 57.9939 54.9364 57.2372C54.35 56.4805 53.5305 55.9449 52.6088 55.7159Z" fill="url(#paint13_linear_392_2312)"/>
<path d="M85.1625 8.07629C84.6998 4.38052 81.58 1.51367 77.8112 1.51367C74.8935 1.51367 72.3591 3.24345 71.202 5.96964C68.928 6.65897 67.2246 8.83649 67.2246 11.1772C67.2246 14.1375 69.5992 16.5458 72.5179 16.5458H84.1631C86.4985 16.5458 88.3977 14.6196 88.3977 12.2509C88.3961 11.2885 88.0766 10.3543 87.4901 9.59758C86.9037 8.84087 86.0842 8.30527 85.1625 8.07629Z" fill="url(#paint14_linear_392_2312)"/>
<path d="M85.1625 55.7159C84.6998 52.0202 81.58 49.1533 77.8112 49.1533C74.8935 49.1533 72.3591 50.8831 71.202 53.6093C68.928 54.2986 67.2246 56.4761 67.2246 58.8169C67.2246 61.7771 69.5992 64.1855 72.5179 64.1855H84.1631C86.4985 64.1855 88.3977 62.2592 88.3977 59.8906C88.3961 58.9281 88.0766 57.9939 87.4901 57.2372C86.9037 56.4805 86.0842 55.9449 85.1625 55.7159Z" fill="url(#paint15_linear_392_2312)"/>
<path d="M117.716 8.07629C117.254 4.38052 114.134 1.51367 110.365 1.51367C107.447 1.51367 104.913 3.24345 103.756 5.96964C101.482 6.65897 99.7783 8.83649 99.7783 11.1772C99.7783 14.1375 102.153 16.5458 105.072 16.5458H116.717C119.052 16.5458 120.951 14.6196 120.951 12.2509C120.95 11.2885 120.63 10.3543 120.044 9.59758C119.457 8.84087 118.638 8.30527 117.716 8.07629Z" fill="url(#paint16_linear_392_2312)"/>
<path d="M117.716 55.7159C117.254 52.0202 114.134 49.1533 110.365 49.1533C107.447 49.1533 104.913 50.8831 103.756 53.6093C101.482 54.2986 99.7783 56.4761 99.7783 58.8169C99.7783 61.7771 102.153 64.1855 105.072 64.1855H116.717C119.052 64.1855 120.951 62.2592 120.951 59.8906C120.95 58.9281 120.63 57.9939 120.044 57.2372C119.457 56.4805 118.638 55.9449 117.716 55.7159Z" fill="url(#paint17_linear_392_2312)"/>
<path d="M150.27 8.07629C149.807 4.38052 146.687 1.51367 142.919 1.51367C140.001 1.51367 137.467 3.24345 136.309 5.96964C134.035 6.65897 132.332 8.83649 132.332 11.1772C132.332 14.1375 134.707 16.5458 137.625 16.5458H149.271C151.606 16.5458 153.505 14.6196 153.505 12.2509C153.504 11.2885 153.184 10.3543 152.598 9.59758C152.011 8.84087 151.192 8.30527 150.27 8.07629Z" fill="url(#paint18_linear_392_2312)"/>
<path d="M150.27 55.7159C149.807 52.0202 146.687 49.1533 142.919 49.1533C140.001 49.1533 137.467 50.8831 136.309 53.6093C134.035 54.2986 132.332 56.4761 132.332 58.8169C132.332 61.7771 134.707 64.1855 137.625 64.1855H149.271C151.606 64.1855 153.505 62.2592 153.505 59.8906C153.504 58.9281 153.184 57.9939 152.598 57.2372C152.011 56.4805 151.192 55.9449 150.27 55.7159Z" fill="url(#paint19_linear_392_2312)"/>
<path d="M182.823 8.07629C182.36 4.38052 179.241 1.51367 175.472 1.51367C172.554 1.51367 170.02 3.24345 168.863 5.96964C166.589 6.65897 164.885 8.83649 164.885 11.1772C164.885 14.1375 167.26 16.5458 170.179 16.5458H181.824C184.159 16.5458 186.058 14.6196 186.058 12.2509C186.057 11.2885 185.737 10.3543 185.151 9.59758C184.564 8.84087 183.745 8.30527 182.823 8.07629Z" fill="url(#paint20_linear_392_2312)"/>
<path d="M182.823 55.7159C182.36 52.0202 179.241 49.1533 175.472 49.1533C172.554 49.1533 170.02 50.8831 168.863 53.6093C166.589 54.2986 164.885 56.4761 164.885 58.8169C164.885 61.7771 167.26 64.1855 170.179 64.1855H181.824C184.159 64.1855 186.058 62.2592 186.058 59.8906C186.057 58.9281 185.737 57.9939 185.151 57.2372C184.564 56.4805 183.745 55.9449 182.823 55.7159Z" fill="url(#paint21_linear_392_2312)"/>
<path d="M20.055 103.356C19.5924 99.6598 16.4726 96.793 12.7037 96.793C9.78609 96.793 7.25167 98.5227 6.09456 101.249C3.82056 101.938 2.11719 104.116 2.11719 106.457C2.11719 109.417 4.49175 111.825 7.41046 111.825H19.0557C21.3911 111.825 23.2903 109.899 23.2903 107.53C23.2887 106.568 22.9691 105.634 22.3827 104.877C21.7963 104.12 20.9768 103.585 20.055 103.356Z" fill="url(#paint22_linear_392_2312)"/>
<path d="M20.055 150.995C19.5924 147.299 16.4726 144.433 12.7037 144.433C9.78609 144.433 7.25167 146.162 6.09456 148.889C3.82056 149.578 2.11719 151.755 2.11719 154.096C2.11719 157.056 4.49175 159.465 7.41046 159.465H19.0557C21.3911 159.465 23.2903 157.539 23.2903 155.17C23.2887 154.207 22.9691 153.273 22.3827 152.517C21.7963 151.76 20.9768 151.224 20.055 150.995Z" fill="url(#paint23_linear_392_2312)"/>
<path d="M37.5228 127.175C37.0602 123.479 33.9403 120.612 30.1715 120.612C27.2539 120.612 24.7194 122.342 23.5623 125.068C21.2883 125.758 19.585 127.935 19.585 130.276C19.585 133.236 21.9595 135.644 24.8782 135.644H36.5234C38.8588 135.644 40.7581 133.718 40.7581 131.35C40.7564 130.387 40.4369 129.453 39.8505 128.696C39.264 127.94 38.4445 127.404 37.5228 127.175Z" fill="url(#paint24_linear_392_2312)"/>
<path d="M37.5228 174.815C37.0602 171.119 33.9403 168.252 30.1715 168.252C27.2539 168.252 24.7194 169.982 23.5623 172.708C21.2883 173.397 19.585 175.575 19.585 177.915C19.585 180.876 21.9595 183.284 24.8782 183.284H36.5234C38.8588 183.284 40.7581 181.358 40.7581 178.989C40.7564 178.027 40.4369 177.093 39.8505 176.336C39.264 175.579 38.4445 175.044 37.5228 174.815Z" fill="url(#paint25_linear_392_2312)"/>
<path d="M70.0765 127.175C69.6139 123.479 66.494 120.612 62.7252 120.612C59.8076 120.612 57.2732 122.342 56.116 125.068C53.842 125.758 52.1387 127.935 52.1387 130.276C52.1387 133.236 54.5132 135.644 57.4319 135.644H69.0772C71.4126 135.644 73.3118 133.718 73.3118 131.35C73.3102 130.387 72.9906 129.453 72.4042 128.696C71.8178 127.94 70.9983 127.404 70.0765 127.175Z" fill="url(#paint26_linear_392_2312)"/>
<path d="M70.0765 174.815C69.6139 171.119 66.494 168.252 62.7252 168.252C59.8076 168.252 57.2732 169.982 56.116 172.708C53.842 173.397 52.1387 175.575 52.1387 177.915C52.1387 180.876 54.5132 183.284 57.4319 183.284H69.0772C71.4126 183.284 73.3118 181.358 73.3118 178.989C73.3102 178.027 72.9906 177.093 72.4042 176.336C71.8178 175.579 70.9983 175.044 70.0765 174.815Z" fill="url(#paint27_linear_392_2312)"/>
<path d="M102.63 127.175C102.168 123.479 99.0478 120.612 95.2789 120.612C92.3613 120.612 89.8269 122.342 88.6698 125.068C86.3958 125.758 84.6924 127.935 84.6924 130.276C84.6924 133.236 87.0669 135.644 89.9857 135.644H101.631C103.966 135.644 105.865 133.718 105.865 131.35C105.864 130.387 105.544 129.453 104.958 128.696C104.371 127.94 103.552 127.404 102.63 127.175Z" fill="url(#paint28_linear_392_2312)"/>
<path d="M102.63 174.815C102.168 171.119 99.0478 168.252 95.2789 168.252C92.3613 168.252 89.8269 169.982 88.6698 172.708C86.3958 173.397 84.6924 175.575 84.6924 177.915C84.6924 180.876 87.0669 183.284 89.9857 183.284H101.631C103.966 183.284 105.865 181.358 105.865 178.989C105.864 178.027 105.544 177.093 104.958 176.336C104.371 175.579 103.552 175.044 102.63 174.815Z" fill="url(#paint29_linear_392_2312)"/>
<path d="M135.184 127.175C134.721 123.479 131.601 120.612 127.833 120.612C124.915 120.612 122.381 122.342 121.223 125.068C118.949 125.758 117.246 127.935 117.246 130.276C117.246 133.236 119.621 135.644 122.539 135.644H134.185C136.52 135.644 138.419 133.718 138.419 131.35C138.418 130.387 138.098 129.453 137.512 128.696C136.925 127.94 136.106 127.404 135.184 127.175Z" fill="url(#paint30_linear_392_2312)"/>
<path d="M135.184 174.815C134.721 171.119 131.601 168.252 127.833 168.252C124.915 168.252 122.381 169.982 121.223 172.708C118.949 173.397 117.246 175.575 117.246 177.915C117.246 180.876 119.621 183.284 122.539 183.284H134.185C136.52 183.284 138.419 181.358 138.419 178.989C138.418 178.027 138.098 177.093 137.512 176.336C136.925 175.579 136.106 175.044 135.184 174.815Z" fill="url(#paint31_linear_392_2312)"/>
<path d="M167.738 127.175C167.275 123.479 164.155 120.612 160.386 120.612C157.469 120.612 154.934 122.342 153.777 125.068C151.503 125.758 149.8 127.935 149.8 130.276C149.8 133.236 152.174 135.644 155.093 135.644H166.738C169.074 135.644 170.973 133.718 170.973 131.35C170.971 130.387 170.652 129.453 170.065 128.696C169.479 127.94 168.659 127.404 167.738 127.175Z" fill="url(#paint32_linear_392_2312)"/>
<path d="M167.738 174.815C167.275 171.119 164.155 168.252 160.386 168.252C157.469 168.252 154.934 169.982 153.777 172.708C151.503 173.397 149.8 175.575 149.8 177.915C149.8 180.876 152.174 183.284 155.093 183.284H166.738C169.074 183.284 170.973 181.358 170.973 178.989C170.971 178.027 170.652 177.093 170.065 176.336C169.479 175.579 168.659 175.044 167.738 174.815Z" fill="url(#paint33_linear_392_2312)"/>
<path d="M52.6088 103.356C52.1461 99.6598 49.0263 96.793 45.2575 96.793C42.3398 96.793 39.8054 98.5227 38.6483 101.249C36.3743 101.938 34.6709 104.116 34.6709 106.457C34.6709 109.417 37.0455 111.825 39.9642 111.825H51.6094C53.9448 111.825 55.844 109.899 55.844 107.53C55.8424 106.568 55.5228 105.634 54.9364 104.877C54.35 104.12 53.5305 103.585 52.6088 103.356Z" fill="url(#paint34_linear_392_2312)"/>
<path d="M52.6088 150.995C52.1461 147.299 49.0263 144.433 45.2575 144.433C42.3398 144.433 39.8054 146.162 38.6483 148.889C36.3743 149.578 34.6709 151.755 34.6709 154.096C34.6709 157.056 37.0455 159.465 39.9642 159.465H51.6094C53.9448 159.465 55.844 157.539 55.844 155.17C55.8424 154.207 55.5228 153.273 54.9364 152.517C54.35 151.76 53.5305 151.224 52.6088 150.995Z" fill="url(#paint35_linear_392_2312)"/>
<path d="M85.1625 103.356C84.6998 99.6598 81.58 96.793 77.8112 96.793C74.8935 96.793 72.3591 98.5227 71.202 101.249C68.928 101.938 67.2246 104.116 67.2246 106.457C67.2246 109.417 69.5992 111.825 72.5179 111.825H84.1631C86.4985 111.825 88.3977 109.899 88.3977 107.53C88.3961 106.568 88.0766 105.634 87.4901 104.877C86.9037 104.12 86.0842 103.585 85.1625 103.356Z" fill="url(#paint36_linear_392_2312)"/>
<path d="M85.1625 150.995C84.6998 147.299 81.58 144.433 77.8112 144.433C74.8935 144.433 72.3591 146.162 71.202 148.889C68.928 149.578 67.2246 151.755 67.2246 154.096C67.2246 157.056 69.5992 159.465 72.5179 159.465H84.1631C86.4985 159.465 88.3977 157.539 88.3977 155.17C88.3961 154.207 88.0766 153.273 87.4901 152.517C86.9037 151.76 86.0842 151.224 85.1625 150.995Z" fill="url(#paint37_linear_392_2312)"/>
<path d="M117.716 103.356C117.254 99.6598 114.134 96.793 110.365 96.793C107.447 96.793 104.913 98.5227 103.756 101.249C101.482 101.938 99.7783 104.116 99.7783 106.457C99.7783 109.417 102.153 111.825 105.072 111.825H116.717C119.052 111.825 120.951 109.899 120.951 107.53C120.95 106.568 120.63 105.634 120.044 104.877C119.457 104.12 118.638 103.585 117.716 103.356Z" fill="url(#paint38_linear_392_2312)"/>
<path d="M117.716 150.995C117.254 147.299 114.134 144.433 110.365 144.433C107.447 144.433 104.913 146.162 103.756 148.889C101.482 149.578 99.7783 151.755 99.7783 154.096C99.7783 157.056 102.153 159.465 105.072 159.465H116.717C119.052 159.465 120.951 157.539 120.951 155.17C120.95 154.207 120.63 153.273 120.044 152.517C119.457 151.76 118.638 151.224 117.716 150.995Z" fill="url(#paint39_linear_392_2312)"/>
<path d="M150.27 103.356C149.807 99.6598 146.687 96.793 142.919 96.793C140.001 96.793 137.467 98.5227 136.309 101.249C134.035 101.938 132.332 104.116 132.332 106.457C132.332 109.417 134.707 111.825 137.625 111.825H149.271C151.606 111.825 153.505 109.899 153.505 107.53C153.504 106.568 153.184 105.634 152.598 104.877C152.011 104.12 151.192 103.585 150.27 103.356Z" fill="url(#paint40_linear_392_2312)"/>
<path d="M150.27 150.995C149.807 147.299 146.687 144.433 142.919 144.433C140.001 144.433 137.467 146.162 136.309 148.889C134.035 149.578 132.332 151.755 132.332 154.096C132.332 157.056 134.707 159.465 137.625 159.465H149.271C151.606 159.465 153.505 157.539 153.505 155.17C153.504 154.207 153.184 153.273 152.598 152.517C152.011 151.76 151.192 151.224 150.27 150.995Z" fill="url(#paint41_linear_392_2312)"/>
<path d="M182.823 103.356C182.36 99.6598 179.241 96.793 175.472 96.793C172.554 96.793 170.02 98.5227 168.863 101.249C166.589 101.938 164.885 104.116 164.885 106.457C164.885 109.417 167.26 111.825 170.179 111.825H181.824C184.159 111.825 186.058 109.899 186.058 107.53C186.057 106.568 185.737 105.634 185.151 104.877C184.564 104.12 183.745 103.585 182.823 103.356Z" fill="url(#paint42_linear_392_2312)"/>
<path d="M182.823 150.995C182.36 147.299 179.241 144.433 175.472 144.433C172.554 144.433 170.02 146.162 168.863 148.889C166.589 149.578 164.885 151.755 164.885 154.096C164.885 157.056 167.26 159.465 170.179 159.465H181.824C184.159 159.465 186.058 157.539 186.058 155.17C186.057 154.207 185.737 153.273 185.151 152.517C184.564 151.76 183.745 151.224 182.823 150.995Z" fill="url(#paint43_linear_392_2312)"/>
<defs>
<linearGradient id="paint0_linear_392_2312" x1="12.6587" y1="-1.36278" x2="12.6587" y2="21.2169" gradientUnits="userSpaceOnUse">
<stop stop-color="#00B9FF"/>
<stop offset="1" stop-color="#0068B5"/>
</linearGradient>
<linearGradient id="paint1_linear_392_2312" x1="12.6587" y1="46.2769" x2="12.6587" y2="68.8565" gradientUnits="userSpaceOnUse">
<stop stop-color="#00B9FF"/>
<stop offset="1" stop-color="#0068B5"/>
</linearGradient>
<linearGradient id="paint2_linear_392_2312" x1="30.1265" y1="22.4566" x2="30.1265" y2="45.0362" gradientUnits="userSpaceOnUse">
<stop stop-color="#00B9FF"/>
<stop offset="1" stop-color="#0068B5"/>
</linearGradient>
<linearGradient id="paint3_linear_392_2312" x1="30.1265" y1="70.0962" x2="30.1265" y2="92.6759" gradientUnits="userSpaceOnUse">
<stop stop-color="#00B9FF"/>
<stop offset="1" stop-color="#0068B5"/>
</linearGradient>
<linearGradient id="paint4_linear_392_2312" x1="62.6802" y1="22.4566" x2="62.6802" y2="45.0362" gradientUnits="userSpaceOnUse">
<stop stop-color="#00B9FF"/>
<stop offset="1" stop-color="#0068B5"/>
</linearGradient>
<linearGradient id="paint5_linear_392_2312" x1="62.6802" y1="70.0962" x2="62.6802" y2="92.6759" gradientUnits="userSpaceOnUse">
<stop stop-color="#00B9FF"/>
<stop offset="1" stop-color="#0068B5"/>
</linearGradient>
<linearGradient id="paint6_linear_392_2312" x1="95.2339" y1="22.4566" x2="95.2339" y2="45.0362" gradientUnits="userSpaceOnUse">
<stop stop-color="#00B9FF"/>
<stop offset="1" stop-color="#0068B5"/>
</linearGradient>
<linearGradient id="paint7_linear_392_2312" x1="95.2339" y1="70.0962" x2="95.2339" y2="92.6759" gradientUnits="userSpaceOnUse">
<stop stop-color="#00B9FF"/>
<stop offset="1" stop-color="#0068B5"/>
</linearGradient>
<linearGradient id="paint8_linear_392_2312" x1="127.788" y1="22.4566" x2="127.788" y2="45.0362" gradientUnits="userSpaceOnUse">
<stop stop-color="#00B9FF"/>
<stop offset="1" stop-color="#0068B5"/>
</linearGradient>
<linearGradient id="paint9_linear_392_2312" x1="127.788" y1="70.0962" x2="127.788" y2="92.6759" gradientUnits="userSpaceOnUse">
<stop stop-color="#00B9FF"/>
<stop offset="1" stop-color="#0068B5"/>
</linearGradient>
<linearGradient id="paint10_linear_392_2312" x1="160.341" y1="22.4566" x2="160.341" y2="45.0362" gradientUnits="userSpaceOnUse">
<stop stop-color="#00B9FF"/>
<stop offset="1" stop-color="#0068B5"/>
</linearGradient>
<linearGradient id="paint11_linear_392_2312" x1="160.341" y1="70.0962" x2="160.341" y2="92.6759" gradientUnits="userSpaceOnUse">
<stop stop-color="#00B9FF"/>
<stop offset="1" stop-color="#0068B5"/>
</linearGradient>
<linearGradient id="paint12_linear_392_2312" x1="45.2124" y1="-1.36278" x2="45.2124" y2="21.2169" gradientUnits="userSpaceOnUse">
<stop stop-color="#00B9FF"/>
<stop offset="1" stop-color="#0068B5"/>
</linearGradient>
<linearGradient id="paint13_linear_392_2312" x1="45.2124" y1="46.2769" x2="45.2124" y2="68.8565" gradientUnits="userSpaceOnUse">
<stop stop-color="#00B9FF"/>
<stop offset="1" stop-color="#0068B5"/>
</linearGradient>
<linearGradient id="paint14_linear_392_2312" x1="77.7661" y1="-1.36278" x2="77.7661" y2="21.2169" gradientUnits="userSpaceOnUse">
<stop stop-color="#00B9FF"/>
<stop offset="1" stop-color="#0068B5"/>
</linearGradient>
<linearGradient id="paint15_linear_392_2312" x1="77.7661" y1="46.2769" x2="77.7661" y2="68.8565" gradientUnits="userSpaceOnUse">
<stop stop-color="#00B9FF"/>
<stop offset="1" stop-color="#0068B5"/>
</linearGradient>
<linearGradient id="paint16_linear_392_2312" x1="110.32" y1="-1.36278" x2="110.32" y2="21.2169" gradientUnits="userSpaceOnUse">
<stop stop-color="#00B9FF"/>
<stop offset="1" stop-color="#0068B5"/>
</linearGradient>
<linearGradient id="paint17_linear_392_2312" x1="110.32" y1="46.2769" x2="110.32" y2="68.8565" gradientUnits="userSpaceOnUse">
<stop stop-color="#00B9FF"/>
<stop offset="1" stop-color="#0068B5"/>
</linearGradient>
<linearGradient id="paint18_linear_392_2312" x1="142.874" y1="-1.36278" x2="142.874" y2="21.2169" gradientUnits="userSpaceOnUse">
<stop stop-color="#00B9FF"/>
<stop offset="1" stop-color="#0068B5"/>
</linearGradient>
<linearGradient id="paint19_linear_392_2312" x1="142.874" y1="46.2769" x2="142.874" y2="68.8565" gradientUnits="userSpaceOnUse">
<stop stop-color="#00B9FF"/>
<stop offset="1" stop-color="#0068B5"/>
</linearGradient>
<linearGradient id="paint20_linear_392_2312" x1="175.427" y1="-1.36278" x2="175.427" y2="21.2169" gradientUnits="userSpaceOnUse">
<stop stop-color="#00B9FF"/>
<stop offset="1" stop-color="#0068B5"/>
</linearGradient>
<linearGradient id="paint21_linear_392_2312" x1="175.427" y1="46.2769" x2="175.427" y2="68.8565" gradientUnits="userSpaceOnUse">
<stop stop-color="#00B9FF"/>
<stop offset="1" stop-color="#0068B5"/>
</linearGradient>
<linearGradient id="paint22_linear_392_2312" x1="12.6587" y1="93.9165" x2="12.6587" y2="116.496" gradientUnits="userSpaceOnUse">
<stop stop-color="#00B9FF"/>
<stop offset="1" stop-color="#0068B5"/>
</linearGradient>
<linearGradient id="paint23_linear_392_2312" x1="12.6587" y1="141.556" x2="12.6587" y2="164.136" gradientUnits="userSpaceOnUse">
<stop stop-color="#00B9FF"/>
<stop offset="1" stop-color="#0068B5"/>
</linearGradient>
<linearGradient id="paint24_linear_392_2312" x1="30.1265" y1="117.736" x2="30.1265" y2="140.316" gradientUnits="userSpaceOnUse">
<stop stop-color="#00B9FF"/>
<stop offset="1" stop-color="#0068B5"/>
</linearGradient>
<linearGradient id="paint25_linear_392_2312" x1="30.1265" y1="165.376" x2="30.1265" y2="187.955" gradientUnits="userSpaceOnUse">
<stop stop-color="#00B9FF"/>
<stop offset="1" stop-color="#0068B5"/>
</linearGradient>
<linearGradient id="paint26_linear_392_2312" x1="62.6802" y1="117.736" x2="62.6802" y2="140.316" gradientUnits="userSpaceOnUse">
<stop stop-color="#00B9FF"/>
<stop offset="1" stop-color="#0068B5"/>
</linearGradient>
<linearGradient id="paint27_linear_392_2312" x1="62.6802" y1="165.376" x2="62.6802" y2="187.955" gradientUnits="userSpaceOnUse">
<stop stop-color="#00B9FF"/>
<stop offset="1" stop-color="#0068B5"/>
</linearGradient>
<linearGradient id="paint28_linear_392_2312" x1="95.2339" y1="117.736" x2="95.2339" y2="140.316" gradientUnits="userSpaceOnUse">
<stop stop-color="#00B9FF"/>
<stop offset="1" stop-color="#0068B5"/>
</linearGradient>
<linearGradient id="paint29_linear_392_2312" x1="95.2339" y1="165.376" x2="95.2339" y2="187.955" gradientUnits="userSpaceOnUse">
<stop stop-color="#00B9FF"/>
<stop offset="1" stop-color="#0068B5"/>
</linearGradient>
<linearGradient id="paint30_linear_392_2312" x1="127.788" y1="117.736" x2="127.788" y2="140.316" gradientUnits="userSpaceOnUse">
<stop stop-color="#00B9FF"/>
<stop offset="1" stop-color="#0068B5"/>
</linearGradient>
<linearGradient id="paint31_linear_392_2312" x1="127.788" y1="165.376" x2="127.788" y2="187.955" gradientUnits="userSpaceOnUse">
<stop stop-color="#00B9FF"/>
<stop offset="1" stop-color="#0068B5"/>
</linearGradient>
<linearGradient id="paint32_linear_392_2312" x1="160.341" y1="117.736" x2="160.341" y2="140.316" gradientUnits="userSpaceOnUse">
<stop stop-color="#00B9FF"/>
<stop offset="1" stop-color="#0068B5"/>
</linearGradient>
<linearGradient id="paint33_linear_392_2312" x1="160.341" y1="165.376" x2="160.341" y2="187.955" gradientUnits="userSpaceOnUse">
<stop stop-color="#00B9FF"/>
<stop offset="1" stop-color="#0068B5"/>
</linearGradient>
<linearGradient id="paint34_linear_392_2312" x1="45.2124" y1="93.9165" x2="45.2124" y2="116.496" gradientUnits="userSpaceOnUse">
<stop stop-color="#00B9FF"/>
<stop offset="1" stop-color="#0068B5"/>
</linearGradient>
<linearGradient id="paint35_linear_392_2312" x1="45.2124" y1="141.556" x2="45.2124" y2="164.136" gradientUnits="userSpaceOnUse">
<stop stop-color="#00B9FF"/>
<stop offset="1" stop-color="#0068B5"/>
</linearGradient>
<linearGradient id="paint36_linear_392_2312" x1="77.7661" y1="93.9165" x2="77.7661" y2="116.496" gradientUnits="userSpaceOnUse">
<stop stop-color="#00B9FF"/>
<stop offset="1" stop-color="#0068B5"/>
</linearGradient>
<linearGradient id="paint37_linear_392_2312" x1="77.7661" y1="141.556" x2="77.7661" y2="164.136" gradientUnits="userSpaceOnUse">
<stop stop-color="#00B9FF"/>
<stop offset="1" stop-color="#0068B5"/>
</linearGradient>
<linearGradient id="paint38_linear_392_2312" x1="110.32" y1="93.9165" x2="110.32" y2="116.496" gradientUnits="userSpaceOnUse">
<stop stop-color="#00B9FF"/>
<stop offset="1" stop-color="#0068B5"/>
</linearGradient>
<linearGradient id="paint39_linear_392_2312" x1="110.32" y1="141.556" x2="110.32" y2="164.136" gradientUnits="userSpaceOnUse">
<stop stop-color="#00B9FF"/>
<stop offset="1" stop-color="#0068B5"/>
</linearGradient>
<linearGradient id="paint40_linear_392_2312" x1="142.874" y1="93.9165" x2="142.874" y2="116.496" gradientUnits="userSpaceOnUse">
<stop stop-color="#00B9FF"/>
<stop offset="1" stop-color="#0068B5"/>
</linearGradient>
<linearGradient id="paint41_linear_392_2312" x1="142.874" y1="141.556" x2="142.874" y2="164.136" gradientUnits="userSpaceOnUse">
<stop stop-color="#00B9FF"/>
<stop offset="1" stop-color="#0068B5"/>
</linearGradient>
<linearGradient id="paint42_linear_392_2312" x1="175.427" y1="93.9165" x2="175.427" y2="116.496" gradientUnits="userSpaceOnUse">
<stop stop-color="#00B9FF"/>
<stop offset="1" stop-color="#0068B5"/>
</linearGradient>
<linearGradient id="paint43_linear_392_2312" x1="175.427" y1="141.556" x2="175.427" y2="164.136" gradientUnits="userSpaceOnUse">
<stop stop-color="#00B9FF"/>
<stop offset="1" stop-color="#0068B5"/>
</linearGradient>
</defs>
</svg>
