<svg width="84" height="100" viewBox="0 0 84 100" fill="none" xmlns="http://www.w3.org/2000/svg">
<rect x="0.5" y="0.5" width="83" height="39" rx="5.5" fill="white" stroke="#00A3FF"/>
<path d="M24.597 15.504C25.485 15.504 26.261 15.684 26.925 16.044C27.597 16.404 28.113 16.904 28.473 17.544C28.833 18.184 29.013 18.912 29.013 19.728C29.013 20.536 28.833 21.264 28.473 21.912C28.113 22.56 27.597 23.072 26.925 23.448C26.261 23.816 25.485 24 24.597 24H21.057V15.504H24.597ZM24.357 21.624C24.957 21.624 25.433 21.46 25.785 21.132C26.137 20.804 26.313 20.336 26.313 19.728C26.313 19.12 26.137 18.652 25.785 18.324C25.433 17.996 24.957 17.832 24.357 17.832H23.721V21.624H24.357ZM36.527 20.556C36.527 20.74 36.515 20.916 36.491 21.084H32.207C32.247 21.668 32.491 21.96 32.939 21.96C33.227 21.96 33.435 21.828 33.563 21.564H36.383C36.287 22.044 36.083 22.476 35.771 22.86C35.467 23.236 35.079 23.536 34.607 23.76C34.143 23.976 33.631 24.084 33.071 24.084C32.399 24.084 31.799 23.944 31.271 23.664C30.751 23.384 30.343 22.984 30.047 22.464C29.759 21.936 29.615 21.32 29.615 20.616C29.615 19.912 29.759 19.3 30.047 18.78C30.343 18.252 30.751 17.848 31.271 17.568C31.799 17.288 32.399 17.148 33.071 17.148C33.743 17.148 34.339 17.288 34.859 17.568C35.387 17.84 35.795 18.232 36.083 18.744C36.379 19.256 36.527 19.86 36.527 20.556ZM33.827 19.92C33.827 19.696 33.755 19.528 33.611 19.416C33.467 19.296 33.287 19.236 33.071 19.236C32.599 19.236 32.323 19.464 32.243 19.92H33.827ZM40.0335 18.156C40.2015 17.844 40.4415 17.6 40.7535 17.424C41.0735 17.24 41.4535 17.148 41.8935 17.148C42.4215 17.148 42.8975 17.288 43.3215 17.568C43.7455 17.84 44.0775 18.24 44.3175 18.768C44.5655 19.288 44.6895 19.904 44.6895 20.616C44.6895 21.328 44.5655 21.948 44.3175 22.476C44.0775 22.996 43.7455 23.396 43.3215 23.676C42.8975 23.948 42.4215 24.084 41.8935 24.084C41.4535 24.084 41.0735 23.996 40.7535 23.82C40.4415 23.636 40.2015 23.388 40.0335 23.076V27.24H37.3695V17.232H40.0335V18.156ZM41.9895 20.616C41.9895 20.256 41.8975 19.976 41.7135 19.776C41.5295 19.576 41.2935 19.476 41.0055 19.476C40.7175 19.476 40.4815 19.576 40.2975 19.776C40.1135 19.976 40.0215 20.256 40.0215 20.616C40.0215 20.976 40.1135 21.256 40.2975 21.456C40.4815 21.656 40.7175 21.756 41.0055 21.756C41.2935 21.756 41.5295 21.656 41.7135 21.456C41.8975 21.256 41.9895 20.976 41.9895 20.616ZM48.1898 15.12V24H45.5258V15.12H48.1898ZM52.609 24.084C51.929 24.084 51.317 23.944 50.773 23.664C50.229 23.384 49.801 22.984 49.489 22.464C49.185 21.936 49.033 21.32 49.033 20.616C49.033 19.912 49.185 19.3 49.489 18.78C49.801 18.252 50.229 17.848 50.773 17.568C51.317 17.288 51.929 17.148 52.609 17.148C53.289 17.148 53.901 17.288 54.445 17.568C54.989 17.848 55.413 18.252 55.717 18.78C56.029 19.3 56.185 19.912 56.185 20.616C56.185 21.32 56.029 21.936 55.717 22.464C55.413 22.984 54.989 23.384 54.445 23.664C53.901 23.944 53.289 24.084 52.609 24.084ZM52.609 21.78C52.857 21.78 53.065 21.684 53.233 21.492C53.401 21.292 53.485 21 53.485 20.616C53.485 20.232 53.401 19.944 53.233 19.752C53.065 19.552 52.857 19.452 52.609 19.452C52.361 19.452 52.153 19.552 51.985 19.752C51.817 19.944 51.733 20.232 51.733 20.616C51.733 21 51.813 21.292 51.973 21.492C52.141 21.684 52.353 21.78 52.609 21.78ZM64.6659 17.232L60.3339 27.24H57.4179L59.1219 23.664L56.3019 17.232H59.2659L60.5379 20.664L61.7259 17.232H64.6659Z" fill="#4F4F4F"/>
<rect x="0.5" y="60.5" width="83" height="39" rx="5.5" fill="white" stroke="#00A3FF"/>
<path d="M23.4866 69.92V77H21.2766V73.47L20.1866 77H18.2866L17.1966 73.47V77H14.9766V69.92H17.6966L19.2566 74.17L20.7766 69.92H23.4866ZM24.1883 74.18C24.1883 73.5867 24.2883 73.0733 24.4883 72.64C24.6949 72.2 24.9749 71.8667 25.3283 71.64C25.6816 71.4067 26.0783 71.29 26.5183 71.29C26.8849 71.29 27.2016 71.3667 27.4683 71.52C27.7349 71.6667 27.9383 71.87 28.0783 72.13V71.36H30.2883V77H28.0783V76.23C27.9383 76.49 27.7349 76.6967 27.4683 76.85C27.2016 76.9967 26.8849 77.07 26.5183 77.07C26.0783 77.07 25.6816 76.9567 25.3283 76.73C24.9749 76.4967 24.6949 76.1633 24.4883 75.73C24.2883 75.29 24.1883 74.7733 24.1883 74.18ZM28.0783 74.18C28.0783 73.88 28.0016 73.6467 27.8483 73.48C27.6949 73.3133 27.4983 73.23 27.2583 73.23C27.0183 73.23 26.8216 73.3133 26.6683 73.48C26.5149 73.6467 26.4383 73.88 26.4383 74.18C26.4383 74.48 26.5149 74.7133 26.6683 74.88C26.8216 75.0467 27.0183 75.13 27.2583 75.13C27.4983 75.13 27.6949 75.0467 27.8483 74.88C28.0016 74.7133 28.0783 74.48 28.0783 74.18ZM35.2352 71.32C35.8818 71.32 36.3852 71.5367 36.7452 71.97C37.1118 72.4033 37.2952 72.99 37.2952 73.73V77H35.0852V74.01C35.0852 73.7433 35.0118 73.5333 34.8652 73.38C34.7252 73.22 34.5352 73.14 34.2952 73.14C34.0485 73.14 33.8552 73.22 33.7152 73.38C33.5752 73.5333 33.5052 73.7433 33.5052 74.01V77H31.2852V71.36H33.5052V72.22C33.6785 71.9533 33.9085 71.7367 34.1952 71.57C34.4885 71.4033 34.8352 71.32 35.2352 71.32ZM37.9578 74.18C37.9578 73.5867 38.0578 73.0733 38.2578 72.64C38.4645 72.2 38.7445 71.8667 39.0978 71.64C39.4511 71.4067 39.8478 71.29 40.2878 71.29C40.6545 71.29 40.9711 71.3667 41.2378 71.52C41.5045 71.6667 41.7078 71.87 41.8478 72.13V71.36H44.0578V77H41.8478V76.23C41.7078 76.49 41.5045 76.6967 41.2378 76.85C40.9711 76.9967 40.6545 77.07 40.2878 77.07C39.8478 77.07 39.4511 76.9567 39.0978 76.73C38.7445 76.4967 38.4645 76.1633 38.2578 75.73C38.0578 75.29 37.9578 74.7733 37.9578 74.18ZM41.8478 74.18C41.8478 73.88 41.7711 73.6467 41.6178 73.48C41.4645 73.3133 41.2678 73.23 41.0278 73.23C40.7878 73.23 40.5911 73.3133 40.4378 73.48C40.2845 73.6467 40.2078 73.88 40.2078 74.18C40.2078 74.48 40.2845 74.7133 40.4378 74.88C40.5911 75.0467 40.7878 75.13 41.0278 75.13C41.2678 75.13 41.4645 75.0467 41.6178 74.88C41.7711 74.7133 41.8478 74.48 41.8478 74.18ZM47.0847 71.29C47.4514 71.29 47.768 71.3667 48.0347 71.52C48.3014 71.6667 48.5047 71.87 48.6447 72.13V71.36H50.8547V76.9C50.8547 77.4267 50.758 77.9067 50.5647 78.34C50.3714 78.7733 50.058 79.12 49.6247 79.38C49.198 79.64 48.648 79.77 47.9747 79.77C47.068 79.77 46.348 79.5567 45.8147 79.13C45.288 78.71 44.988 78.1367 44.9147 77.41H47.0947C47.1547 77.7033 47.3947 77.85 47.8147 77.85C48.0747 77.85 48.278 77.7833 48.4247 77.65C48.5714 77.5167 48.6447 77.2667 48.6447 76.9V76.23C48.5047 76.49 48.3014 76.6967 48.0347 76.85C47.768 76.9967 47.4514 77.07 47.0847 77.07C46.6447 77.07 46.248 76.9567 45.8947 76.73C45.5414 76.4967 45.2614 76.1633 45.0547 75.73C44.8547 75.29 44.7547 74.7733 44.7547 74.18C44.7547 73.5867 44.8547 73.0733 45.0547 72.64C45.2614 72.2 45.5414 71.8667 45.8947 71.64C46.248 71.4067 46.6447 71.29 47.0847 71.29ZM48.6447 74.18C48.6447 73.88 48.568 73.6467 48.4147 73.48C48.2614 73.3133 48.0647 73.23 47.8247 73.23C47.5847 73.23 47.388 73.3133 47.2347 73.48C47.0814 73.6467 47.0047 73.88 47.0047 74.18C47.0047 74.48 47.0814 74.7133 47.2347 74.88C47.388 75.0467 47.5847 75.13 47.8247 75.13C48.0647 75.13 48.2614 75.0467 48.4147 74.88C48.568 74.7133 48.6447 74.48 48.6447 74.18ZM57.3116 74.13C57.3116 74.2833 57.3016 74.43 57.2816 74.57H53.7116C53.7449 75.0567 53.9482 75.3 54.3216 75.3C54.5616 75.3 54.7349 75.19 54.8416 74.97H57.1916C57.1116 75.37 56.9416 75.73 56.6816 76.05C56.4282 76.3633 56.1049 76.6133 55.7116 76.8C55.3249 76.98 54.8982 77.07 54.4316 77.07C53.8716 77.07 53.3716 76.9533 52.9316 76.72C52.4982 76.4867 52.1582 76.1533 51.9116 75.72C51.6716 75.28 51.5516 74.7667 51.5516 74.18C51.5516 73.5933 51.6716 73.0833 51.9116 72.65C52.1582 72.21 52.4982 71.8733 52.9316 71.64C53.3716 71.4067 53.8716 71.29 54.4316 71.29C54.9916 71.29 55.4882 71.4067 55.9216 71.64C56.3616 71.8667 56.7016 72.1933 56.9416 72.62C57.1882 73.0467 57.3116 73.55 57.3116 74.13ZM55.0616 73.6C55.0616 73.4133 55.0016 73.2733 54.8816 73.18C54.7616 73.08 54.6116 73.03 54.4316 73.03C54.0382 73.03 53.8082 73.22 53.7416 73.6H55.0616ZM65.0829 77L64.5929 76.54C63.9662 76.9133 63.2296 77.1 62.3829 77.1C61.8096 77.1 61.3096 77.01 60.8829 76.83C60.4629 76.65 60.1396 76.3967 59.9129 76.07C59.6862 75.7367 59.5729 75.3567 59.5729 74.93C59.5729 74.5233 59.6762 74.1533 59.8829 73.82C60.0962 73.48 60.4129 73.1933 60.8329 72.96C60.5262 72.58 60.3729 72.18 60.3729 71.76C60.3729 71.4 60.4662 71.07 60.6529 70.77C60.8462 70.47 61.1262 70.2333 61.4929 70.06C61.8596 69.88 62.2962 69.79 62.8029 69.79C63.3162 69.79 63.7529 69.8833 64.1129 70.07C64.4729 70.25 64.7429 70.49 64.9229 70.79C65.1029 71.09 65.1929 71.4133 65.1929 71.76H63.1729C63.1729 71.6333 63.1362 71.54 63.0629 71.48C62.9896 71.4133 62.9029 71.38 62.8029 71.38C62.6962 71.38 62.6029 71.4133 62.5229 71.48C62.4496 71.54 62.4129 71.6267 62.4129 71.74C62.4129 71.9533 62.5596 72.2 62.8529 72.48L64.4629 74.04C64.5562 73.86 64.6396 73.6567 64.7129 73.43L64.7429 73.34H66.8929L66.7929 73.6C66.5396 74.2667 66.2262 74.86 65.8529 75.38L67.5229 77H65.0829ZM62.5429 75.35C62.7829 75.35 63.0062 75.3133 63.2129 75.24L62.0329 74.14C61.9196 74.22 61.8329 74.3133 61.7729 74.42C61.7196 74.52 61.6929 74.6233 61.6929 74.73C61.6929 74.9033 61.7662 75.05 61.9129 75.17C62.0662 75.29 62.2762 75.35 62.5429 75.35ZM15.448 91.07C14.7814 91.07 14.168 90.9133 13.608 90.6C13.0547 90.2867 12.6147 89.8533 12.288 89.3C11.9614 88.7467 11.798 88.1233 11.798 87.43C11.798 86.7367 11.9614 86.1133 12.288 85.56C12.6147 85.0067 13.0547 84.5767 13.608 84.27C14.168 83.9567 14.7814 83.8 15.448 83.8C16.1147 83.8 16.7247 83.9567 17.278 84.27C17.8314 84.5767 18.268 85.0067 18.588 85.56C18.9147 86.1133 19.078 86.7367 19.078 87.43C19.078 88.1233 18.9147 88.7467 18.588 89.3C18.268 89.8533 17.828 90.2867 17.268 90.6C16.7147 90.9133 16.108 91.07 15.448 91.07ZM15.448 89C15.888 89 16.228 88.86 16.468 88.58C16.708 88.2933 16.828 87.91 16.828 87.43C16.828 86.9433 16.708 86.56 16.468 86.28C16.228 85.9933 15.888 85.85 15.448 85.85C15.0014 85.85 14.658 85.9933 14.418 86.28C14.178 86.56 14.058 86.9433 14.058 87.43C14.058 87.91 14.178 88.2933 14.418 88.58C14.658 88.86 15.0014 89 15.448 89ZM22.0989 86.13C22.2389 85.87 22.4389 85.6667 22.6989 85.52C22.9656 85.3667 23.2822 85.29 23.6489 85.29C24.0889 85.29 24.4856 85.4067 24.8389 85.64C25.1922 85.8667 25.4689 86.2 25.6689 86.64C25.8756 87.0733 25.9789 87.5867 25.9789 88.18C25.9789 88.7733 25.8756 89.29 25.6689 89.73C25.4689 90.1633 25.1922 90.4967 24.8389 90.73C24.4856 90.9567 24.0889 91.07 23.6489 91.07C23.2822 91.07 22.9656 90.9967 22.6989 90.85C22.4389 90.6967 22.2389 90.49 22.0989 90.23V93.7H19.8789V85.36H22.0989V86.13ZM23.7289 88.18C23.7289 87.88 23.6522 87.6467 23.4989 87.48C23.3456 87.3133 23.1489 87.23 22.9089 87.23C22.6689 87.23 22.4722 87.3133 22.3189 87.48C22.1656 87.6467 22.0889 87.88 22.0889 88.18C22.0889 88.48 22.1656 88.7133 22.3189 88.88C22.4722 89.0467 22.6689 89.13 22.9089 89.13C23.1489 89.13 23.3456 89.0467 23.4989 88.88C23.6522 88.7133 23.7289 88.48 23.7289 88.18ZM32.1358 88.13C32.1358 88.2833 32.1258 88.43 32.1058 88.57H28.5358C28.5691 89.0567 28.7724 89.3 29.1458 89.3C29.3858 89.3 29.5591 89.19 29.6658 88.97H32.0158C31.9358 89.37 31.7658 89.73 31.5058 90.05C31.2524 90.3633 30.9291 90.6133 30.5358 90.8C30.1491 90.98 29.7224 91.07 29.2558 91.07C28.6958 91.07 28.1958 90.9533 27.7558 90.72C27.3224 90.4867 26.9824 90.1533 26.7358 89.72C26.4958 89.28 26.3758 88.7667 26.3758 88.18C26.3758 87.5933 26.4958 87.0833 26.7358 86.65C26.9824 86.21 27.3224 85.8733 27.7558 85.64C28.1958 85.4067 28.6958 85.29 29.2558 85.29C29.8158 85.29 30.3124 85.4067 30.7458 85.64C31.1858 85.8667 31.5258 86.1933 31.7658 86.62C32.0124 87.0467 32.1358 87.55 32.1358 88.13ZM29.8858 87.6C29.8858 87.4133 29.8258 87.2733 29.7058 87.18C29.5858 87.08 29.4358 87.03 29.2558 87.03C28.8624 87.03 28.6324 87.22 28.5658 87.6H29.8858ZM35.0579 86.4C35.2846 86.0733 35.5612 85.8133 35.8879 85.62C36.2146 85.42 36.5546 85.32 36.9079 85.32V87.69H36.2779C35.8579 87.69 35.5479 87.7633 35.3479 87.91C35.1546 88.0567 35.0579 88.3167 35.0579 88.69V91H32.8379V85.36H35.0579V86.4ZM37.2059 88.18C37.2059 87.5867 37.3059 87.0733 37.5059 86.64C37.7125 86.2 37.9925 85.8667 38.3459 85.64C38.6992 85.4067 39.0959 85.29 39.5359 85.29C39.9025 85.29 40.2192 85.3667 40.4859 85.52C40.7525 85.6667 40.9559 85.87 41.0959 86.13V85.36H43.3059V91H41.0959V90.23C40.9559 90.49 40.7525 90.6967 40.4859 90.85C40.2192 90.9967 39.9025 91.07 39.5359 91.07C39.0959 91.07 38.6992 90.9567 38.3459 90.73C37.9925 90.4967 37.7125 90.1633 37.5059 89.73C37.3059 89.29 37.2059 88.7733 37.2059 88.18ZM41.0959 88.18C41.0959 87.88 41.0192 87.6467 40.8659 87.48C40.7125 87.3133 40.5159 87.23 40.2759 87.23C40.0359 87.23 39.8392 87.3133 39.6859 87.48C39.5325 87.6467 39.4559 87.88 39.4559 88.18C39.4559 88.48 39.5325 88.7133 39.6859 88.88C39.8392 89.0467 40.0359 89.13 40.2759 89.13C40.5159 89.13 40.7125 89.0467 40.8659 88.88C41.0192 88.7133 41.0959 88.48 41.0959 88.18ZM47.8127 89.11V91H46.9727C45.4261 91 44.6527 90.23 44.6527 88.69V87.21H43.9527V85.36H44.6527V84H46.8727V85.36H47.7927V87.21H46.8727V88.73C46.8727 88.8633 46.9027 88.96 46.9627 89.02C47.0294 89.08 47.1361 89.11 47.2827 89.11H47.8127ZM49.7782 84.91C49.3915 84.91 49.0815 84.8067 48.8482 84.6C48.6149 84.3933 48.4982 84.1333 48.4982 83.82C48.4982 83.5 48.6149 83.2367 48.8482 83.03C49.0815 82.8167 49.3915 82.71 49.7782 82.71C50.1582 82.71 50.4649 82.8167 50.6982 83.03C50.9315 83.2367 51.0482 83.5 51.0482 83.82C51.0482 84.1333 50.9315 84.3933 50.6982 84.6C50.4649 84.8067 50.1582 84.91 49.7782 84.91ZM50.8782 85.36V91H48.6582V85.36H50.8782ZM54.5609 91.07C53.9942 91.07 53.4842 90.9533 53.0309 90.72C52.5775 90.4867 52.2209 90.1533 51.9609 89.72C51.7075 89.28 51.5809 88.7667 51.5809 88.18C51.5809 87.5933 51.7075 87.0833 51.9609 86.65C52.2209 86.21 52.5775 85.8733 53.0309 85.64C53.4842 85.4067 53.9942 85.29 54.5609 85.29C55.1275 85.29 55.6375 85.4067 56.0909 85.64C56.5442 85.8733 56.8975 86.21 57.1509 86.65C57.4109 87.0833 57.5409 87.5933 57.5409 88.18C57.5409 88.7667 57.4109 89.28 57.1509 89.72C56.8975 90.1533 56.5442 90.4867 56.0909 90.72C55.6375 90.9533 55.1275 91.07 54.5609 91.07ZM54.5609 89.15C54.7675 89.15 54.9409 89.07 55.0809 88.91C55.2209 88.7433 55.2909 88.5 55.2909 88.18C55.2909 87.86 55.2209 87.62 55.0809 87.46C54.9409 87.2933 54.7675 87.21 54.5609 87.21C54.3542 87.21 54.1809 87.2933 54.0409 87.46C53.9009 87.62 53.8309 87.86 53.8309 88.18C53.8309 88.5 53.8975 88.7433 54.0309 88.91C54.1709 89.07 54.3475 89.15 54.5609 89.15ZM62.1883 85.32C62.8349 85.32 63.3383 85.5367 63.6983 85.97C64.0649 86.4033 64.2483 86.99 64.2483 87.73V91H62.0383V88.01C62.0383 87.7433 61.9649 87.5333 61.8183 87.38C61.6783 87.22 61.4883 87.14 61.2483 87.14C61.0016 87.14 60.8083 87.22 60.6683 87.38C60.5283 87.5333 60.4583 87.7433 60.4583 88.01V91H58.2383V85.36H60.4583V86.22C60.6316 85.9533 60.8616 85.7367 61.1483 85.57C61.4416 85.4033 61.7883 85.32 62.1883 85.32ZM67.7209 91.07C67.1876 91.07 66.7143 90.9833 66.3009 90.81C65.8943 90.6367 65.5709 90.3967 65.3309 90.09C65.0909 89.7833 64.9543 89.4367 64.9209 89.05H67.0509C67.0776 89.2167 67.1476 89.34 67.2609 89.42C67.3809 89.5 67.5309 89.54 67.7109 89.54C67.8243 89.54 67.9143 89.5167 67.9809 89.47C68.0476 89.4167 68.0809 89.3533 68.0809 89.28C68.0809 89.1533 68.0109 89.0633 67.8709 89.01C67.7309 88.9567 67.4943 88.8967 67.1609 88.83C66.7543 88.75 66.4176 88.6633 66.1509 88.57C65.8909 88.4767 65.6609 88.3167 65.4609 88.09C65.2676 87.8633 65.1709 87.55 65.1709 87.15C65.1709 86.8033 65.2609 86.49 65.4409 86.21C65.6276 85.9233 65.9009 85.7 66.2609 85.54C66.6209 85.3733 67.0576 85.29 67.5709 85.29C68.3309 85.29 68.9243 85.4767 69.3509 85.85C69.7843 86.2233 70.0443 86.71 70.1309 87.31H68.1609C68.1276 87.1567 68.0576 87.04 67.9509 86.96C67.8443 86.8733 67.7009 86.83 67.5209 86.83C67.4076 86.83 67.3209 86.8533 67.2609 86.9C67.2009 86.94 67.1709 87.0033 67.1709 87.09C67.1709 87.2033 67.2409 87.29 67.3809 87.35C67.5209 87.4033 67.7443 87.46 68.0509 87.52C68.4576 87.6 68.8009 87.69 69.0809 87.79C69.3609 87.89 69.6043 88.0633 69.8109 88.31C70.0176 88.55 70.1209 88.8833 70.1209 89.31C70.1209 89.6433 70.0243 89.9433 69.8309 90.21C69.6376 90.4767 69.3576 90.6867 68.9909 90.84C68.6309 90.9933 68.2076 91.07 67.7209 91.07Z" fill="#4F4F4F"/>
<path d="M19.5 56C19.5 56.2761 19.7239 56.5 20 56.5C20.2761 56.5 20.5 56.2761 20.5 56L19.5 56ZM20.3536 43.6464C20.1583 43.4512 19.8417 43.4512 19.6464 43.6464L16.4645 46.8284C16.2692 47.0237 16.2692 47.3403 16.4645 47.5355C16.6597 47.7308 16.9763 47.7308 17.1716 47.5355L20 44.7071L22.8284 47.5355C23.0237 47.7308 23.3403 47.7308 23.5355 47.5355C23.7308 47.3403 23.7308 47.0237 23.5355 46.8284L20.3536 43.6464ZM20.5 56L20.5 44L19.5 44L19.5 56L20.5 56Z" fill="#00A3FF"/>
<path d="M64.5 44C64.5 43.7239 64.2761 43.5 64 43.5C63.7239 43.5 63.5 43.7239 63.5 44L64.5 44ZM63.6464 56.3536C63.8417 56.5488 64.1583 56.5488 64.3536 56.3536L67.5355 53.1716C67.7308 52.9763 67.7308 52.6597 67.5355 52.4645C67.3403 52.2692 67.0237 52.2692 66.8284 52.4645L64 55.2929L61.1716 52.4645C60.9763 52.2692 60.6597 52.2692 60.4645 52.4645C60.2692 52.6597 60.2692 52.9763 60.4645 53.1716L63.6464 56.3536ZM63.5 44L63.5 56L64.5 56L64.5 44L63.5 44Z" fill="#00A3FF"/>
</svg>
