<svg xmlns="http://www.w3.org/2000/svg" xmlns:xlink="http://www.w3.org/1999/xlink" width="174.771" height="86.876" viewBox="0 0 174.771 86.876"><defs><linearGradient id="linear-gradient" y1="0.5" x2="1" y2="0.5" gradientUnits="objectBoundingBox"><stop offset="0" stop-color="#f05954"></stop><stop offset="1" stop-color="#ef2e2e"></stop></linearGradient><linearGradient id="linear-gradient-2" x1="0.14" y1="0.5" x2="1" y2="0.5" gradientUnits="objectBoundingBox"><stop offset="0" stop-color="#feca42"></stop><stop offset="0.264" stop-color="#fbbd45"></stop><stop offset="0.648" stop-color="#f8af47"></stop><stop offset="1" stop-color="#f7ab48"></stop></linearGradient><linearGradient id="linear-gradient-3" y1="0.5" x2="1" y2="0.5" gradientUnits="objectBoundingBox"><stop offset="0" stop-color="#405bdd"></stop><stop offset="0.207" stop-color="#4961e6"></stop><stop offset="0.621" stop-color="#566af4"></stop><stop offset="1" stop-color="#5a6df8"></stop></linearGradient><linearGradient id="linear-gradient-4" x1="0.5" y1="1" x2="0.5" gradientUnits="objectBoundingBox"><stop offset="0" stop-color="#2bb90f"></stop><stop offset="0.251" stop-color="#37c319"></stop><stop offset="0.641" stop-color="#45cd24"></stop><stop offset="1" stop-color="#49d128"></stop></linearGradient></defs><g id="LOGO" transform="translate(13073 9260.128)"><g id="Group_20153" data-name="Group 20153" transform="translate(-13073 -9260.128)"><g id="Group_5571" data-name="Group 5571"><path id="Subtraction_7" data-name="Subtraction 7" d="M9.98,59.288h0L4.627,46.94A47.257,47.257,0,0,0,10.5,44.05a27.281,27.281,0,0,0,5.116-3.914L0,0H16.975l6.633,17.979,2,6.8A100.658,100.658,0,0,0,30.026,13.52C31.222,9.892,32.4,5.849,33.973,0H46.945A22.6,22.6,0,0,0,44.7,1.94a23.829,23.829,0,0,0-5.63,8.915,33.539,33.539,0,0,0-1.834,11.39A32.283,32.283,0,0,0,39.049,33.3c-.4.83-.8,1.633-1.2,2.385A48.651,48.651,0,0,1,26.676,50.172a47.349,47.349,0,0,1-16.7,9.116h0ZM41.987,26.679h0a32.447,32.447,0,0,1-.295-4.432,27.619,27.619,0,0,1,2.255-11.5A18.544,18.544,0,0,1,50.4,3.024c-2.448,7.54-5.362,16.244-8.411,23.655Z" transform="translate(0 14.223)" fill="url(#linear-gradient)"></path><path id="Subtraction_9" data-name="Subtraction 9" d="M23.242,45.826a29.709,29.709,0,0,1-9.794-1.516A19.654,19.654,0,0,1,6.142,39.9a19.007,19.007,0,0,1-4.568-7.125A27.722,27.722,0,0,1,0,23.135a29.022,29.022,0,0,1,1.586-9.859,19.362,19.362,0,0,1,4.567-7.26,19.528,19.528,0,0,1,7.3-4.485A29.339,29.339,0,0,1,23.242,0a29.322,29.322,0,0,1,9.795,1.537,19.583,19.583,0,0,1,7.3,4.489,17.54,17.54,0,0,1,1.2,1.31,38.785,38.785,0,0,0-2.6,15.1,37.044,37.044,0,0,0,3.014,15.681,18.168,18.168,0,0,1-1.6,1.782,19.622,19.622,0,0,1-7.3,4.414,29.755,29.755,0,0,1-9.8,1.515Zm0-32.948a6.171,6.171,0,0,0-5.253,2.231c-1.286,1.668-1.912,4.291-1.912,8.026,0,3.57.617,6.077,1.886,7.664,1.157,1.444,2.884,2.145,5.279,2.145A6.3,6.3,0,0,0,28.5,30.8c1.285-1.6,1.91-4.106,1.91-7.664,0-3.729-.628-6.355-1.919-8.024A6.167,6.167,0,0,0,23.242,12.878ZM44.805,33.049h0A36.822,36.822,0,0,1,43.4,22.411a40.116,40.116,0,0,1,1.136-10.087c.132.316.258.64.375.963a28.907,28.907,0,0,1,1.577,9.849,27.762,27.762,0,0,1-1.575,9.635l-.024.064c-.027.071-.053.143-.081.213Z" transform="translate(41.696 13.332)" fill="url(#linear-gradient-2)"></path><path id="Subtraction_11" data-name="Subtraction 11" d="M17.249,59.157a16.159,16.159,0,0,1-6.566-1.333,15.09,15.09,0,0,1-5.5-4.175A20.546,20.546,0,0,1,1.4,46.374,36.853,36.853,0,0,1,0,35.742C0,28.19,1.474,22.451,4.388,18.681c2.746-3.552,6.764-5.353,11.943-5.353a19.283,19.283,0,0,1,7.034,1.132,18.422,18.422,0,0,1,6.486,4.41V0H46.3V16.06h0l-.052.049-.052.052a23.88,23.88,0,0,0-5.636,8.918,33.579,33.579,0,0,0-1.833,11.388c0,8.29,2.589,15.193,7.485,19.961l.049.049.036.035v1.837H29.872V53.359A19.085,19.085,0,0,1,24.75,57.65a12.286,12.286,0,0,1-3.218,1.126,21.168,21.168,0,0,1-4.283.382Zm5.161-32.032a5.439,5.439,0,0,0-4.671,2.029c-1.077,1.423-1.6,3.578-1.6,6.588.01,3.34.6,5.86,1.746,7.487a5.239,5.239,0,0,0,2.054,1.759,6.37,6.37,0,0,0,2.747.563,8.173,8.173,0,0,0,4.2-.967,9.286,9.286,0,0,0,2.967-2.934V31.392C27.573,28.441,25.277,27.125,22.409,27.125ZM46.294,49.367h0a25.161,25.161,0,0,1-3.114-12.9,26.116,26.116,0,0,1,3.114-13.18v26.08Z" transform="translate(85.097)" fill="url(#linear-gradient-3)"></path><g id="Group_818" data-name="Group 818" transform="translate(128.273 13.325)"><g id="Group_817" data-name="Group 817" transform="translate(0 0)"><path id="Subtraction_12" data-name="Subtraction 12" d="M23.243,45.827a29.8,29.8,0,0,1-9.8-1.515,19.661,19.661,0,0,1-7.3-4.414,18.983,18.983,0,0,1-4.56-7.123A27.792,27.792,0,0,1,0,23.135a28.93,28.93,0,0,1,1.577-9.858A19.361,19.361,0,0,1,6.141,6.016a19.57,19.57,0,0,1,7.307-4.485A29.371,29.371,0,0,1,23.243,0a29.319,29.319,0,0,1,9.794,1.538,19.58,19.58,0,0,1,7.306,4.49,19.369,19.369,0,0,1,4.567,7.264,28.887,28.887,0,0,1,1.578,9.847,27.8,27.8,0,0,1-1.575,9.636,18.984,18.984,0,0,1-4.56,7.123,19.661,19.661,0,0,1-7.3,4.414,29.8,29.8,0,0,1-9.805,1.518Zm0-32.949A6.166,6.166,0,0,0,18,15.112c-1.292,1.668-1.92,4.294-1.92,8.023-.011,3.914.731,6.567,2.269,8.108a6.562,6.562,0,0,0,4.9,1.7A6.287,6.287,0,0,0,28.5,30.8c1.286-1.6,1.911-4.1,1.911-7.664,0-3.73-.627-6.355-1.919-8.024a6.171,6.171,0,0,0-5.246-2.232Z" transform="translate(0.007 0.006)" fill="url(#linear-gradient-4)"></path></g></g></g></g><text id="designs" transform="translate(-12995.872 -9180.252)" font-size="26" font-family="SegoeUI, Segoe UI"><tspan x="0" y="0">designs</tspan></text></g></svg>